<!DOCTYPE svg PUBLIC "-//W3C//DTD SVG 20010904//EN" "http://www.w3.org/TR/2001/REC-SVG-20010904/DTD/svg10.dtd">
<svg version="1.0" xmlns="http://www.w3.org/2000/svg" width="256px" height="256px" viewBox="0 0 2560 2560" preserveAspectRatio="xMidYMid meet">
<g id="layer101" fill="#9b9b9b" stroke="none">
 <path d="M443 2542 c-66 -26 -130 -77 -164 -129 -62 -98 -60 -69 -57 -974 l3 -824 22 -48 c31 -66 105 -142 172 -174 l56 -28 495 0 495 0 50 27 c74 39 466 436 497 503 23 50 23 53 28 583 l5 533 35 -23 c19 -13 45 -43 58 -68 l22 -45 -2 -790 -3 -790 -22 -35 c-12 -20 -40 -46 -61 -58 l-40 -22 -631 0 c-673 0 -672 0 -715 49 -17 19 -30 21 -118 21 -98 0 -99 0 -93 -22 22 -74 96 -157 177 -200 l43 -23 700 0 700 0 50 24 c66 33 131 100 163 169 l27 57 3 819 c3 890 3 877 -52 965 -46 73 -158 151 -216 151 -25 0 -27 5 -39 77 -19 118 -94 218 -201 267 l-55 26 -645 -1 c-582 0 -649 -2 -687 -17z m1328 -185 c18 -12 44 -38 56 -56 l23 -34 0 -643 0 -644 -121 0 c-154 0 -190 -11 -254 -75 -64 -63 -75 -100 -75 -249 l0 -116 -427 0 c-395 0 -431 2 -469 19 -47 22 -80 59 -95 110 -7 24 -9 291 -7 816 3 759 4 781 23 813 11 19 38 45 60 58 l40 24 606 0 606 0 34 -23z"/>
 <path d="M634 2070 c-66 -27 -85 -120 -35 -171 l29 -29 499 0 c546 0 527 -2 553 59 17 41 6 92 -26 122 l-26 24 -486 2 c-268 1 -497 -2 -508 -7z"/>
 <path d="M618 1624 c-35 -18 -48 -43 -48 -89 0 -47 13 -71 50 -90 25 -13 101 -15 516 -15 l486 0 35 35 c32 32 35 39 30 78 -4 30 -15 50 -37 70 l-30 27 -488 0 c-410 -1 -491 -3 -514 -16z"/>
 <path d="M599 1171 c-47 -48 -37 -130 21 -164 24 -15 65 -17 315 -17 235 0 291 3 315 15 37 19 50 43 50 95 0 33 -6 48 -29 71 l-29 29 -307 0 -307 0 -29 -29z"/>
 </g>

</svg>