<?xml version="1.0" encoding="UTF-8"?>
<svg width="110px" height="110px" viewBox="0 0 110 110" version="1.1" xmlns="http://www.w3.org/2000/svg" xmlns:xlink="http://www.w3.org/1999/xlink">
    <title>Assignee facing</title>
    <g id="Assignee-facing" stroke="none" stroke-width="1" fill="none" fill-rule="evenodd">
        <circle id="Oval-4-Copy-8" stroke="#0098FF" stroke-width="3" fill="#FFFFFF" cx="55" cy="55" r="53.5"></circle>
        <g id="people-arrows-solid" transform="translate(25.000000, 28.000000)" fill="#0A142B" fill-rule="nonzero">
            <path d="M10,13.5 C13.6818983,13.5 16.6666667,10.4779221 16.6666667,6.75 C16.6666667,3.02207794 13.6818983,0 10,0 C6.31810167,0 3.33333333,3.02207794 3.33333333,6.75 C3.33333333,10.4779221 6.31810167,13.5 10,13.5 Z M10,32.0709375 C9.996998,30.7963703 10.5106018,29.576373 11.4208333,28.6959375 L18.934375,21.515625 C19.10625,21.3521484 19.3270833,21.2719922 19.51875,21.1391016 C18.5156442,18.5679538 16.0636801,16.8776192 13.3333333,16.875 L6.66666667,16.875 C2.98476833,16.875 0,19.8970779 0,23.625 L0,33.75 C0,35.613961 1.49238417,37.125 3.33333333,37.125 L3.33333333,50.625 C3.33333333,52.488961 4.8257175,54 6.66666667,54 L13.3333333,54 C15.1742825,54 16.6666667,52.488961 16.6666667,50.625 L16.6666667,40.4588672 L11.4208333,35.4459375 C10.5102932,34.5657183 9.99663018,33.3455802 10,32.0709375 Z M50,13.5 C53.6818983,13.5 56.6666667,10.4779221 56.6666667,6.75 C56.6666667,3.02207794 53.6818983,0 50,0 C46.3181017,0 43.3333333,3.02207794 43.3333333,6.75 C43.3333333,10.4779221 46.3181017,13.5 50,13.5 Z M53.3333333,16.875 L46.6666667,16.875 C43.9365783,16.877448 41.4846882,18.5673135 40.48125,21.1380469 C40.6729167,21.2719922 40.8979167,21.3489844 41.0666667,21.5166797 L48.5791667,28.6948828 C49.4865158,29.5772833 49.9993831,30.7960603 49.9993831,32.0698828 C49.9993831,33.3437053 49.4865158,34.5624823 48.5791667,35.4448828 L43.3333333,40.4599219 L43.3333333,50.625 C43.3333333,52.488961 44.8257175,54 46.6666667,54 L53.3333333,54 C55.1742825,54 56.6666667,52.488961 56.6666667,50.625 L56.6666667,37.125 C58.5076158,37.125 60,35.613961 60,33.75 L60,23.625 C60,19.8970779 57.0152317,16.875 53.3333333,16.875 Z M46.2916667,31.1491406 L38.7791667,23.9709375 C38.4166889,23.6210679 37.8829637,23.524012 37.422896,23.7243048 C36.9628283,23.9245976 36.6652338,24.3835727 36.6666667,24.890625 L36.6666667,28.6875 L23.3333333,28.6875 L23.3333333,24.890625 C23.3351855,24.383381 23.0377458,23.9240178 22.5775852,23.7234549 C22.1174247,23.522892 21.5834478,23.6198786 21.2208333,23.9698828 L13.7083333,31.1491406 C13.2084894,31.6590637 13.2084894,32.4817566 13.7083333,32.9916797 L21.2208333,40.1709375 C21.5835845,40.521077 22.1178134,40.6179946 22.578067,40.4171613 C23.0383207,40.216328 23.3356055,39.7565764 23.3333333,39.2491406 L23.3333333,35.4375 L36.6666667,35.4375 L36.6666667,39.2491406 C36.6643945,39.7565764 36.9616793,40.216328 37.421933,40.4171613 C37.8821866,40.6179946 38.4164155,40.521077 38.7791667,40.1709375 L46.2916667,32.9916797 C46.7915106,32.4817566 46.7915106,31.6590637 46.2916667,31.1491406 Z" id="Shape"></path>
        </g>
    </g>
</svg>