<svg width="14" height="15" viewBox="0 0 14 15" fill="none" xmlns="http://www.w3.org/2000/svg">
<path d="M2.60717 2.09947C1.1678 2.09947 0 3.2897 0 4.75673V11.8427C0 13.3098 1.1678 14.5 2.60717 14.5H9.55964C10.999 14.5 12.1668 13.3098 12.1668 11.8427V9.18549C12.1668 8.69556 11.7785 8.29974 11.2978 8.29974C10.8171 8.29974 10.4287 8.69556 10.4287 9.18549V11.8427C10.4287 12.3327 10.0403 12.7285 9.55964 12.7285H2.60717C2.12648 12.7285 1.73812 12.3327 1.73812 11.8427V4.75673C1.73812 4.2668 2.12648 3.87098 2.60717 3.87098H5.21435C5.69505 3.87098 6.08341 3.47516 6.08341 2.98523C6.08341 2.49529 5.69505 2.09947 5.21435 2.09947H2.60717Z" fill="#0A142B"/>
<path d="M13.6712 3.70299C14.2836 2.74203 14.0159 1.45861 13.073 0.834587C12.2386 0.282352 11.135 0.426141 10.4638 1.17408L10.445 1.19428C10.2769 1.38168 10.29 1.67205 10.4736 1.84192C10.6572 2.01179 10.9424 1.99984 11.1091 1.81273L11.1279 1.79253C11.5028 1.37561 12.1175 1.29521 12.5817 1.60365C13.1074 1.95156 13.2566 2.66691 12.9152 3.20267L11.6997 5.11379C11.3583 5.64954 10.6564 5.80161 10.1307 5.4537C9.66508 5.14556 9.48712 4.54053 9.7087 4.0234L9.71916 3.99768C9.8188 3.76499 9.7135 3.4946 9.48684 3.39417C9.26019 3.29374 8.99319 3.39996 8.89463 3.63095L8.88417 3.65667C8.48502 4.58463 8.80499 5.67053 9.63943 6.22277C10.5823 6.84679 11.8417 6.57397 12.4541 5.61301L13.6712 3.70299ZM6.45123 4.92408C5.83887 5.88504 6.10652 7.16846 7.04944 7.79248C7.88388 8.34472 8.98746 8.20093 9.65864 7.45299L9.67744 7.43279C9.84551 7.24538 9.83242 6.95502 9.64883 6.78515C9.46523 6.61528 9.18001 6.62723 9.01332 6.81434L8.99452 6.83454C8.6197 7.25146 8.00495 7.33186 7.54071 7.02341C7.01472 6.6741 6.86553 5.95876 7.20694 5.423L8.42271 3.51328C8.76412 2.97753 9.46606 2.82546 9.99175 3.17337C10.4574 3.48151 10.6353 4.08654 10.414 4.60507L10.4036 4.63079C10.3039 4.86348 10.4092 5.13387 10.6359 5.2343C10.8626 5.33473 11.1296 5.22851 11.2281 4.99752L11.2386 4.9718C11.6374 4.04243 11.3175 2.95653 10.483 2.4043C9.54011 1.78027 8.28074 2.0531 7.66838 3.01406L6.45123 4.92408Z" fill="#0A142B"/>
</svg>
