<?xml version="1.0" standalone="no"?>
<!DOCTYPE svg PUBLIC "-//W3C//DTD SVG 20010904//EN"
 "http://www.w3.org/TR/2001/REC-SVG-20010904/DTD/svg10.dtd">
<svg version="1.0" xmlns="http://www.w3.org/2000/svg"
 width="256.000000pt" height="256.000000pt" viewBox="0 0 256.000000 256.000000"
 preserveAspectRatio="xMidYMid meet">
<metadata>
Created by potrace 1.15, written by Peter Selinger 2001-2017
</metadata>
<g transform="translate(0.000000,256.000000) scale(0.100000,-0.100000)"
fill="#000000" stroke="none">
<path d="M1115 2394 c-345 -51 -619 -164 -834 -345 -125 -105 -231 -262 -266
-395 -22 -85 -20 -252 5 -350 27 -109 97 -245 169 -330 59 -70 180 -170 252
-208 35 -19 36 -19 28 -67 -4 -26 -17 -69 -29 -95 -40 -92 -61 -109 -238 -199
l-167 -85 275 3 c257 3 281 5 370 29 192 52 351 130 462 227 l46 41 119 0
c604 0 1116 299 1233 721 25 91 27 257 5 344 -58 225 -245 435 -501 563 -85
43 -249 98 -362 123 -78 17 -139 22 -317 24 -121 2 -233 1 -250 -1z m492 -184
c378 -75 660 -272 756 -526 18 -49 22 -80 22 -179 l0 -120 -43 -87 c-110 -225
-382 -404 -730 -479 -70 -15 -150 -22 -287 -26 l-190 -6 -65 -57 c-134 -117
-297 -203 -447 -235 l-33 -6 21 45 c28 64 49 168 49 248 l0 67 -45 20 c-149
66 -305 207 -372 337 -59 113 -76 187 -71 309 3 91 7 107 41 177 135 280 566
510 1002 536 124 8 305 -1 392 -18z"/>
<path d="M712 1580 c-48 -30 -72 -75 -72 -140 0 -100 60 -160 160 -160 100 0
160 60 160 160 0 65 -24 110 -72 140 -45 27 -131 27 -176 0z"/>
<path d="M1192 1580 c-48 -30 -72 -75 -72 -140 0 -100 60 -160 160 -160 100 0
160 60 160 160 0 65 -24 110 -72 140 -45 27 -131 27 -176 0z"/>
<path d="M1672 1580 c-48 -30 -72 -75 -72 -140 0 -100 60 -160 160 -160 100 0
160 60 160 160 0 65 -24 110 -72 140 -45 27 -131 27 -176 0z"/>
</g>
</svg>
