<!DOCTYPE svg PUBLIC "-//W3C//DTD SVG 20010904//EN" "http://www.w3.org/TR/2001/REC-SVG-20010904/DTD/svg10.dtd">
<svg version="1.0" xmlns="http://www.w3.org/2000/svg" width="256px" height="256px" viewBox="0 0 2560 2560" preserveAspectRatio="xMidYMid meet">
<g id="layer101" fill="#000000" stroke="none">
 <path d="M1185 2079 c-58 -31 -69 -43 -89 -99 -37 -103 -1 -212 84 -255 27 -14 59 -25 70 -25 14 0 109 -87 288 -267 147 -148 278 -274 291 -280 30 -17 106 -17 119 0 5 6 13 26 16 44 8 35 -22 113 -52 135 -9 7 -30 32 -45 56 -15 24 -34 45 -42 49 -8 3 -15 10 -15 15 0 11 -29 51 -82 111 -21 23 -38 47 -38 54 0 6 -8 18 -19 25 -10 7 -33 35 -51 61 -18 27 -39 51 -46 54 -8 3 -14 10 -14 17 -1 6 -14 27 -30 46 -17 19 -30 40 -30 47 0 7 -4 13 -10 13 -5 0 -10 15 -11 33 -1 59 -33 120 -80 152 -60 40 -154 47 -214 14z"/>
 <path d="M140 1890 c-74 -9 -82 -14 -110 -66 -23 -41 -25 -55 -23 -154 3 -151 47 -390 72 -390 5 0 11 -10 14 -22 10 -43 32 -93 63 -143 17 -28 39 -68 49 -88 10 -21 26 -42 36 -48 11 -5 19 -16 19 -24 0 -16 212 -235 227 -235 5 0 25 -13 43 -30 18 -16 39 -30 45 -30 7 0 24 -11 39 -25 15 -14 62 -40 104 -57 42 -18 79 -35 82 -39 8 -10 187 -56 267 -68 93 -14 333 -14 426 0 81 12 259 58 267 68 3 4 42 22 88 41 45 18 82 37 82 42 0 4 22 19 49 33 28 13 54 31 58 38 4 7 22 21 38 31 43 27 225 213 225 231 0 8 8 19 18 24 10 5 24 22 32 38 8 15 29 52 47 81 32 51 59 112 70 160 3 12 9 22 14 22 25 0 71 246 73 395 1 99 -1 114 -23 151 -13 23 -35 48 -50 55 -34 17 -801 27 -801 10 0 -18 36 -71 59 -87 11 -8 21 -21 21 -28 0 -8 18 -32 40 -54 22 -22 40 -44 40 -48 0 -5 12 -23 28 -39 45 -51 92 -113 92 -124 0 -6 9 -15 19 -20 10 -6 30 -30 45 -55 14 -24 32 -46 41 -50 8 -3 15 -12 15 -19 0 -8 18 -33 40 -56 22 -22 40 -45 40 -50 0 -5 7 -14 15 -21 9 -7 20 -32 26 -56 6 -24 15 -44 20 -44 5 0 9 -18 9 -40 0 -22 -4 -40 -10 -40 -5 0 -10 -10 -10 -22 0 -39 -43 -101 -85 -125 -22 -12 -45 -26 -52 -32 -15 -14 -143 -15 -143 -1 0 6 -8 10 -17 10 -31 0 -95 52 -218 177 -66 68 -123 123 -127 123 -4 0 -78 72 -166 160 -88 88 -167 160 -177 160 -9 0 -46 14 -82 30 -35 17 -68 30 -72 30 -20 0 -111 101 -130 145 -12 27 -26 52 -32 55 -5 4 -13 33 -17 66 l-7 59 -345 1 c-190 1 -370 -2 -400 -6z m484 -352 c3 -24 8 -66 12 -94 l6 -51 -73 -7 c-41 -4 -78 -11 -84 -16 -5 -4 -42 -10 -81 -14 l-72 -7 -5 43 c-4 24 -9 68 -13 99 l-6 56 124 15 c194 24 185 25 192 -24z m167 -395 c21 -16 39 -33 39 -40 0 -6 12 -21 26 -32 l26 -20 -109 -109 -108 -110 -63 64 c-58 59 -74 84 -53 84 5 0 51 43 103 95 51 52 95 95 96 95 2 0 21 -12 43 -27z m589 -378 l0 -156 -97 3 -98 3 -3 140 c-1 76 0 145 2 152 4 9 32 13 101 13 l95 0 0 -155z"/>
 </g>

</svg>