<svg width="80" height="34" viewBox="0 0 80 34" fill="none" xmlns="http://www.w3.org/2000/svg">
<path d="M6.27543 3.88444C2.81109 3.88444 0.000398241 6.77499 0.000398241 10.3378V27.5467C0.000398241 31.1094 2.81109 34 6.27543 34H69.3128C72.7771 34 75.5878 31.1094 75.5878 27.5467V21.0933C75.5878 19.9035 74.6531 18.9422 73.4961 18.9422C72.3392 18.9422 71.4045 19.9035 71.4045 21.0933V27.5467C71.4045 28.7365 70.4698 29.6978 69.3128 29.6978H6.27543C5.11847 29.6978 4.18375 28.7365 4.18375 27.5467V10.3378C4.18375 9.14794 5.11847 8.18666 6.27543 8.18666H58.8544C60.0114 8.18666 60.9461 7.22538 60.9461 6.03555C60.9461 4.84572 60.0114 3.88444 58.8544 3.88444H6.27543Z" fill="#0098FF" fill-opacity="0.8"/>
<path d="M79.2087 7.77869C80.6825 5.44493 80.0383 2.32806 77.7689 0.812569C75.7605 -0.528573 73.1044 -0.179372 71.489 1.63704L71.4437 1.6861C71.0392 2.14123 71.0707 2.84641 71.5126 3.25895C71.9545 3.67148 72.641 3.64247 73.0422 3.18806L73.0874 3.139C73.9895 2.12648 75.4691 1.93122 76.5865 2.6803C77.8518 3.52522 78.2108 5.26249 77.3891 6.56362L74.4637 11.2049C73.642 12.506 71.9525 12.8753 70.6872 12.0304C69.5666 11.2821 69.1383 9.81272 69.6716 8.55684L69.6967 8.49437C69.9366 7.92926 69.6831 7.27259 69.1376 7.02869C68.5921 6.78479 67.9495 7.04275 67.7122 7.60373L67.6871 7.6662C66.7264 9.91982 67.4965 12.557 69.5049 13.8982C71.7743 15.4136 74.8054 14.7511 76.2792 12.4173L79.2087 7.77869ZM61.8314 10.7442C60.3575 13.078 61.0017 16.1948 63.2712 17.7103C65.2795 19.0515 67.9357 18.7023 69.5511 16.8858L69.5963 16.8368C70.0008 16.3816 69.9693 15.6765 69.5275 15.2639C69.0856 14.8514 68.3991 14.8804 67.9979 15.3348L67.9527 15.3839C67.0505 16.3964 65.5709 16.5917 64.4536 15.8426C63.1876 14.9943 62.8286 13.257 63.6503 11.9559L66.5764 7.31797C67.3981 6.01685 69.0876 5.64754 70.3528 6.49246C71.4735 7.24082 71.9018 8.71017 71.3692 9.96945L71.344 10.0319C71.1042 10.597 71.3577 11.2537 71.9032 11.4976C72.4487 11.7415 73.0913 11.4835 73.3285 10.9226L73.3537 10.8601C74.3137 8.60306 73.5436 5.96587 71.5352 4.62473C69.2658 3.10924 66.2347 3.77182 64.7609 6.10558L61.8314 10.7442Z" fill="#0098FF" fill-opacity="0.8"/>
<circle cx="14.2383" cy="19" r="4" fill="#0098FF" fill-opacity="0.8"/>
<circle cx="25.2383" cy="19" r="4" fill="#0098FF" fill-opacity="0.8"/>
<circle cx="36.2383" cy="19" r="4" fill="#0098FF" fill-opacity="0.8"/>
<circle cx="47.2383" cy="19" r="4" fill="#0098FF" fill-opacity="0.8"/>
</svg>
