<svg width="24" height="24" viewBox="0 0 24 24" fill="none" xmlns="http://www.w3.org/2000/svg">
<path d="M10.0969 4.5H6.75H5.05313H4.5V4.9125V6.75V8.64375V12.8156L0.009375 9.49219C0.084375 8.64375 0.520312 7.85625 1.21406 7.34531L2.25 6.57656V4.5C2.25 3.25781 3.25781 2.25 4.5 2.25H8.09063L10.4297 0.520313C10.8844 0.182813 11.4328 0 12 0C12.5672 0 13.1156 0.182813 13.5703 0.515625L15.9094 2.25H19.5C20.7422 2.25 21.75 3.25781 21.75 4.5V6.57656L22.7859 7.34531C23.4797 7.85625 23.9156 8.64375 23.9906 9.49219L19.5 12.8156V8.64375V6.75V4.9125V4.5H18.9469H17.25H13.9031H10.0969ZM0 21V11.3484L10.2 18.9047C10.7203 19.2891 11.3531 19.5 12 19.5C12.6469 19.5 13.2797 19.2937 13.8 18.9047L24 11.3484V21C24 22.6547 22.6547 24 21 24H3C1.34531 24 0 22.6547 0 21ZM8.25 7.5H15.75C16.1625 7.5 16.5 7.8375 16.5 8.25C16.5 8.6625 16.1625 9 15.75 9H8.25C7.8375 9 7.5 8.6625 7.5 8.25C7.5 7.8375 7.8375 7.5 8.25 7.5ZM8.25 10.5H15.75C16.1625 10.5 16.5 10.8375 16.5 11.25C16.5 11.6625 16.1625 12 15.75 12H8.25C7.8375 12 7.5 11.6625 7.5 11.25C7.5 10.8375 7.8375 10.5 8.25 10.5Z" fill="#0098FF"/>
</svg>
