<svg width="210" height="198" viewBox="0 0 210 198" fill="none" xmlns="http://www.w3.org/2000/svg">
<rect width="210" height="198" fill="#F5F5F5"/>
<rect width="1741" height="2576" transform="translate(-547 -1463)" fill="white"/>
<mask id="path-1-inside-1_0_1" fill="white">
<path fill-rule="evenodd" clip-rule="evenodd" d="M107.407 69.154C106.979 69.1812 106.55 69.1948 106.121 69.1947C95.1373 69.1947 86.2193 60.2984 86.2193 49.3412C86.2193 38.384 95.1373 29.4877 106.121 29.4877C117.105 29.4877 126.023 38.384 126.023 49.3412C126.029 53.8966 124.458 58.3142 121.575 61.8469L143.574 102.188C148.995 100.222 154.719 99.2169 160.488 99.217C187.815 99.217 210 121.348 210 148.608C210 175.869 187.815 198 160.488 198C150.817 197.996 141.358 195.178 133.27 189.891C132.402 189.328 131.668 188.583 131.12 187.707C130.572 186.831 130.222 185.846 130.097 184.821C129.971 183.796 130.072 182.755 130.392 181.773C130.712 180.791 131.244 179.891 131.95 179.136C131.965 179.121 131.98 179.104 132.009 179.101C133.197 177.832 134.793 177.017 136.52 176.8C138.247 176.583 139.995 176.976 141.461 177.912C147.128 181.573 153.736 183.521 160.488 183.522C179.804 183.522 195.486 167.878 195.486 148.608C195.486 129.339 179.804 113.695 160.488 113.695C153.799 113.695 144.305 116.614 138.597 120.228C138.304 120.448 137.966 120.602 137.607 120.681C137.248 120.759 136.876 120.76 136.517 120.682C136.158 120.604 135.82 120.451 135.526 120.231C135.232 120.011 134.988 119.731 134.812 119.409L107.407 69.154ZM98.2692 154.973C97.2652 160.639 95.2761 166.086 92.3918 171.069C78.7284 194.678 48.423 202.779 24.7571 189.149C1.09122 175.519 -7.02879 145.287 6.63368 121.678C11.4725 113.325 18.6488 106.562 27.2832 102.217C28.2057 101.749 29.2197 101.489 30.2541 101.453C31.2884 101.418 32.3179 101.609 33.2703 102.013C34.2232 102.416 35.076 103.023 35.7687 103.791C36.4613 104.558 36.9771 105.468 37.2798 106.455C37.2857 106.477 37.2915 106.497 37.2798 106.523C37.7888 108.184 37.6981 109.97 37.0233 111.571C36.3486 113.172 35.1325 114.486 33.5868 115.285C27.5744 118.349 22.579 123.084 19.203 128.917C9.5452 145.603 15.2847 166.974 32.0131 176.61C48.7414 186.244 70.1647 180.517 79.8225 163.83C83.167 158.051 85.3795 148.39 85.097 141.652C85.0521 141.288 85.0864 140.919 85.1975 140.569C85.3087 140.22 85.4942 139.898 85.7412 139.627C85.9883 139.355 86.2912 139.14 86.6292 138.996C86.9672 138.852 87.3324 138.783 87.6998 138.792L145.031 140.244C145.22 139.862 145.422 139.486 145.639 139.113C151.131 129.624 163.313 126.367 172.825 131.845C182.339 137.325 185.602 149.477 180.11 158.966C174.618 168.455 162.436 171.711 152.923 166.233C148.965 163.96 145.916 160.394 144.29 156.137L98.2692 154.973ZM74.2393 87.2148C69.8218 83.5137 66.0865 79.071 63.2019 74.0873C49.5385 50.4791 57.6585 20.2467 81.3244 6.61754C104.99 -7.01162 135.297 1.08859 148.959 24.6958C153.791 33.0519 156.074 42.6327 155.53 52.264C155.475 53.2951 155.194 54.3017 154.707 55.2131C154.221 56.1245 153.54 56.9186 152.713 57.5397C151.886 58.1608 150.933 58.5938 149.921 58.8084C148.908 59.023 147.861 59.0139 146.852 58.7818C146.831 58.7769 146.81 58.7711 146.792 58.7479C145.096 58.3573 143.591 57.3858 142.539 56.0026C141.487 54.6194 140.954 52.912 141.033 51.1774C141.379 44.4504 139.767 37.7672 136.39 31.9341C126.732 15.2475 105.31 9.52098 88.5813 19.1552C71.854 28.7905 66.1125 50.1605 75.7713 66.8481C79.1158 72.6269 86.397 79.3693 92.387 82.4936C92.7253 82.637 93.0286 82.8514 93.2763 83.1222C93.524 83.3931 93.7103 83.714 93.8225 84.0631C93.9348 84.4123 93.9702 84.7814 93.9266 85.1455C93.8829 85.5095 93.7611 85.8599 93.5695 86.1728L63.6427 134.976C63.8796 135.33 64.1058 135.693 64.3223 136.066C69.8133 145.556 66.5494 157.708 57.0362 163.187C47.524 168.665 35.3421 165.409 29.8501 155.919C24.3581 146.43 27.622 134.278 37.1342 128.8C41.0859 126.517 45.7068 125.666 50.2152 126.39L74.2393 87.2148Z"/>
</mask>
<path fill-rule="evenodd" clip-rule="evenodd" d="M107.407 69.154C106.979 69.1812 106.55 69.1948 106.121 69.1947C95.1373 69.1947 86.2193 60.2984 86.2193 49.3412C86.2193 38.384 95.1373 29.4877 106.121 29.4877C117.105 29.4877 126.023 38.384 126.023 49.3412C126.029 53.8966 124.458 58.3142 121.575 61.8469L143.574 102.188C148.995 100.222 154.719 99.2169 160.488 99.217C187.815 99.217 210 121.348 210 148.608C210 175.869 187.815 198 160.488 198C150.817 197.996 141.358 195.178 133.27 189.891C132.402 189.328 131.668 188.583 131.12 187.707C130.572 186.831 130.222 185.846 130.097 184.821C129.971 183.796 130.072 182.755 130.392 181.773C130.712 180.791 131.244 179.891 131.95 179.136C131.965 179.121 131.98 179.104 132.009 179.101C133.197 177.832 134.793 177.017 136.52 176.8C138.247 176.583 139.995 176.976 141.461 177.912C147.128 181.573 153.736 183.521 160.488 183.522C179.804 183.522 195.486 167.878 195.486 148.608C195.486 129.339 179.804 113.695 160.488 113.695C153.799 113.695 144.305 116.614 138.597 120.228C138.304 120.448 137.966 120.602 137.607 120.681C137.248 120.759 136.876 120.76 136.517 120.682C136.158 120.604 135.82 120.451 135.526 120.231C135.232 120.011 134.988 119.731 134.812 119.409L107.407 69.154ZM98.2692 154.973C97.2652 160.639 95.2761 166.086 92.3918 171.069C78.7284 194.678 48.423 202.779 24.7571 189.149C1.09122 175.519 -7.02879 145.287 6.63368 121.678C11.4725 113.325 18.6488 106.562 27.2832 102.217C28.2057 101.749 29.2197 101.489 30.2541 101.453C31.2884 101.418 32.3179 101.609 33.2703 102.013C34.2232 102.416 35.076 103.023 35.7687 103.791C36.4613 104.558 36.9771 105.468 37.2798 106.455C37.2857 106.477 37.2915 106.497 37.2798 106.523C37.7888 108.184 37.6981 109.97 37.0233 111.571C36.3486 113.172 35.1325 114.486 33.5868 115.285C27.5744 118.349 22.579 123.084 19.203 128.917C9.5452 145.603 15.2847 166.974 32.0131 176.61C48.7414 186.244 70.1647 180.517 79.8225 163.83C83.167 158.051 85.3795 148.39 85.097 141.652C85.0521 141.288 85.0864 140.919 85.1975 140.569C85.3087 140.22 85.4942 139.898 85.7412 139.627C85.9883 139.355 86.2912 139.14 86.6292 138.996C86.9672 138.852 87.3324 138.783 87.6998 138.792L145.031 140.244C145.22 139.862 145.422 139.486 145.639 139.113C151.131 129.624 163.313 126.367 172.825 131.845C182.339 137.325 185.602 149.477 180.11 158.966C174.618 168.455 162.436 171.711 152.923 166.233C148.965 163.96 145.916 160.394 144.29 156.137L98.2692 154.973ZM74.2393 87.2148C69.8218 83.5137 66.0865 79.071 63.2019 74.0873C49.5385 50.4791 57.6585 20.2467 81.3244 6.61754C104.99 -7.01162 135.297 1.08859 148.959 24.6958C153.791 33.0519 156.074 42.6327 155.53 52.264C155.475 53.2951 155.194 54.3017 154.707 55.2131C154.221 56.1245 153.54 56.9186 152.713 57.5397C151.886 58.1608 150.933 58.5938 149.921 58.8084C148.908 59.023 147.861 59.0139 146.852 58.7818C146.831 58.7769 146.81 58.7711 146.792 58.7479C145.096 58.3573 143.591 57.3858 142.539 56.0026C141.487 54.6194 140.954 52.912 141.033 51.1774C141.379 44.4504 139.767 37.7672 136.39 31.9341C126.732 15.2475 105.31 9.52098 88.5813 19.1552C71.854 28.7905 66.1125 50.1605 75.7713 66.8481C79.1158 72.6269 86.397 79.3693 92.387 82.4936C92.7253 82.637 93.0286 82.8514 93.2763 83.1222C93.524 83.3931 93.7103 83.714 93.8225 84.0631C93.9348 84.4123 93.9702 84.7814 93.9266 85.1455C93.8829 85.5095 93.7611 85.8599 93.5695 86.1728L63.6427 134.976C63.8796 135.33 64.1058 135.693 64.3223 136.066C69.8133 145.556 66.5494 157.708 57.0362 163.187C47.524 168.665 35.3421 165.409 29.8501 155.919C24.3581 146.43 27.622 134.278 37.1342 128.8C41.0859 126.517 45.7068 125.666 50.2152 126.39L74.2393 87.2148Z" fill="#719192" stroke="#0A142B" stroke-opacity="0.45" stroke-width="8" mask="url(#path-1-inside-1_0_1)"/>
<mask id="path-2-inside-2_0_1" fill="white">
<path fill-rule="evenodd" clip-rule="evenodd" d="M74.0558 87.2148C69.6384 83.5137 65.9031 79.071 63.0185 74.0873C49.355 50.4791 57.4751 20.2467 81.141 6.61754C104.807 -7.01162 135.113 1.08859 148.776 24.6958C153.608 33.0519 155.891 42.6327 155.346 52.264C155.291 53.2951 155.01 54.3017 154.524 55.2131C154.037 56.1245 153.357 56.9186 152.53 57.5397C151.703 58.1608 150.75 58.5938 149.737 58.8084C148.725 59.023 147.678 59.0139 146.669 58.7818C146.648 58.7769 146.626 58.7711 146.609 58.7479C144.913 58.3573 143.408 57.3858 142.355 56.0026C141.303 54.6194 140.77 52.912 140.85 51.1774C141.196 44.4504 139.583 37.7672 136.206 31.9341C126.549 15.2475 105.126 9.52098 88.3979 19.1552C71.6705 28.7905 65.929 50.1605 75.5878 66.8481C78.9323 72.6269 86.2135 79.3693 92.2036 82.4936C92.5418 82.637 92.8451 82.8514 93.0929 83.1222C93.3406 83.3931 93.5269 83.714 93.6391 84.0631C93.7513 84.4123 93.7868 84.7814 93.7431 85.1455C93.6995 85.5095 93.5776 85.8599 93.386 86.1728L63.4592 134.976C63.6961 135.33 63.9223 135.693 64.1388 136.066C69.6298 145.556 66.3659 157.708 56.8528 163.187C47.3406 168.665 35.1586 165.409 29.6666 155.919C24.1747 146.43 27.4386 134.278 36.9508 128.8C40.9025 126.517 45.5233 125.666 50.0317 126.39L74.0558 87.2148Z"/>
</mask>
<path fill-rule="evenodd" clip-rule="evenodd" d="M74.0558 87.2148C69.6384 83.5137 65.9031 79.071 63.0185 74.0873C49.355 50.4791 57.4751 20.2467 81.141 6.61754C104.807 -7.01162 135.113 1.08859 148.776 24.6958C153.608 33.0519 155.891 42.6327 155.346 52.264C155.291 53.2951 155.01 54.3017 154.524 55.2131C154.037 56.1245 153.357 56.9186 152.53 57.5397C151.703 58.1608 150.75 58.5938 149.737 58.8084C148.725 59.023 147.678 59.0139 146.669 58.7818C146.648 58.7769 146.626 58.7711 146.609 58.7479C144.913 58.3573 143.408 57.3858 142.355 56.0026C141.303 54.6194 140.77 52.912 140.85 51.1774C141.196 44.4504 139.583 37.7672 136.206 31.9341C126.549 15.2475 105.126 9.52098 88.3979 19.1552C71.6705 28.7905 65.929 50.1605 75.5878 66.8481C78.9323 72.6269 86.2135 79.3693 92.2036 82.4936C92.5418 82.637 92.8451 82.8514 93.0929 83.1222C93.3406 83.3931 93.5269 83.714 93.6391 84.0631C93.7513 84.4123 93.7868 84.7814 93.7431 85.1455C93.6995 85.5095 93.5776 85.8599 93.386 86.1728L63.4592 134.976C63.6961 135.33 63.9223 135.693 64.1388 136.066C69.6298 145.556 66.3659 157.708 56.8528 163.187C47.3406 168.665 35.1586 165.409 29.6666 155.919C24.1747 146.43 27.4386 134.278 36.9508 128.8C40.9025 126.517 45.5233 125.666 50.0317 126.39L74.0558 87.2148Z" fill="#CCCCCC" stroke="#0A142B" stroke-opacity="0.45" stroke-width="8" mask="url(#path-2-inside-2_0_1)"/>
<circle cx="47" cy="146" r="20" fill="#E9EEC9"/>
<circle cx="47" cy="146" r="18" stroke="#283148" stroke-opacity="0.45" stroke-width="4"/>
<circle cx="163" cy="149" r="20" fill="#F9CB40"/>
<circle cx="163" cy="149" r="18" stroke="#283148" stroke-opacity="0.45" stroke-width="4"/>
<circle cx="106" cy="49" r="20" fill="#F9CB40"/>
<circle cx="106" cy="49" r="18" stroke="#283148" stroke-opacity="0.45" stroke-width="4"/>
</svg>
