<svg width="23" height="23" viewBox="0 0 23 23" fill="none" xmlns="http://www.w3.org/2000/svg">
<mask id="mask0_1246_7780" style="mask-type:alpha" maskUnits="userSpaceOnUse" x="0" y="0" width="23" height="23">
<circle cx="11.5" cy="11.5" r="11.5" fill="white"/>
</mask>
<g mask="url(#mask0_1246_7780)">
<rect width="23" height="23" fill="white"/>
<path d="M11.5 0C17.8595 0 23 5.1405 23 11.5C23 17.8595 17.8595 23 11.5 23C5.1405 23 4.76837e-07 17.8595 4.76837e-07 11.5C4.76837e-07 5.1405 5.1405 0 11.5 0ZM5.75 15.6285L7.3715 17.25L11.5 13.1215L15.6285 17.25L17.25 15.6285L13.1215 11.5L17.25 7.3715L15.6285 5.75L11.5 9.8785L7.3715 5.75L5.75 7.3715L9.8785 11.5L5.75 15.6285Z" fill="#E34A6F"/>
</g>
</svg>
