<?xml version="1.0" encoding="UTF-8"?>
<svg width="128px" height="128px" viewBox="0 0 128 128" version="1.1" xmlns="http://www.w3.org/2000/svg" xmlns:xlink="http://www.w3.org/1999/xlink">
    <!-- Generator: Sketch 59 (86127) - https://sketch.com -->
    <title>Expenses</title>
    <desc>Created with Sketch.</desc>
    <g id="Expenses" stroke="none" stroke-width="1" fill="none" fill-rule="evenodd">
        <path d="M26.4410261,46.5003846 L96.4410261,38.6253846 C99.1851394,38.3166718 101.659944,40.290954 101.968657,43.0350673 C101.989536,43.2206603 102,43.4072774 102,43.5940411 L102,99.6666667 C102,102.42809 99.7614237,104.666667 97,104.666667 L27,104.666667 C24.2385763,104.666667 22,102.42809 22,99.6666667 L22,51.4690411 C22,48.9239148 23.9118544,46.7849164 26.4410261,46.5003846 Z" id="Rectangle" stroke="#FFFFFF" stroke-width="4" fill="#A88260" stroke-linejoin="round"></path>
        <g id="Group-2" transform="translate(47.000000, 46.000000) rotate(-32.000000) translate(-47.000000, -46.000000) translate(29.000000, 28.000000)">
            <circle id="Oval" stroke="#FFFFFF" fill="#F9CB40" cx="18" cy="18" r="18"></circle>
            <g id="Group" transform="translate(13.500000, 6.000000)" stroke="#FAFAFA" stroke-width="2">
                <path d="M4.5,21 C6.98528137,21 9,18.9852814 9,16.5 C9,14.0147186 6.98528137,12 4.5,12 C2.01471863,12 0,14.0147186 0,16.5" id="Oval" transform="translate(4.500000, 16.500000) scale(1, -1) translate(-4.500000, -16.500000) "></path>
                <path d="M4.5,12 C6.98528137,12 9,9.98528137 9,7.5 C9,5.01471863 6.98528137,3 4.5,3 C2.01471863,3 0,5.01471863 0,7.5" id="Oval" transform="translate(4.500000, 7.500000) scale(1, -1) rotate(-180.000000) translate(-4.500000, -7.500000) "></path>
                <line x1="4.5" y1="0" x2="4.5" y2="3" id="Path-7"></line>
                <line x1="4.5" y1="21" x2="4.5" y2="24" id="Path-7"></line>
            </g>
        </g>
        <g id="Group-2-Copy" transform="translate(79.000000, 38.000000) rotate(19.000000) translate(-79.000000, -38.000000) translate(61.000000, 20.000000)">
            <circle id="Oval" stroke="#FFFFFF" fill="#F9CB40" cx="18" cy="18" r="18"></circle>
            <g id="Group" transform="translate(13.500000, 6.000000)" stroke="#FAFAFA" stroke-width="2">
                <path d="M4.5,21 C6.98528137,21 9,18.9852814 9,16.5 C9,14.0147186 6.98528137,12 4.5,12 C2.01471863,12 0,14.0147186 0,16.5" id="Oval" transform="translate(4.500000, 16.500000) scale(1, -1) translate(-4.500000, -16.500000) "></path>
                <path d="M4.5,12 C6.98528137,12 9,9.98528137 9,7.5 C9,5.01471863 6.98528137,3 4.5,3 C2.01471863,3 0,5.01471863 0,7.5" id="Oval" transform="translate(4.500000, 7.500000) scale(1, -1) rotate(-180.000000) translate(-4.500000, -7.500000) "></path>
                <line x1="4.5" y1="0" x2="4.5" y2="3" id="Path-7"></line>
                <line x1="4.5" y1="21" x2="4.5" y2="24" id="Path-7"></line>
            </g>
        </g>
        <rect id="Rectangle" stroke="#FFFFFF" stroke-width="3" fill="#96683F" stroke-linejoin="round" x="22" y="51.3333333" width="80" height="61.6666667" rx="5"></rect>
        <rect id="Rectangle" stroke="#FFFFFF" stroke-width="3" fill="#8B572A" stroke-linejoin="round" x="82" y="73.8333333" width="25" height="16.6666667" rx="5"></rect>
        <circle id="Oval" fill="#FFFFFF" cx="94.5" cy="82.1666667" r="2.5"></circle>
    </g>
</svg>