<?xml version="1.0" standalone="no"?>
<!DOCTYPE svg PUBLIC "-//W3C//DTD SVG 20010904//EN"
        "http://www.w3.org/TR/2001/REC-SVG-20010904/DTD/svg10.dtd">
<svg version="1.0" xmlns="http://www.w3.org/2000/svg"
     width="256.000000pt" height="256.000000pt" viewBox="0 0 256.000000 256.000000"
     preserveAspectRatio="xMidYMid meet">
    <metadata>
        Created by potrace 1.15, written by Peter Selinger 2001-2017
    </metadata>
    <g transform="translate(0.000000,256.000000) scale(0.100000,-0.100000)"
       fill="#000000" stroke="none">
        <path d="M1912 2416 c-26 -24 -78 -72 -117 -106 -38 -34 -91 -81 -116 -104
-26 -22 -77 -68 -115 -101 -37 -33 -88 -79 -113 -101 -42 -38 -83 -75 -225
-201 -46 -41 -52 -43 -110 -43 -33 0 -73 -6 -87 -14 -15 -7 -50 -21 -78 -31
-28 -9 -53 -20 -56 -24 -2 -5 -25 -14 -50 -21 -25 -7 -45 -16 -45 -21 0 -4
-25 -15 -55 -24 -30 -8 -55 -19 -55 -24 0 -5 -16 -12 -35 -15 -19 -4 -40 -13
-47 -20 -7 -7 -26 -16 -41 -20 -15 -3 -57 -20 -93 -36 -35 -17 -71 -30 -79
-30 -8 0 -15 -4 -15 -9 0 -4 -25 -16 -55 -26 -30 -9 -57 -21 -60 -25 -3 -4
-30 -16 -60 -25 -30 -10 -55 -21 -55 -24 0 -4 -20 -13 -45 -20 -25 -7 -45 -17
-45 -22 0 -5 -8 -9 -18 -9 -42 0 -42 1 -42 -606 0 -648 -4 -614 68 -614 39 0
102 20 102 32 0 4 7 8 15 8 7 0 49 15 92 34 43 19 90 38 106 41 15 4 27 11 27
15 0 4 20 13 45 20 25 7 45 16 45 20 0 4 27 15 60 25 33 10 60 21 60 25 0 4
20 13 45 20 25 7 45 16 45 20 0 4 12 11 28 15 15 3 45 14 67 24 118 54 154 70
190 82 22 8 43 18 47 24 5 6 257 12 714 15 l706 5 19 24 c18 22 19 46 19 542
l0 519 -22 5 c-13 2 -33 6 -45 7 -28 4 -24 9 60 81 61 54 67 62 67 97 0 29 -6
43 -25 58 -14 11 -25 23 -25 27 0 4 -18 29 -41 54 -22 25 -57 66 -77 89 -21
24 -56 64 -79 89 -24 25 -43 49 -43 52 0 3 -20 27 -43 53 -23 25 -62 70 -87
99 -25 29 -55 63 -67 76 -13 13 -27 32 -33 43 -20 37 -73 26 -128 -24z m-62
-221 c15 -18 47 -20 52 -3 3 8 26 12 63 12 37 0 60 -4 63 -12 2 -7 10 -12 19
-12 8 0 13 -7 11 -17 -4 -20 -58 -32 -58 -13 0 7 -13 10 -32 8 -54 -5 -48 -34
19 -99 75 -72 77 -72 112 -54 52 27 91 20 163 -29 39 -26 59 -98 46 -162 -8
-34 -7 -53 1 -66 8 -14 8 -23 -1 -38 -11 -18 -14 -18 -30 -3 -16 15 -25 15
-69 4 -49 -13 -80 -10 -130 11 l-27 12 21 17 c16 12 28 14 45 8 33 -13 68 -11
80 4 8 9 -7 30 -58 81 l-68 68 -52 -13 c-88 -22 -150 4 -197 85 -16 28 -16 95
0 126 11 21 11 29 -1 47 -24 38 1 71 28 38z m490 -1075 l0 -440 -652 0 c-582
0 -657 -2 -705 -17 -29 -9 -53 -20 -53 -24 0 -3 -20 -12 -45 -19 -25 -7 -45
-16 -45 -20 0 -4 -12 -11 -28 -15 -15 -3 -45 -14 -67 -24 -22 -11 -66 -31 -97
-45 -31 -14 -59 -26 -62 -26 -3 0 -35 -14 -71 -30 -36 -17 -68 -30 -72 -30 -6
0 -74 -30 -133 -59 -19 -10 -54 -23 -77 -31 -24 -7 -43 -17 -43 -22 0 -4 -7
-8 -15 -8 -13 0 -15 56 -15 443 l0 443 44 13 c25 7 46 16 48 19 2 4 23 15 48
24 70 26 155 62 160 69 3 4 31 15 63 25 31 10 57 21 57 25 0 3 20 12 45 19 25
7 45 16 45 20 0 4 12 11 28 15 15 3 45 15 67 25 22 10 58 26 80 34 l40 16 -59
-53 c-33 -28 -79 -71 -102 -94 -24 -24 -47 -43 -52 -43 -5 0 -21 -13 -35 -30
-15 -16 -34 -30 -42 -30 -8 0 -15 -3 -15 -8 0 -4 -27 -16 -60 -26 -33 -11 -60
-23 -60 -28 0 -4 -8 -8 -18 -8 -10 0 -36 -9 -57 -20 -22 -11 -57 -25 -77 -31
-50 -13 -70 -35 -66 -73 3 -30 4 -31 50 -29 26 0 59 8 75 16 49 27 137 65 181
78 23 6 42 15 42 18 0 3 29 15 65 26 36 10 65 22 65 26 0 3 20 12 45 19 25 7
45 16 45 20 0 4 15 11 33 14 18 3 51 15 72 26 21 11 54 25 74 31 20 7 39 17
43 23 5 8 186 13 610 16 332 3 604 7 606 8 1 1 2 17 2 36 0 24 -7 38 -22 48
l-23 15 39 34 c22 19 49 44 60 55 12 12 24 22 29 23 4 1 7 -197 7 -439z"/>
        <path d="M1176 1244 c-19 -18 -21 -55 -4 -72 17 -17 1049 -17 1066 0 15 15 15
61 0 76 -9 9 -140 12 -529 12 -457 0 -519 -2 -533 -16z"/>
        <path d="M1031 1206 c-8 -9 -11 -81 -9 -237 l3 -224 35 -3 c57 -6 60 6 60 239
0 175 -2 210 -16 223 -19 20 -58 21 -73 2z"/>
        <path d="M823 1168 c-18 -6 -33 -15 -33 -19 0 -5 -5 -9 -10 -9 -10 0 -163 -58
-225 -85 -16 -7 -55 -24 -85 -37 -30 -14 -74 -31 -97 -38 -24 -7 -43 -16 -43
-20 0 -4 -14 -10 -32 -14 -42 -8 -58 -23 -58 -55 0 -32 16 -51 43 -51 19 0
138 48 189 75 14 8 31 15 37 15 6 0 34 11 63 24 29 14 66 28 81 31 15 4 27 11
27 15 0 5 15 12 33 16 17 3 55 17 82 30 28 12 63 26 78 29 15 4 27 11 27 16 0
5 7 9 15 9 20 0 30 46 15 65 -14 17 -59 18 -107 3z"/>
    </g>
</svg>
