<?xml version="1.0" standalone="no"?>
<!DOCTYPE svg PUBLIC "-//W3C//DTD SVG 20010904//EN"
 "http://www.w3.org/TR/2001/REC-SVG-20010904/DTD/svg10.dtd">
<svg version="1.0" xmlns="http://www.w3.org/2000/svg"
 width="256.000000pt" height="256.000000pt" viewBox="0 0 256.000000 256.000000"
 preserveAspectRatio="xMidYMid meet">
<metadata>
Created by potrace 1.15, written by Peter Selinger 2001-2017
</metadata>
<g transform="translate(0.000000,256.000000) scale(0.100000,-0.100000)"
fill="#000000" stroke="none">
<path d="M1023 2131 l-218 -189 -5 102 c-6 113 -18 143 -73 176 -44 27 -131
27 -175 0 -18 -11 -41 -34 -52 -52 -18 -31 -20 -51 -20 -270 l0 -237 -222
-192 c-123 -105 -231 -201 -240 -211 -11 -12 -18 -36 -18 -59 0 -52 27 -79 80
-79 36 0 50 9 142 89 57 48 317 273 578 500 261 226 477 411 480 411 4 0 266
-225 584 -500 553 -479 578 -500 616 -500 53 0 80 27 80 79 0 23 -7 47 -17 59
-14 15 -541 473 -1191 1034 -24 20 -43 28 -72 28 -37 0 -54 -13 -257 -189z"/>
<path d="M1205 1748 c-30 -17 -816 -662 -850 -698 l-30 -31 -3 -457 c-2 -442
-2 -458 18 -490 11 -18 34 -41 52 -52 31 -19 51 -20 301 -20 l267 0 0 400 0
400 320 0 320 0 0 -400 0 -400 268 0 c249 0 269 1 300 20 18 11 41 34 52 52
20 32 20 48 18 490 l-3 457 -30 31 c-38 40 -822 683 -852 699 -28 14 -122 14
-148 -1z"/>
</g>
</svg>
