<?xml version="1.0" standalone="no"?>
<!DOCTYPE svg PUBLIC "-//W3C//DTD SVG 20010904//EN"
 "http://www.w3.org/TR/2001/REC-SVG-20010904/DTD/svg10.dtd">
<svg version="1.0" xmlns="http://www.w3.org/2000/svg"
 width="256.000000pt" height="256.000000pt" viewBox="0 0 256.000000 256.000000"
 preserveAspectRatio="xMidYMid meet">
<metadata>
Created by potrace 1.15, written by Peter Selinger 2001-2017
</metadata>
<g transform="translate(0.000000,256.000000) scale(0.100000,-0.100000)"
fill="#000000" stroke="none">
<path d="M1146 2540 c-100 -46 -193 -162 -216 -269 -44 -210 98 -405 324 -444
52 -9 75 -8 137 7 89 22 138 49 203 113 69 69 95 136 96 243 0 157 -71 275
-210 345 -45 23 -60 25 -172 24 -96 0 -131 -5 -162 -19z"/>
<path d="M675 2158 c-79 -57 -255 -219 -255 -236 0 -3 -12 -21 -26 -40 -33
-43 -111 -199 -130 -261 -19 -60 -44 -205 -44 -257 0 -44 -12 -54 -67 -54 -13
0 -23 -2 -23 -5 0 -9 24 -46 52 -78 15 -18 46 -57 70 -87 69 -86 62 -91 149
112 39 91 39 97 -13 91 l-41 -6 7 76 c4 42 13 95 21 118 8 23 15 49 15 58 0
27 88 190 141 263 45 60 111 119 224 203 48 35 55 44 55 71 0 52 -80 71 -135
32z"/>
<path d="M1830 2163 c0 -10 27 -88 39 -111 4 -9 22 -47 40 -84 17 -38 35 -68
41 -68 5 0 19 13 31 30 l22 29 20 -22 c91 -103 176 -256 207 -373 28 -106 36
-239 20 -347 -14 -104 -9 -134 25 -143 82 -20 109 44 110 256 0 76 -6 163 -14
200 -18 87 -69 225 -103 279 -15 25 -28 49 -28 53 0 11 -99 136 -129 162 -24
22 -27 41 -7 53 7 4 16 18 20 30 8 25 0 28 -144 43 -52 6 -107 13 -122 16 -16
3 -28 2 -28 -3z"/>
<path d="M955 1788 c-180 -62 -216 -117 -216 -333 -1 -176 31 -293 84 -315 82
-34 535 -50 779 -26 91 9 178 21 192 27 60 27 90 152 84 344 -3 109 -8 137
-26 172 -28 53 -75 89 -158 119 -82 30 -120 31 -129 4 -4 -11 -29 -46 -57 -78
-27 -31 -71 -88 -96 -126 l-47 -70 -9 67 c-10 81 -5 103 34 145 33 36 39 67
14 76 -9 3 -53 6 -98 6 -116 0 -129 -17 -71 -93 38 -50 42 -78 24 -152 l-11
-44 -48 72 c-27 40 -69 95 -95 122 -25 28 -48 60 -51 73 -7 25 -45 29 -99 10z"/>
<path d="M454 950 c-163 -81 -202 -283 -78 -404 49 -48 98 -69 169 -74 81 -5
133 10 192 58 68 54 97 120 91 205 -9 101 -58 172 -153 216 -56 26 -167 26
-221 -1z"/>
<path d="M1226 963 c-21 -6 -78 -41 -112 -70 -77 -65 -90 -225 -26 -314 15
-21 52 -53 82 -71 50 -31 61 -33 140 -33 80 0 90 2 141 33 77 47 112 105 117
195 5 87 -15 143 -70 192 -60 55 -111 75 -188 74 -36 -1 -74 -4 -84 -6z"/>
<path d="M1935 946 c-99 -46 -145 -118 -145 -226 0 -109 43 -176 146 -226 48
-24 63 -26 129 -22 134 9 229 90 241 206 10 97 -1 144 -49 198 -81 92 -213
121 -322 70z"/>
<path d="M340 471 c-35 -7 -81 -29 -111 -53 -35 -29 -52 -102 -47 -211 5 -118
32 -185 78 -198 41 -11 571 -10 613 2 20 5 37 12 37 16 0 3 -7 32 -16 65 -14
57 -15 124 -2 293 3 36 0 41 -36 61 -59 33 -120 40 -159 17 -80 -48 -178 -48
-253 -2 -33 20 -46 21 -104 10z"/>
<path d="M1085 471 c-32 -6 -92 -36 -111 -55 -41 -42 -58 -133 -45 -247 12
-103 33 -146 80 -159 49 -13 555 -13 605 1 35 10 37 13 32 37 -22 88 -25 115
-25 192 0 48 6 102 14 125 16 46 10 57 -44 84 -66 33 -113 34 -170 4 -72 -37
-147 -37 -222 0 -58 28 -63 29 -114 18z"/>
<path d="M1825 471 c-63 -16 -117 -56 -144 -108 -6 -12 -11 -70 -11 -133 0
-91 4 -120 21 -160 18 -42 27 -51 58 -60 46 -13 555 -13 601 0 62 17 75 53 75
211 0 128 -1 137 -25 172 -25 37 -86 70 -149 83 -25 5 -46 0 -88 -22 -76 -38
-150 -39 -222 -1 -55 28 -66 30 -116 18z"/>
</g>
</svg>
