<svg width="193" height="216" viewBox="0 0 193 216" fill="none" xmlns="http://www.w3.org/2000/svg">
<path d="M0 48C0 34.7438 10.7438 24 24 24H84V72C84 78.6375 89.3625 84 96 84H144V192C144 205.238 133.238 216 120 216H24C10.7438 216 0 205.238 0 192V48ZM96 72V24L144 72H96Z" fill="#CCCCCC"/>
<path d="M2 48C2 35.8483 11.8483 26 24 26H82V72C82 79.7421 88.2579 86 96 86H142V192C142 204.133 132.133 214 120 214H24C11.8493 214 2 204.134 2 192V48ZM98 70V28.8284L139.172 70H98Z" stroke="#283148" stroke-opacity="0.45" stroke-width="4"/>
<rect x="67" y="19" width="49" height="51" fill="#E9EEC9"/>
<rect x="88" y="79" width="63" height="93" fill="#F9CB40"/>
<path d="M49 24C49 10.7438 59.7438 0 73 0H133V48C133 54.6375 138.363 60 145 60H193V168C193 181.238 182.238 192 169 192H73C59.7438 192 49 181.238 49 168V24ZM145 48V0L193 48H145Z" fill="#719192"/>
<path d="M51 24C51 11.8483 60.8483 2 73 2H131V48C131 55.7421 137.258 62 145 62H191V168C191 180.133 181.133 190 169 190H73C60.8493 190 51 180.134 51 168V24ZM147 46V4.82843L188.172 46H147Z" stroke="#0A142B" stroke-opacity="0.3" stroke-width="4"/>
<circle cx="85" cy="32" r="11" fill="#E9EEC9" stroke="#526C73" stroke-width="4"/>
<path d="M125 122.997V75C149.793 75 170.507 93.8818 172.795 118.568L125 122.997Z" fill="#CCCCCC" stroke="#526C73" stroke-width="3"/>
<path d="M125 122.997L172.795 118.568C174.475 136.699 165.75 154.219 150.268 163.804L125 122.997Z" fill="#F9CB40" stroke="#526C73" stroke-width="3"/>
<path d="M125 122.997L150.268 163.804C127.729 177.759 98.145 170.801 84.1896 148.264C78.6937 139.388 76.2415 128.963 77.2048 118.568L125 122.997Z" fill="#E34A6F" stroke="#526C73" stroke-width="3"/>
<path d="M125 122.997L77.2048 118.568C79.4925 93.8818 100.206 75 125 75V122.997Z" fill="#39C17F" stroke="#526C73" stroke-width="3"/>
<path d="M136.907 123.312C136.907 130.262 131.406 135.838 124.692 135.838C117.977 135.838 112.476 130.262 112.476 123.312C112.476 116.362 117.977 110.786 124.692 110.786C131.406 110.786 136.907 116.362 136.907 123.312Z" fill="#E9EEC9" stroke="#526C73" stroke-width="3"/>
</svg>
