<?xml version="1.0" encoding="UTF-8"?>
<svg width="70px" height="70px" viewBox="0 0 70 70" version="1.1" xmlns="http://www.w3.org/2000/svg" xmlns:xlink="http://www.w3.org/1999/xlink">
    <!-- Generator: Sketch 49.1 (51147) - http://www.bohemiancoding.com/sketch -->
    <title>Salary Calc Paid</title>
    <desc>Created with Sketch.</desc>
    <defs>
        <rect id="path-1" x="0" y="0" width="32" height="42.6666667" rx="5"></rect>
    </defs>
    <g id="Salary-Calc-Paid" stroke="none" stroke-width="1" fill="none" fill-rule="evenodd">
        <g id="Group" transform="translate(2.000000, 2.000000)" fill="#FFFFFF" stroke="#0098FF" stroke-width="2">
            <circle id="Oval-7" cx="33" cy="33" r="33"></circle>
        </g>
        <g id="Group-122" transform="translate(19.000000, 14.000000)">
            <g id="Rectangle-55">
                <use fill="#FFFFFF" fill-rule="evenodd" xlink:href="#path-1"></use>
                <rect stroke="#0A142B" stroke-width="2" x="1" y="1" width="30" height="40.6666667" rx="5"></rect>
            </g>
            <rect id="Rectangle-63" fill="#0A142B" x="5" y="33" width="6" height="4" rx="1"></rect>
            <rect id="Rectangle-63-Copy" fill="#0A142B" x="13" y="33" width="6" height="4" rx="1"></rect>
            <rect id="Rectangle-63-Copy-2" fill="#0A142B" x="21" y="33" width="6" height="4" rx="1"></rect>
            <rect id="Rectangle-63" fill="#0A142B" x="5" y="26" width="6" height="4" rx="1"></rect>
            <rect id="Rectangle-63-Copy" fill="#0A142B" x="13" y="26" width="6" height="4" rx="1"></rect>
            <rect id="Rectangle-63-Copy-2" fill="#0A142B" x="21" y="26" width="6" height="4" rx="1"></rect>
            <rect id="Rectangle-63" fill="#0A142B" x="5" y="19" width="6" height="4" rx="1"></rect>
            <rect id="Rectangle-63-Copy" fill="#0A142B" x="13" y="19" width="6" height="4" rx="1"></rect>
            <rect id="Rectangle-63-Copy" fill="#0A142B" x="5" y="6" width="22" height="7" rx="1"></rect>
            <rect id="Rectangle-63-Copy-2" fill="#0A142B" x="21" y="19" width="6" height="4" rx="1"></rect>
        </g>
    </g>
</svg>