<?xml version="1.0" encoding="UTF-8"?>
<svg width="70px" height="70px" viewBox="0 0 70 70" version="1.1" xmlns="http://www.w3.org/2000/svg" xmlns:xlink="http://www.w3.org/1999/xlink">
    <!-- Generator: Sketch 49.1 (51147) - http://www.bohemiancoding.com/sketch -->
    <title>Providers</title>
    <desc>Created with Sketch.</desc>
    <defs></defs>
    <g id="Providers" stroke="none" stroke-width="1" fill="none" fill-rule="evenodd">
        <g id="Group" transform="translate(2.000000, 2.000000)" fill="#FFFFFF" stroke="#0098FF" stroke-width="3">
            <g id="Group-88">
                <circle id="Oval-7" cx="33" cy="33" r="33"></circle>
            </g>
        </g>
        <g id="Group-89" transform="translate(10.000000, 20.000000)">
            <rect id="Rectangle-53" fill="#0A142B" x="0" y="4.22535211" width="7.74647887" height="18.3098592" rx="2"></rect>
            <rect id="Rectangle-53" fill="#0A142B" x="42.2535211" y="4.22535211" width="7.74647887" height="18.3098592" rx="2"></rect>
            <circle id="Oval-13" fill="#FFFFFF" cx="3.52112676" cy="18.3098592" r="1.4084507"></circle>
            <circle id="Oval-13" fill="#FFFFFF" cx="45.7746479" cy="18.3098592" r="1.4084507"></circle>
            <path d="M6.07871515,5.91972415 L11.2728438,5.91972415 C12.3316611,4.61629712 13.4429719,3.30590074 14.6067762,1.98853503 C15.5423963,0.929461993 18.5909039,0.186458801 22.1815746,0.928487004 C22.7653831,1.04913367 23.4582701,1.47849551 24.2602353,2.21657253" id="Path-4" stroke="#0A142B" stroke-width="3"></path>
            <path d="M42.6406868,6.73949068 C41.2589213,6.73949068 38.7259298,4.79310695 35.0417123,0.900339506" id="Path-5" stroke="#0A142B" stroke-width="3"></path>
            <path d="M35.8288402,1.24013122 C32.2608546,1.24013122 27.5385491,1.05868822 25.2689219,1.73947879 C24.5990729,1.94040468 24.3927282,2.77163686 23.852945,3.28841012 C23.649154,3.48351392 24.3018612,3.00315975 18.8190292,9.38836227 C17.952697,10.3972764 19.9576888,14.5498964 22.2277848,14.4958944 C22.8158418,14.4819055 24.5129086,14.8554977 25.666347,14.2166325 C26.6752629,13.6578154 28.3892428,11.8535488 30.8082868,8.8038327" id="Path-6" stroke="#0A142B" stroke-width="3"></path>
            <path d="M6.49769798,20.4904232 C9.66800072,20.4904232 10.6018077,21.8309859 10.6018077,21.8309859 C10.6018077,21.8309859 11.5917729,22.5806241 17.8058129,28.1082179 C18.2222273,28.4786323 22.2419391,30.7096495 22.691885,31.2192503" id="Path-7" stroke="#0A142B" stroke-width="3"></path>
            <path d="M38.6896338,20.2975805 C41.790988,20.2975805 43.52944,20.2975805 43.9049899,20.2975805" id="Path-9" stroke="#0A142B" stroke-width="3"></path>
            <path d="M29.5774648,9.15492958 C30.0516256,9.69569689 30.6110984,9.92293338 31.0486699,10.4232573 C34.5372893,14.4121812 37.277338,17.771923 39.268816,20.5024827" id="Path-10" stroke="#0A142B" stroke-width="3"></path>
            <path d="M39.5446439,22.9844605 C39.5446439,21.2342623 38.1469826,20.6524654 36.3186287,20.6524654 C34.4902749,20.6524654 33.262503,21.9539193 33.262503,23.7041175" id="Oval-14" stroke="#0A142B" stroke-width="3" transform="translate(36.403573, 22.178291) rotate(148.000000) translate(-36.403573, -22.178291) "></path>
            <path d="M34.4271746,26.8107143 C34.4271746,25.0605161 33.3320007,24.4787192 31.8993464,24.4787192 C30.4666922,24.4787192 29.0296385,25.6227803 29.0296385,27.3729784" id="Oval-14" stroke="#0A142B" stroke-width="3" transform="translate(31.728407, 25.925849) rotate(148.000000) translate(-31.728407, -25.925849) "></path>
            <path d="M29.7618753,29.2338252 C29.7618753,27.6182624 28.8125122,27.0812206 27.5706006,27.0812206 C26.328689,27.0812206 25.4947234,28.2825592 25.4947234,29.898122" id="Oval-14" stroke="#0A142B" stroke-width="3" transform="translate(27.628299, 28.489671) rotate(148.000000) translate(-27.628299, -28.489671) "></path>
            <path d="M26.0200389,31.7583594 C26.0200389,30.6875506 24.9598791,29.6456833 24.0386923,29.6456833 C23.1175054,29.6456833 22.4989122,30.4419408 22.4989122,31.5127495" id="Oval-14" stroke="#0A142B" stroke-width="3" transform="translate(24.259476, 30.702021) rotate(148.000000) translate(-24.259476, -30.702021) "></path>
        </g>
    </g>
</svg>