<?xml version="1.0" encoding="UTF-8"?>
<svg width="70px" height="70px" viewBox="0 0 70 70" version="1.1" xmlns="http://www.w3.org/2000/svg" xmlns:xlink="http://www.w3.org/1999/xlink">
    <!-- Generator: Sketch 49.1 (51147) - http://www.bohemiancoding.com/sketch -->
    <title>Extract Invoices</title>
    <desc>Created with Sketch.</desc>
    <defs></defs>
    <g id="Extract-Invoices" stroke="none" stroke-width="1" fill="none" fill-rule="evenodd">
        <g id="Group" transform="translate(2.000000, 2.000000)">
            <circle id="Oval-7" stroke="#0098FF" stroke-width="3" fill="#FFFFFF" cx="33" cy="33" r="33"></circle>
            <g id="Group-105" transform="translate(12.000000, 21.000000)">
                <circle id="Oval-7" fill="#0A142B" cx="12.1956522" cy="12.1956522" r="12.1956522"></circle>
                <text id="$" font-family="PTSans-Caption, PT Sans Caption" font-size="14" font-weight="normal" fill="#FFFFFF">
                    <tspan x="7.45069565" y="17">$</tspan>
                </text>
                <g id="Group-93-Copy-2" transform="translate(26.000000, 4.000000)">
                    <rect id="Rectangle-50" fill="#0A142B" x="0" y="9" width="14.7529412" height="6.14705882" rx="2"></rect>
                    <circle id="Oval-7" fill="#FFFFFF" cx="11.6147059" cy="12.6147059" r="1"></circle>
                    <circle id="Oval-7" fill="#FFFFFF" cx="13.6147059" cy="12.6147059" r="1"></circle>
                    <rect id="Rectangle-46" fill="#0A142B" x="6" y="0" width="3.68823529" height="6.5835" rx="1"></rect>
                    <path d="M6.76413166,10.716958 L2,5 L13.0647059,5 L8.30057422,10.716958 C7.94701014,11.1412349 7.31644544,11.198559 6.89216854,10.8449949 C6.84570548,10.8062757 6.80285088,10.7634211 6.76413166,10.716958 Z" id="Triangle" fill="#FFFFFF"></path>
                    <path d="M7.16374918,8.77790218 L3,4 L12.8352941,4 L8.67154494,8.77790218 C8.30869849,9.19426848 7.67702174,9.2376549 7.26065544,8.87480845 C7.22617532,8.84476041 7.19379722,8.81238231 7.16374918,8.77790218 Z" id="Triangle" fill="#0A142B"></path>
                </g>
            </g>
        </g>
    </g>
</svg>