<?xml version="1.0" encoding="UTF-8"?>
<svg width="276px" height="183px" viewBox="0 0 276 183" version="1.1" xmlns="http://www.w3.org/2000/svg" xmlns:xlink="http://www.w3.org/1999/xlink">
    <title>image_not_available</title>
    <g id="image_not_available" stroke="none" stroke-width="1" fill="none" fill-rule="evenodd">
        <rect fill="#F5F7FA" x="0" y="0" width="276" height="183"></rect>
        <g id="image-regular" opacity="0.15" transform="translate(83.000000, 47.000000)" fill="#000000" fill-rule="nonzero">
            <path d="M32.7157129,17.6785714 C27.0101759,17.6785714 22.3850536,21.9957589 22.3850536,27.3214286 C22.3850536,32.6470982 27.0101759,36.9642857 32.7157129,36.9642857 C38.4212499,36.9642857 43.0463722,32.6470982 43.0463722,27.3214286 C43.0463722,21.9957589 38.4190977,17.6785714 32.7157129,17.6785714 Z M96.2277452,0 L13.582471,0 C6.16807077,0 0,5.75558036 0,12.8571429 L0,77.1428571 C0,84.2444196 6.16611225,90 13.5805125,90 L96.2257867,90 C103.833887,90 110,84.2444196 110,77.1428571 L110,12.8571429 C110.001958,5.75558036 104.018784,0 96.2277452,0 Z M99.6712983,75.796875 L70.2289194,38.4508929 C69.6908642,37.5267857 68.4640984,36.9642857 67.1512438,36.9642857 C65.8355913,36.9642857 64.6073189,37.5203571 63.8777161,38.4466741 L40.9350437,67.3953348 L32.9524572,58.1341741 C32.211878,57.2745536 31.0296632,56.7662946 29.7736272,56.7662946 C28.5162999,56.7662946 27.3351612,57.2743527 26.592645,58.1341741 L10.3390745,76.979933 C10.3390745,76.9740469 10.3390745,76.9858192 10.3390745,76.979933 L10.3304656,12.8571429 C10.3304656,11.0848661 11.8753296,9.64285714 13.7740187,9.64285714 L96.4192928,9.64285714 C98.3179819,9.64285714 99.8628459,11.0848661 99.8628459,12.8571429 L99.8628459,75.796875 L99.6712983,75.796875 Z" id="Shape"></path>
        </g>
    </g>
</svg>