<?xml version="1.0" standalone="no"?>
<!DOCTYPE svg PUBLIC "-//W3C//DTD SVG 20010904//EN"
 "http://www.w3.org/TR/2001/REC-SVG-20010904/DTD/svg10.dtd">
<svg version="1.0" xmlns="http://www.w3.org/2000/svg"
 width="256.000000pt" height="256.000000pt" viewBox="0 0 256.000000 256.000000"
 preserveAspectRatio="xMidYMid meet">
<metadata>
Created by potrace 1.15, written by Peter Selinger 2001-2017
</metadata>
<g transform="translate(0.000000,256.000000) scale(0.100000,-0.100000)"
fill="#000000" stroke="none">
<path d="M1058 2461 c-123 -27 -179 -46 -293 -102 -308 -150 -540 -434 -633
-776 -24 -91 -26 -112 -26 -303 0 -191 2 -212 26 -303 59 -214 161 -391 317
-548 157 -156 334 -258 548 -317 91 -24 112 -26 303 -26 191 0 212 2 303 26
214 59 391 161 548 317 156 157 258 334 317 548 24 91 26 112 26 303 0 191 -2
212 -26 303 -59 214 -161 391 -317 548 -158 157 -336 260 -548 316 -84 22
-123 26 -278 29 -148 3 -195 0 -267 -15z m282 -321 c22 -12 40 -60 40 -106 0
-26 4 -34 18 -34 62 -1 168 -23 216 -44 32 -14 82 -50 115 -81 74 -70 112
-147 119 -236 4 -58 2 -69 -17 -88 -23 -23 -61 -27 -91 -11 -19 10 -34 50 -45
121 -8 54 -65 122 -127 153 -41 20 -67 26 -120 26 l-68 0 0 -240 c0 -222 1
-240 18 -240 62 -1 168 -23 216 -44 73 -33 165 -120 202 -193 27 -53 29 -67
29 -163 0 -96 -2 -110 -29 -163 -37 -73 -129 -160 -202 -193 -48 -21 -154 -43
-216 -44 -14 0 -18 -8 -18 -35 0 -83 -42 -127 -106 -111 -30 8 -54 57 -54 110
l0 34 -67 7 c-131 13 -216 51 -295 132 -65 67 -100 141 -106 224 -4 58 -2 69
17 88 26 26 75 27 100 2 11 -11 23 -37 26 -58 12 -79 26 -112 66 -153 56 -58
109 -80 192 -80 l67 0 0 239 0 239 -67 7 c-173 17 -299 97 -370 235 -25 50
-28 65 -28 160 0 96 2 110 29 163 37 73 129 160 202 193 48 21 154 43 217 44
13 0 17 8 17 34 0 91 56 140 120 106z"/>
<path d="M1044 1821 c-50 -23 -112 -83 -130 -127 -18 -43 -18 -145 0 -188 18
-44 80 -104 130 -127 27 -12 64 -19 109 -19 l67 0 0 240 0 240 -67 0 c-45 0
-82 -7 -109 -19z"/>
<path d="M1380 960 l0 -242 78 3 c66 3 86 9 127 34 26 17 62 50 79 73 29 41
31 49 31 132 0 83 -2 91 -31 132 -17 23 -53 57 -79 73 -41 25 -61 31 -127 34
l-78 3 0 -242z"/>
</g>
</svg>
