<svg width="18" height="16" viewBox="0 0 18 16" fill="none" xmlns="http://www.w3.org/2000/svg">
<path d="M9.1531 7.95991L4.62441 0.0394111C4.61758 0.0274008 4.60775 0.0174331 4.59592 0.0105135C4.58408 0.00359401 4.57066 -3.23838e-05 4.55701 2.17893e-07C4.54335 3.28196e-05 4.52995 0.00372327 4.51815 0.0106992C4.50635 0.0176752 4.49657 0.0276899 4.48979 0.0397326L0.0105325 7.96024C0.00363265 7.97237 0 7.98613 0 8.00014C0 8.01416 0.00363265 8.02792 0.0105325 8.04006L4.53926 15.9606C4.54608 15.9726 4.55591 15.9826 4.56775 15.9895C4.57959 15.9964 4.59301 16 4.60667 16C4.62033 16 4.63374 15.9963 4.64555 15.9893C4.65735 15.9823 4.66714 15.9723 4.67391 15.9602L9.15327 8.03973C9.16013 8.02758 9.16372 8.01381 9.16369 7.9998C9.16366 7.98579 9.16 7.97204 9.1531 7.95991ZM10.5269 7.04161C10.5336 7.05362 10.5433 7.06362 10.5551 7.07059C10.5668 7.07756 10.5801 7.08125 10.5937 7.08129H12.932C12.9456 7.08112 12.959 7.07732 12.9708 7.07027C12.9826 7.06322 12.9923 7.05316 12.9991 7.04109C13.0058 7.02903 13.0093 7.01537 13.0093 7.00149C13.0092 6.98761 13.0056 6.97398 12.9988 6.96197L9.10957 0.039804C9.10288 0.0277826 9.09318 0.0177769 9.08144 0.0108069C9.06971 0.00383678 9.05637 0.000151399 9.04277 0.000126169H6.70458C6.69092 0.000291588 6.67754 0.00408904 6.66576 0.0111406C6.65399 0.0181922 6.64424 0.0282521 6.63749 0.0403194C6.63073 0.0523867 6.62721 0.0660407 6.62726 0.0799228C6.62731 0.0938048 6.63094 0.107431 6.63779 0.119445L10.5269 7.04161ZM17.9896 7.9602L13.5317 0.0398397C13.525 0.0277909 13.5152 0.0177705 13.5034 0.0107956C13.4916 0.00382065 13.4782 0.000139619 13.4646 0.000126169H11.1232C11.1095 0.000258106 11.0961 0.00402932 11.0843 0.0110639C11.0725 0.0180986 11.0627 0.0281508 11.0559 0.0402189C11.0492 0.0522869 11.0456 0.0659492 11.0456 0.0798439C11.0457 0.0937386 11.0493 0.107381 11.0562 0.11941L15.4918 7.99998L11.056 15.8806C11.0492 15.8926 11.0456 15.9062 11.0455 15.9201C11.0455 15.934 11.0491 15.9477 11.0558 15.9598C11.0626 15.9718 11.0724 15.9819 11.0842 15.9889C11.096 15.9959 11.1094 15.9997 11.1231 15.9998H13.4645C13.4781 15.9998 13.4915 15.9961 13.5032 15.9891C13.515 15.9822 13.5248 15.9722 13.5315 15.9601L17.9896 8.03977C17.9964 8.02766 18 8.01394 18 7.99998C18 7.98603 17.9964 7.97231 17.9896 7.9602ZM12.8678 9.03272H10.5296C10.5161 9.03274 10.5027 9.03643 10.491 9.0434C10.4792 9.05037 10.4695 9.06037 10.4629 9.0724L6.63782 15.8805C6.63098 15.8925 6.62735 15.9062 6.62729 15.92C6.62724 15.9339 6.63077 15.9476 6.63752 15.9597C6.64428 15.9717 6.65403 15.9818 6.6658 15.9888C6.67757 15.9959 6.69095 15.9997 6.70462 15.9998H9.04284C9.05644 15.9998 9.06978 15.9961 9.08152 15.9892C9.09325 15.9822 9.10295 15.9722 9.10964 15.9602L12.9347 9.15204C12.9415 9.14002 12.9452 9.12639 12.9452 9.1125C12.9453 9.09862 12.9417 9.08496 12.935 9.07289C12.9282 9.06083 12.9184 9.05077 12.9067 9.04372C12.8949 9.03667 12.8815 9.03288 12.8678 9.03272Z" fill="#0A142B"/>
</svg>
