<?xml version="1.0" standalone="no"?>
<!DOCTYPE svg PUBLIC "-//W3C//DTD SVG 20010904//EN"
 "http://www.w3.org/TR/2001/REC-SVG-20010904/DTD/svg10.dtd">
<svg version="1.0" xmlns="http://www.w3.org/2000/svg"
 width="256.000000pt" height="256.000000pt" viewBox="0 0 256.000000 256.000000"
 preserveAspectRatio="xMidYMid meet">
<metadata>
Created by potrace 1.15, written by Peter Selinger 2001-2017
</metadata>
<g transform="translate(0.000000,256.000000) scale(0.100000,-0.100000)"
fill="#000000" stroke="none">
<path d="M816 2537 c-33 -33 -38 -102 -34 -492 l3 -320 98 -3 97 -3 0 326 0
325 499 0 c274 0 519 -3 545 -6 l46 -7 -102 -59 c-364 -210 -347 -199 -355
-237 -9 -48 -9 -109 -11 -818 l-2 -613 -310 0 -310 0 0 250 0 251 -97 -3 -98
-3 -3 -312 -2 -312 29 -33 29 -33 379 -3 c208 -2 380 -6 383 -8 2 -3 4 -86 3
-184 l-2 -180 30 -30 c56 -56 60 -54 498 196 218 124 404 235 413 247 16 21
18 90 18 1027 0 976 -1 1006 -20 1030 l-19 25 -841 3 -841 2 -23 -23z"/>
<path d="M500 1832 c-14 -9 -132 -97 -262 -195 -308 -230 -303 -199 -60 -379
363 -270 379 -280 415 -240 14 15 17 41 17 145 l0 127 260 0 259 0 40 38 c52
50 61 95 31 158 -35 71 -47 74 -340 74 l-250 0 0 128 c0 112 -2 131 -18 145
-23 21 -60 21 -92 -1z"/>
</g>
</svg>
