<svg width="26" height="23" viewBox="0 0 26 23" fill="none" xmlns="http://www.w3.org/2000/svg">
    <path d="M16.667 3.33331H3.33366C2.41699 3.33331 1.67533 4.08331 1.67533 4.99998L1.66699 15C1.66699 15.9166 2.41699 16.6666 3.33366 16.6666H16.667C17.5837 16.6666 18.3337 15.9166 18.3337 15V4.99998C18.3337 4.08331 17.5837 3.33331 16.667 3.33331ZM16.667 6.66665L10.0003 10.8333L3.33366 6.66665V4.99998L10.0003 9.16665L16.667 4.99998V6.66665Z" fill="#0A142B"/>
    <circle cx="18.25" cy="16.25" r="6.25" fill="white"/>
    <path d="M18.25 10C14.7974 10 12 12.7974 12 16.25C12 19.7026 14.7974 22.5 18.25 22.5C21.7026 22.5 24.5 19.7026 24.5 16.25C24.5 12.7974 21.7026 10 18.25 10ZM18.25 12.4194C19.4748 12.4194 20.4677 13.4123 20.4677 14.6371C20.4677 15.8619 19.4748 16.8548 18.25 16.8548C17.0252 16.8548 16.0323 15.8619 16.0323 14.6371C16.0323 13.4123 17.0252 12.4194 18.25 12.4194ZM18.25 21.0887C16.7707 21.0887 15.4451 20.4183 14.558 19.37C15.0318 18.4778 15.9592 17.8629 17.0403 17.8629C17.1008 17.8629 17.1613 17.873 17.2193 17.8906C17.5469 17.9965 17.8896 18.0645 18.25 18.0645C18.6104 18.0645 18.9556 17.9965 19.2807 17.8906C19.3387 17.873 19.3992 17.8629 19.4597 17.8629C20.5408 17.8629 21.4682 18.4778 21.942 19.37C21.0549 20.4183 19.7293 21.0887 18.25 21.0887Z" fill="#0098FF"/>
</svg>
