<svg id="Capa_1" enable-background="new 0 0 512 512" height="512" viewBox="0 0 512 512" width="512" xmlns="http://www.w3.org/2000/svg"><g><g><g><path d="m456.751 275.145v224.963c0 6.568-5.324 11.892-11.892 11.892h-377.123c-6.568 0-11.892-5.324-11.892-11.892v-224.963c0-3.48 1.525-6.786 4.172-9.045l188.562-160.938c4.447-3.795 10.993-3.795 15.44 0l188.561 160.938c2.647 2.26 4.172 5.565 4.172 9.045z" fill="#756f6f"/><g fill="#5b5555"><path d="m183.013 279.605c0-15.217 12.336-27.552 27.552-27.552s27.552 12.336 27.552 27.552c0 15.217-12.336 27.552-27.552 27.552s-27.552-12.335-27.552-27.552"/><path d="m456.756 275.15v224.955c0 6.576-5.327 11.892-11.892 11.892h-27.898v-219.01c0-3.484-1.522-6.79-4.174-9.05l-186.842-159.467 22.63-19.312c4.447-3.793 10.988-3.793 15.435 0l188.567 160.942c2.64 2.259 4.174 5.565 4.174 9.05z"/><path d="m367.83 274.904c5.993 5.993 1.748 16.232-6.719 16.232h-104.813c-56.937 0-105.182-37.245-121.676-88.712l113.958-97.262c4.447-3.793 10.988-3.793 15.435 0l113.97 97.274c-6.279 19.574-17.148 37.09-31.335 51.277z"/></g><g><g><path d="m226.928 390.953-166.983 118.144c-.119-.107-.226-.214-.333-.309-2.319-2.176-3.77-5.256-3.77-8.681v-224.253l154.723 104.088z" fill="#70d9e6"/><path d="m456.747 275.854v224.253c0 3.425-1.451 6.505-3.77 8.681-.107.095-.214.202-.333.309l-166.983-118.144 16.363-11.012z" fill="#70d9e6"/><path d="m456.744 275.851v224.253c0 3.425-1.451 6.505-3.77 8.681-.107.095-.214.202-.333.309l-35.675-25.246v-181.241z" fill="#3ad1e0"/></g><path d="m256.295 345.313c-3.327 0-6.545 1.187-9.076 3.347l-187.607 160.128c.107.095.214.202.333.309 2.081 1.808 4.804 2.902 7.789 2.902h377.121c2.985 0 5.708-1.094 7.789-2.902.119-.107.226-.214.333-.309l-187.606-160.128c-2.531-2.16-5.749-3.347-9.076-3.347z" fill="#a8e7ef"/></g></g><g><g><path d="m384.073 127.777c0-70.569-57.207-127.776-127.775-127.776-70.503 0-127.778 57.274-127.777 127.777.001 70.568 57.208 127.775 127.776 127.775h104.813c8.474 0 12.718-10.245 6.726-16.238l-21.187-21.187c23.122-23.122 37.424-55.066 37.424-90.351z" fill="#31a7fb"/><path d="m367.83 239.32c5.993 5.993 1.748 16.232-6.719 16.232h-38.791c8.479 0 12.724-10.239 6.731-16.232l-13.146-13.146c-4.372-4.372-4.651-11.353-.665-16.081 18.743-22.232 30.043-50.96 30.043-82.318 0-63.965-47.02-116.966-108.381-126.313 6.327-.963 12.796-1.462 19.396-1.462 70.565 0 127.776 57.211 127.776 127.776 0 35.283-14.306 67.236-37.423 90.353z" fill="#1c96f9"/></g><g><path d="m281.522 127.778 23.769-23.769c6.966-6.966 6.966-18.26 0-25.226-6.965-6.967-18.26-6.967-25.226 0l-23.769 23.769-23.769-23.769c-6.965-6.966-18.26-6.966-25.226 0-6.966 6.965-6.966 18.26 0 25.226l23.769 23.769-23.769 23.769c-6.966 6.966-6.966 18.26 0 25.226 3.483 3.483 8.048 5.225 12.613 5.225s9.13-1.741 12.613-5.225l23.769-23.769 23.769 23.769c3.483 3.483 8.047 5.225 12.613 5.225 4.564 0 9.13-1.742 12.613-5.225 6.966-6.965 6.966-18.26 0-25.226z" fill="#f8f3f1"/></g></g></g><g><path d="m183.013 255.549c0-15.217 12.336-27.552 27.552-27.552s27.552 12.336 27.552 27.552-12.336 27.552-27.552 27.552-27.552-12.335-27.552-27.552" fill="#bcea73"/><path d="m196.591 279.292c10.816-2.493 18.874-12.175 18.874-23.746 0-11.559-8.046-21.254-18.861-23.747 4.092-2.418 8.864-3.803 13.963-3.803 15.21 0 27.549 12.339 27.549 27.549 0 15.222-12.339 27.561-27.549 27.561-5.099.002-9.884-1.384-13.976-3.814" fill="#99d53b"/></g><g><path d="m409.303 45.594c0-15.217 12.336-27.552 27.552-27.552 15.217 0 27.552 12.336 27.552 27.552s-12.336 27.552-27.552 27.552c-15.217 0-27.552-12.335-27.552-27.552" fill="#bcea73"/><path d="m422.881 69.337c10.816-2.493 18.874-12.175 18.874-23.746 0-11.559-8.046-21.254-18.861-23.747 4.092-2.418 8.864-3.802 13.963-3.802 15.21 0 27.549 12.339 27.549 27.549 0 15.222-12.339 27.561-27.549 27.561-5.1 0-9.884-1.385-13.976-3.815" fill="#99d53b"/></g><g><path d="m47.592 149.636c0-13.513 10.954-24.467 24.467-24.467s24.467 10.954 24.467 24.467-10.954 24.467-24.467 24.467-24.467-10.954-24.467-24.467" fill="#a8e7ef"/><path d="m59.65 170.72c9.604-2.214 16.76-10.812 16.76-21.087 0-10.264-7.145-18.874-16.749-21.087 3.634-2.147 7.871-3.377 12.4-3.377 13.507 0 24.464 10.957 24.464 24.464 0 13.518-10.957 24.475-24.464 24.475-4.529 0-8.777-1.23-12.411-3.388" fill="#70d9e6"/></g><g><path d="m447.782 183.555 7.278-7.278c3.018-3.017 3.018-7.909 0-10.927-3.017-3.017-7.909-3.017-10.927 0l-7.278 7.278-7.278-7.278c-3.017-3.017-7.909-3.017-10.927 0s-3.018 7.909 0 10.927l7.278 7.278-7.278 7.278c-3.018 3.017-3.018 7.909 0 10.927 1.509 1.509 3.486 2.263 5.463 2.263s3.955-.755 5.463-2.263l7.278-7.278 7.278 7.278c1.509 1.509 3.486 2.263 5.463 2.263s3.955-.755 5.463-2.263c3.018-3.017 3.018-7.909 0-10.927z" fill="#64b9fc"/><path d="m96.809 58.451c-3.017-3.017-7.909-3.017-10.927 0l-4.18 4.18-4.18-4.18c-3.017-3.018-7.909-3.018-10.927 0-3.018 3.017-3.018 7.909 0 10.927l4.18 4.18-4.18 4.18c-3.018 3.018-3.018 7.909 0 10.927 1.509 1.509 3.486 2.263 5.463 2.263s3.955-.755 5.463-2.263l4.18-4.18 4.18 4.18c1.509 1.509 3.486 2.263 5.463 2.263s3.955-.755 5.463-2.263c3.018-3.017 3.018-7.909 0-10.927l-4.18-4.18 4.18-4.18c3.02-3.018 3.02-7.91.002-10.927z" fill="#bcea73"/></g></g></svg>