<svg width="14" height="14" viewBox="0 0 14 14" fill="none" xmlns="http://www.w3.org/2000/svg">
<g clip-path="url(#clip0_6218_46648)">
<path d="M5.09552 4.20229C4.14815 4.20229 3.37631 4.90495 3.37631 5.77985C3.37631 6.64656 4.14815 7.35742 5.09552 7.35742C6.0429 7.35742 6.81473 6.64656 6.81473 5.77985C6.81473 4.90495 6.0429 4.20229 5.09552 4.20229ZM9.09122 4.20229C8.14384 4.20229 7.37201 4.90495 7.37201 5.77985C7.37201 6.64656 8.14384 7.35742 9.09122 7.35742C10.047 7.35742 10.8104 6.64656 10.8104 5.77985C10.8132 4.90495 10.047 4.20229 9.09122 4.20229ZM13.4547 6.66296L13.2875 6.78053V1.35884C13.2875 0.609701 12.7135 0 12.0058 0H1.99983C1.29209 0 0.718089 0.609701 0.718089 1.35884V6.78053C0.662361 6.74225 0.598274 6.70124 0.542546 6.66296C0.1218 6.37315 -0.15684 6.77232 0.096722 7.14689C0.606633 7.7648 1.5763 8.52214 3.05866 9.11543C1.48992 14.3567 6.88718 15.1933 6.8008 12.5084C6.8008 12.4893 6.80916 10.9609 6.80916 9.86731C6.95126 9.89738 7.07108 9.93019 7.19089 9.95206C7.19089 11.0375 7.19925 12.4893 7.19925 12.5084C7.11288 15.196 12.5101 14.3594 10.9414 9.11817C12.421 8.52487 13.3934 7.76753 13.9033 7.14963C14.1569 6.77232 13.8783 6.37588 13.4547 6.66296ZM12.6049 7.1879C10.685 8.21045 9.02992 8.03821 8.12991 7.99993C7.46953 7.97532 7.22154 8.24873 7.19089 8.68071C6.90389 8.47019 6.67262 8.25693 6.62525 8.21319C6.48315 8.06555 6.24352 7.99446 5.87014 8.00266C4.98685 8.03274 3.37074 8.20498 1.48435 7.23712V1.97674C1.48435 1.02255 1.73234 0.727266 2.61563 0.727266H11.468C12.3123 0.727266 12.6077 1.07996 12.6077 1.97674V7.1879H12.6049Z" fill="#0A142B"/>
</g>
<defs>
<clipPath id="clip0_6218_46648">
<rect width="14" height="14" fill="white"/>
</clipPath>
</defs>
</svg>
