<svg width="235" height="235" viewBox="0 0 235 235" fill="none" xmlns="http://www.w3.org/2000/svg">
<rect width="235" height="235" fill="#F5F5F5"/>
<rect width="1741" height="2576" transform="translate(-789 -1153)" fill="white"/>
<path d="M104.508 0.728639C169.268 -6.43544 227.599 40.0373 234.793 104.528C238.423 137.066 193.336 104.002 174.139 127.562C155.286 150.7 162.647 230.722 130.56 234.271C65.7992 241.435 7.46848 194.963 0.27447 130.472C-3.80105 93.9365 38.4833 133.219 62.4769 108.889C80.8363 90.2716 76.4352 3.83415 104.508 0.728639Z" fill="#E5F5FF"/>
<circle cx="109.5" cy="67.5" r="22.5" fill="#FFEAAC"/>
<circle cx="109.5" cy="67.5" r="21.5" stroke="#0A142B" stroke-opacity="0.3" stroke-width="2"/>
<mask id="path-4-inside-1_203_446" fill="white">
<path d="M123.518 64.5617L122.405 63.4483C122.182 63.2252 121.885 63.1024 121.57 63.1024C121.254 63.1024 120.957 63.2252 120.734 63.4483L120.456 63.7267L119.466 62.7364C119.692 61.5818 119.335 60.3789 118.507 59.5505L116.28 57.3234C114.762 55.7599 112.64 54.9 110.474 54.9C108.264 54.9 106.187 55.7599 104.627 57.3221L104.243 57.708L108.968 60.0729V60.7526C108.968 61.6853 109.346 62.5983 110.006 63.2584L112.426 65.677C113.087 66.339 113.971 66.7037 114.914 66.7037C115.148 66.7037 115.382 66.6808 115.612 66.6354L116.602 67.6257L116.324 67.904C115.863 68.3645 115.863 69.1138 116.324 69.5744L117.437 70.6878C117.66 70.9109 117.957 71.0338 118.272 71.0338C118.588 71.0338 118.885 70.9109 119.108 70.6878L123.564 66.2335C124.02 65.7675 124.02 65.0194 123.518 64.5617ZM108.889 64.3697C108.7 64.1804 108.535 63.9704 108.379 63.755L96.5899 74.0515C95.2057 75.4356 95.2037 77.6799 96.588 79.062C97.2834 79.7555 98.1911 80.1 99.0545 80.1C99.9178 80.1 100.868 79.754 101.56 79.062L111.853 67.279C111.649 67.1284 111.45 66.9695 111.268 66.787L108.889 64.3697Z"/>
</mask>
<path d="M123.518 64.5617L122.405 63.4483C122.182 63.2252 121.885 63.1024 121.57 63.1024C121.254 63.1024 120.957 63.2252 120.734 63.4483L120.456 63.7267L119.466 62.7364C119.692 61.5818 119.335 60.3789 118.507 59.5505L116.28 57.3234C114.762 55.7599 112.64 54.9 110.474 54.9C108.264 54.9 106.187 55.7599 104.627 57.3221L104.243 57.708L108.968 60.0729V60.7526C108.968 61.6853 109.346 62.5983 110.006 63.2584L112.426 65.677C113.087 66.339 113.971 66.7037 114.914 66.7037C115.148 66.7037 115.382 66.6808 115.612 66.6354L116.602 67.6257L116.324 67.904C115.863 68.3645 115.863 69.1138 116.324 69.5744L117.437 70.6878C117.66 70.9109 117.957 71.0338 118.272 71.0338C118.588 71.0338 118.885 70.9109 119.108 70.6878L123.564 66.2335C124.02 65.7675 124.02 65.0194 123.518 64.5617ZM108.889 64.3697C108.7 64.1804 108.535 63.9704 108.379 63.755L96.5899 74.0515C95.2057 75.4356 95.2037 77.6799 96.588 79.062C97.2834 79.7555 98.1911 80.1 99.0545 80.1C99.9178 80.1 100.868 79.754 101.56 79.062L111.853 67.279C111.649 67.1284 111.45 66.9695 111.268 66.787L108.889 64.3697Z" fill="#F5F7FA" stroke="#5C94C0" mask="url(#path-4-inside-1_203_446)"/>
<circle cx="186.5" cy="22.5" r="22.5" fill="#FFEAAC"/>
<circle cx="186.5" cy="22.5" r="21.5" stroke="#0A142B" stroke-opacity="0.3" stroke-width="2"/>
<mask id="path-7-inside-2_203_446" fill="white">
<path d="M198.638 19.1123L196.411 16.8851C196.118 16.5923 195.719 16.425 195.301 16.425H192.8V14.0625C192.8 12.7582 191.742 11.7 190.438 11.7H182.563C181.259 11.7 180.2 12.7582 180.2 14.0625V16.425H177.703C177.284 16.425 176.885 16.5911 176.589 16.8864L174.362 19.1123C174.067 19.4076 173.9 19.8112 173.9 20.2296V25.0875H180.2V23.5125C180.2 23.0744 180.55 22.725 180.988 22.725H182.563C183.001 22.725 183.35 23.0744 183.35 23.5125V25.0875H189.65V23.5125C189.65 23.0744 190 22.725 190.438 22.725H192.013C192.451 22.725 192.8 23.0744 192.8 23.5125V25.0875H199.1V20.2296C199.1 19.8112 198.933 19.4076 198.638 19.1123ZM190.438 16.425H182.563V14.0625H190.438V16.425ZM192.8 28.2374C192.8 28.6743 192.45 29.025 192.013 29.025H190.438C190.001 29.025 189.65 28.6743 189.65 28.2374V26.6625H183.35V28.2374C183.35 28.6755 183.001 29.025 182.563 29.025H180.988C180.55 29.025 180.2 28.6755 180.2 28.2374V26.6625H173.9V32.1749C173.9 33.0422 174.608 33.75 175.475 33.75H197.525C198.393 33.75 199.1 33.0422 199.1 32.1749V26.6625H192.8V28.2374Z"/>
</mask>
<path d="M198.638 19.1123L196.411 16.8851C196.118 16.5923 195.719 16.425 195.301 16.425H192.8V14.0625C192.8 12.7582 191.742 11.7 190.438 11.7H182.563C181.259 11.7 180.2 12.7582 180.2 14.0625V16.425H177.703C177.284 16.425 176.885 16.5911 176.589 16.8864L174.362 19.1123C174.067 19.4076 173.9 19.8112 173.9 20.2296V25.0875H180.2V23.5125C180.2 23.0744 180.55 22.725 180.988 22.725H182.563C183.001 22.725 183.35 23.0744 183.35 23.5125V25.0875H189.65V23.5125C189.65 23.0744 190 22.725 190.438 22.725H192.013C192.451 22.725 192.8 23.0744 192.8 23.5125V25.0875H199.1V20.2296C199.1 19.8112 198.933 19.4076 198.638 19.1123ZM190.438 16.425H182.563V14.0625H190.438V16.425ZM192.8 28.2374C192.8 28.6743 192.45 29.025 192.013 29.025H190.438C190.001 29.025 189.65 28.6743 189.65 28.2374V26.6625H183.35V28.2374C183.35 28.6755 183.001 29.025 182.563 29.025H180.988C180.55 29.025 180.2 28.6755 180.2 28.2374V26.6625H173.9V32.1749C173.9 33.0422 174.608 33.75 175.475 33.75H197.525C198.393 33.75 199.1 33.0422 199.1 32.1749V26.6625H192.8V28.2374Z" fill="#F5F7FA" stroke="#5C94C0" mask="url(#path-7-inside-2_203_446)"/>
<circle cx="159.5" cy="67.5" r="22.5" fill="#FFEAAC"/>
<circle cx="159.5" cy="67.5" r="21.5" stroke="#0A142B" stroke-opacity="0.3" stroke-width="2"/>
<mask id="path-10-inside-3_203_446" fill="white">
<path d="M171.485 63.0999C171.647 63.5232 171.509 64.0006 171.175 64.3106L169.043 66.2499C169.098 66.6584 169.127 67.0767 169.127 67.5C169.127 67.9233 169.098 68.3417 169.043 68.7502L171.175 70.6894C171.509 70.9995 171.647 71.4769 171.485 71.9002C171.268 72.4859 171.007 73.0519 170.712 73.5884L170.481 73.9871C170.156 74.5285 169.792 75.0403 169.393 75.5276C169.098 75.8771 168.62 76.0001 168.187 75.8623L165.446 74.9862C164.786 75.4932 164.013 75.9164 163.28 76.2413L162.665 79.0517C162.566 79.4946 162.222 79.8096 161.769 79.9278C161.09 80.041 160.391 80.1 159.633 80.1C158.963 80.1 158.265 80.041 157.585 79.9278C157.133 79.8096 156.788 79.4946 156.69 79.0517L156.074 76.2413C155.297 75.9164 154.568 75.4932 153.909 74.9862L151.169 75.8623C150.734 76.0001 150.254 75.8771 149.963 75.5276C149.564 75.0403 149.199 74.5285 148.875 73.9871L148.644 73.5884C148.346 73.0519 148.086 72.4859 147.868 71.9002C147.708 71.4769 147.843 70.9995 148.18 70.6894L150.309 68.7502C150.255 68.3417 150.227 67.9233 150.227 67.5C150.227 67.0767 150.255 66.6584 150.309 66.2499L148.18 64.3106C147.843 64.0006 147.708 63.5281 147.868 63.0999C148.086 62.5142 148.346 61.9481 148.644 61.4117L148.874 61.013C149.199 60.4716 149.564 59.9597 149.963 59.4749C150.254 59.123 150.734 59.0009 151.169 59.1397L153.909 60.0139C154.568 59.5049 155.297 59.0816 156.074 58.7603L156.69 55.9499C156.788 55.503 157.133 55.1481 157.585 55.0728C158.265 54.9591 158.963 54.9 159.677 54.9C160.391 54.9 161.09 54.9591 161.769 55.0728C162.222 55.1481 162.566 55.503 162.665 55.9499L163.28 58.7603C164.013 59.0816 164.786 59.5049 165.446 60.0139L168.187 59.1397C168.62 59.0009 169.098 59.123 169.393 59.4749C169.792 59.9597 170.156 60.4716 170.481 61.013L170.712 61.4117C171.007 61.9481 171.268 62.5142 171.485 63.0999ZM159.677 71.4375C161.853 71.4375 163.615 69.6755 163.615 67.4557C163.615 65.3246 161.853 63.5182 159.677 63.5182C157.502 63.5182 155.74 65.3246 155.74 67.4557C155.74 69.6755 157.502 71.4375 159.677 71.4375Z"/>
</mask>
<path d="M171.485 63.0999C171.647 63.5232 171.509 64.0006 171.175 64.3106L169.043 66.2499C169.098 66.6584 169.127 67.0767 169.127 67.5C169.127 67.9233 169.098 68.3417 169.043 68.7502L171.175 70.6894C171.509 70.9995 171.647 71.4769 171.485 71.9002C171.268 72.4859 171.007 73.0519 170.712 73.5884L170.481 73.9871C170.156 74.5285 169.792 75.0403 169.393 75.5276C169.098 75.8771 168.62 76.0001 168.187 75.8623L165.446 74.9862C164.786 75.4932 164.013 75.9164 163.28 76.2413L162.665 79.0517C162.566 79.4946 162.222 79.8096 161.769 79.9278C161.09 80.041 160.391 80.1 159.633 80.1C158.963 80.1 158.265 80.041 157.585 79.9278C157.133 79.8096 156.788 79.4946 156.69 79.0517L156.074 76.2413C155.297 75.9164 154.568 75.4932 153.909 74.9862L151.169 75.8623C150.734 76.0001 150.254 75.8771 149.963 75.5276C149.564 75.0403 149.199 74.5285 148.875 73.9871L148.644 73.5884C148.346 73.0519 148.086 72.4859 147.868 71.9002C147.708 71.4769 147.843 70.9995 148.18 70.6894L150.309 68.7502C150.255 68.3417 150.227 67.9233 150.227 67.5C150.227 67.0767 150.255 66.6584 150.309 66.2499L148.18 64.3106C147.843 64.0006 147.708 63.5281 147.868 63.0999C148.086 62.5142 148.346 61.9481 148.644 61.4117L148.874 61.013C149.199 60.4716 149.564 59.9597 149.963 59.4749C150.254 59.123 150.734 59.0009 151.169 59.1397L153.909 60.0139C154.568 59.5049 155.297 59.0816 156.074 58.7603L156.69 55.9499C156.788 55.503 157.133 55.1481 157.585 55.0728C158.265 54.9591 158.963 54.9 159.677 54.9C160.391 54.9 161.09 54.9591 161.769 55.0728C162.222 55.1481 162.566 55.503 162.665 55.9499L163.28 58.7603C164.013 59.0816 164.786 59.5049 165.446 60.0139L168.187 59.1397C168.62 59.0009 169.098 59.123 169.393 59.4749C169.792 59.9597 170.156 60.4716 170.481 61.013L170.712 61.4117C171.007 61.9481 171.268 62.5142 171.485 63.0999ZM159.677 71.4375C161.853 71.4375 163.615 69.6755 163.615 67.4557C163.615 65.3246 161.853 63.5182 159.677 63.5182C157.502 63.5182 155.74 65.3246 155.74 67.4557C155.74 69.6755 157.502 71.4375 159.677 71.4375Z" fill="#F5F7FA" stroke="#5C94C0" mask="url(#path-10-inside-3_203_446)"/>
<circle cx="136.5" cy="22.5" r="22.5" fill="#FFEAAC"/>
<circle cx="136.5" cy="22.5" r="21.5" stroke="#0A142B" stroke-opacity="0.3" stroke-width="2"/>
<mask id="path-13-inside-4_203_446" fill="white">
<path d="M140.23 20.93C141.622 20.93 142.931 21.4709 143.914 22.4543L144.878 23.4185C146.847 22.5453 148.384 20.7951 148.895 18.6615C149.177 17.4842 149.158 16.3443 148.905 15.295C148.777 14.7595 148.097 14.5808 147.708 14.9699L144.317 18.3611H140.596V14.6841L143.987 11.293C144.376 10.9036 144.197 10.2235 143.662 10.095C142.613 9.84276 141.473 9.82381 140.296 10.1056C137.574 10.7567 135.453 13.0695 135.02 15.8346C134.949 16.2444 134.934 16.643 134.939 17.0368L139.013 21.1151C139.413 20.9792 139.821 20.93 140.23 20.93ZM142.799 23.6124C141.659 22.4725 139.965 22.2554 138.596 22.9283L133.305 17.6766V14.6246L127.05 9.9001L123.9 13.0058L128.625 19.2615L131.678 19.2619L136.929 24.5086C136.257 25.8778 136.474 27.5714 137.614 28.7113L143.372 34.4748C144.092 35.1885 145.253 35.1885 145.966 34.4748L148.562 31.8785C149.276 31.1648 149.276 30.0042 148.562 29.2842L142.799 23.6124ZM135.116 25.0102L132.203 22.1014L124.875 29.43C123.577 30.7279 123.577 32.8301 124.875 34.128C125.522 34.7752 126.371 35.1 127.222 35.1C128.073 35.1 128.922 34.7756 129.571 34.1265L135.432 28.2645C134.998 27.2398 134.855 26.1127 135.116 25.0102ZM127.05 33.1313C126.398 33.1313 125.869 32.6022 125.869 31.95C125.869 31.2974 126.398 30.7688 127.05 30.7688C127.702 30.7688 128.231 31.2954 128.231 31.95C128.231 32.6046 127.702 33.1313 127.05 33.1313Z"/>
</mask>
<path d="M140.23 20.93C141.622 20.93 142.931 21.4709 143.914 22.4543L144.878 23.4185C146.847 22.5453 148.384 20.7951 148.895 18.6615C149.177 17.4842 149.158 16.3443 148.905 15.295C148.777 14.7595 148.097 14.5808 147.708 14.9699L144.317 18.3611H140.596V14.6841L143.987 11.293C144.376 10.9036 144.197 10.2235 143.662 10.095C142.613 9.84276 141.473 9.82381 140.296 10.1056C137.574 10.7567 135.453 13.0695 135.02 15.8346C134.949 16.2444 134.934 16.643 134.939 17.0368L139.013 21.1151C139.413 20.9792 139.821 20.93 140.23 20.93ZM142.799 23.6124C141.659 22.4725 139.965 22.2554 138.596 22.9283L133.305 17.6766V14.6246L127.05 9.9001L123.9 13.0058L128.625 19.2615L131.678 19.2619L136.929 24.5086C136.257 25.8778 136.474 27.5714 137.614 28.7113L143.372 34.4748C144.092 35.1885 145.253 35.1885 145.966 34.4748L148.562 31.8785C149.276 31.1648 149.276 30.0042 148.562 29.2842L142.799 23.6124ZM135.116 25.0102L132.203 22.1014L124.875 29.43C123.577 30.7279 123.577 32.8301 124.875 34.128C125.522 34.7752 126.371 35.1 127.222 35.1C128.073 35.1 128.922 34.7756 129.571 34.1265L135.432 28.2645C134.998 27.2398 134.855 26.1127 135.116 25.0102ZM127.05 33.1313C126.398 33.1313 125.869 32.6022 125.869 31.95C125.869 31.2974 126.398 30.7688 127.05 30.7688C127.702 30.7688 128.231 31.2954 128.231 31.95C128.231 32.6046 127.702 33.1313 127.05 33.1313Z" fill="#F5F7FA" stroke="#5C94C0" mask="url(#path-13-inside-4_203_446)"/>
<rect x="86.1816" y="85.7057" width="88.2341" height="68.1809" fill="#F5F7FA"/>
<mask id="path-15-inside-5_203_446" fill="white">
<path d="M49.987 71C53.8187 71 57.1174 73.7373 57.8504 77.5206L58.3502 81.695H198.526C205.29 81.695 210.688 88.463 208.789 95.2844L190.796 159.468C189.497 164.08 185.299 167.255 180.534 167.255H74.8768L77.9423 183.298H180.6C185.032 183.298 188.597 186.874 188.597 191.319C188.597 195.764 185.032 199.341 180.6 199.341H71.0117C67.4799 199.341 64.1812 196.6 63.4482 192.823L43.3697 87.0426H25.9967C21.5819 87.0426 18 83.4497 18 79.0213C18 74.5929 21.5819 71 25.9967 71H49.987ZM108.63 131.16H123.29V145.865C123.29 149.542 125.989 152.55 129.954 152.55C133.62 152.55 136.618 149.542 136.618 145.865V131.16H151.279C154.944 131.16 157.943 128.152 157.943 124.475C157.943 120.498 154.944 117.791 151.279 117.791H136.618V103.085C136.618 99.392 133.62 96.4007 129.954 96.4007C125.989 96.4007 123.29 99.392 123.29 103.085V117.791H108.63C104.665 117.791 101.966 120.498 101.966 124.475C101.966 128.152 104.665 131.16 108.63 131.16Z"/>
</mask>
<path d="M49.987 71C53.8187 71 57.1174 73.7373 57.8504 77.5206L58.3502 81.695H198.526C205.29 81.695 210.688 88.463 208.789 95.2844L190.796 159.468C189.497 164.08 185.299 167.255 180.534 167.255H74.8768L77.9423 183.298H180.6C185.032 183.298 188.597 186.874 188.597 191.319C188.597 195.764 185.032 199.341 180.6 199.341H71.0117C67.4799 199.341 64.1812 196.6 63.4482 192.823L43.3697 87.0426H25.9967C21.5819 87.0426 18 83.4497 18 79.0213C18 74.5929 21.5819 71 25.9967 71H49.987ZM108.63 131.16H123.29V145.865C123.29 149.542 125.989 152.55 129.954 152.55C133.62 152.55 136.618 149.542 136.618 145.865V131.16H151.279C154.944 131.16 157.943 128.152 157.943 124.475C157.943 120.498 154.944 117.791 151.279 117.791H136.618V103.085C136.618 99.392 133.62 96.4007 129.954 96.4007C125.989 96.4007 123.29 99.392 123.29 103.085V117.791H108.63C104.665 117.791 101.966 120.498 101.966 124.475C101.966 128.152 104.665 131.16 108.63 131.16Z" fill="#7FCBFF" stroke="#0A142B" stroke-opacity="0.3" stroke-width="8" mask="url(#path-15-inside-5_203_446)"/>
<mask id="path-16-inside-6_203_446" fill="white">
<path d="M78 214C78 207.927 82.9271 203 89 203C95.0729 203 100 207.927 100 214C100 220.073 95.0729 225 89 225C82.9271 225 78 220.073 78 214ZM166 214C166 220.073 161.073 225 155 225C148.927 225 144 220.073 144 214C144 207.927 148.927 203 155 203C161.073 203 166 207.927 166 214Z"/>
</mask>
<path d="M78 214C78 207.927 82.9271 203 89 203C95.0729 203 100 207.927 100 214C100 220.073 95.0729 225 89 225C82.9271 225 78 220.073 78 214ZM166 214C166 220.073 161.073 225 155 225C148.927 225 144 220.073 144 214C144 207.927 148.927 203 155 203C161.073 203 166 207.927 166 214Z" fill="#F5F7FA" stroke="#5C94C0" stroke-width="8" mask="url(#path-16-inside-6_203_446)"/>
</svg>
