<svg width="235" height="235" viewBox="0 0 235 235" fill="none" xmlns="http://www.w3.org/2000/svg">
<path d="M104.508 0.728639C169.268 -6.43544 227.599 40.0373 234.793 104.528C238.423 137.066 193.336 104.002 174.139 127.562C155.286 150.7 162.647 230.722 130.56 234.271C65.7992 241.435 7.46848 194.963 0.27447 130.472C-3.80105 93.9365 38.4833 133.219 62.4769 108.889C80.8363 90.2716 76.4352 3.83415 104.508 0.728639Z" fill="#E5F5FF"/>
<rect x="79" y="102" width="77.6735" height="21.193" fill="#F5F7FA"/>
<path d="M41.8125 42H193.188C199.168 42 204 46.7879 204 52.7143V63.4286C204 69.3549 199.168 74.1429 193.188 74.1429H41.8125C35.8318 74.1429 31 69.3549 31 63.4286V52.7143C31 46.7879 35.8318 42 41.8125 42ZM41.8125 84.8571H193.188V170.571C193.188 182.391 183.49 192 171.562 192H63.4375C51.51 192 41.8125 182.391 41.8125 170.571V84.8571ZM85.0625 111.643C85.0625 114.589 87.4953 117 90.4688 117H144.531C147.505 117 149.938 114.589 149.938 111.643C149.938 108.696 147.505 106.286 144.531 106.286H90.4688C87.4953 106.286 85.0625 108.696 85.0625 111.643Z" fill="#7FCBFF"/>
<path d="M41.8125 44H193.188C198.081 44 202 47.9097 202 52.7143V63.4286C202 68.2332 198.081 72.1429 193.188 72.1429H41.8125C36.9192 72.1429 33 68.2332 33 63.4286V52.7143C33 47.9097 36.9192 44 41.8125 44ZM43.8125 86.8571H191.188V170.571C191.188 181.269 182.403 190 171.562 190H63.4375C52.5973 190 43.8125 181.269 43.8125 170.571V86.8571ZM83.0625 111.643C83.0625 115.711 86.408 119 90.4688 119H144.531C148.592 119 151.938 115.711 151.938 111.643C151.938 107.575 148.592 104.286 144.531 104.286H90.4688C86.408 104.286 83.0625 107.575 83.0625 111.643Z" stroke="#0A142B" stroke-opacity="0.3" stroke-width="4"/>
</svg>
