<svg width="235" height="235" viewBox="0 0 235 235" fill="none" xmlns="http://www.w3.org/2000/svg">
<path d="M104.508 0.728639C169.268 -6.43544 227.599 40.0373 234.793 104.528C238.423 137.066 193.336 104.002 174.139 127.562C155.286 150.7 162.647 230.722 130.56 234.271C65.7992 241.435 7.46848 194.963 0.27447 130.472C-3.80105 93.9365 38.4833 133.219 62.4769 108.889C80.8363 90.2716 76.4352 3.83415 104.508 0.728639Z" fill="#E5F5FF"/>
<rect x="69" y="132" width="96" height="33" fill="#F5F7FA"/>
<path d="M96.5714 42.6875V53.375H139.429V42.6875C139.429 36.786 144.217 32 150.143 32C156.069 32 160.857 36.786 160.857 42.6875V53.375H176.929C185.801 53.375 193 60.5523 193 69.4062V85.4375H43V69.4062C43 60.5523 50.1953 53.375 59.0714 53.375H75.1429V42.6875C75.1429 36.786 79.9308 32 85.8571 32C91.7835 32 96.5714 36.786 96.5714 42.6875ZM43 96.125H193V186.969C193 195.819 185.801 203 176.929 203H59.0714C50.1953 203 43 195.819 43 186.969V96.125ZM147.464 157.578C151.917 157.578 155.5 154.004 155.5 149.562C155.5 145.121 151.917 141.547 147.464 141.547H88.5357C84.0826 141.547 80.5 145.121 80.5 149.562C80.5 154.004 84.0826 157.578 88.5357 157.578H147.464Z" fill="#7FCBFF"/>
<path d="M94.5714 53.375V55.375H96.5714H139.429H141.429V53.375V42.6875C141.429 37.8941 145.318 34 150.143 34C154.968 34 158.857 37.8941 158.857 42.6875V53.375V55.375H160.857H176.929C184.702 55.375 191 61.6619 191 69.4062V83.4375H45V69.4062C45 61.6616 51.2952 55.375 59.0714 55.375H75.1429H77.1429V53.375V42.6875C77.1429 37.8941 81.0319 34 85.8571 34C90.6824 34 94.5714 37.8941 94.5714 42.6875V53.375ZM45 98.125H191V186.969C191 194.71 184.701 201 176.929 201H59.0714C51.2954 201 45 194.71 45 186.969V98.125ZM147.464 159.578C153.017 159.578 157.5 155.114 157.5 149.562C157.5 144.011 153.017 139.547 147.464 139.547H88.5357C82.9827 139.547 78.5 144.011 78.5 149.562C78.5 155.114 82.9827 159.578 88.5357 159.578H147.464Z" stroke="#0A142B" stroke-opacity="0.3" stroke-width="4"/>
</svg>
