<svg width="235" height="235" viewBox="0 0 235 235" fill="none" xmlns="http://www.w3.org/2000/svg">
<path d="M104.508 0.728639C169.268 -6.43544 227.599 40.0373 234.793 104.528C238.423 137.066 193.336 104.002 174.139 127.562C155.286 150.7 162.647 230.722 130.56 234.271C65.7992 241.435 7.46848 194.963 0.27447 130.472C-3.80105 93.9365 38.4833 133.219 62.4769 108.889C80.8363 90.2716 76.4352 3.83415 104.508 0.728639Z" fill="#E5F5FF"/>
<path d="M152.75 87.625C152.75 51.9344 118.565 23 76.3755 23C34.1857 23 0.000680754 51.9344 0.000680754 87.625C0.000680754 102.155 5.73613 115.517 15.3013 126.327C9.28315 138.356 0.896616 147.374 0.764429 147.506C-0.00666298 148.316 -0.215959 149.516 0.235313 150.573C0.698335 151.626 1.69047 152.25 2.81333 152.25C16.8949 152.25 28.7954 148.167 37.9678 143.423C49.2771 148.982 62.3489 152.25 76.3755 152.25C118.565 152.25 152.75 123.316 152.75 87.625ZM220.166 185.921C229.419 174.979 235 161.283 235 146.375C235 110.684 203.422 81.75 164.5 81.75C164.385 81.75 164.273 81.7651 164.157 81.7658C164.317 83.6961 164.5 85.6422 164.5 87.625C164.5 123.837 135.243 154.159 96.1668 161.98C103.804 190.107 131.123 211 164.5 211C176.871 211 188.485 208.06 198.593 202.929C207.534 207.328 218.881 211 232.173 211C233.296 211 234.288 210.367 234.75 209.309C235.202 208.252 234.992 207.052 234.221 206.242C234.119 206.116 226.151 197.524 220.166 185.921Z" fill="#7FCBFF"/>
<path d="M17.09 127.221L17.6945 126.013L16.7992 125.001C7.51514 114.509 2.00068 101.606 2.00068 87.625C2.00068 53.3389 34.9643 25 76.3755 25C117.787 25 150.75 53.3389 150.75 87.625C150.75 121.911 117.787 150.25 76.3755 150.25C62.6612 150.25 49.8906 147.055 38.85 141.628L37.9449 141.183L37.049 141.646C28.0854 146.282 16.5001 150.25 2.81333 150.25C2.46916 150.25 2.20805 150.082 2.07045 149.778C1.92936 149.437 2.01101 149.097 2.21271 148.885L2.21245 148.885C2.84519 148.217 11.1045 139.185 17.09 127.221ZM218.639 184.63L217.776 185.65L218.388 186.838C221.45 192.774 225.01 197.923 227.808 201.597C230.572 205.225 232.735 207.584 232.673 207.508L232.721 207.566L232.772 207.62C232.975 207.834 233.056 208.175 232.914 208.516C232.772 208.834 232.505 209 232.173 209C219.256 209 208.213 205.433 199.476 201.135L198.58 200.693L197.688 201.146C187.856 206.136 176.552 209 164.5 209C132.769 209 106.812 189.652 98.689 163.491C137.417 154.866 166.5 124.332 166.5 87.625C166.5 86.3155 166.424 85.0219 166.329 83.7718C203.459 84.6594 233 112.504 233 146.375C233 160.768 227.615 174.015 218.639 184.63Z" stroke="#0A142B" stroke-opacity="0.3" stroke-width="4"/>
<rect x="32.3125" y="61.1875" width="93.0206" height="8.90152" rx="4.45076" fill="#F5F7FA"/>
<rect x="32.3125" y="87.8921" width="93.0206" height="8.90152" rx="4.45076" fill="#F5F7FA"/>
<rect x="32.3125" y="74.5396" width="34.7549" height="8.90152" rx="4.45076" fill="#F5F7FA"/>
<rect x="90.5781" y="101.244" width="34.7549" height="8.90152" rx="4.45076" fill="#F5F7FA"/>
<rect x="70.1348" y="74.5396" width="55.199" height="8.90152" rx="4.45076" fill="#F5F7FA"/>
<rect x="32.3125" y="101.244" width="55.199" height="8.90152" rx="4.45076" fill="#F5F7FA"/>
<path d="M152.75 87.625C152.75 51.9344 118.565 23 76.3755 23C34.1857 23 0.000680741 51.9344 0.000680741 87.625C0.000680741 102.155 5.73613 115.517 15.3013 126.327C9.28315 138.356 0.896616 147.374 0.764429 147.506C-0.00666298 148.316 -0.215959 149.516 0.235313 150.573C0.698335 151.626 1.69047 152.25 2.81333 152.25C16.8949 152.25 28.7954 148.167 37.9678 143.423C49.2771 148.982 62.349 152.25 76.3755 152.25C118.565 152.25 152.75 123.316 152.75 87.625Z" fill="#F5F7FA"/>
<path d="M17.09 127.221L17.6945 126.013L16.7992 125.001C7.51514 114.509 2.00068 101.606 2.00068 87.625C2.00068 53.339 34.9643 25 76.3755 25C117.787 25 150.75 53.3389 150.75 87.625C150.75 121.911 117.787 150.25 76.3755 150.25C62.6612 150.25 49.8906 147.055 38.8501 141.628L37.9449 141.183L37.049 141.646C28.0854 146.282 16.5001 150.25 2.81333 150.25C2.46919 150.25 2.2081 150.082 2.07048 149.778C1.92934 149.437 2.011 149.097 2.21271 148.885L2.21245 148.885C2.84519 148.217 11.1045 139.185 17.09 127.221Z" stroke="#0A142B" stroke-opacity="0.3" stroke-width="4"/>
<rect x="22.5215" y="76.8542" width="41.1249" height="20.5625" rx="10" fill="#FFEAAC"/>
<rect x="24.5215" y="78.8542" width="37.1249" height="16.5625" rx="8" stroke="#0A142B" stroke-opacity="0.3" stroke-width="4"/>
<rect x="66.584" y="76.8542" width="63.6456" height="20.5625" rx="10" fill="#F5F7FA"/>
<rect x="68.584" y="78.8542" width="59.6456" height="16.5625" rx="8" stroke="#0A142B" stroke-opacity="0.3" stroke-width="4"/>
<rect x="22.5215" y="102.312" width="107.708" height="20.5625" rx="10" fill="#F5F7FA"/>
<rect x="24.5215" y="104.312" width="103.708" height="16.5625" rx="8" stroke="#0A142B" stroke-opacity="0.3" stroke-width="4"/>
<rect x="22.5215" y="51.3958" width="107.708" height="20.5625" rx="10" fill="#F5F7FA"/>
<rect x="24.5215" y="53.3958" width="103.708" height="16.5625" rx="8" stroke="#0A142B" stroke-opacity="0.3" stroke-width="4"/>
<rect x="147.896" y="157.188" width="56.7082" height="16.5625" rx="8" fill="#F5F7FA" stroke="#5C94C0" stroke-width="4"/>
<rect x="166.5" y="131.729" width="38.104" height="16.5625" rx="8" fill="#F5F7FA" stroke="#5C94C0" stroke-width="4"/>
</svg>
