<svg width="235" height="235" viewBox="0 0 235 235" fill="none" xmlns="http://www.w3.org/2000/svg">
<path d="M104.508 0.728639C169.268 -6.43544 227.599 40.0373 234.793 104.528C238.423 137.066 193.336 104.002 174.139 127.562C155.286 150.7 162.647 230.722 130.56 234.271C65.7992 241.435 7.46848 194.963 0.27447 130.472C-3.80105 93.9365 38.4833 133.219 62.4769 108.889C80.8363 90.2716 76.4352 3.83415 104.508 0.728639Z" fill="#E5F5FF"/>
<rect x="64" y="40" width="47.9792" height="49.9375" fill="#F5F7FA"/>
<rect x="85.1875" y="100.354" width="61.6875" height="91.0625" fill="white"/>
<path d="M188 70H141V23L188 70ZM141 81.75H188V193.375C188 203.109 180.109 211 170.375 211H64.625C54.8909 211 47 203.105 47 193.375V40.625C47 30.8909 54.8909 23 64.625 23H129.25L129.251 70C129.25 76.4992 134.501 81.75 141 81.75ZM70.5 55.3125C70.5 56.9208 71.8329 58.25 73.4375 58.25H102.812C104.428 58.25 105.75 56.9208 105.75 55.3125V49.4375C105.75 47.8329 104.428 46.5 102.812 46.5H73.4375C71.8329 46.5 70.5 47.8329 70.5 49.4375V55.3125ZM73.4375 81.75H102.812C104.428 81.75 105.75 80.4281 105.75 78.8125V72.9375C105.75 71.3219 104.428 70 102.812 70H73.4375C71.8329 70 70.5 71.3219 70.5 72.9375V78.8125C70.5 80.4281 71.8329 81.75 73.4375 81.75ZM119.52 139.325L117.17 138.738C108.798 136.167 108.981 134.662 109.275 133.34C109.78 130.471 115.367 129.771 120.39 130.54C122.444 130.85 124.697 131.573 126.849 132.319C130.664 133.638 134.864 131.607 136.194 127.788C137.525 123.954 135.499 119.768 131.666 118.435C129.015 117.523 126.852 116.938 124.851 116.499V114.062C124.851 110.012 121.564 106.719 117.507 106.719C113.451 106.719 110.164 110.012 110.164 114.062V116.263C101.931 118.028 96.1297 123.169 94.8078 130.843C92.0884 146.573 106.995 150.946 113.358 152.815L115.492 153.435C126.243 156.51 126.067 157.544 125.744 159.413C125.239 162.282 119.652 162.993 114.615 162.213C112.067 161.834 108.809 160.664 105.927 159.631L104.286 159.035C100.464 157.715 96.2703 159.7 94.9154 163.522C93.5671 167.344 95.5694 171.541 99.3951 172.896L100.962 173.447C103.81 174.471 106.976 175.499 110.163 176.205V178.688C110.163 182.738 113.451 186.031 117.507 186.031C121.563 186.031 124.851 182.738 124.851 178.688V176.391C133.061 174.631 138.881 169.587 140.21 161.913C142.946 146.008 127.708 141.638 119.52 139.325Z" fill="#7FCBFF"/>
<path d="M120.063 137.4L120.034 137.392L120.005 137.385L117.706 136.81C113.556 135.533 111.909 134.619 111.307 134.08C111.253 134.032 111.215 133.994 111.189 133.965C111.196 133.922 111.208 133.86 111.227 133.774L111.237 133.73L111.245 133.687C111.253 133.638 111.287 133.48 111.642 133.239C112.022 132.98 112.649 132.722 113.548 132.533C115.339 132.158 117.739 132.158 120.087 132.517L120.091 132.518C121.944 132.797 124.042 133.462 126.193 134.208L126.195 134.209C131.051 135.889 136.39 133.307 138.082 128.445L138.083 128.444C139.776 123.568 137.2 118.242 132.323 116.546L132.317 116.544C130.266 115.838 128.49 115.32 126.851 114.913V114.062C126.851 108.909 122.669 104.719 117.507 104.719C112.345 104.719 108.164 108.909 108.164 114.062V114.693C100.119 116.9 94.2369 122.378 92.837 130.502C92.0997 134.767 92.5416 138.382 93.8205 141.425C95.0944 144.455 97.1455 146.792 99.4396 148.599C103.924 152.13 109.542 153.779 112.702 154.707L112.795 154.734L112.8 154.736L114.934 155.356L114.942 155.358C120.382 156.914 122.69 157.865 123.629 158.518C123.725 158.585 123.79 158.638 123.834 158.677C123.825 158.751 123.808 158.874 123.774 159.069C123.765 159.121 123.726 159.279 123.376 159.516C122.995 159.776 122.367 160.035 121.468 160.224C119.677 160.6 117.274 160.601 114.921 160.236L114.909 160.235C112.601 159.892 109.554 158.806 106.605 157.75C106.604 157.749 106.603 157.749 106.601 157.748L104.969 157.155L104.954 157.149L104.939 157.144C100.091 155.47 94.7568 157.984 93.0304 162.853L93.0293 162.856C91.314 167.719 93.8612 173.058 98.7274 174.781L98.7317 174.783L100.285 175.329C100.287 175.329 100.289 175.33 100.291 175.331C102.716 176.203 105.404 177.091 108.163 177.786V178.688C108.163 183.841 112.345 188.031 117.507 188.031C122.669 188.031 126.851 183.841 126.851 178.688V177.962C134.863 175.773 140.772 170.39 142.181 162.254L142.181 162.252C142.923 157.939 142.463 154.282 141.116 151.198C139.774 148.128 137.613 145.762 135.162 143.922C130.338 140.303 124.135 138.551 120.093 137.409L120.063 137.4ZM111.137 133.898C111.137 133.898 111.139 133.901 111.142 133.906C111.138 133.9 111.137 133.897 111.137 133.898ZM123.912 158.757C123.911 158.757 123.908 158.753 123.904 158.746C123.91 158.753 123.912 158.757 123.912 158.757ZM143 27.8284L183.172 68H143V27.8284ZM141 83.75H186V193.375C186 202.005 179.005 209 170.375 209H64.625C55.9957 209 49 202.001 49 193.375V40.625C49 31.9954 55.9954 25 64.625 25H127.25L127.251 69.9996C127.251 69.9997 127.251 69.9999 127.251 70.0001C127.25 77.604 133.396 83.75 141 83.75ZM68.5 55.3125C68.5 58.027 70.7299 60.25 73.4375 60.25H102.812C105.536 60.25 107.75 58.0221 107.75 55.3125V49.4375C107.75 46.7332 105.538 44.5 102.812 44.5H73.4375C70.7283 44.5 68.5 46.7283 68.5 49.4375V55.3125ZM73.4375 83.75H102.812C105.533 83.75 107.75 81.5327 107.75 78.8125V72.9375C107.75 70.2173 105.533 68 102.812 68H73.4375C70.7332 68 68.5 70.2124 68.5 72.9375V78.8125C68.5 81.5376 70.7332 83.75 73.4375 83.75Z" stroke="#0A142B" stroke-opacity="0.3" stroke-width="4"/>
</svg>
