<svg width="235" height="235" viewBox="0 0 235 235" fill="none" xmlns="http://www.w3.org/2000/svg">
<path d="M104.508 0.728639C169.268 -6.43544 227.599 40.0373 234.793 104.528C238.423 137.066 193.336 104.002 174.139 127.562C155.286 150.7 162.647 230.722 130.56 234.271C65.7992 241.435 7.46848 194.963 0.27447 130.472C-3.80105 93.9365 38.4833 133.219 62.4769 108.889C80.8363 90.2716 76.4352 3.83415 104.508 0.728639Z" fill="#E5F5FF"/>
<path d="M120.562 117C126.877 117 132 122.149 132 128.5C132 132.118 130.308 135.52 127.425 137.7L75.575 176.8C72.8586 178.836 69.1414 178.836 66.425 176.8L14.575 137.7C11.6949 135.52 10 132.118 10 128.5C10 122.149 15.1207 117 21.4375 117H120.562ZM61.85 182.933C67.2828 187.03 74.7172 187.03 80.15 182.933L132 143.833V193.667C132 202.124 125.161 209 116.75 209H25.25C16.8268 209 10 202.124 10 193.667V143.833L61.85 182.933Z" fill="#F5F7FA"/>
<path d="M120.562 119C125.762 119 130 123.243 130 128.5C130 131.491 128.602 134.303 126.219 136.104C126.219 136.105 126.219 136.105 126.219 136.105L74.3753 175.2C74.3748 175.2 74.3743 175.201 74.3738 175.201C72.3692 176.703 69.6315 176.703 67.6268 175.201C67.6261 175.201 67.6254 175.2 67.6247 175.2L15.7821 136.105C15.7817 136.105 15.7813 136.105 15.7808 136.104C13.4003 134.302 12 131.49 12 128.5C12 123.243 16.2355 119 21.4375 119H120.562ZM60.6458 184.53C66.7914 189.165 75.2086 189.165 81.3542 184.53L130 147.846V193.667C130 201.03 124.047 207 116.75 207H25.25C17.9426 207 12 201.031 12 193.667V147.846L60.6458 184.53Z" stroke="#0A142B" stroke-opacity="0.3" stroke-width="4"/>
<path d="M70 98C70 84.7812 80.7812 74 94 74H178V38C178 31.3925 172.607 26 166 26H46C39.4 26 34 31.3925 34 38V110H70V98ZM214 86H94C87.4 86 82 91.4 82 98V110H118C130.469 110 140.736 119.518 141.906 131.705L142 182H214C220.607 182 226 176.607 226 170V98C226 91.4 220.6 86 214 86ZM202 134H178V110H202V134Z" fill="#7FCBFF"/>
<path d="M143.906 131.701L143.906 131.607L143.897 131.514C142.63 118.31 131.509 108 118 108H84V98C84 92.5046 88.5046 88 94 88H214C219.495 88 224 92.5046 224 98V170C224 175.503 219.503 180 214 180H143.996L143.906 131.701ZM202 136H204V134V110V108H202H178H176V110V134V136H178H202ZM94 72C79.6767 72 68 83.6767 68 98V108H36V38C36 32.4979 40.5038 28 46 28H166C171.503 28 176 32.4971 176 38V72H94Z" stroke="#0A142B" stroke-opacity="0.3" stroke-width="4"/>
<rect x="178" y="110" width="24" height="24" fill="#F5F7FA"/>
<rect x="116" y="37" width="50" height="17" fill="#F5F7FA" stroke="#5C94C0" stroke-width="4"/>
</svg>
