<svg width="235" height="235" viewBox="0 0 235 235" fill="none" xmlns="http://www.w3.org/2000/svg">
<path d="M104.508 0.728639C169.268 -6.43544 227.599 40.0373 234.793 104.528C238.423 137.066 193.336 104.002 174.139 127.562C155.286 150.7 162.647 230.722 130.56 234.271C65.7992 241.435 7.46848 194.963 0.27447 130.472C-3.80105 93.9365 38.4833 133.219 62.4769 108.889C80.8363 90.2716 76.4352 3.83415 104.508 0.728639Z" fill="#E5F5FF"/>
<path d="M187 47.5L85.5 89.5V137.5L187 158.5V47.5Z" fill="#F5F7FA"/>
<path d="M202 88.35C208.975 91.65 214 100.537 214 111C214 121.462 208.975 130.35 202 133.65V189C202 193.837 199.075 198.225 194.575 200.1C190.113 201.937 184.938 200.925 181.525 197.475L165.138 180.787C147.138 162.787 122.725 153 97.2625 153H94V201C94 207.637 88.6375 213 82 213H58C51.3737 213 46 207.637 46 201V153C32.7438 153 22 142.237 22 129V93C22 79.7625 32.7438 69 46 69H97.2625C122.725 69 147.138 58.875 165.138 40.8825L181.525 24.5148C184.938 21.083 190.113 20.0565 194.575 21.9138C199.075 23.7712 202 28.1475 202 33V88.35ZM97.2625 93H94V129H97.2625C127.188 129 155.95 140.175 178 160.237V61.7625C155.95 81.825 127.188 93 97.2625 93Z" fill="#7FCBFF"/>
<path d="M200 88.35V89.6163L201.145 90.1578C207.234 93.0386 212 101.08 212 111C212 120.92 207.234 128.961 201.145 131.842L200 132.384V133.65V189C200 193.026 197.565 196.686 193.808 198.253C190.089 199.782 185.783 198.934 182.949 196.071C182.948 196.07 182.948 196.069 182.947 196.068L166.564 179.386L166.558 179.38L166.552 179.373C148.164 160.986 123.238 151 97.2625 151H94H92V153V201C92 206.533 87.5329 211 82 211H58C52.4771 211 48 206.532 48 201V153V151H46C33.8493 151 24 141.134 24 129V93C24 80.866 33.8493 71 46 71H97.2625C123.256 71 148.177 60.6638 166.551 42.297L182.938 25.9299L182.943 25.9251C185.782 23.0702 190.093 22.2145 193.806 23.7603L193.812 23.7625C197.564 25.3112 200 28.9579 200 33V88.35ZM94 91H92V93V129V131H94H97.2625C126.688 131 154.971 141.988 176.654 161.717L180 164.761V160.237V61.7625V57.2388L176.654 60.2831C154.971 80.0114 126.688 91 97.2625 91H94Z" stroke="#0A142B" stroke-opacity="0.3" stroke-width="4"/>
<mask id="path-5-inside-1_224_257" fill="white">
<path d="M50 180H90V193H50V180Z"/>
</mask>
<path d="M50 180H90V193H50V180Z" fill="#F5F7FA"/>
<path d="M50 184H90V176H50V184ZM90 189H50V197H90V189Z" fill="#5C94C0" mask="url(#path-5-inside-1_224_257)"/>
<rect x="43" y="91" width="25" height="9" fill="#FFEAAC" stroke="#5C94C0" stroke-width="4"/>
</svg>
