<svg width="235" height="235" viewBox="0 0 235 235" fill="none" xmlns="http://www.w3.org/2000/svg">
<rect width="235" height="235" fill="#F5F5F5"/>
<rect width="1741" height="2576" transform="translate(-1474 -792)" fill="white"/>
<path d="M104.508 0.728639C169.268 -6.43544 227.599 40.0373 234.793 104.528C238.423 137.066 193.336 104.002 174.139 127.562C155.286 150.7 162.647 230.722 130.56 234.271C65.7992 241.435 7.46848 194.963 0.27447 130.472C-3.80105 93.9365 38.4833 133.219 62.4769 108.889C80.8363 90.2716 76.4352 3.83415 104.508 0.728639Z" fill="#E5F5FF"/>
<mask id="path-2-inside-1_203_446" fill="white">
<path d="M155.173 159.764L155.367 204.167C155.367 204.943 155.311 205.664 155.228 206.413V210.906C155.228 217.036 150.256 222 144.117 222H139.672C139.366 222 139.061 221.75 138.755 221.972C138.366 221.75 137.977 222 137.589 222H121.893C115.754 222 110.782 217.036 110.782 210.906V186.5C110.782 181.591 106.809 177.625 101.893 177.625H84.1141C79.1972 177.625 75.2248 181.591 75.2248 186.5V210.906C75.2248 217.036 70.2524 222 64.1132 222H48.5848C48.1681 222 47.7514 221.972 47.3348 221.945C47.0014 221.972 46.6681 222 46.3347 222H41.8901C35.7537 222 30.7785 217.036 30.7785 210.906V179.844C30.7785 179.594 30.7868 179.317 30.8035 179.067V159.764H21.9031C16.8946 159.764 13 155.854 13 150.861C13 148.365 13.8345 146.146 15.7807 144.205L87.0031 82.2232C88.9476 80.2779 91.1699 80 93.1144 80C95.059 80 97.2813 80.5558 98.9758 81.9453L128.56 107.929V97.75C128.56 92.8493 132.533 88.875 137.45 88.875H146.339C151.256 88.875 155.228 92.8493 155.228 97.75V131.309L169.895 144.205C172.118 146.146 173.257 148.365 172.951 150.861C172.951 155.854 168.784 159.764 164.062 159.764H155.173Z"/>
</mask>
<path d="M155.173 159.764L155.367 204.167C155.367 204.943 155.311 205.664 155.228 206.413V210.906C155.228 217.036 150.256 222 144.117 222H139.672C139.366 222 139.061 221.75 138.755 221.972C138.366 221.75 137.977 222 137.589 222H121.893C115.754 222 110.782 217.036 110.782 210.906V186.5C110.782 181.591 106.809 177.625 101.893 177.625H84.1141C79.1972 177.625 75.2248 181.591 75.2248 186.5V210.906C75.2248 217.036 70.2524 222 64.1132 222H48.5848C48.1681 222 47.7514 221.972 47.3348 221.945C47.0014 221.972 46.6681 222 46.3347 222H41.8901C35.7537 222 30.7785 217.036 30.7785 210.906V179.844C30.7785 179.594 30.7868 179.317 30.8035 179.067V159.764H21.9031C16.8946 159.764 13 155.854 13 150.861C13 148.365 13.8345 146.146 15.7807 144.205L87.0031 82.2232C88.9476 80.2779 91.1699 80 93.1144 80C95.059 80 97.2813 80.5558 98.9758 81.9453L128.56 107.929V97.75C128.56 92.8493 132.533 88.875 137.45 88.875H146.339C151.256 88.875 155.228 92.8493 155.228 97.75V131.309L169.895 144.205C172.118 146.146 173.257 148.365 172.951 150.861C172.951 155.854 168.784 159.764 164.062 159.764H155.173Z" fill="#7FCBFF" stroke="#0A142B" stroke-opacity="0.3" stroke-width="8" mask="url(#path-2-inside-1_203_446)"/>
<circle cx="173" cy="62" r="50" fill="#F5F7FA"/>
<circle cx="173" cy="62" r="48.25" stroke="#0A142B" stroke-opacity="0.3" stroke-width="3.5"/>
<rect x="158" y="41.9999" width="33.3333" height="39.1667" fill="#F4B7C5"/>
<mask id="path-6-inside-2_203_446" fill="white">
<path d="M177.519 56.747C177.519 58.9211 175.756 60.6846 173.582 60.6846C171.408 60.6846 169.644 58.9267 169.644 56.747C169.644 54.5673 171.402 52.8094 173.582 52.8094C175.761 52.8094 177.519 54.5673 177.519 56.747ZM214.687 102.353C212.491 104.549 208.929 104.549 206.732 102.353L189.899 85.5194C184.216 89.3473 177.116 91.2359 169.55 90.2248C156.675 88.5049 146.206 77.9509 144.574 65.0666C142.15 45.9131 158.256 29.8112 177.397 32.2441C190.284 33.8753 200.84 44.3479 202.555 57.2195C203.566 64.7853 201.678 71.887 197.85 77.5683L214.683 94.4015C216.881 96.5868 216.881 100.159 214.687 102.353ZM185.69 57.6189C185.69 50.911 180.276 45.4968 173.455 45.4968C166.888 45.4968 161.474 50.911 161.474 57.6189C161.474 63.012 169.39 72.877 172.424 76.463C172.71 76.7865 173.118 76.9974 173.455 76.9974C173.906 76.9974 174.336 76.7922 174.623 76.4643C177.772 72.877 185.69 63.0049 185.69 57.6189Z"/>
</mask>
<path d="M177.519 56.747C177.519 58.9211 175.756 60.6846 173.582 60.6846C171.408 60.6846 169.644 58.9267 169.644 56.747C169.644 54.5673 171.402 52.8094 173.582 52.8094C175.761 52.8094 177.519 54.5673 177.519 56.747ZM214.687 102.353C212.491 104.549 208.929 104.549 206.732 102.353L189.899 85.5194C184.216 89.3473 177.116 91.2359 169.55 90.2248C156.675 88.5049 146.206 77.9509 144.574 65.0666C142.15 45.9131 158.256 29.8112 177.397 32.2441C190.284 33.8753 200.84 44.3479 202.555 57.2195C203.566 64.7853 201.678 71.887 197.85 77.5683L214.683 94.4015C216.881 96.5868 216.881 100.159 214.687 102.353ZM185.69 57.6189C185.69 50.911 180.276 45.4968 173.455 45.4968C166.888 45.4968 161.474 50.911 161.474 57.6189C161.474 63.012 169.39 72.877 172.424 76.463C172.71 76.7865 173.118 76.9974 173.455 76.9974C173.906 76.9974 174.336 76.7922 174.623 76.4643C177.772 72.877 185.69 63.0049 185.69 57.6189Z" fill="white" stroke="#5C94C0" stroke-width="5" mask="url(#path-6-inside-2_203_446)"/>
</svg>
