<svg width="235" height="235" viewBox="0 0 235 235" fill="none" xmlns="http://www.w3.org/2000/svg">
<rect width="235" height="235" fill="#F5F5F5"/>
<rect width="1741" height="2576" transform="translate(-1474 -55)" fill="white"/>
<path d="M104.508 0.728639C169.268 -6.43544 227.599 40.0373 234.793 104.528C238.423 137.066 193.336 104.002 174.139 127.562C155.286 150.7 162.647 230.722 130.56 234.271C65.7992 241.435 7.46848 194.963 0.27447 130.472C-3.80105 93.9365 38.4833 133.219 62.4769 108.889C80.8363 90.2716 76.4352 3.83415 104.508 0.728639Z" fill="#E5F5FF"/>
<mask id="path-2-inside-1_203_446" fill="white">
<path d="M226 123.678C226 136.934 217.941 147.678 208 147.678C195.839 147.678 196.105 135.678 187.135 135.678C182.087 135.678 178 139.765 178 144.827V195.678C178 202.304 172.626 207.678 166 207.678H139.135C134.087 207.678 130 203.59 130 198.528C130 189.34 142 189.827 142 177.678C142 167.736 131.256 159.678 118 159.678C104.744 159.678 94 167.736 94 177.678C94 189.839 106 189.573 106 198.543C106 203.59 101.913 207.678 96.85 207.678H46C39.3737 207.678 34 202.304 34 195.678V144.827C34 139.765 38.0913 135.678 43.135 135.678C52.0187 135.678 51.85 147.678 64 147.678C73.9375 147.678 82 136.915 82 123.678C82 110.44 73.9375 99.34 64 99.34C51.8387 99.34 52.105 111.34 43.135 111.34C38.0913 111.34 34 107.59 34 102.528V75.6625C34 69.0363 39.3737 64 46 64H96.85C101.913 63.34 106 59.59 106 54.5275C106 45.6437 94 45.8125 94 33.6625C94 23.7212 104.744 16 118 16C131.256 16 142 24.0587 142 33.6625C142 45.8237 130 45.5575 130 54.5275C130 59.5713 134.091 63.6625 139.135 63.6625H166C172.626 63.6625 178 69.0362 178 75.325V102.19C178 107.234 182.091 111.325 187.135 111.325C196.019 111.325 195.85 99.325 208 99.325C217.938 99.34 226 110.44 226 123.678Z"/>
</mask>
<path d="M226 123.678C226 136.934 217.941 147.678 208 147.678C195.839 147.678 196.105 135.678 187.135 135.678C182.087 135.678 178 139.765 178 144.827V195.678C178 202.304 172.626 207.678 166 207.678H139.135C134.087 207.678 130 203.59 130 198.528C130 189.34 142 189.827 142 177.678C142 167.736 131.256 159.678 118 159.678C104.744 159.678 94 167.736 94 177.678C94 189.839 106 189.573 106 198.543C106 203.59 101.913 207.678 96.85 207.678H46C39.3737 207.678 34 202.304 34 195.678V144.827C34 139.765 38.0913 135.678 43.135 135.678C52.0187 135.678 51.85 147.678 64 147.678C73.9375 147.678 82 136.915 82 123.678C82 110.44 73.9375 99.34 64 99.34C51.8387 99.34 52.105 111.34 43.135 111.34C38.0913 111.34 34 107.59 34 102.528V75.6625C34 69.0363 39.3737 64 46 64H96.85C101.913 63.34 106 59.59 106 54.5275C106 45.6437 94 45.8125 94 33.6625C94 23.7212 104.744 16 118 16C131.256 16 142 24.0587 142 33.6625C142 45.8237 130 45.5575 130 54.5275C130 59.5713 134.091 63.6625 139.135 63.6625H166C172.626 63.6625 178 69.0362 178 75.325V102.19C178 107.234 182.091 111.325 187.135 111.325C196.019 111.325 195.85 99.325 208 99.325C217.938 99.34 226 110.44 226 123.678Z" fill="#7FCBFF" stroke="#0A142B" stroke-opacity="0.3" stroke-width="8" mask="url(#path-2-inside-1_203_446)"/>
<circle cx="130" cy="111.677" r="24" fill="#F5F7FA" stroke="#5C94C0" stroke-width="8"/>
<path d="M158 83.6775L102 139.677" stroke="#5C94C0" stroke-width="8" stroke-linecap="round"/>
</svg>
