<svg width="235" height="235" viewBox="0 0 235 235" fill="none" xmlns="http://www.w3.org/2000/svg">
<path d="M104.508 0.728639C169.268 -6.43544 227.599 40.0373 234.793 104.528C238.423 137.066 193.336 104.002 174.139 127.562C155.286 150.7 162.647 230.722 130.56 234.271C65.7992 241.435 7.46848 194.963 0.27447 130.472C-3.80105 93.9365 38.4833 133.219 62.4769 108.889C80.8363 90.2716 76.4352 3.83415 104.508 0.728639Z" fill="#E5F5FF"/>
<rect x="99" y="77" width="41" height="82" fill="#F5F7FA"/>
<path d="M136 21C142.637 21 148 26.3737 148 33C148 39.6263 142.637 45 136 45H130V57.9187C144.062 60.075 156.888 66 167.388 74.625L175.525 66.525C180.212 61.8375 187.788 61.8375 192.475 66.525C197.163 71.2125 197.163 78.7875 192.475 83.475L183.438 92.55C191.387 104.738 196 119.325 196 135C196 178.087 161.088 213 118 213C74.9125 213 40 178.087 40 135C40 96 68.62 63.675 106 57.9187V45H100C93.3625 45 88 39.6263 88 33C88 26.3737 93.3625 21 100 21H136ZM127 93C127 88.0125 122.988 84 118 84C113.012 84 109 88.0125 109 93V141C109 145.988 113.012 150 118 150C122.988 150 127 145.988 127 141V93Z" fill="#7FCBFF"/>
<path d="M130 43H128V45V57.9187V59.6355L129.697 59.8956C143.395 61.996 155.888 67.7672 166.118 76.1705L167.516 77.3189L168.798 76.0425L176.936 67.9425L176.939 67.9392C180.846 64.0328 187.154 64.0328 191.061 67.9392C194.967 71.8457 194.967 78.1543 191.061 82.0608L191.058 82.0637L182.02 91.1387L180.878 92.2863L181.762 93.6427C189.506 105.513 194 119.723 194 135C194 176.983 159.983 211 118 211C76.0171 211 42 176.983 42 135C42 97.0012 69.8858 65.5036 106.304 59.8954L108 59.6343V57.9187V45V43H106H100C94.4683 43 90 38.5229 90 33C90 27.4771 94.4683 23 100 23H136C141.532 23 146 27.4771 146 33C146 38.5229 141.532 43 136 43H130ZM129 93C129 86.9079 124.092 82 118 82C111.908 82 107 86.9079 107 93V141C107 147.092 111.908 152 118 152C124.092 152 129 147.092 129 141V93Z" stroke="#0A142B" stroke-opacity="0.3" stroke-width="4"/>
<circle cx="83" cy="133" r="11" fill="#FFEAAC" stroke="#5C94C0" stroke-width="4"/>
<circle cx="83" cy="102" r="11" fill="#FFEAAC" stroke="#5C94C0" stroke-width="4"/>
</svg>
