<svg width="235" height="235" viewBox="0 0 235 235" fill="none" xmlns="http://www.w3.org/2000/svg">
<path d="M104.508 0.728639C169.268 -6.43544 227.599 40.0373 234.793 104.528C238.423 137.066 193.336 104.002 174.139 127.562C155.286 150.7 162.647 230.722 130.56 234.271C65.7992 241.435 7.46848 194.963 0.27447 130.472C-3.80105 93.9365 38.4833 133.219 62.4769 108.889C80.8363 90.2716 76.4352 3.83415 104.508 0.728639Z" fill="#E5F5FF"/>
<path d="M19 35.5C19 22.5199 29.5199 12 42.5 12H101.25V59C101.25 65.4992 106.501 70.75 113 70.75H160V176.5C160 189.462 149.462 200 136.5 200H42.5C29.5199 200 19 189.462 19 176.5V35.5ZM113 59V12L160 59H113Z" fill="#7FCBFF"/>
<path d="M21 35.5C21 23.6245 30.6245 14 42.5 14H99.25V59C99.25 66.6038 105.396 72.75 113 72.75H158V176.5C158 188.357 148.357 198 136.5 198H42.5C30.6255 198 21 188.358 21 176.5V35.5ZM115 57V16.8284L155.172 57H115Z" stroke="#0A142B" stroke-opacity="0.3" stroke-width="4"/>
<circle cx="48.3757" cy="162.792" r="10.7292" fill="#F4B7C5" stroke="#5C94C0" stroke-width="4"/>
<circle cx="48.3757" cy="132.438" r="10.7292" fill="#FFEAAC" stroke="#5C94C0" stroke-width="4"/>
<circle cx="48.3757" cy="103.063" r="10.7292" fill="#B0E6CC" stroke="#5C94C0" stroke-width="4"/>
<rect x="73.875" y="155" width="67.4792" height="16.5625" rx="8" fill="#F5F7FA" stroke="#5C94C0" stroke-width="4"/>
<rect x="73.875" y="124.646" width="67.4792" height="16.5625" rx="8" fill="#F5F7FA" stroke="#5C94C0" stroke-width="4"/>
<rect x="73.875" y="95.2709" width="67.4792" height="16.5625" rx="8" fill="#F5F7FA" stroke="#5C94C0" stroke-width="4"/>
<ellipse cx="163.777" cy="168.298" rx="54.2222" ry="54.2975" fill="#FFEAAC"/>
<path d="M215.999 168.298C215.999 197.183 192.616 220.595 163.777 220.595C134.938 220.595 111.555 197.183 111.555 168.298C111.555 139.412 134.938 116 163.777 116C192.616 116 215.999 139.412 215.999 168.298Z" stroke="#0A142B" stroke-opacity="0.3" stroke-width="4"/>
<path d="M168.133 162.902L168.131 162.903C166.279 163.732 164.816 165.243 164.06 167.133L164.059 167.136L163.889 167.566C163.889 167.567 163.888 167.567 163.888 167.567C163.237 169.184 161.405 169.969 159.792 169.32C158.175 168.669 157.389 166.837 158.038 165.224L158.04 165.221L158.21 164.79C158.21 164.789 158.21 164.789 158.21 164.788C159.577 161.384 162.222 158.64 165.583 157.141L166.837 156.582C166.837 156.582 166.837 156.582 166.838 156.582C169.149 155.56 171.545 155.027 174.166 155.027C179.052 155.027 183.456 157.962 185.331 162.463L186.984 166.658L187.055 166.84L187.232 166.925L189.758 168.143C189.759 168.143 189.76 168.144 189.762 168.144C191.315 168.923 191.944 170.813 191.167 172.367C190.389 173.923 188.498 174.554 186.942 173.776L186.941 173.775L183.897 172.259C183.897 172.259 183.896 172.258 183.896 172.258C182.827 171.718 181.987 170.816 181.532 169.718L181.531 169.717L180.436 167.092L179.893 165.792L179.495 167.144L177.293 174.618L177.213 174.889L177.403 175.097L183.052 181.27L183.052 181.27C183.614 181.884 184.017 182.62 184.213 183.424L184.214 183.427L186.838 193.926C187.262 195.623 186.236 197.334 184.557 197.746L184.555 197.747C182.868 198.168 181.142 197.154 180.629 195.454L178.213 185.403L178.182 185.277L178.095 185.182L170.039 176.384L170.038 176.383C168.454 174.66 167.788 172.274 168.471 170.057L168.474 170.047L168.476 170.038L170.404 162.792L170.673 161.782L169.718 162.207C169.672 162.227 169.623 162.248 169.568 162.271L169.565 162.272C169.513 162.294 169.455 162.318 169.399 162.343C169.399 162.343 169.399 162.343 169.399 162.343L168.133 162.902ZM166.604 179.531L166.609 179.536L171.04 184.371L169.503 188.209L169.502 188.212C169.253 188.845 168.88 189.413 168.408 189.875L168.408 189.875L168.404 189.879L161.363 196.92C160.132 198.151 158.144 198.151 156.912 196.92C155.681 195.689 155.681 193.7 156.912 192.469L156.913 192.469L163.68 185.69L163.752 185.618L163.79 185.523L166.32 179.207C166.414 179.317 166.509 179.425 166.604 179.531L166.604 179.531ZM158.764 171.619L158.783 171.631L158.803 171.642C159.56 172.038 159.712 172.827 159.391 173.324L159.384 173.335L159.377 173.347L154.379 182.1L154.346 182.157L154.329 182.222C154.261 182.486 154.152 182.753 154.013 183.002C154.013 183.003 154.012 183.004 154.012 183.005L146.713 195.652C146.712 195.653 146.712 195.653 146.712 195.653C145.835 197.16 143.908 197.672 142.401 196.806C142.401 196.806 142.401 196.806 142.401 196.806L136.078 193.155C136.077 193.155 136.077 193.155 136.077 193.155C134.568 192.276 134.053 190.356 134.923 188.851L134.924 188.848L142.119 176.204C143.094 174.683 145.032 174.177 146.538 174.946L152.732 178.624L153.17 178.884L153.422 178.441L157.064 172.032C157.449 171.466 158.25 171.286 158.764 171.619ZM173.66 145.398C173.66 144.049 174.343 142.654 175.41 141.587C176.478 140.519 177.872 139.837 179.221 139.837C180.57 139.837 181.965 140.519 183.032 141.587C184.1 142.654 184.783 144.049 184.783 145.398C184.783 146.748 184.1 148.142 183.032 149.21C181.965 150.277 180.57 150.959 179.221 150.959C177.872 150.959 176.478 150.277 175.41 149.21C174.343 148.142 173.66 146.748 173.66 145.398Z" fill="#F5F7FA" stroke="#5C94C0"/>
<circle cx="179.277" cy="144.303" r="6.80273" fill="#F5F7FA" stroke="#5C94C0"/>
</svg>
