<svg width="585" height="273" viewBox="0 0 585 273" fill="none" xmlns="http://www.w3.org/2000/svg">
<path d="M80.8 204.2C66.5333 204.2 54 201.2 43.2 195.2C32.5333 189.067 24.2 180.533 18.2 169.6C12.2 158.667 9.2 145.933 9.2 131.4C9.2 116.733 12.1333 104 18 93.2C24 82.2667 32.4 73.8 43.2 67.8C54 61.8 66.5333 58.8 80.8 58.8C95.0667 58.8 107.533 61.8 118.2 67.8C129 73.8 137.4 82.2667 143.4 93.2C149.4 104 152.4 116.733 152.4 131.4C152.4 145.933 149.4 158.667 143.4 169.6C137.4 180.533 129 189.067 118.2 195.2C107.533 201.2 95.0667 204.2 80.8 204.2ZM80.8 173.4C91.2 173.4 99.3333 169.733 105.2 162.4C111.2 154.933 114.2 144.6 114.2 131.4C114.2 118.2 111.267 107.933 105.4 100.6C99.5333 93.2667 91.3333 89.6 80.8 89.6C70.2667 89.6 62.0667 93.2667 56.2 100.6C50.3333 107.933 47.4 118.2 47.4 131.4C47.4 144.6 50.3333 154.933 56.2 162.4C62.0667 169.733 70.2667 173.4 80.8 173.4ZM286.181 238V103.6H320.781V117C323.448 112.2 327.515 108.4 332.981 105.6C338.448 102.8 344.448 101.4 350.981 101.4C359.381 101.4 366.781 103.467 373.181 107.6C379.715 111.733 384.781 117.667 388.381 125.4C392.115 133 393.981 142.133 393.981 152.8C393.981 163.333 392.181 172.467 388.581 180.2C384.981 187.933 379.915 193.867 373.381 198C366.981 202.133 359.515 204.2 350.981 204.2C344.848 204.2 339.115 202.933 333.781 200.4C328.581 197.867 324.581 194.467 321.781 190.2V238H286.181ZM339.781 178C345.115 178 349.515 176 352.981 172C356.448 168 358.181 161.6 358.181 152.8C358.181 143.867 356.448 137.467 352.981 133.6C349.515 129.6 345.115 127.6 339.781 127.6C334.315 127.6 329.848 129.6 326.381 133.6C322.915 137.467 321.181 143.867 321.181 152.8C321.181 161.6 322.915 168 326.381 172C329.848 176 334.315 178 339.781 178ZM449.405 204.2C440.338 204.2 431.938 203.267 424.205 201.4C416.605 199.533 410.138 196.933 404.805 193.6L413.005 170.6C417.938 173.4 423.671 175.733 430.205 177.6C436.738 179.333 443.205 180.2 449.605 180.2C454.538 180.2 458.071 179.533 460.205 178.2C462.338 176.733 463.405 174.867 463.405 172.6C463.405 170.6 462.671 169.133 461.205 168.2C459.871 167.133 457.938 166.333 455.405 165.8L433.205 162.2C424.938 160.867 418.538 157.867 414.005 153.2C409.471 148.533 407.205 142.467 407.205 135C407.205 128.067 409.138 122.133 413.005 117.2C416.871 112.133 422.271 108.267 429.205 105.6C436.138 102.8 444.071 101.4 453.005 101.4C460.071 101.4 467.071 102.267 474.005 104C480.938 105.6 487.005 108.267 492.205 112L483.405 134.6C479.538 131.933 474.738 129.733 469.005 128C463.271 126.133 458.138 125.2 453.605 125.2C448.138 125.2 444.271 126 442.005 127.6C439.738 129.067 438.605 130.867 438.605 133C438.605 136.6 441.071 138.8 446.005 139.6L468.205 143.4C476.738 144.733 483.271 147.667 487.805 152.2C492.471 156.6 494.805 162.6 494.805 170.2C494.805 181 490.671 189.4 482.405 195.4C474.138 201.267 463.138 204.2 449.405 204.2Z" fill="#0098FF"/>
<path d="M218 102C246.17 102 269 124.83 269 153C269 181.17 246.17 204 218 204C189.83 204 167 181.17 167 153C167 124.83 189.83 102 218 102ZM218 172.125C224.953 172.125 231.387 175.273 236.388 180.671C237.583 181.966 239.595 182.026 240.89 180.831C242.185 179.636 242.245 177.623 241.05 176.329C235.053 169.834 226.965 165.75 218 165.75C216.247 165.75 214.812 167.184 214.812 168.938C214.812 170.691 216.247 172.125 218 172.125ZM208.438 175.512C208.438 171.527 202.78 163.479 200.15 160.032C199.512 159.156 198.238 159.156 197.6 160.032C195.01 163.479 189.312 171.527 189.312 175.512C189.312 180.691 193.596 184.875 198.875 184.875C204.154 184.875 208.438 180.691 208.438 175.512ZM227.483 143.438C227.483 146.964 230.172 149.812 233.858 149.812C237.384 149.812 240.233 146.964 240.233 143.438C240.233 139.911 237.384 137.062 233.858 137.062C230.172 137.062 227.483 139.911 227.483 143.438ZM208.358 143.438C208.358 139.911 205.509 137.062 201.983 137.062C198.297 137.062 195.608 139.911 195.608 143.438C195.608 146.964 198.297 149.812 201.983 149.812C205.509 149.812 208.358 146.964 208.358 143.438Z" fill="#E34A6F"/>
<path d="M546.4 154.4L535.4 61H579L567.8 154.4H546.4ZM538.6 202V165.6H575.6V202H538.6Z" fill="#0098FF"/>
</svg>
