<?xml version="1.0" standalone="no"?>
<!DOCTYPE svg PUBLIC "-//W3C//DTD SVG 20010904//EN"
 "http://www.w3.org/TR/2001/REC-SVG-20010904/DTD/svg10.dtd">
<svg version="1.0" xmlns="http://www.w3.org/2000/svg"
 width="256.000000pt" height="256.000000pt" viewBox="0 0 256.000000 256.000000"
 preserveAspectRatio="xMidYMid meet">
<metadata>
Created by potrace 1.15, written by Peter Selinger 2001-2017
</metadata>
<g transform="translate(0.000000,256.000000) scale(0.100000,-0.100000)"
fill="#000000" stroke="none">
<path d="M1181 2155 c-250 -79 -465 -149 -478 -156 -13 -7 -33 -27 -43 -45
-19 -30 -20 -54 -20 -846 l0 -815 23 -21 23 -22 600 0 601 0 21 23 22 23 0
821 0 822 -26 20 c-21 17 -41 21 -95 21 l-69 0 0 144 c0 164 -5 176 -68 176
-20 -1 -241 -66 -491 -145z m429 -41 c6 -14 10 -50 10 -80 l0 -54 -282 0 -283
1 245 78 c135 44 257 79 273 80 21 1 30 -5 37 -25z m-199 -510 c76 -23 131
-58 183 -115 195 -217 130 -548 -131 -672 -64 -30 -75 -32 -178 -32 -105 0
-113 2 -179 34 -254 124 -319 457 -131 669 100 113 283 161 436 116z m377
-986 c16 -16 16 -140 0 -156 -17 -17 -969 -17 -986 0 -7 7 -12 40 -12 78 0 38
5 71 12 78 17 17 969 17 986 0z"/>
<path d="M1240 1603 c-36 -7 -58 -30 -91 -95 -44 -86 -43 -88 51 -88 l80 0 0
95 c0 52 -3 94 -7 94 -5 -1 -19 -4 -33 -6z"/>
<path d="M1300 1510 l0 -90 75 0 c41 0 75 2 75 5 0 14 -34 85 -62 127 -24 39
-35 48 -59 48 l-29 0 0 -90z"/>
<path d="M1400 1580 c0 -6 11 -32 25 -58 13 -26 29 -59 34 -74 10 -27 13 -28
86 -28 45 0 75 4 75 10 0 21 -91 100 -149 129 -67 34 -71 35 -71 21z"/>
<path d="M1090 1554 c-52 -29 -130 -102 -130 -121 0 -18 140 -19 140 0 0 6 14
39 30 72 16 33 30 63 30 68 0 13 -25 7 -70 -19z"/>
<path d="M921 1383 c-14 -28 -41 -124 -41 -150 0 -22 3 -23 89 -23 l88 0 6 58
c4 31 10 74 13 95 l7 37 -76 0 c-62 0 -78 -3 -86 -17z"/>
<path d="M1095 1373 c-7 -30 -18 -105 -19 -138 -1 -19 6 -20 102 -23 l102 -3
0 96 0 95 -89 0 c-89 0 -89 0 -96 -27z"/>
<path d="M1300 1305 l0 -95 96 0 97 0 -6 58 c-4 31 -11 74 -17 95 l-11 37 -79
0 -80 0 0 -95z"/>
<path d="M1486 1368 c4 -18 10 -60 13 -93 l6 -60 94 -3 94 -3 -6 54 c-3 29
-13 71 -24 93 l-18 39 -83 3 -84 3 8 -33z"/>
<path d="M883 1145 c4 -25 16 -68 28 -95 l21 -50 76 0 75 0 -7 38 c-3 20 -9
63 -13 95 l-6 57 -90 0 -90 0 6 -45z"/>
<path d="M1076 1182 c-7 -11 9 -120 23 -154 10 -28 12 -28 96 -28 l85 0 0 95
0 95 -99 0 c-55 0 -102 -4 -105 -8z"/>
<path d="M1300 1095 l0 -95 80 0 79 0 11 38 c6 20 13 63 17 95 l6 57 -97 0
-96 0 0 -95z"/>
<path d="M1497 1123 c-4 -38 -9 -80 -13 -95 l-6 -28 81 0 81 0 21 41 c11 23
23 66 26 95 l6 54 -95 0 -95 0 -6 -67z"/>
<path d="M960 966 c0 -34 176 -163 196 -143 4 4 -7 35 -25 71 -17 35 -31 69
-31 75 0 7 -25 11 -70 11 -52 0 -70 -3 -70 -14z"/>
<path d="M1120 965 c0 -20 36 -91 67 -132 19 -26 31 -33 59 -33 l34 0 0 90 0
90 -80 0 c-65 0 -80 -3 -80 -15z"/>
<path d="M1300 889 l0 -90 33 3 c28 3 37 11 75 78 23 41 42 80 42 87 0 9 -21
13 -75 13 l-75 0 0 -91z"/>
<path d="M1436 903 c-20 -42 -35 -80 -34 -85 6 -17 125 50 171 96 26 26 47 52
47 57 0 5 -33 9 -74 9 l-74 0 -36 -77z"/>
</g>
</svg>
