<svg width="30" height="30" viewBox="0 0 30 30" fill="none" xmlns="http://www.w3.org/2000/svg">
<path d="M15 2.5C8.1 2.5 2.5 8.1 2.5 15C2.5 21.9 8.1 27.5 15 27.5C21.9 27.5 27.5 21.9 27.5 15C27.5 8.1 21.9 2.5 15 2.5ZM15 25C9.4875 25 5 20.5125 5 15C5 9.4875 9.4875 5 15 5C20.5125 5 25 9.4875 25 15C25 20.5125 20.5125 25 15 25Z" fill="#0098FF"/>
<circle cx="15" cy="15" r="10" fill="white"/>
<path d="M15.9135 10H11.875V20.625H14.1827V17.0833H15.9135C17.8231 17.0833 19.375 15.4955 19.375 13.5417C19.375 11.5878 17.8231 10 15.9135 10ZM16.0288 14.7222H14.1827V12.3611H16.0288C16.6635 12.3611 17.1827 12.8924 17.1827 13.5417C17.1827 14.191 16.6635 14.7222 16.0288 14.7222Z" fill="#0098FF"/>
</svg>
