<svg width="910" height="273" viewBox="0 0 910 273" fill="none" xmlns="http://www.w3.org/2000/svg">
    <path d="M13.3859 202V61H81.1859C97.1859 61 109.519 65.1333 118.186 73.4C126.986 81.5333 131.386 92.8 131.386 107.2C131.386 121.6 126.986 132.933 118.186 141.2C109.519 149.333 97.1859 153.4 81.1859 153.4H50.1859V202H13.3859ZM50.1859 125.2H74.7859C89.1859 125.2 96.3859 119.2 96.3859 107.2C96.3859 95.2 89.1859 89.2 74.7859 89.2H50.1859V125.2ZM144.189 202V103.6H178.789V120.2C183.322 108.867 193.122 102.667 208.189 101.6L217.989 100.8L219.989 130.8L200.589 132.6C193.522 133.267 188.389 135.267 185.189 138.6C181.989 141.8 180.389 146.6 180.389 153V202H144.189ZM454.188 204.2C439.254 204.2 428.188 200.733 420.988 193.8C413.788 186.867 410.188 176.4 410.188 162.4V129.8H391.787V103.6H410.188V75H445.788V103.6H473.788V129.8H445.788V161.2C445.788 170.8 450.654 175.6 460.388 175.6C461.988 175.6 463.721 175.467 465.588 175.2C467.588 174.8 469.788 174.267 472.188 173.6L476.988 199.2C473.921 200.8 470.321 202 466.188 202.8C462.054 203.733 458.054 204.2 454.188 204.2ZM486.744 86.6V54.4H524.144V86.6H486.744ZM487.744 202V103.6H523.344V202H487.744ZM544.394 202V103.6H578.994V116.8C582.06 112.133 586.127 108.4 591.194 105.6C596.394 102.8 602.327 101.4 608.994 101.4C615.66 101.4 621.394 102.867 626.194 105.8C631.127 108.733 634.86 113.267 637.394 119.4C640.727 113.667 645.26 109.267 650.994 106.2C656.727 103 663.06 101.4 669.994 101.4C681.46 101.4 689.927 104.867 695.394 111.8C700.994 118.6 703.794 129.267 703.794 143.8V202H668.194V144.8C668.194 139.067 667.327 134.933 665.594 132.4C663.86 129.867 660.994 128.6 656.994 128.6C652.06 128.6 648.26 130.333 645.594 133.8C643.06 137.267 641.794 142.2 641.794 148.6V202H606.194V144.8C606.194 139.067 605.327 134.933 603.594 132.4C601.86 129.867 598.994 128.6 594.994 128.6C590.194 128.6 586.46 130.333 583.794 133.8C581.26 137.267 579.994 142.2 579.994 148.6V202H544.394ZM778.063 204.2C766.063 204.2 755.663 202.133 746.863 198C738.196 193.733 731.529 187.733 726.863 180C722.196 172.267 719.863 163.133 719.863 152.6C719.863 142.6 722.063 133.733 726.463 126C730.996 118.267 737.129 112.267 744.863 108C752.729 103.6 761.663 101.4 771.663 101.4C781.529 101.4 790.063 103.467 797.263 107.6C804.596 111.733 810.196 117.667 814.062 125.4C818.063 133 820.063 141.933 820.063 152.2V160H753.863C755.063 166.4 757.729 171 761.863 173.8C765.996 176.6 771.729 178 779.063 178C784.129 178 789.396 177.267 794.863 175.8C800.463 174.2 805.396 171.933 809.663 169L818.463 192.4C813.396 196 807.196 198.867 799.863 201C792.529 203.133 785.263 204.2 778.063 204.2ZM773.263 124.4C767.929 124.4 763.529 126 760.063 129.2C756.729 132.4 754.596 137.067 753.663 143.2H790.863C790.463 136.933 788.729 132.267 785.663 129.2C782.729 126 778.596 124.4 773.263 124.4Z" fill="#0098FF"/>
    <path d="M236 151C236 122.83 258.83 100 287 100C315.17 100 338 122.83 338 151C338 179.17 315.17 202 287 202C258.83 202 236 179.17 236 151ZM268.692 164.846C267.536 163.511 265.524 163.371 264.189 164.527C262.855 165.682 262.715 167.695 263.871 169.029C268.293 174.129 276.023 179.688 286.821 179.688C297.977 179.688 305.687 174.129 310.129 169.029C311.285 167.695 311.145 165.682 309.811 164.527C308.476 163.371 306.464 163.511 305.308 164.846C301.722 168.97 295.646 173.312 286.821 173.312C278.354 173.312 272.258 168.97 268.692 164.846ZM271.142 135.062C267.616 135.062 264.767 137.911 264.767 141.438C264.767 144.964 267.616 147.812 271.142 147.812C274.648 147.812 277.517 144.964 277.517 141.438C277.517 137.911 274.648 135.062 271.142 135.062ZM295.925 146.538C299.431 141.856 306.444 141.856 309.95 146.538C311.006 147.952 312.998 148.231 314.412 147.175C315.827 146.119 316.106 144.127 315.05 142.712C308.994 134.644 296.881 134.644 290.825 142.712C289.769 144.127 290.048 146.119 291.462 147.175C292.877 148.231 294.869 147.952 295.925 146.538Z" fill="#39C17F"/>
    <path d="M871.4 154.4L860.4 61H904L892.8 154.4H871.4ZM863.6 202V165.6H900.6V202H863.6Z" fill="#0098FF"/>
</svg>
