<?xml version="1.0" encoding="UTF-8"?>
<svg width="128px" height="128px" viewBox="0 0 128 128" version="1.1" xmlns="http://www.w3.org/2000/svg" xmlns:xlink="http://www.w3.org/1999/xlink">
    <!-- Generator: Sketch 59 (86127) - https://sketch.com -->
    <title>Quote</title>
    <desc>Created with Sketch.</desc>
    <g id="Quote" stroke="none" stroke-width="1" fill="none" fill-rule="evenodd">
        <polygon id="Path-2" stroke="#F9CB40" stroke-width="2" fill-opacity="0.1" fill="#F9CB40" opacity="0.25" stroke-linecap="round" stroke-linejoin="round" points="77 118 25 118 25 14 103 14 103 89"></polygon>
        <rect id="Rectangle" fill="#000000" x="32" y="29" width="64" height="2" rx="1"></rect>
        <rect id="Rectangle" fill="#000000" x="32" y="40" width="64" height="2" rx="1"></rect>
        <rect id="Rectangle" fill="#000000" x="32" y="51" width="64" height="2" rx="1"></rect>
        <polyline id="Path-3" stroke="#F9CB40" stroke-width="2" fill="#FAFAFA" opacity="0.25" stroke-linecap="round" stroke-linejoin="round" points="76 117 76 88 102 88"></polyline>
        <g id="Group-2" transform="translate(32.000000, 78.000000)">
            <circle id="Oval" fill="#F9CB40" cx="12" cy="12" r="12"></circle>
            <g id="Group" transform="translate(9.000000, 4.000000)" stroke="#FAFAFA" stroke-width="2">
                <path d="M3,14 C4.65685425,14 6,12.6568542 6,11 C6,9.34314575 4.65685425,8 3,8 C1.34314575,8 0,9.34314575 0,11" id="Oval" transform="translate(3.000000, 11.000000) scale(1, -1) translate(-3.000000, -11.000000) "></path>
                <path d="M3,8 C4.65685425,8 6,6.65685425 6,5 C6,3.34314575 4.65685425,2 3,2 C1.34314575,2 0,3.34314575 0,5" id="Oval" transform="translate(3.000000, 5.000000) scale(1, -1) rotate(-180.000000) translate(-3.000000, -5.000000) "></path>
                <line x1="3" y1="0" x2="3" y2="2" id="Path-7"></line>
                <line x1="3" y1="14" x2="3" y2="16" id="Path-7"></line>
            </g>
        </g>
        <g id="Group-47" transform="translate(48.000000, 87.000000)">
            <circle id="Oval" fill="#0098FF" cx="12" cy="12" r="12"></circle>
            <path d="M12,14 C14.209139,14 16,12.209139 16,10 C16,7.790861 14.209139,6 12,6 C9.790861,6 8,7.790861 8,10" id="Oval" stroke="#FFFFFF" stroke-width="2" transform="translate(12.000000, 10.000000) scale(-1, -1) rotate(-180.000000) translate(-12.000000, -10.000000) "></path>
            <line x1="12" y1="18" x2="12" y2="20" id="Path-7" stroke="#FFFFFF" stroke-width="2"></line>
            <line x1="12" y1="13" x2="12" y2="17" id="Path-7" stroke="#FFFFFF" stroke-width="2"></line>
        </g>
    </g>
</svg>