<svg width="35" height="35" viewBox="0 0 35 35" fill="none" xmlns="http://www.w3.org/2000/svg">
<circle cx="17.5" cy="17.5" r="17" stroke="#0098FF" stroke-dasharray="6 6"/>
<path d="M27.2992 17.5002C27.2992 18.3337 26.6241 19.0084 25.7915 19.0084H19.0069V25.793C19.0069 26.6264 18.3317 27.3002 17.4992 27.3002C16.6667 27.3002 15.9915 26.6264 15.9915 25.793V19.0084H9.20691C8.37438 19.0084 7.69922 18.3337 7.69922 17.5002C7.69922 16.6667 8.37438 15.993 9.20691 15.993H15.9915V9.20836C15.9915 8.37489 16.6667 7.7002 17.4992 7.7002C18.3317 7.7002 19.0069 8.37489 19.0069 9.20836V15.993H25.7915C26.6255 15.9925 27.2992 16.6663 27.2992 17.5002Z" fill="#0098FF"/>
</svg>
