<?xml version="1.0" standalone="no"?>
<!DOCTYPE svg PUBLIC "-//W3C//DTD SVG 20010904//EN"
 "http://www.w3.org/TR/2001/REC-SVG-20010904/DTD/svg10.dtd">
<svg version="1.0" xmlns="http://www.w3.org/2000/svg"
 width="256.000000pt" height="256.000000pt" viewBox="0 0 256.000000 256.000000"
 preserveAspectRatio="xMidYMid meet">
<metadata>
Created by potrace 1.15, written by Peter Selinger 2001-2017
</metadata>
<g transform="translate(0.000000,256.000000) scale(0.100000,-0.100000)"
fill="#000000" stroke="none">
<path d="M960 2540 c-478 -102 -843 -466 -939 -937 -12 -56 -21 -135 -21 -177
l0 -76 605 0 605 0 0 605 0 605 -82 -1 c-46 0 -121 -9 -168 -19z m72 -585 l-2
-425 -424 0 -424 0 13 59 c94 402 414 705 835 790 3 1 4 -190 2 -424z"/>
<path d="M1350 1805 l0 -595 -596 0 -597 0 6 -107 c26 -498 391 -933 897
-1070 127 -34 379 -44 512 -19 490 92 869 462 967 943 29 140 29 346 0 486
-80 396 -356 725 -735 876 -119 48 -274 81 -378 81 l-76 0 0 -595z"/>
</g>
</svg>
