<?xml version="1.0" standalone="no"?>
<!DOCTYPE svg PUBLIC "-//W3C//DTD SVG 20010904//EN"
 "http://www.w3.org/TR/2001/REC-SVG-20010904/DTD/svg10.dtd">
<svg version="1.0" xmlns="http://www.w3.org/2000/svg"
 width="256.000000pt" height="256.000000pt" viewBox="0 0 256.000000 256.000000"
 preserveAspectRatio="xMidYMid meet">
<metadata>
Created by potrace 1.15, written by Peter Selinger 2001-2017
</metadata>
<g transform="translate(0.000000,256.000000) scale(0.100000,-0.100000)"
fill="#000000" stroke="none">
<path d="M855 2296 c-32 -14 -84 -68 -86 -89 -6 -51 -4 -77 8 -106 16 -42 16
-40 -4 -39 -24 1 -62 -8 -93 -20 -32 -13 -60 -22 -63 -20 -1 1 -23 -11 -49
-26 -27 -15 -48 -25 -48 -20 0 4 -8 0 -18 -9 -10 -10 -22 -14 -25 -10 -4 3 -7
1 -7 -5 0 -7 -16 -20 -35 -29 -19 -9 -35 -20 -35 -25 0 -4 -6 -8 -14 -8 -7 0
-21 -10 -30 -22 -9 -13 -14 -16 -9 -8 4 8 -11 -3 -32 -25 -22 -22 -53 -53 -70
-69 -16 -16 -23 -26 -15 -22 8 4 5 -1 -8 -10 -12 -9 -22 -21 -22 -26 0 -5 -4
-14 -10 -21 -21 -25 -78 -117 -73 -117 3 0 -7 -20 -21 -45 -15 -25 -24 -45
-20 -45 4 0 0 -8 -9 -18 -10 -10 -14 -21 -11 -24 3 -4 0 -16 -6 -28 -6 -12
-14 -38 -16 -58 -3 -21 -9 -53 -14 -71 -9 -34 -7 -272 3 -321 3 -14 7 -36 10
-50 3 -14 10 -36 15 -50 11 -28 23 -62 24 -70 0 -3 11 -24 25 -47 14 -24 22
-43 19 -43 -3 0 7 -19 24 -42 16 -22 30 -47 30 -55 0 -7 7 -16 15 -19 8 -4 15
-12 15 -19 0 -7 10 -20 23 -29 12 -9 15 -14 7 -10 -8 4 -1 -6 15 -22 17 -16
48 -47 70 -69 21 -22 36 -33 32 -25 -5 8 0 5 9 -7 9 -13 21 -23 26 -23 5 0 14
-4 21 -10 25 -21 117 -78 117 -73 0 3 20 -7 45 -21 25 -15 45 -24 45 -20 0 4
8 0 18 -9 10 -10 21 -14 24 -11 4 3 16 0 28 -6 13 -7 32 -14 44 -15 11 -2 39
-7 61 -12 52 -10 288 -10 340 0 22 5 50 10 61 12 12 1 30 8 41 13 16 9 42 10
63 2 3 -1 9 -2 13 -1 4 1 17 -4 29 -10 11 -6 30 -13 42 -14 11 -2 39 -7 61
-12 52 -10 288 -10 340 0 22 5 50 10 61 12 12 1 31 8 44 15 12 6 24 9 28 6 3
-3 14 1 24 11 10 9 18 13 18 9 0 -4 20 5 45 20 25 14 45 24 45 21 0 -5 92 52
117 73 7 6 16 10 21 10 5 0 17 10 26 22 9 13 14 16 9 8 -4 -8 11 3 32 25 22
22 53 53 70 69 16 16 23 26 15 22 -8 -4 -5 1 8 10 12 9 22 23 22 30 0 8 4 14
10 14 5 0 16 16 24 35 8 19 20 35 27 35 7 0 9 3 6 7 -4 3 0 15 10 25 9 10 13
18 9 18 -5 0 3 19 17 42 14 24 26 48 27 53 4 16 11 38 23 70 6 17 13 37 14 45
5 29 14 85 19 115 5 37 5 181 0 215 -20 133 -20 130 -33 165 -14 39 -21 59
-20 65 0 3 -12 26 -27 53 -15 26 -26 47 -23 47 5 0 -52 92 -73 117 -6 7 -10
16 -10 21 0 5 -10 17 -22 26 -13 9 -16 14 -8 10 8 -4 1 6 -15 22 -17 16 -48
47 -70 69 -21 22 -36 33 -32 25 5 -8 0 -5 -9 8 -9 12 -23 22 -30 22 -8 0 -14
4 -14 8 0 5 -16 16 -35 25 -19 9 -35 22 -35 29 0 6 -3 8 -7 5 -3 -4 -15 0 -25
10 -10 9 -18 13 -18 9 0 -5 -21 5 -47 20 -27 15 -49 27 -50 26 -3 -2 -26 5
-68 21 -31 12 -35 13 -95 23 -77 12 -98 14 -175 14 -44 0 -93 -2 -110 -4 -30
-5 -87 -14 -115 -19 -8 -1 -30 -9 -47 -16 -28 -12 -39 -11 -80 3 -59 21 -93
29 -115 28 -15 -1 -15 2 2 31 22 40 19 110 -7 146 -41 54 -68 66 -161 68 -54
1 -99 -3 -117 -11z m201 -368 c3 -4 9 -6 14 -3 5 3 11 1 14 -4 4 -5 -3 -12
-14 -16 -11 -3 -20 -11 -20 -16 0 -5 -6 -9 -14 -9 -7 0 -21 -10 -30 -22 -9
-13 -14 -16 -9 -8 4 8 -11 -3 -32 -25 -22 -22 -53 -53 -70 -69 -16 -16 -23
-26 -15 -22 8 4 5 -1 -7 -10 -13 -9 -23 -21 -23 -26 0 -5 -4 -14 -10 -21 -21
-25 -78 -117 -73 -117 3 0 -7 -20 -21 -45 -15 -25 -24 -45 -20 -45 4 0 0 -8
-9 -18 -10 -10 -14 -21 -11 -24 3 -4 0 -16 -6 -28 -6 -12 -14 -38 -16 -58 -3
-21 -9 -53 -14 -71 -9 -34 -7 -272 3 -321 3 -14 7 -36 10 -50 3 -14 10 -36 15
-50 13 -32 22 -60 20 -63 -1 -1 11 -23 26 -49 15 -27 25 -48 22 -48 -3 0 7
-19 24 -42 16 -22 30 -47 30 -55 0 -7 7 -16 15 -19 8 -4 15 -12 15 -19 0 -7
10 -20 23 -29 12 -9 15 -14 7 -9 -8 4 3 -11 25 -32 22 -22 53 -53 69 -70 16
-16 26 -23 22 -15 -4 8 1 5 10 -7 9 -13 23 -23 30 -23 8 0 14 -4 14 -10 0 -5
1 -13 3 -17 3 -10 -184 -13 -198 -3 -5 3 -17 6 -25 5 -8 -1 -28 3 -45 8 -16 4
-43 11 -60 14 -16 3 -46 12 -65 20 -19 9 -42 17 -50 19 -8 2 -16 8 -18 14 -2
5 -8 8 -13 4 -5 -3 -9 -1 -9 5 0 5 -19 19 -43 30 -67 33 -211 178 -251 255
-11 20 -23 36 -28 36 -5 0 -7 4 -4 9 4 5 1 11 -4 13 -6 2 -12 10 -14 18 -2 8
-10 31 -19 50 -8 19 -17 49 -20 65 -3 17 -10 44 -14 60 -5 17 -9 37 -8 45 1 8
-2 20 -5 25 -6 9 -6 200 -1 200 2 0 4 15 6 33 2 19 7 41 10 50 4 10 9 31 12
47 3 17 12 46 20 65 9 19 17 42 19 50 2 8 8 16 14 18 5 2 8 8 4 13 -3 5 -1 9
5 9 5 0 19 20 31 45 12 25 57 80 101 123 94 93 105 102 152 126 20 11 37 23
37 28 0 5 4 7 9 4 5 -4 11 -1 13 4 2 6 10 12 18 14 8 2 31 10 50 19 19 8 49
17 65 20 17 3 44 10 60 15 17 5 38 8 47 6 10 -1 20 1 23 5 6 11 194 10 201 -1z
m649 -7 c6 -4 17 -7 25 -6 8 1 29 -3 45 -8 17 -4 41 -10 55 -13 49 -9 90 -26
90 -36 0 -6 7 -8 15 -4 8 3 21 -1 29 -9 7 -8 16 -11 20 -8 3 4 6 2 6 -4 0 -5
16 -18 36 -29 46 -24 83 -54 153 -125 67 -67 80 -83 105 -132 11 -20 23 -37
28 -37 5 0 7 -4 4 -9 -4 -5 -1 -11 4 -13 6 -2 12 -10 14 -18 2 -8 10 -31 19
-50 8 -19 17 -48 20 -65 3 -16 8 -37 12 -47 3 -9 8 -31 10 -50 2 -18 4 -33 6
-33 6 0 6 -191 0 -200 -4 -5 -7 -17 -6 -25 1 -8 -3 -28 -8 -45 -4 -16 -11 -43
-14 -60 -3 -16 -12 -46 -20 -65 -9 -19 -17 -42 -19 -50 -2 -8 -8 -16 -14 -18
-5 -2 -8 -8 -4 -13 3 -5 1 -9 -4 -9 -5 0 -17 -16 -28 -36 -40 -77 -184 -222
-251 -255 -24 -11 -43 -25 -43 -30 0 -6 -4 -8 -9 -5 -5 4 -11 1 -13 -4 -2 -6
-10 -12 -18 -14 -8 -2 -31 -10 -50 -19 -19 -8 -48 -17 -65 -20 -16 -3 -37 -8
-47 -12 -9 -3 -31 -8 -50 -10 -18 -2 -33 -4 -33 -6 0 -6 -197 -5 -201 2 -2 4
-17 6 -32 4 -26 -4 -26 -4 6 12 17 9 32 20 32 25 0 4 6 8 14 8 7 0 21 10 30
23 9 12 14 15 10 7 -4 -8 6 -1 22 15 16 17 47 48 69 70 22 21 33 36 25 32 -8
-5 -5 0 8 9 12 9 22 23 22 30 0 8 4 14 10 14 5 0 16 16 24 35 8 19 20 35 27
35 7 0 9 3 6 7 -4 3 0 15 10 25 9 10 13 18 9 18 -5 0 5 21 20 48 15 26 27 48
26 49 -2 3 5 26 21 68 6 17 13 37 14 45 5 29 14 85 19 115 5 37 5 181 0 215
-20 133 -20 130 -33 165 -13 34 -22 62 -24 73 0 4 -12 26 -26 50 -14 23 -23
42 -20 42 5 0 -52 92 -73 117 -6 7 -10 16 -10 21 0 5 -10 17 -22 26 -13 9 -16
14 -8 9 8 -4 -3 11 -25 32 -22 22 -53 53 -69 70 -16 16 -26 23 -22 15 4 -8 -1
-5 -10 8 -9 12 -22 22 -29 22 -13 0 -27 24 -19 33 7 7 188 5 199 -2z m-385
-73 c0 -5 5 -6 10 -3 6 3 10 2 10 -3 0 -5 16 -17 36 -28 46 -24 83 -54 153
-125 67 -67 80 -83 105 -132 11 -20 23 -37 28 -37 5 0 7 -4 4 -9 -4 -5 -1 -11
4 -13 6 -2 12 -10 14 -18 2 -8 10 -31 19 -50 8 -19 17 -48 20 -65 3 -16 8 -37
12 -47 3 -9 8 -31 10 -50 2 -18 4 -33 6 -33 6 0 6 -191 0 -200 -4 -5 -7 -17
-6 -25 1 -8 -3 -28 -8 -45 -4 -16 -11 -43 -14 -60 -3 -16 -12 -46 -20 -65 -9
-19 -17 -42 -19 -50 -2 -8 -8 -16 -14 -18 -5 -2 -8 -8 -4 -13 3 -5 1 -9 -4 -9
-5 0 -17 -16 -28 -36 -40 -77 -184 -222 -251 -255 -24 -11 -43 -25 -43 -30 0
-6 -4 -8 -9 -5 -5 4 -11 1 -13 -4 -2 -6 -10 -12 -18 -13 -8 -2 -20 -6 -27 -10
-6 -4 -18 -1 -26 7 -8 8 -17 12 -21 9 -3 -4 -6 -1 -6 4 0 6 -19 21 -43 32 -67
33 -211 178 -251 255 -11 20 -23 36 -28 36 -5 0 -7 4 -4 9 4 5 1 11 -4 13 -6
2 -12 10 -14 18 -2 8 -10 31 -19 50 -8 19 -17 49 -20 65 -3 17 -10 44 -14 60
-5 17 -9 37 -8 45 1 8 -2 20 -5 25 -6 9 -6 200 -1 200 2 0 4 15 6 33 2 19 7
41 10 50 4 10 9 31 12 47 3 17 12 46 20 65 9 19 17 42 19 50 2 8 8 16 14 18 5
2 8 8 4 13 -3 5 -1 9 5 9 5 0 19 20 31 45 12 25 57 80 101 123 94 93 105 102
152 126 20 11 37 24 37 29 0 6 3 8 6 4 4 -3 13 1 21 9 8 8 18 12 23 9 5 -3 11
-1 15 4 7 12 35 3 35 -11z"/>
</g>
</svg>
