<?xml version="1.0" standalone="no"?>
<!DOCTYPE svg PUBLIC "-//W3C//DTD SVG 20010904//EN"
 "http://www.w3.org/TR/2001/REC-SVG-20010904/DTD/svg10.dtd">
<svg version="1.0" xmlns="http://www.w3.org/2000/svg"
 width="256.000000pt" height="256.000000pt" viewBox="0 0 256.000000 256.000000"
 preserveAspectRatio="xMidYMid meet">
<metadata>
Created by potrace 1.15, written by Peter Selinger 2001-2017
</metadata>
<g transform="translate(0.000000,256.000000) scale(0.100000,-0.100000)"
fill="#000000" stroke="none">
<path d="M70 2110 c-13 -11 -27 -20 -31 -20 -4 0 -15 -14 -23 -32 -14 -27 -16
-118 -16 -767 0 -712 1 -737 20 -768 41 -67 -44 -63 1260 -63 1304 0 1219 -4
1260 63 19 31 20 56 20 768 0 649 -2 740 -16 767 -8 18 -19 32 -23 32 -4 0
-18 9 -31 20 -23 20 -37 20 -1210 20 -1173 0 -1187 0 -1210 -20z m2333 -101
c34 -16 47 -49 47 -124 l0 -65 -1170 0 -1170 0 0 65 c0 73 12 106 43 122 31
15 2216 17 2250 2z m47 -971 c0 -216 -4 -399 -9 -406 -27 -43 -7 -42 -1161
-42 -1154 0 -1134 -1 -1161 42 -5 7 -9 190 -9 406 l0 392 1170 0 1170 0 0
-392z"/>
</g>
</svg>
