<svg version="1.0" xmlns="http://www.w3.org/2000/svg" width="124px" height="99px"
     viewBox="0 0 1240 990" preserveAspectRatio="xMidYMid meet">
    <g id="layer101" fill="#4a4a4a" stroke="none">
        <path
            d="M570 977 c-14 -8 -72 -43 -130 -79 l-105 -65 -123 35 c-67 19 -125 33 -127 30 -5 -5 -85 -272 -82 -274 62 -23 408 -114 433 -114 28 0 79 23 203 92 216 118 231 130 231 173 0 25 -8 40 -31 59 -17 14 -37 26 -46 26 -8 0 -53 -21 -99 -46 -46 -25 -84 -42 -84 -37 0 11 160 93 182 93 51 0 92 -45 90 -98 -1 -28 1 -28 139 -66 120 -33 143 -37 168 -27 52 22 67 92 29 135 -19 20 -73 39 -289 101 -273 77 -316 84 -359 62z"/>
        <path
            d="M847 564 c-4 -4 -7 -17 -7 -28 0 -31 -57 -52 -80 -31 -24 21 -40 19 -72 -12 -33 -32 -35 -44 -9 -67 17 -16 18 -20 5 -44 -8 -16 -25 -29 -41 -32 -26 -5 -28 -9 -31 -58 -3 -51 -3 -52 26 -52 23 0 32 -7 46 -36 16 -36 16 -37 -4 -58 -27 -30 -26 -36 14 -68 41 -33 48 -34 70 -9 14 16 22 17 46 8 22 -8 30 -18 32 -42 3 -29 5 -30 53 -30 48 0 50 1 53 30 2 24 10 34 34 43 28 10 35 9 55 -10 l23 -22 35 34 c40 39 43 50 16 74 -19 17 -19 20 -4 51 11 24 24 35 42 37 24 3 26 7 26 53 0 46 -2 50 -25 53 -17 2 -30 13 -39 34 -12 27 -12 32 2 43 28 20 19 42 -36 84 -15 12 -20 11 -35 -2 -26 -24 -80 -3 -84 33 -3 23 -8 25 -53 28 -28 2 -54 0 -58 -4z m140 -188 c27 -29 33 -44 33 -78 0 -122 -131 -179 -217 -93 -28 28 -33 40 -33 80 0 88 51 138 134 132 42 -4 55 -10 83 -41z"/>
    </g>
</svg>
