<?xml version="1.0" encoding="UTF-8"?>
<svg width="110px" height="110px" viewBox="0 0 110 110" version="1.1" xmlns="http://www.w3.org/2000/svg" xmlns:xlink="http://www.w3.org/1999/xlink">
    <!-- Generator: Sketch 49.1 (51147) - http://www.bohemiancoding.com/sketch -->
    <title>My Company Copy</title>
    <desc>Created with Sketch.</desc>
    <defs></defs>
    <g id="My-Company-Copy" stroke="none" stroke-width="1" fill="none" fill-rule="evenodd">
        <circle id="Oval-7" stroke="#0098FF" stroke-width="3" fill="#FFFFFF" cx="55" cy="55" r="53"></circle>
        <path d="M55.1803992,26.0683214 L55.1803992,83.8613101" id="Path-18" stroke="#0A142B" stroke-width="2"></path>
        <path d="M30.9457598,39.226657 L79.4150385,70.7029746" id="Path-18" stroke="#0A142B" stroke-width="2"></path>
        <path d="M80.2054974,40.5165686 L30.155301,69.4130629" id="Path-18" stroke="#0A142B" stroke-width="2"></path>
        <g id="Group-35" transform="translate(40.000000, 40.000000)">
            <circle id="Oval-37" fill="#0A142B" cx="15" cy="15" r="15"></circle>
            <g id="Group-34" transform="translate(5.000000, 2.500000)" fill="#FFFFFF">
                <path d="M4.89669787,28.190911 C11.6519356,28.190911 17.1281378,22.6992013 17.1281378,15.9248342 C17.1281378,14.1402647 11.0877829,14.8567017 7.06712059,18.6269593 C3.57916766,21.8976844 1.75870899,28.190911 4.89669787,28.190911 Z" id="Oval-17" transform="translate(10.205052, 21.592225) rotate(42.000000) translate(-10.205052, -21.592225) "></path>
                <rect id="Rectangle-54" x="5.00912935" y="0.774793388" width="9.90347449" height="15.5626028" rx="4.95173725"></rect>
                <rect id="Rectangle-54" x="7.13130245" y="10.6782679" width="5.65912828" height="10.6108655" rx="2.82956414"></rect>
                <rect id="Rectangle-54" x="4.30173831" y="7.84870374" width="1.41478207" height="3.53695518" rx="0.707391035"></rect>
                <rect id="Rectangle-54" x="14.2052128" y="7.84870374" width="1.41478207" height="3.53695518" rx="0.707391035"></rect>
            </g>
        </g>
        <g id="Group-35" transform="translate(43.000000, 6.000000)">
            <circle id="Oval-37" fill="#0A142B" cx="12" cy="12" r="12"></circle>
            <g id="Group-34" transform="translate(4.000000, 2.000000)" fill="#FFFFFF">
                <path d="M3.9173583,22.5527288 C9.32154848,22.5527288 13.7025102,18.1593611 13.7025102,12.7398673 C13.7025102,11.3122118 8.87022632,11.8853613 5.65369647,14.9015675 C2.86333413,17.5181476 1.40696719,22.5527288 3.9173583,22.5527288 Z" id="Oval-17" transform="translate(8.164041, 17.273780) rotate(42.000000) translate(-8.164041, -17.273780) "></path>
                <rect id="Rectangle-54" x="4.00730348" y="0.619834711" width="7.92277959" height="12.4500822" rx="3.9613898"></rect>
                <rect id="Rectangle-54" x="5.70504196" y="8.5426143" width="4.52730262" height="8.48869242" rx="2.26365131"></rect>
                <rect id="Rectangle-54" x="3.44139065" y="6.27896299" width="1.13182566" height="2.82956414" rx="0.565912828"></rect>
                <rect id="Rectangle-54" x="11.3641702" y="6.27896299" width="1.13182566" height="2.82956414" rx="0.565912828"></rect>
            </g>
        </g>
        <g id="Group-35" transform="translate(12.000000, 25.000000)">
            <circle id="Oval-37" fill="#0A142B" cx="12" cy="12" r="12"></circle>
            <g id="Group-34" transform="translate(4.000000, 2.000000)" fill="#FFFFFF">
                <path d="M3.9173583,22.5527288 C9.32154848,22.5527288 13.7025102,18.1593611 13.7025102,12.7398673 C13.7025102,11.3122118 8.87022632,11.8853613 5.65369647,14.9015675 C2.86333413,17.5181476 1.40696719,22.5527288 3.9173583,22.5527288 Z" id="Oval-17" transform="translate(8.164041, 17.273780) rotate(42.000000) translate(-8.164041, -17.273780) "></path>
                <rect id="Rectangle-54" x="4.00730348" y="0.619834711" width="7.92277959" height="12.4500822" rx="3.9613898"></rect>
                <rect id="Rectangle-54" x="5.70504196" y="8.5426143" width="4.52730262" height="8.48869242" rx="2.26365131"></rect>
                <rect id="Rectangle-54" x="3.44139065" y="6.27896299" width="1.13182566" height="2.82956414" rx="0.565912828"></rect>
                <rect id="Rectangle-54" x="11.3641702" y="6.27896299" width="1.13182566" height="2.82956414" rx="0.565912828"></rect>
            </g>
        </g>
        <g id="Group-35" transform="translate(74.000000, 62.000000)">
            <circle id="Oval-37" fill="#0A142B" cx="12" cy="12" r="12"></circle>
            <g id="Group-34" transform="translate(4.000000, 2.000000)" fill="#FFFFFF">
                <path d="M3.9173583,22.5527288 C9.32154848,22.5527288 13.7025102,18.1593611 13.7025102,12.7398673 C13.7025102,11.3122118 8.87022632,11.8853613 5.65369647,14.9015675 C2.86333413,17.5181476 1.40696719,22.5527288 3.9173583,22.5527288 Z" id="Oval-17" transform="translate(8.164041, 17.273780) rotate(42.000000) translate(-8.164041, -17.273780) "></path>
                <rect id="Rectangle-54" x="4.00730348" y="0.619834711" width="7.92277959" height="12.4500822" rx="3.9613898"></rect>
                <rect id="Rectangle-54" x="5.70504196" y="8.5426143" width="4.52730262" height="8.48869242" rx="2.26365131"></rect>
                <rect id="Rectangle-54" x="3.44139065" y="6.27896299" width="1.13182566" height="2.82956414" rx="0.565912828"></rect>
                <rect id="Rectangle-54" x="11.3641702" y="6.27896299" width="1.13182566" height="2.82956414" rx="0.565912828"></rect>
            </g>
        </g>
        <g id="Group-35" transform="translate(74.000000, 25.000000)">
            <circle id="Oval-37" fill="#0A142B" cx="12" cy="12" r="12"></circle>
            <g id="Group-34" transform="translate(4.000000, 2.000000)" fill="#FFFFFF">
                <path d="M3.9173583,22.5527288 C9.32154848,22.5527288 13.7025102,18.1593611 13.7025102,12.7398673 C13.7025102,11.3122118 8.87022632,11.8853613 5.65369647,14.9015675 C2.86333413,17.5181476 1.40696719,22.5527288 3.9173583,22.5527288 Z" id="Oval-17" transform="translate(8.164041, 17.273780) rotate(42.000000) translate(-8.164041, -17.273780) "></path>
                <rect id="Rectangle-54" x="4.00730348" y="0.619834711" width="7.92277959" height="12.4500822" rx="3.9613898"></rect>
                <rect id="Rectangle-54" x="5.70504196" y="8.5426143" width="4.52730262" height="8.48869242" rx="2.26365131"></rect>
                <rect id="Rectangle-54" x="3.44139065" y="6.27896299" width="1.13182566" height="2.82956414" rx="0.565912828"></rect>
                <rect id="Rectangle-54" x="11.3641702" y="6.27896299" width="1.13182566" height="2.82956414" rx="0.565912828"></rect>
            </g>
        </g>
        <g id="Group-35" transform="translate(12.000000, 62.000000)">
            <circle id="Oval-37" fill="#0A142B" cx="12" cy="12" r="12"></circle>
            <g id="Group-34" transform="translate(4.000000, 2.000000)" fill="#FFFFFF">
                <path d="M3.9173583,22.5527288 C9.32154848,22.5527288 13.7025102,18.1593611 13.7025102,12.7398673 C13.7025102,11.3122118 8.87022632,11.8853613 5.65369647,14.9015675 C2.86333413,17.5181476 1.40696719,22.5527288 3.9173583,22.5527288 Z" id="Oval-17" transform="translate(8.164041, 17.273780) rotate(42.000000) translate(-8.164041, -17.273780) "></path>
                <rect id="Rectangle-54" x="4.00730348" y="0.619834711" width="7.92277959" height="12.4500822" rx="3.9613898"></rect>
                <rect id="Rectangle-54" x="5.70504196" y="8.5426143" width="4.52730262" height="8.48869242" rx="2.26365131"></rect>
                <rect id="Rectangle-54" x="3.44139065" y="6.27896299" width="1.13182566" height="2.82956414" rx="0.565912828"></rect>
                <rect id="Rectangle-54" x="11.3641702" y="6.27896299" width="1.13182566" height="2.82956414" rx="0.565912828"></rect>
            </g>
        </g>
        <g id="Group-35" transform="translate(43.000000, 80.000000)">
            <circle id="Oval-37" fill="#0A142B" cx="12" cy="12" r="12"></circle>
            <g id="Group-34" transform="translate(4.000000, 2.000000)" fill="#FFFFFF">
                <path d="M3.9173583,22.5527288 C9.32154848,22.5527288 13.7025102,18.1593611 13.7025102,12.7398673 C13.7025102,11.3122118 8.87022632,11.8853613 5.65369647,14.9015675 C2.86333413,17.5181476 1.40696719,22.5527288 3.9173583,22.5527288 Z" id="Oval-17" transform="translate(8.164041, 17.273780) rotate(42.000000) translate(-8.164041, -17.273780) "></path>
                <rect id="Rectangle-54" x="4.00730348" y="0.619834711" width="7.92277959" height="12.4500822" rx="3.9613898"></rect>
                <rect id="Rectangle-54" x="5.70504196" y="8.5426143" width="4.52730262" height="8.48869242" rx="2.26365131"></rect>
                <rect id="Rectangle-54" x="3.44139065" y="6.27896299" width="1.13182566" height="2.82956414" rx="0.565912828"></rect>
                <rect id="Rectangle-54" x="11.3641702" y="6.27896299" width="1.13182566" height="2.82956414" rx="0.565912828"></rect>
            </g>
        </g>
    </g>
</svg>