<?xml version="1.0" encoding="UTF-8"?>
<svg width="110px" height="110px" viewBox="0 0 110 110" version="1.1" xmlns="http://www.w3.org/2000/svg" xmlns:xlink="http://www.w3.org/1999/xlink">
    <!-- Generator: Sketch 49.1 (51147) - http://www.bohemiancoding.com/sketch -->
    <title>Services</title>
    <desc>Created with Sketch.</desc>
    <defs></defs>
    <g id="Services" stroke="none" stroke-width="1" fill="none" fill-rule="evenodd">
        <g id="Group-2" transform="translate(2.000000, 2.000000)">
            <g id="Group" fill="#FFFFFF" stroke="#0098FF" stroke-width="3">
                <g id="Group-88">
                    <circle id="Oval-7" cx="53" cy="53" r="53"></circle>
                </g>
            </g>
            <g id="Group-114" transform="translate(27.303030, 16.060606)" fill="#0A142B">
                <path d="M-1.35247369e-12,51.4851371 C1.62260386,52.4440612 3.55157449,53 5.62121212,53 C11.3867302,53 16.0606061,48.685653 16.0606061,43.3636364 C16.0606061,38.0416197 11.3867302,33.7272727 5.62121212,33.7272727 C3.55157449,33.7272727 1.62260386,34.2832116 -1.3520296e-12,35.2421356 L0,21.6666667 C-2.705415e-16,19.4575277 1.790861,17.6666667 4,17.6666667 L47.3939394,17.6666667 C49.6030784,17.6666667 51.3939394,19.4575277 51.3939394,21.6666667 L51.3939394,65.0606061 C51.3939394,67.2697451 49.6030784,69.0606061 47.3939394,69.0606061 L4,69.0606061 C1.790861,69.0606061 4.19476067e-15,67.2697451 0,65.0606061 L0,51.4851371 Z" id="Combined-Shape"></path>
                <circle id="Oval-24" cx="25.6969697" cy="9.63636364" r="9.63636364"></circle>
            </g>
        </g>
    </g>
</svg>