<?xml version="1.0" encoding="UTF-8"?>
<svg width="110px" height="110px" viewBox="0 0 110 110" version="1.1" xmlns="http://www.w3.org/2000/svg" xmlns:xlink="http://www.w3.org/1999/xlink">
    <!-- Generator: Sketch 49.1 (51147) - http://www.bohemiancoding.com/sketch -->
    <title>Subscription Copy 2</title>
    <desc>Created with Sketch.</desc>
    <defs></defs>
    <g id="Subscription-Copy-2" stroke="none" stroke-width="1" fill="none" fill-rule="evenodd">
        <circle id="Oval-7" stroke="#0098FF" stroke-width="3" fill="#FFFFFF" cx="55" cy="55" r="53"></circle>
        <circle id="Oval-7" fill="#FFFFFF" cx="66.2576579" cy="24.5914839" r="2.87262873"></circle>
        <circle id="Oval-7" fill="#FFFFFF" cx="79.6632586" cy="28.4216556" r="2.87262873"></circle>
        <circle id="Oval-7" fill="#FFFFFF" cx="85.4085161" cy="38.9546276" r="2.87262873"></circle>
        <circle id="Oval-7" fill="#FFFFFF" cx="81.5783444" cy="51.4026854" r="2.87262873"></circle>
        <circle id="Oval-7" fill="#FFFFFF" cx="71.0453724" cy="58.1054858" r="2.87262873"></circle>
        <circle id="Oval-7" fill="#FFFFFF" cx="58.5973146" cy="54.2753141" r="2.87262873"></circle>
        <circle id="Oval-7" fill="#FFFFFF" cx="51.8945142" cy="43.7423421" r="2.87262873"></circle>
        <circle id="Oval-7" fill="#FFFFFF" cx="55.7246859" cy="31.2942843" r="2.87262873"></circle>
        <g id="Group-39" transform="translate(30.000000, 22.000000)">
            <rect id="Rectangle-35-Copy-5" fill="#4F657B" x="0" y="0" width="49.7247208" height="67.6081731" rx="5"></rect>
            <rect id="Rectangle-35-Copy-6" fill="#0A142B" x="0" y="0" width="49.7247208" height="23.9899969" rx="5"></rect>
            <rect id="Rectangle-35-Copy-7" fill="#FFFFFF" x="12" y="53.3333333" width="25.7347239" height="7.85127171" rx="3.92563586"></rect>
            <rect id="Rectangle-36-Copy-4" fill="#FFFFFF" x="12" y="37" width="25.7347239" height="2.18090881" rx="1.0904544"></rect>
            <rect id="Rectangle-36-Copy-5" fill="#FFFFFF" x="6.66666667" y="42.6666667" width="36.2030862" height="2.18090881" rx="1.0904544"></rect>
            <circle id="Oval-6-Copy" fill="#4F657B" cx="25" cy="20.6666667" r="10.3333333"></circle>
            <circle id="Oval-6-Copy-2" fill="#FFFFFF" cx="25" cy="20.6666667" r="8.33333333"></circle>
            <g id="Group-36" transform="translate(22.000000, 15.000000)">
                <circle id="Oval-6-Copy-2" fill="#0A142B" cx="3" cy="8" r="2"></circle>
                <circle id="Oval-6-Copy-2" stroke="#0A142B" cx="3" cy="8" r="3.5"></circle>
                <path d="M0,1 L1.18333113,3.5376618" id="Line-16" stroke="#0A142B" stroke-width="2.5" stroke-linecap="square"></path>
                <path d="M5.59444971,0.958247865 L4.54555125,3.55436266" id="Line-16" stroke="#0A142B" stroke-width="2.5" stroke-linecap="square"></path>
            </g>
        </g>
    </g>
</svg>