<?xml version="1.0" encoding="UTF-8"?>
<svg width="110px" height="110px" viewBox="0 0 110 110" version="1.1" xmlns="http://www.w3.org/2000/svg" xmlns:xlink="http://www.w3.org/1999/xlink">
    <!-- Generator: Sketch 49.1 (51147) - http://www.bohemiancoding.com/sketch -->
    <title>workflows copy</title>
    <desc>Created with Sketch.</desc>
    <defs></defs>
    <g id="workflows-copy" stroke="none" stroke-width="1" fill="none" fill-rule="evenodd">
        <g id="Group" transform="translate(2.000000, 2.000000)">
            <circle id="Oval-7" stroke="#0098FF" stroke-width="3" fill="#FFFFFF" cx="53" cy="53" r="53"></circle>
            <rect id="Rectangle-56" stroke="#0A142B" stroke-width="3" x="22.9753247" y="59.3181818" width="22.6969697" height="22.6969697" rx="2"></rect>
            <circle id="Oval-21" stroke="#0A142B" stroke-width="3" cx="33.5207792" cy="34.530303" r="12.0454545"></circle>
            <rect id="Rectangle-56" stroke="#0A142B" stroke-width="3" transform="translate(71.871212, 34.931818) rotate(-45.000000) translate(-71.871212, -34.931818) " x="62.530303" y="25.5909091" width="18.6818182" height="18.6818182" rx="2"></rect>
            <circle id="Oval-21" stroke="#0A142B" stroke-width="3" cx="71.469697" cy="71.469697" r="12.0454545"></circle>
            <path d="M33.5207792,50.5909091 L33.5207792,57.0151515" id="Line-13" stroke="#0A142B" stroke-width="2" stroke-linecap="square"></path>
            <path d="M33.5207792,48.9848485 L36.7329004,52.1969697" id="Line-15" stroke="#0A142B" stroke-width="2" stroke-linecap="square"></path>
            <path d="M33.5207792,48.9848485 L30.308658,52.1969697" id="Line-15" stroke="#0A142B" stroke-width="2" stroke-linecap="square"></path>
            <path d="M51.1874459,31.3181818 L51.1874459,37.7424242" id="Line-13" stroke="#0A142B" stroke-width="2" stroke-linecap="square" transform="translate(51.187446, 34.530303) rotate(90.000000) translate(-51.187446, -34.530303) "></path>
            <path d="M52.7935065,34.530303 L56.0056277,37.7424242" id="Line-15" stroke="#0A142B" stroke-width="2" stroke-linecap="square" transform="translate(54.399567, 36.136364) rotate(90.000000) translate(-54.399567, -36.136364) "></path>
            <path d="M56.0056277,31.3181818 L52.7935065,34.530303" id="Line-15" stroke="#0A142B" stroke-width="2" stroke-linecap="square" transform="translate(54.399567, 32.924242) rotate(90.000000) translate(-54.399567, -32.924242) "></path>
            <path d="M71.469697,48.9848485 L71.469697,55.4090909" id="Line-13" stroke="#0A142B" stroke-width="2" stroke-linecap="square" transform="translate(71.469697, 52.196970) scale(-1, -1) translate(-71.469697, -52.196970) "></path>
            <path d="M68.2575758,53.8030303 L71.469697,57.0151515" id="Line-15" stroke="#0A142B" stroke-width="2" stroke-linecap="square" transform="translate(69.863636, 55.409091) scale(-1, -1) translate(-69.863636, -55.409091) "></path>
            <path d="M74.6818182,53.8030303 L71.469697,57.0151515" id="Line-15" stroke="#0A142B" stroke-width="2" stroke-linecap="square" transform="translate(73.075758, 55.409091) scale(-1, -1) translate(-73.075758, -55.409091) "></path>
        </g>
    </g>
</svg>