<?xml version="1.0" ?><svg id="Layer_3" style="enable-background:new 0 0 64 64;" version="1.1" viewBox="0 0 64 64" xml:space="preserve" xmlns="http://www.w3.org/2000/svg" xmlns:xlink="http://www.w3.org/1999/xlink"><g><path d="M62,51h-1v-3c0-0.553-0.448-1-1-1H28V24c0-0.553-0.448-1-1-1h-9V2c0-0.553-0.448-1-1-1H2C1.448,1,1,1.447,1,2v50v10   c0,0.553,0.448,1,1,1h60c0.552,0,1-0.447,1-1V52C63,51.447,62.552,51,62,51z M59,49v2H28v-2H59z M26,25v26h-8V25H26z M16,41H3   v-1.323l13-5.2V41z M16,31H3v-1.323l13-5.2V31z M16,21H3v-1.323l13-5.2V21z M16,11H3V9.677l13-5.2V11z M3,13h11.307L3,17.523V13z    M3,23h11.307L3,27.523V23z M3,33h11.307L3,37.523V33z M3,43h11.307L3,47.523V43z M3,49.677l13-5.2V51H3V49.677z M14.307,3L3,7.523   V3H14.307z M61,61H3v-8h58V61z"/><path d="M46,27c2.206,0,4-1.794,4-4s-1.794-4-4-4s-4,1.794-4,4S43.794,27,46,27z M46,21c1.103,0,2,0.897,2,2s-0.897,2-2,2   s-2-0.897-2-2S44.897,21,46,21z"/><rect height="4" width="2" x="45" y="41"/><rect height="2" transform="matrix(0.7072 -0.707 0.707 0.7072 -17.2255 41.5807)" width="4" x="39.586" y="40.586"/><rect height="4" transform="matrix(0.707 -0.7072 0.7072 0.707 -14.5889 47.9554)" width="2" x="49.586" y="39.586"/><path d="M27,21c1.65,0,3.249-0.593,4.504-1.651c1.118,0.741,2.357,1.221,3.659,1.463l-4.911,5.524   c-0.261,0.294-0.326,0.715-0.165,1.073C30.249,27.769,30.606,28,31,28h7v6c0,0.553,0.448,1,1,1h1v2c0,1.103,0.897,2,2,2h8   c1.103,0,2-0.897,2-2v-2h1c0.552,0,1-0.447,1-1v-6h7c0.394,0,0.751-0.231,0.912-0.591c0.162-0.358,0.097-0.779-0.165-1.073   l-6.862-7.719C55.55,18.866,56.263,19,57,19c3.309,0,6-2.691,6-6c0-3.242-2.585-5.892-5.802-5.997C56.136,5.158,54.166,4,52,4   c-1.017,0-1.99,0.256-2.865,0.735l-2.316-3.308C46.632,1.159,46.326,1,46,1s-0.632,0.159-0.819,0.427l-1.505,2.151   C41.853,1.932,39.499,1,37,1c-4.03,0-7.618,2.398-9.184,6.051C23.622,6.527,20,9.871,20,14C20,17.859,23.14,21,27,21z M33.227,26   L38,20.63V26H33.227z M40,13h12v2H40V13z M52,29H40V17h12V29z M50,37h-8v-2h8V37z M40,33v-2h12v2H40z M54,26v-5.37L58.773,26H54z    M52,6c1.605,0,3.05,0.955,3.68,2.433c0.169,0.395,0.567,0.641,1,0.604c0.071-0.006,0.141-0.015,0.21-0.024   C56.926,9.008,56.962,9,57,9c2.206,0,4,1.794,4,4s-1.794,4-4,4c-1.171,0-2.24-0.514-3-1.391V12c0-0.205-0.063-0.405-0.181-0.573   l-3.525-5.036C50.824,6.14,51.399,6,52,6z M46,3.744l1.98,2.829L51.079,11H40.921L46,3.744z M28.211,9.155   c0.506,0.128,1.029-0.159,1.193-0.657C30.488,5.21,33.54,3,37,3c2.081,0,4.042,0.803,5.522,2.224l-4.342,6.202   C38.063,11.595,38,11.795,38,12v5.62l-1.211,1.363c-1.737-0.045-3.377-0.627-4.751-1.715c-0.411-0.327-1.004-0.278-1.358,0.107   C29.719,18.423,28.412,19,27,19c-2.757,0-5-2.243-5-5C22,10.85,24.929,8.334,28.211,9.155z"/></g></svg>