<?xml version="1.0" standalone="no"?>
<!DOCTYPE svg PUBLIC "-//W3C//DTD SVG 20010904//EN"
        "http://www.w3.org/TR/2001/REC-SVG-20010904/DTD/svg10.dtd">
<svg version="1.0" xmlns="http://www.w3.org/2000/svg"
     width="256.000000pt" height="256.000000pt" viewBox="0 0 256.000000 256.000000"
     preserveAspectRatio="xMidYMid meet">
    <metadata>
        Created by potrace 1.15, written by Peter Selinger 2001-2017
    </metadata>
    <g transform="translate(0.000000,256.000000) scale(0.100000,-0.100000)"
       fill="#000000" stroke="none">
        <path d="M1200 2528 c-74 -51 -75 -53 -78 -316 -4 -289 -1 -312 45 -363 66
-73 160 -73 226 0 46 51 49 74 45 363 -3 222 -4 238 -24 265 -35 48 -82 73
-134 73 -32 0 -57 -7 -80 -22z"/>
        <path d="M643 2370 c-42 -25 -63 -68 -63 -125 0 -41 14 -71 128 -267 132 -229
150 -251 219 -264 44 -8 116 27 143 70 42 69 33 98 -108 341 -141 244 -161
265 -241 265 -28 0 -59 -8 -78 -20z"/>
        <path d="M1783 2303 c-34 -38 -253 -423 -253 -444 0 -10 12 -31 26 -48 32 -39
80 -42 111 -8 38 40 253 421 253 447 -1 29 -16 52 -47 68 -35 19 -64 14 -90
-15z"/>
        <path d="M275 1969 c-61 -18 -95 -64 -95 -129 0 -78 17 -94 251 -230 205 -119
216 -124 271 -125 49 0 61 4 87 29 61 59 63 143 4 197 -40 37 -422 255 -458
261 -16 3 -43 1 -60 -3z"/>
        <path d="M2025 1804 c-110 -63 -210 -125 -222 -136 -34 -32 -31 -80 8 -112 17
-14 38 -26 47 -26 23 0 433 236 455 262 41 48 -3 128 -71 128 -9 0 -107 -52
-217 -116z"/>
        <path d="M104 1391 c-46 -28 -64 -59 -64 -112 0 -32 7 -55 21 -73 42 -53 57
-56 326 -56 279 0 299 4 335 71 23 43 23 75 0 118 -36 67 -56 71 -337 71 -228
0 -253 -2 -281 -19z"/>
        <path d="M1895 1335 c-16 -15 -25 -36 -25 -55 0 -19 9 -40 25 -55 l24 -25 254
0 c235 0 257 1 278 19 33 27 33 95 0 122 -21 18 -43 19 -278 19 l-254 0 -24
-25z"/>
        <path d="M452 940 c-111 -64 -212 -126 -222 -135 -76 -68 -23 -200 80 -200 51
0 464 235 491 280 51 81 -9 176 -108 174 -30 0 -83 -27 -241 -119z"/>
        <path d="M1811 1004 c-42 -35 -43 -82 -3 -116 41 -34 416 -248 435 -248 67 0
111 80 70 128 -22 26 -431 262 -454 262 -10 0 -31 -12 -48 -26z"/>
        <path d="M880 783 c-34 -31 -258 -413 -267 -454 -8 -40 23 -95 64 -114 30 -14
42 -15 73 -6 21 6 43 18 50 26 7 9 66 108 131 221 102 176 119 212 119 249 0
37 -5 47 -35 74 -47 41 -93 42 -135 4z"/>
        <path d="M1567 779 c-19 -11 -47 -60 -47 -82 0 -16 229 -419 255 -447 51 -57
155 -15 155 62 0 28 -231 435 -262 461 -22 19 -73 22 -101 6z"/>
        <path d="M1231 696 c-47 -26 -50 -44 -51 -313 l0 -253 29 -32 c24 -27 36 -33
71 -33 35 0 47 6 71 33 l29 32 0 250 c0 172 -4 257 -12 275 -22 48 -88 68
-137 41z"/>
    </g>
</svg>
