<?xml version="1.0" encoding="UTF-8"?>
<svg width="225px" height="141px" viewBox="0 0 225 141" version="1.1" xmlns="http://www.w3.org/2000/svg" xmlns:xlink="http://www.w3.org/1999/xlink">
    <!-- Generator: Sketch 59 (86127) - https://sketch.com -->
    <title>Subscriptions_icon</title>
    <desc>Created with Sketch.</desc>
    <g id="Subscriptions_icon" stroke="none" stroke-width="1" fill="none" fill-rule="evenodd">
        <rect fill="#FFFFFF" x="0" y="0" width="225" height="141"></rect>
        <g id="Group-61-Copy">
            <g id="Group-59" transform="translate(0.000000, 14.516129)">
                <rect id="Rectangle-35" fill="#849FB3" x="0" y="0" width="87.0967742" height="118.002081" rx="10"></rect>
                <rect id="Rectangle-35-Copy" fill="#0098FF" x="0" y="0" width="87.0967742" height="41.6952642" rx="10"></rect>
                <rect id="Rectangle-35-Copy" fill="#0098FF" x="20.8669355" y="93.4475806" width="45.3629032" height="13.608871" rx="6.80443548"></rect>
                <circle id="Oval-6" fill="#849FB3" cx="43.5483871" cy="39.0120968" r="18.1451613"></circle>
                <circle id="Oval-6" fill="#FFFFFF" cx="43.5483871" cy="39.0120968" r="14.516129"></circle>
                <rect id="Rectangle-36" fill="#B2C9DF" x="20.8669355" y="64.4153226" width="45.3629032" height="3.62903226" rx="1.81451613"></rect>
                <rect id="Rectangle-36-Copy" fill="#B2C9DF" x="11.7943548" y="75.3024194" width="63.5080645" height="3.62903226" rx="1.81451613"></rect>
                <polygon id="Shape-Copy" fill="#0098FF" points="40.1669355 42.6399194 35.9669355 38.4399194 34.5669355 39.8399194 40.1669355 45.4399194 52.1669355 33.4399194 50.7669355 32.0399194"></polygon>
            </g>
            <g id="Group-60" transform="translate(137.903226, 14.516129)">
                <rect id="Rectangle-35-Copy-2" fill="#849FB3" x="0" y="0" width="87.0967742" height="118.002081" rx="10"></rect>
                <rect id="Rectangle-35-Copy-3" fill="#39C17F" x="0" y="0" width="87.0967742" height="41.6952642" rx="10"></rect>
                <rect id="Rectangle-35-Copy-4" fill="#39C17F" x="20.8669355" y="93.4475806" width="45.3629032" height="13.608871" rx="6.80443548"></rect>
                <circle id="Oval-6" fill="#849FB3" cx="43.5483871" cy="39.0120968" r="18.1451613"></circle>
                <circle id="Oval-6" fill="#FFFFFF" cx="43.5483871" cy="39.0120968" r="14.516129"></circle>
                <rect id="Rectangle-36-Copy-2" fill="#B2C9DF" x="20.8669355" y="64.4153226" width="45.3629032" height="3.62903226" rx="1.81451613"></rect>
                <rect id="Rectangle-36-Copy-3" fill="#B2C9DF" x="11.7943548" y="75.3024194" width="63.5080645" height="3.62903226" rx="1.81451613"></rect>
                <polygon id="Shape-Copy-2" fill="#39C17F" points="40.1669355 42.6399194 35.9669355 38.4399194 34.5669355 39.8399194 40.1669355 45.4399194 52.1669355 33.4399194 50.7669355 32.0399194"></polygon>
            </g>
            <g id="Group-63" transform="translate(60.786290, 0.000000)">
                <rect id="Rectangle-35" fill="#4F657B" x="0" y="0" width="103.427419" height="140.625" rx="10"></rect>
                <rect id="Rectangle-35-Copy" fill="#F9CB40" x="0" y="0" width="103.427419" height="49.8991935" rx="10"></rect>
                <path d="M32.6612903,111.592742 L69.858871,111.592742 C74.3684541,111.592742 78.0241935,115.248481 78.0241935,119.758065 C78.0241935,124.267648 74.3684541,127.923387 69.858871,127.923387 L32.6612903,127.923387 C28.1517072,127.923387 24.4959677,124.267648 24.4959677,119.758065 C24.4959677,115.248481 28.1517072,111.592742 32.6612903,111.592742 Z" id="Rectangle-35-Copy" fill="#F9CB40"></path>
                <circle id="Oval-6" fill="#4F657B" cx="51.7137097" cy="46.2701613" r="21.7741935"></circle>
                <circle id="Oval-6" fill="#FFFFFF" cx="51.7137097" cy="46.2701613" r="17.4193548"></circle>
                <path d="M26.7641129,77.1169355 L75.7560484,77.1169355 C77.0087104,77.1169355 78.0241935,78.1324187 78.0241935,79.3850806 C78.0241935,80.6377426 77.0087104,81.6532258 75.7560484,81.6532258 L26.7641129,81.6532258 C25.5114509,81.6532258 24.4959677,80.6377426 24.4959677,79.3850806 C24.4959677,78.1324187 25.5114509,77.1169355 26.7641129,77.1169355 Z" id="Rectangle-36" fill="#849EBD"></path>
                <path d="M15.8770161,89.8185484 L86.6431452,89.8185484 C87.8958071,89.8185484 88.9112903,90.8340316 88.9112903,92.0866935 C88.9112903,93.3393555 87.8958071,94.3548387 86.6431452,94.3548387 L15.8770161,94.3548387 C14.6243541,94.3548387 13.608871,93.3393555 13.608871,92.0866935 C13.608871,90.8340316 14.6243541,89.8185484 15.8770161,89.8185484 Z" id="Rectangle-36-Copy" fill="#849EBD"></path>
                <polygon id="Shape" fill="#F9CB40" points="47.4459557 50.9268777 42.4310303 45.9119523 40.7593885 47.5835941 47.4459557 54.2701613 61.7743139 39.9418031 60.1026721 38.2701613"></polygon>
            </g>
        </g>
    </g>
</svg>