<?xml version="1.0" standalone="no"?>
<!DOCTYPE svg PUBLIC "-//W3C//DTD SVG 20010904//EN"
 "http://www.w3.org/TR/2001/REC-SVG-20010904/DTD/svg10.dtd">
<svg version="1.0" xmlns="http://www.w3.org/2000/svg"
 width="256.000000pt" height="256.000000pt" viewBox="0 0 256.000000 256.000000"
 preserveAspectRatio="xMidYMid meet">
<metadata>
Created by potrace 1.15, written by Peter Selinger 2001-2017
</metadata>
<g transform="translate(0.000000,256.000000) scale(0.100000,-0.100000)"
fill="#000000" stroke="none">
<path d="M48 2294 c-15 -8 -32 -23 -38 -34 -6 -11 -10 -106 -10 -235 l0 -217
29 -29 29 -29 1222 0 1222 0 29 29 29 29 0 217 c0 129 -4 224 -10 236 -28 51
23 49 -1272 49 -1042 -1 -1207 -3 -1230 -16z m2322 -269 l0 -85 -270 0 -270 0
0 85 0 85 270 0 270 0 0 -85z"/>
<path d="M29 1551 l-29 -29 0 -217 c0 -129 4 -224 10 -236 28 -51 -23 -49
1270 -49 1293 0 1242 -2 1270 49 6 12 10 107 10 236 l0 217 -29 29 -29 29
-1222 0 -1222 0 -29 -29z m2341 -246 l0 -85 -725 0 -725 0 0 85 0 85 725 0
725 0 0 -85z"/>
<path d="M27 822 l-27 -28 0 -220 0 -220 28 -27 28 -27 1225 0 1225 0 27 28
27 28 0 219 0 219 -27 28 -27 28 -1226 0 -1226 0 -27 -28z m2343 -247 l0 -85
-450 0 -450 0 0 85 0 85 450 0 450 0 0 -85z"/>
</g>
</svg>
