<?xml version="1.0" encoding="UTF-8"?>
<svg width="128px" height="128px" viewBox="0 0 128 128" version="1.1" xmlns="http://www.w3.org/2000/svg" xmlns:xlink="http://www.w3.org/1999/xlink">
    <!-- Generator: Sketch 59 (86127) - https://sketch.com -->
    <title>Artboard</title>
    <desc>Created with Sketch.</desc>
    <g id="Artboard" stroke="none" stroke-width="1" fill="none" fill-rule="evenodd">
        <g id="Group-4" transform="translate(21.000000, 8.000000)">
            <g id="Group" transform="translate(34.000000, 13.000000)">
                <rect id="Rectangle" fill="#0098FF" x="5" y="9" width="8" height="3" rx="1"></rect>
                <rect id="Rectangle-Copy-2" fill="#0098FF" x="3" y="0" width="12" height="7" rx="1"></rect>
                <rect id="Rectangle-Copy" fill="#0098FF" x="0" y="6" width="18" height="4" rx="1"></rect>
                <rect id="Rectangle-Copy" fill="#DDDDDD" x="0" y="9" width="18" height="1"></rect>
            </g>
            <g id="Group-2" transform="translate(11.000000, 35.000000) rotate(-45.000000) translate(-11.000000, -35.000000) translate(5.000000, 32.000000)">
                <rect id="Rectangle" fill="#0098FF" x="2" y="3" width="8" height="3" rx="1"></rect>
                <rect id="Rectangle-Copy" fill="#E34A6F" x="0" y="0" width="12" height="4" rx="1"></rect>
                <rect id="Rectangle-Copy" fill="#DDDDDD" x="0" y="3" width="12" height="1"></rect>
            </g>
            <g id="Group-3" transform="translate(76.000000, 35.000000) rotate(45.000000) translate(-76.000000, -35.000000) translate(70.000000, 32.000000)">
                <rect id="Rectangle-Copy-3" fill="#0098FF" x="2" y="3" width="8" height="3" rx="1"></rect>
                <rect id="Rectangle-Copy-4" fill="#0A142B" x="0" y="0" width="12" height="4" rx="1"></rect>
                <rect id="Rectangle-Copy-5" fill="#DDDDDD" x="0" y="3" width="12" height="1"></rect>
            </g>
            <g id="Group-30" transform="translate(0.000000, 26.000000)">
                <circle id="Oval" stroke="#0098FF" stroke-width="4" fill="#FAFAFA" cx="43" cy="43" r="43"></circle>
                <circle id="Oval" stroke="#EEEEEE" cx="43" cy="43" r="41"></circle>
                <path d="M43,73 C59.5685425,73 73,59.5685425 73,43 C73,26.4314575 59.5685425,13 43,13 C26.4314575,13 13,26.4314575 13,43 C13,59.5685425 26.4314575,73 43,73 Z" id="Oval" stroke="#0A142B" stroke-width="7" stroke-dasharray="1,9"></path>
                <line x1="66.5" y1="19.5" x2="43.5" y2="42.5" id="Line" stroke="#0098FF" stroke-linecap="square"></line>
                <circle id="Oval" stroke="#0098FF" fill="#FAFAFA" cx="43" cy="43" r="4"></circle>
            </g>
            <circle id="Oval" stroke="#0098FF" cx="43" cy="9" r="9"></circle>
        </g>
    </g>
</svg>