<svg width="35" height="35" viewBox="0 0 35 35" fill="none" xmlns="http://www.w3.org/2000/svg">
<path d="M17.5 4.375C10.2521 4.375 4.375 10.2521 4.375 17.5H0L5.83333 23.3333L11.6667 17.5H7.29167C7.29167 11.8562 11.8562 7.29167 17.5 7.29167C23.1438 7.29167 27.7083 11.8562 27.7083 17.5C27.7083 23.1438 23.1438 27.7083 17.5 27.7083C15.2979 27.7083 13.2563 26.9938 11.5792 25.8125L9.50833 27.9125C11.725 29.6042 14.4958 30.625 17.5 30.625C24.7479 30.625 30.625 24.7479 30.625 17.5C30.625 10.2521 24.7479 4.375 17.5 4.375Z" fill="#E34A6F"/>
</svg>
