<?xml version="1.0" encoding="UTF-8"?>
<svg width="110px" height="110px" viewBox="0 0 110 110" version="1.1" xmlns="http://www.w3.org/2000/svg" xmlns:xlink="http://www.w3.org/1999/xlink">
    <title>Group 55</title>
    <g id="Settings" stroke="none" stroke-width="1" fill="none" fill-rule="evenodd">
        <g id="Group-55" transform="translate(2.000000, 2.000000)">
            <circle id="Oval-7" stroke="#0098FF" stroke-width="3" fill="#FFFFFF" fill-rule="nonzero" cx="53" cy="53" r="53"></circle>
            <g id="webhook_icon_217152" transform="translate(18.000000, 15.000000)">
                <path d="M52.5,56.875 C55.8406584,56.8883835 58.6582299,54.3900403 59.0447237,51.0717877 C59.4312174,47.7535352 57.2632711,44.6745033 54.0089653,43.9197378 C50.7546595,43.1649722 47.4527135,44.9753813 46.339125,48.125 L28.4375,48.125 L28.4375,50.3125 C28.4375,56.3531145 23.5406145,61.25 17.5,61.25 C11.4593855,61.25 6.5625,56.3531145 6.5625,50.3125 C6.5625,44.2718855 11.4593855,39.375 17.5,39.375 L17.5,35 C9.32762134,35.00058 2.59599139,41.4187626 2.20602929,49.5818321 C1.8160672,57.7449015 7.90522616,64.7755526 16.0403338,65.5551657 C24.1754415,66.3347787 31.4890486,60.5885572 32.6565313,52.5 L46.339125,52.5 C47.2582106,55.1164908 49.7267867,56.8694918 52.5,56.875 L52.5,56.875 Z" id="Path" fill="#000000" fill-rule="nonzero"></path>
                <path d="M52.5,35 C50.5758268,35.0001721 48.668806,35.361764 46.878125,36.0659687 L39.953375,23.9483125 C42.0827689,21.4890415 42.1257697,17.8518573 40.0551126,15.3429309 C37.9844555,12.8340046 34.4051341,12.1863809 31.5866313,13.8106883 C28.7681286,15.4349957 27.5339397,18.8566526 28.6666071,21.9061439 C29.7992744,24.9556352 32.9678612,26.7419766 36.1633125,26.1325312 L45.1734062,41.901125 L47.0734687,40.812625 C52.3138999,37.8195485 58.9882981,39.635978 61.98921,44.8719262 C64.9901219,50.1078743 63.1836782,56.7849821 57.9522248,59.7937228 C52.7207713,62.8024634 46.0409689,61.0060095 43.0244062,55.7790625 L39.2371875,57.9709375 C42.9531346,64.4065338 50.7532285,67.2453444 57.7364205,64.7036538 C64.7196126,62.1619632 68.8700488,54.9734871 67.5798773,47.654975 C66.2897058,40.3364628 59.9313634,35.0005664 52.5,35 L52.5,35 Z" id="Path" fill="#000000" fill-rule="nonzero"></path>
                <path d="M18.66375,43.8674688 C15.4872397,43.2680145 12.3416165,45.0474409 11.2190142,48.0788312 C10.096412,51.1102215 11.3243099,54.509276 14.1250759,56.1233617 C16.9258419,57.7374474 20.4824528,57.0957125 22.5424946,54.6045701 C24.6025363,52.1134276 24.5650655,48.4995792 22.4538125,46.0516875 C25.68125,40.403125 30.31875,32.2890313 30.384375,32.17375 L31.472875,30.2745625 L29.5747812,29.187375 C25.730317,26.9908146 23.589426,22.6930947 24.1518979,18.3012377 C24.7143699,13.9093806 27.8692296,10.2898957 32.143167,9.13307161 C36.4171044,7.97624751 40.9668757,9.51032452 43.6677512,13.0188932 C46.3686267,16.5274619 46.6877262,21.3182851 44.4760313,25.1540625 L48.2636875,27.3459375 C52.3601794,20.2534717 50.1509391,11.1932416 43.2495131,6.78250061 C36.3480872,2.37175958 27.1978181,4.17206188 22.4817204,10.868534 C17.7656227,17.5650061 19.1533574,26.7868663 25.631375,31.7988125 C24.6316875,33.4234687 23.2205313,35.8929375 21.0951563,39.6143125 L18.66375,43.8674688 Z" id="Path" fill="#000000" fill-rule="nonzero"></path>
                <rect id="_Transparent_Rectangle_" x="0" y="0" width="70" height="70"></rect>
            </g>
        </g>
    </g>
</svg>
