<svg width="51" height="50" viewBox="0 0 51 50" fill="none" xmlns="http://www.w3.org/2000/svg">
<path d="M7.89529 0.29285C5.04457 1.07379 2.64293 3.14329 1.25661 6.01325C0.709899 7.18466 0.631797 7.55561 0.553695 9.48844C0.456068 11.8313 0.709899 13.1003 1.58855 14.8379C2.6234 16.8683 5.2203 19.0355 7.38763 19.6797C8.01245 19.8554 8.52011 20.0897 8.52011 20.2069C8.52011 20.3045 7.81719 21.105 6.95807 21.964C5.2984 23.6235 5.08362 24.0921 5.78654 24.7949C6.41135 25.4197 6.89949 25.2635 8.14913 24.0725L9.30113 22.9792L9.30113 26.2982V29.6172L7.40716 29.7344C6.35278 29.8125 4.47833 29.871 3.22869 29.871C1.74475 29.871 0.905155 29.9491 0.748951 30.1053C0.417016 30.4372 0.417016 49.4141 0.748951 49.746C1.10041 50.0974 20.0988 50.0779 20.3916 49.7265C20.6455 49.4141 20.8212 31.1986 20.5674 30.5153C20.4893 30.3005 20.2745 30.0467 20.0792 29.9686C19.9035 29.8905 17.9705 29.7929 15.8031 29.7344L11.8395 29.6172V26.2982L11.8395 22.9792L12.9915 24.0725C13.6358 24.6973 14.3387 25.1854 14.5535 25.1854C15.0416 25.1854 15.7446 24.463 15.7446 23.9554C15.7446 23.7602 14.9831 22.784 14.0458 21.8078L12.3276 20.0312L13.2062 19.8164C16.5842 18.9378 19.4739 16.0288 20.3721 12.6122L20.7236 11.3237L24.121 11.3237H27.538L26.6789 12.2413C25.3316 13.647 25.3121 13.6665 25.3121 14.057C25.3121 14.5255 26.054 15.2284 26.5422 15.2284C26.7765 15.2284 27.7723 14.3889 28.9633 13.237L30.994 11.2456L35.0748 15.326L39.1752 19.4259V23.2135V27.0011L38.0232 25.9077C37.3788 25.283 36.6954 24.7949 36.4807 24.7949C35.9144 24.7949 35.192 25.6735 35.3482 26.2006C35.4068 26.4544 36.1683 27.3525 37.0274 28.2115C37.867 29.0706 38.5894 29.832 38.5894 29.8905C38.5894 29.9686 38.2965 30.0858 37.9256 30.1444C35.6996 30.5543 32.6732 32.9167 31.6188 35.0448C30.5449 37.1924 30.3301 38.0904 30.4278 40.2771C30.5449 42.6785 30.9745 44.0061 32.2436 45.7827C34.1376 48.4574 37.1445 49.9803 40.4248 49.9803C43.4122 49.9607 45.521 49.1017 47.6102 47.0322C49.6799 44.9627 50.5 42.9518 50.5 39.9061C50.5 37.7195 50.0509 36.099 48.977 34.4395C47.6297 32.37 45.4429 30.7691 43.0998 30.1834L42.2407 29.9491L43.9199 28.2115C45.0133 27.0792 45.6186 26.2982 45.6186 26.0054C45.6186 25.5368 44.9938 24.7949 44.5838 24.7949C44.2323 24.7949 43.5099 25.3025 42.5531 26.2396L41.7135 27.0206V23.233V19.4454L46.1068 15.0331C49.8557 11.2651 50.5 10.5427 50.5 10.0546C50.5 9.54701 49.7971 8.78559 45.7553 4.7247C41.8892 0.878559 40.8934 0 40.4639 0C40.0343 0 39.0776 0.839512 35.4458 4.43184L30.9549 8.86369L29.061 6.9699C27.4599 5.36897 27.0694 5.07612 26.5422 5.07612C25.8588 5.07612 25.3121 5.50564 25.3121 6.0523C25.3121 6.26706 25.8588 7.00895 26.5031 7.7118L27.6942 8.98083H24.1991L20.7236 8.98083L20.4502 7.84846C19.6497 4.3928 16.9161 1.46426 13.421 0.390469C11.9761 -0.0585709 9.34018 -0.117142 7.89529 0.29285ZM12.8548 2.7333C15.0221 3.39709 16.6232 4.84184 17.6776 7.02847C18.1267 7.9656 18.1852 8.35608 18.1852 10.0546C18.1852 11.8703 18.1462 12.1046 17.5409 13.3151C16.7208 14.9941 15.4126 16.3022 13.792 17.0636C12.64 17.6102 12.3471 17.6688 10.5703 17.6688C8.85205 17.6688 8.48106 17.6102 7.48526 17.1417C3.6192 15.326 1.95953 11.5384 3.28727 7.51656C4.00971 5.27135 6.3723 3.08472 8.65679 2.55758C9.92595 2.26473 11.5466 2.3233 12.8548 2.7333ZM44.1933 6.48182L47.7664 10.0546L44.1152 13.7055L40.4444 17.376L36.7736 13.7251L33.1223 10.0546L36.6759 6.50134C38.648 4.52946 40.3272 2.92853 40.4444 2.92853C40.542 2.92853 42.2407 4.52946 44.1933 6.48182ZM18.2829 39.9647V47.7351L10.6289 47.6765C6.41135 47.6374 2.91628 47.5594 2.85771 47.5008C2.79913 47.4617 2.74055 43.9865 2.7015 39.8085L2.64293 32.2138H10.4727H18.2829L18.2829 39.9647ZM43.6661 32.9167C46.4387 34.2248 48.1569 36.8214 48.1765 39.7499C48.2155 44.4161 44.5252 47.8913 39.8195 47.5984C37.125 47.4227 34.7429 45.7632 33.4737 43.1861C32.8684 41.9756 32.8294 41.7609 32.8489 39.9256C32.8489 38.2466 32.927 37.8171 33.3566 36.8605C33.9619 35.5524 35.3872 33.9514 36.5978 33.2486C37.9646 32.4481 38.9409 32.2138 40.7372 32.2724C42.104 32.3115 42.6312 32.4286 43.6661 32.9167Z" fill="#0098FF"/>
</svg>
