<svg xmlns="http://www.w3.org/2000/svg" viewBox="0 0 64 64" fill="#0098ff">
    <path fill="#0098ff"
        d="M60.3,50.7a4.4,4.4,0,0,1-3.4,3.9H8.2a4.5,4.5,0,0,1-3.5-1.5,4.6,4.6,0,0,1-1-2.6c0-.6-.1-36.6,0-37.4A4.1,4.1,0,0,1,6.3,9.7,3.3,3.3,0,0,1,8,9.3H55.9a4.5,4.5,0,0,1,4.2,2.9,5.5,5.5,0,0,1,.2,1.8ZM40.5,32h0V18.7a.8.8,0,0,0-.9-.9H35.3a.9.9,0,0,0-.5.8c.1,6.6.1,13.1.1,19.6,0,2.4-.1,4.7,0,7,0,.5.2.8.7.8h4.2a.7.7,0,0,0,.7-.7V32ZM17.8,32h0V18.7c0-.6-.2-.9-.8-.9H13.2c-.8,0-1,.3-1,1.1V45.5a.7.7,0,0,0,.7.6h4.2c.4,0,.7-.2.7-.6V32Zm28.4,0h0V45.3c0,.6.2.8.8.8h3.9c.7,0,.9-.2.9-.9V18.7a.8.8,0,0,0-.9-.9H47.1c-.7,0-.9.3-.9,1ZM20.7,45.3a.7.7,0,0,0,.8.8h1.2c.5,0,.8-.2.8-.8V18.6a.7.7,0,0,0-.8-.8H21.6c-.6,0-.9.3-.9,1ZM29.2,32h0V18.6c0-.4-.3-.7-.8-.8H27.1c-.4.1-.7.3-.7.7V45.3c0,.6.2.8.8.8h1.1c.6,0,.8-.2.9-.8V32Z"/>
</svg>
