<svg width="22639.000000000004" height="27081" xmlns="http://www.w3.org/2000/svg">

 <g>
  <title>background</title>
  <rect fill="none" id="canvas_background" height="402" width="582" y="-1" x="-1"/>
 </g>
 <g>
  <title>Layer 1</title>
  <path fill="#0098ff" id="svg_1" d="m0,0l18830,0l0,9463c-560,0 -1037,352 -1223,847c-226,-186 -507,-289 -795,-297l0,-7995l-14794,0l0,23045l14794,0l0,-696c297,-14 587,-124 834,-328l1184,-973l0,4015l-18830,0l0,-27081zm4145,14946l6083,0l0,1056l-6083,0l0,-1056zm0,-10371l10843,0l0,1057l-10843,0l0,-1057zm0,5185l10843,0l0,1057l-10843,0l0,-1057zm0,-2592l10843,0l0,1056l-10843,0l0,-1056zm0,5185l9362,0l0,1056l-9362,0l0,-1056zm17037,166c367,-61 750,106 947,448c197,341 150,756 -86,1043c348,131 596,467 596,861c0,395 -248,731 -596,861c236,288 283,703 86,1044c-197,341 -580,509 -947,448c61,367 -106,750 -447,947c-342,197 -757,150 -1044,-86c-131,348 -467,596 -861,596c-394,0 -730,-248 -861,-596c-288,236 -703,283 -1044,86c-341,-197 -508,-580 -448,-947c-367,61 -749,-107 -946,-448c-197,-341 -151,-756 85,-1044c-348,-130 -596,-466 -596,-861c0,-394 248,-730 596,-861c-236,-287 -282,-702 -85,-1043c197,-342 579,-509 946,-448c-60,-367 107,-750 448,-947c341,-197 756,-150 1044,86c131,-348 467,-596 861,-596c394,0 730,248 861,596c287,-236 702,-283 1044,-86c341,197 508,580 447,947zm-2352,396c1080,0 1956,876 1956,1956c0,1081 -876,1956 -1956,1956c-1080,0 -1956,-875 -1956,-1956c0,-1080 876,-1956 1956,-1956zm2089,6412l0,3611l-2089,-1719l-2089,1719l0,-3611c282,93 580,123 870,91c346,254 770,400 1219,400c449,0 873,-146 1218,-400c291,32 588,2 871,-91z" class="fil0"/>
 </g>
</svg>