<svg width="56" height="72" xmlns="http://www.w3.org/2000/svg">

 <g>
  <title>background</title>
  <rect fill="none" id="canvas_background" height="74" width="58" y="-1" x="-1"/>
 </g>
 <g>
  <title>Layer 1</title>
  <path stroke="null" id="svg_2" fill="#0098ff" d="m49.17884,4.130983l-41.954659,0c-1.930788,0 -3.496222,1.79 -3.496222,4l0,51.999c0,2.21 1.565433,4 3.496222,4l29.717883,0l15.732997,-18l0,-37.999c0,-2.21 -1.565433,-4 -3.496222,-4z"/>
  <path stroke="null" id="svg_4" fill="#FFFFFF" d="m46.582703,8.130983l-37.165406,0c-0.933359,0 -1.689337,0.896 -1.689337,2l0,48c0,1.104 0.755978,1.999 1.689337,1.999l25.34005,0l13.514693,-15.999l0,-34c0,-1.104 -0.756823,-2 -1.689337,-2z"/>
  <path stroke="null" id="svg_6" fill="#0098ff" d="m40.555835,46.129983c-1.912241,0 -3.462636,1.771938 -3.462636,3.956209l0,13.84228l15.581864,-17.798489l-12.119228,0z"/>
  <path id="svg_8" fill-rule="evenodd" clip-rule="evenodd" fill="#0098ff" d="m42.403022,29.612091l-28,0c-1.105,0 -2,0.896 -2,2s0.895,1.999 2,1.999l28,0c1.104,0 2,-0.895 2,-1.999s-0.896,-2 -2,-2zm-28,-4.001l16,0c1.104,0 2,-0.895 2,-1.999s-0.896,-2 -2,-2l-16,0c-1.105,0 -2,0.896 -2,2s0.895,1.999 2,1.999zm0,-8l28,0c1.104,0 2,-0.895 2,-1.999s-0.896,-2.001 -2,-2.001l-28,0c-1.105,0 -2,0.896 -2,2.001s0.895,1.999 2,1.999z"/>
  <polygon id="svg_10" fill="#ED7161" points="18.115869499742985,54.53500735759735 18.115869499742985,68.53499972820282 22.115869499742985,64.53400790691376 26.115869499742985,68.53499972820282 26.115869499742985,54.53500735759735 "/>
  <circle id="svg_12" fill="#FFD073" r="8" cy="47.72796" cx="22.115869"/>
 </g>
</svg>