<svg xmlns="http://www.w3.org/2000/svg" viewBox="0 0 64 64" fill="#0098ff">
    <path
        d="M60.4,39.8V57.6a2.6,2.6,0,0,1-1.6,2.5,3.2,3.2,0,0,1-1.4.3H28.8c-.4,0-.4-.1-.4-.5V50.6a.5.5,0,0,1,.3-.5,6.9,6.9,0,0,0,3.7-4.6c0-.1,0-.1.1-.2a2.2,2.2,0,0,1,.8-1.5,6.9,6.9,0,0,0,2.2-5.6,10.5,10.5,0,0,0-.4-1.7,3,3,0,0,1,.1-1.6,7.2,7.2,0,0,0-1.1-6.3l-.9-1a1.6,1.6,0,0,1-.7-1.1,6.6,6.6,0,0,0-1.1-2.6,6.7,6.7,0,0,0-3.8-2.8h-.4a2.5,2.5,0,0,1-1.5-1,6.5,6.5,0,0,0-4.1-2.1,7.5,7.5,0,0,0-3.3.4c-.5.1-.5.1-.5-.5V6.4a2.7,2.7,0,0,1,2-2.7H42.2c.5,0,.5,0,.5.5V18.5A2.7,2.7,0,0,0,43,20a2.5,2.5,0,0,0,2.4,1.3H59.9c.4,0,.5,0,.5.5v18Z"/>
    <path
        d="M10.7,54V48.1c0-.4-.1-.5-.4-.6L8.7,47a2.9,2.9,0,0,1-2-2l-.3-1.3a3.7,3.7,0,0,0-1-1.7l-1-1.1A3.3,3.3,0,0,1,3.7,38L4,37a4.9,4.9,0,0,0,0-2.4A7.5,7.5,0,0,1,3.6,33a3.3,3.3,0,0,1,1.1-2.6h0A5.1,5.1,0,0,0,6.6,27a3.3,3.3,0,0,1,1.7-2.3,4.4,4.4,0,0,1,1.5-.5A3.7,3.7,0,0,0,11.9,23a2.8,2.8,0,0,1,1-.9,3,3,0,0,1,2.7-.7l1.5.4h1.5l1.5-.4a2.9,2.9,0,0,1,2.9.9,6.3,6.3,0,0,0,3.6,2.1A3.4,3.4,0,0,1,29,26.8a2.9,2.9,0,0,1,.2.9,4,4,0,0,0,1.2,2.1l1,1a3.4,3.4,0,0,1,.5,2.9,6.7,6.7,0,0,0,0,4.2,3.1,3.1,0,0,1-1,3.4A6.1,6.1,0,0,0,29,44.6a3.3,3.3,0,0,1-2.5,2.6l-1.1.3c-.5.1-.5.1-.5.6V59.8c0,.6,0,.6-.5.3L18.2,57a1.1,1.1,0,0,0-.8,0l-6.3,3.2c-.4.2-.4.1-.4-.3V54Zm7.1-11.4a7.1,7.1,0,1,0,0-14.1,7.1,7.1,0,0,0,0,14.1Z"/>
    <path
        d="M53.2,17.8H46.6c-.5,0-.5,0-.5-.4V4.1c0-.5,0-.4.5-.5a2.9,2.9,0,0,1,2.3,1L59.4,15.1a2.9,2.9,0,0,1,1,2.3c0,.4-.2.5-.5.4Z"/>
</svg>
