<?xml version="1.0" encoding="utf-8"?>
<svg xml:space="preserve" viewBox="0 0 100 100" y="0" x="0" xmlns="http://www.w3.org/2000/svg" id="圖層_1" version="1.1" style="height: 100%; width: 100%; background: none; shape-rendering: auto;" width="128px" height="128px"><g class="ldl-scale" style="transform-origin: 50% 50%; transform: scale(0.8);"><g class="ldl-ani"><g class="ldl-layer"><g class="ldl-ani" style="transform-origin: 50px 50px; transform: scale(0.91); animation: 1.11111s linear -0.740741s infinite normal forwards running breath-636402cf-b208-4b70-b86c-9a568987fc20;"><path fill="#abbd81" d="M65.754 9.944H16.132a4.022 4.022 0 0 0-4.022 4.022v2.514H5c.197 2.976 1.771 4.932 3.79 6.253 1.021.668 2.146 1.144 3.319 1.479v2.157a4.022 4.022 0 0 0 4.022 4.022h49.622a4.022 4.022 0 0 0 4.022-4.022V13.966a4.02 4.02 0 0 0-4.021-4.022z" style="fill: rgb(0, 152, 255);"></path></g></g><g class="ldl-layer"><g class="ldl-ani" style="transform-origin: 50px 50px; transform: scale(0.91); animation: 1.11111s linear -0.925926s infinite normal forwards running breath-636402cf-b208-4b70-b86c-9a568987fc20;"><path fill="#abbd81" d="M65.754 69.609H16.132a4.022 4.022 0 0 0-4.022 4.022v2.514H5c.197 2.976 1.771 4.932 3.79 6.253 1.021.668 2.146 1.144 3.319 1.479v2.157a4.022 4.022 0 0 0 4.022 4.022h49.622a4.022 4.022 0 0 0 4.022-4.022V73.631a4.02 4.02 0 0 0-4.021-4.022z" style="fill: rgb(0, 152, 255);"></path></g></g><g class="ldl-layer"><g class="ldl-ani" style="transform-origin: 50px 50px; transform: scale(0.91); animation: 1.11111s linear -1.11111s infinite normal forwards running breath-636402cf-b208-4b70-b86c-9a568987fc20;"><path fill="#849b87" d="M87.891 46.448v-2.514a4.022 4.022 0 0 0-4.022-4.022H34.247a4.022 4.022 0 0 0-4.022 4.022v12.402a4.022 4.022 0 0 0 4.022 4.022h49.622a4.022 4.022 0 0 0 4.022-4.022V54.18c1.173-.335 2.299-.811 3.319-1.479 2.019-1.321 3.592-3.277 3.79-6.253h-7.109z" style="fill: rgb(10, 20, 43);"></path></g></g><metadata xmlns:d="https://loading.io/stock/"><d:name>messenger</d:name><d:tags>sns,talking,line,message,sms,talk,messenger,conversation</d:tags><d:license>by</d:license><d:slug>s9spny</d:slug></metadata></g></g><style id="breath-636402cf-b208-4b70-b86c-9a568987fc20" data-anikit="">@keyframes breath-636402cf-b208-4b70-b86c-9a568987fc20
{
  0% {
    animation-timing-function: cubic-bezier(0.9647,0.2413,-0.0705,0.7911);
    transform: scale(0.9099999999999999);
  }
  51% {
    animation-timing-function: cubic-bezier(0.9226,0.2631,-0.0308,0.7628);
    transform: scale(1.02994);
  }
  100% {
    transform: scale(0.9099999999999999);
  }
}</style><!-- [ldio] generated by https://loading.io/ --></svg>