<?xml version="1.0" standalone="no"?>
<!DOCTYPE svg PUBLIC "-//W3C//DTD SVG 20010904//EN"
 "http://www.w3.org/TR/2001/REC-SVG-20010904/DTD/svg10.dtd">
<svg version="1.0" xmlns="http://www.w3.org/2000/svg"
 width="256.000000pt" height="256.000000pt" viewBox="0 0 256.000000 256.000000"
 preserveAspectRatio="xMidYMid meet">
<metadata>
Created by potrace 1.15, written by Peter Selinger 2001-2017
</metadata>
<g transform="translate(0.000000,256.000000) scale(0.100000,-0.100000)"
fill="#000000" stroke="none">
<path d="M1216 2400 c-58 -18 -125 -108 -126 -167 l0 -23 -275 0 -275 0 0 -45
c0 -37 -30 -112 -165 -411 -91 -201 -165 -368 -165 -370 0 -3 23 -4 52 -2 l52
3 150 332 149 332 151 -334 150 -335 53 0 52 0 -18 43 c-10 23 -82 183 -160
355 -77 172 -141 315 -141 317 0 3 104 5 230 5 l230 0 0 -834 0 -835 -57 -12
c-62 -12 -304 -81 -465 -130 l-98 -31 0 -49 0 -49 720 0 720 0 0 45 c0 40 -3
47 -26 55 -58 23 -367 114 -484 143 l-125 32 3 833 2 832 240 0 239 0 -28 -62
c-15 -35 -87 -194 -160 -355 -72 -160 -131 -294 -131 -298 0 -3 23 -5 51 -3
l52 3 144 320 c79 176 147 323 151 327 5 5 75 -140 157 -322 l148 -330 49 0
c26 0 48 4 48 10 0 5 -74 174 -165 375 -125 276 -165 375 -165 405 l0 40 -280
0 -280 0 0 23 c-1 54 -83 167 -123 167 -7 0 -21 2 -32 5 -11 2 -33 0 -49 -5z"/>
<path d="M210 1266 c0 -160 129 -330 289 -381 129 -42 300 2 396 101 72 74
125 194 125 287 l0 37 -405 0 -405 0 0 -44z"/>
<path d="M1516 1258 c22 -175 129 -316 280 -369 133 -46 309 -6 406 94 72 74
128 202 128 294 l0 33 -410 0 -411 0 7 -52z"/>
</g>
</svg>
