<svg width="11" height="14" viewBox="0 0 11 14" fill="none" xmlns="http://www.w3.org/2000/svg">
<path d="M7.5625 0H1.375C0.61875 0 0 0.63 0 1.4V12.6C0 13.37 0.61875 14 1.375 14H9.625C10.3813 14 11 13.37 11 12.6V3.5L7.5625 0ZM1.375 12.6V1.4H6.875V4.2H9.625V12.6H1.375ZM8.25 5.6V9.1C8.25 10.647 7.01937 11.9 5.5 11.9C3.98062 11.9 2.75 10.647 2.75 9.1V4.55C2.75 3.521 3.61625 2.702 4.6475 2.807C5.54125 2.898 6.1875 3.731 6.1875 4.648V9.1H4.8125V4.55C4.8125 4.354 4.66125 4.2 4.46875 4.2C4.27625 4.2 4.125 4.354 4.125 4.55V9.1C4.125 9.87 4.74375 10.5 5.5 10.5C6.25625 10.5 6.875 9.87 6.875 9.1V5.6H8.25Z" fill="#0A142B"/>
</svg>
