<svg id="Capa_1" enable-background="new 0 0 512 512" height="512" viewBox="0 0 512 512" width="512" xmlns="http://www.w3.org/2000/svg"><g><path d="m410.602 337.986h-320.2l-54.386 94.199c-2.104 3.645.526 8.201 4.735 8.201h419.501c4.209 0 6.839-4.556 4.735-8.201z" fill="#f6e266"/><path d="m410.602 337.986c-4.203-7.279-6.415-15.536-6.415-23.941v-83.935c0-68.11-44.307-125.874-105.67-146.038-1.866-.613-2.654-2.563-1.827-4.345 3.607-7.774 5.308-16.604 4.497-25.889-1.777-20.348-19.173-46.338-50.619-46.338-28.262 0-50.949 22.939-50.949 50.883 0 7.483 1.624 14.593 4.537 20.997.897 1.971-.077 4.16-2.132 4.843-61.124 20.301-105.208 77.944-105.207 145.884l.001 83.937c0 8.405-2.212 16.663-6.415 23.942zm-178.137-279.603c0-9.962 8.076-18.038 18.038-18.038s18.038 8.076 18.038 18.038-8.076 18.037-18.038 18.037-18.038-8.075-18.038-18.037z" fill="#f1d333"/><path d="m464.988 432.185-54.386-94.199h-28.453l9.944 17.224c16.724 28.967-4.181 65.177-37.63 65.177h-311.634l-6.812 11.799c-2.104 3.645.526 8.201 4.735 8.201h419.501c4.209-.001 6.839-4.557 4.735-8.202z" fill="#f4dd45"/><path d="m298.419 84.037c39.76 27.78 65.768 73.889 65.768 126.072v83.935c0 8.405 2.213 16.662 6.415 23.942l11.547 20h28.453c-4.203-7.279-6.415-15.536-6.415-23.942v-83.935c0-68.11-44.307-125.874-105.67-146.039-.033-.01-.066-.021-.098-.033z" fill="#ecc32e"/><circle cx="401.609" cy="107.268" fill="#da4a54" r="75.127"/><path d="m413.67 33.104c14.218 13.669 23.066 32.883 23.066 54.164 0 41.492-33.635 75.127-75.127 75.127-4.106 0-8.134-.33-12.061-.963 13.503 12.982 31.85 20.963 52.061 20.963 41.491 0 75.127-33.635 75.127-75.127 0-37.386-27.308-68.393-63.066-74.164z" fill="#d82e3d"/><path d="m283.209 440.386h-65.414l-3.62 20.986c-3.886 22.531 13.463 43.128 36.326 43.128 22.863 0 40.212-20.597 36.326-43.128z" fill="#f1d333"/><path d="m286.659 460.386-3.45-20h-65.414l-3.449 20z" fill="#ecc32e"/><path d="m421.83 107.984c-.396-.395-.396-1.036 0-1.432l20.741-20.741c1.952-1.952 1.952-5.116 0-7.068l-12.436-12.436c-1.952-1.952-5.116-1.952-7.068 0l-20.741 20.741c-.396.396-1.037.396-1.432 0l-20.741-20.741c-1.952-1.952-5.117-1.952-7.068 0l-12.437 12.436c-1.952 1.952-1.952 5.116 0 7.068l20.741 20.741c.396.395.396 1.036 0 1.432l-20.741 20.741c-1.952 1.952-1.952 5.116 0 7.068l12.437 12.436c1.952 1.952 5.116 1.952 7.068 0l20.741-20.741c.395-.395 1.036-.395 1.432 0l20.741 20.741c1.952 1.952 5.116 1.952 7.068 0l12.436-12.436c1.952-1.952 1.952-5.117 0-7.068z" fill="#f6f9f9"/><path d="m423.066 148.23c1.952 1.952 5.116 1.952 7.068 0l12.436-12.436c1.952-1.952 1.952-5.117 0-7.068l-11.88-11.881c-3.749 8.746-9.111 16.636-15.711 23.298z" fill="#e7ecf1"/><path d="m435.01 71.182c1.13 5.182 1.726 10.565 1.726 16.086 0 1.515-.045 3.019-.134 4.511l5.968-5.968c1.952-1.952 1.952-5.116 0-7.068z" fill="#e7ecf1"/><path d="m250.506 83.92c14.077 0 25.53-11.457 25.53-25.54 0-14.077-11.453-25.53-25.53-25.53-14.083 0-25.54 11.453-25.54 25.53 0 14.083 11.457 25.54 25.54 25.54zm0-36.07c5.807 0 10.53 4.724 10.53 10.53 0 5.812-4.724 10.54-10.53 10.54-5.812 0-10.54-4.728-10.54-10.54 0-5.806 4.728-10.53 10.54-10.53z"/><path d="m104.316 230.11c0-19.741 3.868-38.895 11.497-56.928 1.614-3.814-.17-8.215-3.985-9.829-3.812-1.614-8.215.17-9.829 3.985-8.416 19.893-12.683 41.012-12.683 62.772v83.93c0 7.006-1.828 13.914-5.288 19.994-.041.066-.082.134-.121.202l-21.443 37.14c-2.071 3.587-.842 8.174 2.745 10.245 3.575 2.064 8.167.854 10.245-2.745l19.278-33.39h227.981c4.143 0 7.5-3.358 7.5-7.5s-3.357-7.5-7.5-7.5h-220.894c1.647-5.305 2.497-10.853 2.497-16.446z"/><path d="m221.385 100.788c-1.824 3.719-.289 8.212 3.43 10.037 8.036 3.942 16.678 5.941 25.687 5.941 8.928 0 17.5-1.965 25.479-5.84 3.727-1.81 5.279-6.297 3.47-10.023s-6.299-5.28-10.022-3.47c-5.921 2.875-12.288 4.333-18.927 4.333-6.698 0-13.118-1.483-19.08-4.408-3.719-1.825-8.212-.289-10.037 3.43z"/><path d="m401.609 24.641c-38.051 0-70.178 25.855-79.734 60.92-5.379-2.665-10.914-5.03-16.561-7.076 2.943-8.024 4.097-16.679 3.344-25.298-2.287-26.145-24.64-53.187-58.092-53.187-32.229 0-58.45 26.189-58.45 58.38 0 6.929 1.197 13.67 3.567 20.101-30.17 10.891-56.117 30.319-75.235 56.383-2.45 3.34-1.728 8.034 1.612 10.483 3.347 2.455 8.039 1.722 10.483-1.612 18.103-24.68 42.947-42.799 71.844-52.397 3.005-.997 5.444-3.211 6.692-6.076 1.244-2.854 1.207-6.134-.097-8.987-2.566-5.645-3.868-11.666-3.868-17.896 0-23.92 19.492-43.38 43.45-43.38 27.379 0 41.714 23.094 43.148 39.492.665 7.611-.66 15.247-3.841 22.102-1.297 2.816-1.345 6.024-.132 8.8 1.2 2.745 3.551 4.861 6.431 5.801 7.936 2.611 15.666 5.922 23.041 9.865-3.305 44.272 28.846 82.567 71.67 88.142 3.852 13.234 5.802 26.971 5.802 40.908v83.93c0 5.595.851 11.142 2.499 16.446h-41.471c-4.143 0-7.5 3.358-7.5 7.5s3.357 7.5 7.5 7.5h48.558l50.461 87.4c-124.72 0-291.573 0-412.46 0l13.531-23.438c2.071-3.587.842-8.174-2.745-10.245-3.588-2.073-8.174-.842-10.245 2.745l-15.292 26.486c-2.344 4.06-2.344 8.908 0 12.967 2.344 4.06 6.542 6.484 11.23 6.484h168.14l-2.106 12.21c-4.669 27.083 16.178 51.906 43.719 51.906 27.479 0 48.399-24.761 43.717-51.903l-2.106-12.211h168.14c4.688 0 8.886-2.423 11.229-6.482 2.344-4.06 2.345-8.907.001-12.969-62.464-108.189-53.484-92.645-54.386-94.199-3.54-6.124-5.412-13.107-5.412-20.196v-83.93c0-13.703-1.713-27.237-5.1-40.363 43.253-2.582 77.65-38.589 77.65-82.479.002-45.56-37.065-82.627-82.626-82.627zm-122.171 438.005c3.091 17.923-10.706 34.354-28.936 34.354-18.191 0-32.033-16.393-28.935-34.354l2.546-14.76h52.78zm122.171-287.75c-37.164 0-67.627-30.215-67.627-67.627 0-37.372 30.42-67.627 67.627-67.627 37.29 0 67.628 30.337 67.628 67.627 0 37.289-30.338 67.627-67.628 67.627z"/><path d="m451.534 82.277c0-3.339-1.3-6.478-3.66-8.837l-12.437-12.436c-4.883-4.884-12.789-4.886-17.676 0l-16.151 16.153-16.154-16.155c-4.884-4.883-12.79-4.883-17.675.001l-12.436 12.436c-2.361 2.361-3.661 5.5-3.661 8.838s1.3 6.477 3.66 8.837l16.154 16.154-16.154 16.154c-2.36 2.361-3.66 5.499-3.66 8.837 0 3.339 1.3 6.478 3.66 8.837l12.437 12.436c4.883 4.884 12.789 4.886 17.676 0l16.152-16.154 16.154 16.155c4.873 4.871 12.8 4.871 17.675-.001l12.436-12.436c2.361-2.36 3.661-5.499 3.661-8.838s-1.3-6.478-3.66-8.837l-16.154-16.153 16.154-16.154c2.36-2.36 3.659-5.498 3.659-8.837zm-35.008 18.972c-3.318 3.319-3.318 8.72 0 12.039l18.973 18.972-8.898 8.898-18.971-18.972c-3.327-3.326-8.712-3.327-12.04 0l-18.971 18.972-8.898-8.898 18.973-18.972c3.318-3.319 3.318-8.72 0-12.039l-18.974-18.972 8.898-8.898 18.971 18.972c3.321 3.32 8.721 3.318 12.04 0l18.971-18.972 8.898 8.898z"/></g></svg>