<svg width="512" height="512" xmlns="http://www.w3.org/2000/svg">

 <g>
  <title>background</title>
  <rect fill="none" id="canvas_background" height="402" width="582" y="-1" x="-1"/>
 </g>
 <g>
  <title>Layer 1</title>
  <circle r="256" id="XMLID_2766_" fill="#999999" cy="256" cx="256"/>
  <rect y="405.1" x="126.8" width="258.4" id="XMLID_251_" height="10.9" fill="#FFFFFF"/>
  <rect y="224.2" x="328.8" width="29.1" id="XMLID_250_" height="43.5" fill="#FFFFFF"/>
  <rect y="270.9" x="205.6" width="30.3" id="XMLID_249_" height="42.9" fill="#FFFFFF"/>
  <rect y="270.9" x="239" width="30.3" id="XMLID_248_" height="42.9" fill="#FFFFFF"/>
  <rect y="224.2" x="205.6" width="30.3" id="XMLID_246_" height="43.5" fill="#FFFFFF"/>
  <rect y="111.6" x="205.8" width="31.2" id="XMLID_245_" height="45.1" fill="#FFFFFF"/>
  <rect y="111.6" x="240.3" width="29.4" id="XMLID_244_" height="45.1" fill="#FFFFFF"/>
  <rect y="224.2" x="239" width="30.3" id="XMLID_213_" height="43.5" fill="#FFFFFF"/>
  <rect y="159.9" x="205.8" width="31.2" id="XMLID_143_" height="41.4" fill="#FFFFFF"/>
  <rect y="159.9" x="240.3" width="29.4" id="XMLID_113_" height="41.4" fill="#FFFFFF"/>
  <rect y="111.6" x="328.8" width="29.1" id="XMLID_36_" height="45.1" fill="#FFFFFF"/>
  <rect y="111.6" x="294" width="31.6" id="XMLID_41_" height="45.1" fill="#FFFFFF"/>
  <rect y="159.9" x="328.8" width="29.1" id="XMLID_40_" height="41.4" fill="#FFFFFF"/>
  <rect y="159.9" x="294" width="31.6" id="XMLID_39_" height="41.4" fill="#FFFFFF"/>
  <rect y="224.2" x="294.1" width="31.5" id="XMLID_38_" height="43.5" fill="#FFFFFF"/>
  <rect y="270.9" x="328.8" width="29.1" id="XMLID_37_" height="42.9" fill="#FFFFFF"/>
  <path id="XMLID_27_" fill="#FFFFFF" d="m192.9,96l0,307l178.7,0l0,-307l-178.7,0zm7.2,9.9l75.3,0l0,50.9l0,0l0,3.1l0,0l0,47.1l-75.3,0l0,-101.1zm-0.3,112.5l75.3,0l0,101.2l-75.3,0l0,-101.2zm38.7,184.5l-3.1,0l0,-63.4l-32.3,0l0,63.4l-3.1,0l0,-66.4l38.4,0l0.1,66.4l0,0zm41,-42.6l-25.3,0l0,-23.8l25.3,0l0,23.8zm30.8,0l-25.3,0l0,-23.8l25.3,0l0,23.8zm-21.9,-40.7l0,-101.2l75.3,0l0,101.2l-75.3,0l0,0zm75.3,83.3l-3.1,0l0,-63.4l-32.3,0l0,63.4l-3.1,0l0,-66.4l38.4,0l0.1,66.4l0,0zm0.3,-243l-0.4,0l0,47.1l-75.3,0l0,-101.1l75.3,0l0,50.9l0.4,0l0,3.1l0,0z"/>
  <rect y="270.9" x="294.1" width="31.5" id="XMLID_252_" height="42.9" fill="#FFFFFF"/>
  <path id="XMLID_253_" fill="#FFFFFF" d="m141.3,96l0,306.9l48.3,0l0,-306.9l-48.3,0zm28.1,35.1l16.5,0.1l-0.1,22.3l-16.5,-0.1l0.1,-22.3zm-0.5,30.6l16.5,0.1l-0.1,22.3l-16.5,-0.1l0.1,-22.3zm16.8,122.7l-0.1,22.3l-16.5,-0.1l0.1,-22.3l16.5,0.1zm-17.3,-92l16.5,0.1l-0.1,22.3l-16.5,-0.1l0.1,-22.3zm-0.2,30.6l16.5,0.1l-0.1,22.3l-16.5,-0.1l0.1,-22.3zm-21.7,-92.5l16.5,0.1l-0.1,22.3l-16.5,-0.1l0.1,-22.3zm-0.5,30.7l16.5,0.1l-0.1,22.3l-16.5,-0.1l0.1,-22.3zm16.8,122.6l-0.1,22.3l-16.5,-0.1l0.1,-22.3l16.5,0.1zm-17.3,-92l16.5,0.1l-0.1,22.3l-16.5,-0.1l0.1,-22.3zm-0.2,30.6l16.5,0.1l-0.1,22.3l-16.5,-0.1l0.1,-22.3zm-0.3,30.7l16.5,0.1l-0.1,22.3l-16.5,-0.1l0.1,-22.3zm1.1,91.9l16.5,0.1l-0.1,22.3l-16.5,-0.1l0.1,-22.3zm16.7,53.1l-16.5,-0.1l0.1,-22.3l16.5,0.1l-0.1,22.3zm0.3,-61.3l-16.5,-0.1l0.1,-22.3l16.5,0.1l-0.1,22.3zm0.2,-214.6l-16.5,-0.1l0.1,-22.3l16.5,0.1l-0.1,22.3zm4.6,131.4l16.5,0.1l-0.1,22.3l-16.5,-0.1l0.1,-22.3zm1.2,92l16.5,0.1l-0.1,22.3l-16.5,-0.1l0.1,-22.3zm16.6,53.1l-16.5,-0.1l0.1,-22.3l16.5,0.1l-0.1,22.3zm0.3,-61.4l-16.5,-0.1l0.1,-22.3l16.5,0.1l-0.1,22.3zm0.2,-214.5l-16.5,-0.1l0.1,-22.3l16.5,0.1l-0.1,22.3z"/>
 </g>
</svg>