<svg width="512" height="512" xmlns="http://www.w3.org/2000/svg">

 <g>
  <title>background</title>
  <rect fill="none" id="canvas_background" height="402" width="582" y="-1" x="-1"/>
 </g>
 <g>
  <title>Layer 1</title>
  <circle r="256" id="XMLID_1618_" fill="#999999" cy="256" cx="256"/>
  <path id="XMLID_3768_" fill="#FFFFFF" d="m101.9,416l64.2,0l0,-243.7l-64.2,0l0,243.7zm58.5,-13.2l-24.6,0l0,-217.3l24.6,0l0,217.3zm-52.9,-217.3l24.6,0l0,217.2l-24.6,0l0,-217.2z"/>
  <path id="XMLID_3810_" fill="#FFFFFF" d="m345.9,172.3l0,243.7l64.2,0l0,-243.7l-64.2,0zm5.7,13.2l24.6,0l0,217.2l-24.6,0l0,-217.2zm52.9,217.3l-24.6,0l0,-217.3l24.6,0l0,217.3z"/>
  <path id="XMLID_3814_" fill="#FFFFFF" d="m321.2,176.8l-24.9,0l0,-80.8l-81.2,0l0,80.8l-22.1,0l0,94l-24,0l0,144.7l173.6,0l0,-144.7l-21.2,0l-0.2,-94l0,0zm-27.8,3l24.4,0l0,26.2l-24.4,0l0,-26.2zm0,31.4l24.4,0l0,26.2l-24.4,0l0,-26.2zm0,31.4l24.4,0l0,26.2l-24.4,0l0,-26.2zm-39.7,-31.4l0,26.2l-24.4,0l0,-26.2l24.4,0zm-24.5,-5.2l0,-26.2l24.4,0l0,26.2l-24.4,0zm24.5,36.6l0,26.2l-24.4,0l0,-26.2l24.4,0zm-10.1,65.8l24.4,0l0,26.2l-24.4,0l0,-26.2l0,0zm0,-5.1l0,-26.2l24.4,0l0,26.2l-24.4,0zm17.7,-34.4l0,-26.2l24.4,0l0,26.2l-24.4,0zm24.5,-57.7l0,26.2l-24.4,0l0,-26.2l24.4,0zm-24.5,-5.2l0,-26.2l24.4,0l0,26.2l-24.4,0zm15.9,71.1l24.4,0l0,26.2l-24.4,0l0,-26.2zm-20.8,-173l32.4,0l0,32.1l-32.4,0l0,-32.1zm0,34.3l32.4,0l0,32.1l-32.4,0l0,-32.1zm-34.6,-34.3l32.4,0l0,32.1l-32.4,0l0,-32.1zm0,34.3l32.4,0l0,32.1l-32.4,0l0,-32.1zm-24.6,41.4l24.4,0l0,26.2l-24.4,0l0,-26.2zm0,31.4l24.4,0l0,26.2l-24.4,0l0,-26.2zm0,31.4l24.4,0l0,26.2l-24.4,0l0,-26.2zm-20.6,34.5l24.4,0l0,26.2l-24.4,0l0,-26.2zm0,31.3l24.4,0l0,26.2l-24.4,0l0,-26.2zm44.9,104l-2.6,0l0,-64.4l-39,0l0,64.4l-2.6,0l0,-66.9l44.1,0l0.1,66.9l0,0zm13,-77.7l-24.4,0l0,-26.2l24.4,0l0,26.2zm0,-31.4l-24.4,0l0,-26.2l24.4,0l0,26.2zm21.2,89.8l-16.3,0l0,-16.2l16.4,0l-0.1,16.2l0,0zm0,-17.4l-16.3,0l0,-16.2l16.4,0l-0.1,16.2l0,0zm17.5,17.4l-16.4,0l0,-16.2l16.4,0l0,16.2zm0,-17.4l-16.4,0l0,-16.2l16.4,0l0,16.2zm4,-67.3l24.4,0l0,26.2l-24.4,0l0,-26.2zm57.9,104l-2.6,0l0,-64.4l-39,0l0,64.4l-2.6,0l0,-66.9l44.1,0l0.1,66.9l0,0zm0,-77.7l-24.4,0l0,-26.2l24.4,0l0,26.2zm0,-57.6l0,26.2l-24.4,0l0,-26.2l24.4,0z"/>
 </g>
</svg>