<svg width="500.00000000000006" height="500.00000000000006" xmlns="http://www.w3.org/2000/svg">

 <g>
  <title>background</title>
  <rect fill="none" id="canvas_background" height="402" width="582" y="-1" x="-1"/>
 </g>
 <g>
  <title>Layer 1</title>
  <path id="svg_2" fill="#e5e5e5" d="m477.563,191.076c0,-18.92 -12.886,-34.833 -30.359,-39.44c0.447,-0.611 0.867,-1.264 1.254,-1.935c5.839,-10.113 2.374,-23.072 -7.74,-28.911c-6.42,-3.707 -13.975,-3.713 -20.131,-0.6c-3.741,-23.582 -23.904,-41.788 -48.405,-42.344c-9.657,-21.868 -31.538,-37.075 -57.002,-37.075c-31.06,0 -56.803,22.78 -61.52,52.512c-7.642,-3.865 -17.02,-3.9 -24.991,0.701c-12.555,7.248 -16.856,23.314 -9.608,35.869c0.481,0.833 1.002,1.632 1.557,2.391c-9.559,2.52 -18.01,7.768 -24.476,14.857c-10.95,-9.547 -25.272,-15.33 -40.963,-15.33c-31.06,0 -56.803,22.78 -61.52,52.512c-7.643,-3.865 -17.02,-3.9 -24.991,0.701c-12.555,7.248 -16.856,23.314 -9.608,35.869c0.481,0.833 1.002,1.632 1.557,2.391c-21.69,5.719 -37.687,25.468 -37.687,48.956c0,27.96 22.209,50.628 50.17,50.628c1.776,0 143.9,0.185 143.9,0.185l0,-93.741c5,1.65 10.31,2.556 15.859,2.556c1.008,0 48.141,0.06 87.141,0.111l0,0.074c0,0 12.256,-0.016 28.557,-0.037c7.968,0.01 14.925,0.019 19.924,0.026c-1.079,4.195 -1.595,8.592 -1.595,13.124c0,29.015 23.551,52.536 52.566,52.536s52.551,-23.521 52.551,-52.536c0,-9.128 -2.324,-17.71 -6.418,-25.189c7.394,-7.383 11.978,-17.588 11.978,-28.861z"/>
  <polygon id="svg_4" points="335,228 335,87 163,87 163,228 81,228 81,435 417,435 417,228   " fill="#4384EC"/>
  <rect id="svg_6" y="122.96" x="230.434" width="87.801" height="9.677" fill="#FFFFFF"/>
  <rect id="svg_7" y="170.376" x="230.434" width="87.801" height="9.677" fill="#FFFFFF"/>
  <rect id="svg_8" y="217.792" x="230.434" width="87.801" height="9.677" fill="#FFFFFF"/>
  <rect id="svg_9" y="265.209" x="230.434" width="87.801" height="9.677" fill="#FFFFFF"/>
  <rect id="svg_10" y="312.625" x="230.434" width="87.801" height="9.677" fill="#FFFFFF"/>
  <rect id="svg_11" y="122.96" x="184.026" width="27.782" height="9.677" fill="#FFFFFF"/>
  <rect id="svg_12" y="170.376" x="184.026" width="27.782" height="9.677" fill="#FFFFFF"/>
  <rect id="svg_13" y="217.792" x="184.026" width="27.782" height="9.677" fill="#FFFFFF"/>
  <rect id="svg_14" y="265.209" x="184.026" width="27.782" height="9.677" fill="#FFFFFF"/>
  <rect id="svg_15" y="312.625" x="184.026" width="27.782" height="9.677" fill="#FFFFFF"/>
  <path id="svg_16" fill="#2666CE" d="m163.576,380.958l0,0l0,-152.873l-15.386,0l0,137.487c0,8.498 6.888,15.386 15.386,15.386z"/>
  <path id="svg_17" fill="#2666CE" d="m335.269,380.958l0,0l0,-152.873l15.386,0l0,137.487c0,8.498 -6.888,15.386 -15.386,15.386z"/>
  <rect id="svg_19" y="265.209" x="81.576" width="66.614" height="9.677" fill="#FFFFFF"/>
  <rect id="svg_20" y="265.209" x="148.19" width="7.693" height="9.677" fill="#CAD8EF"/>
  <rect id="svg_22" y="312.625" x="81.576" width="66.614" height="9.677" fill="#FFFFFF"/>
  <rect id="svg_23" y="312.625" x="148.19" width="7.693" height="9.677" fill="#CAD8EF"/>
  <rect id="svg_25" y="265.209" x="350.655" width="66.614" transform="matrix(-1,-6.509872e-11,6.509872e-11,-1,767.9245,540.0941) " height="9.677" fill="#FFFFFF"/>
  <rect id="svg_26" y="265.209" x="342.962" width="7.693" transform="matrix(-1,-4.492552e-11,4.492552e-11,-1,693.6174,540.0941) " height="9.677" fill="#CAD8EF"/>
  <rect id="svg_28" y="312.625" x="350.655" width="66.614" transform="matrix(-1,-6.509872e-11,6.509872e-11,-1,767.9245,634.9268) " height="9.677" fill="#FFFFFF"/>
  <rect id="svg_29" y="312.625" x="342.962" width="7.693" transform="matrix(-1,-4.492552e-11,4.492552e-11,-1,693.6174,634.9268) " height="9.677" fill="#CAD8EF"/>
  <rect id="svg_30" y="435.013" x="60.48" width="378.193" height="14.545" fill="#4384EC"/>
  <rect id="svg_31" y="449.559" x="41.302" width="416.547" height="16.716" fill="#2666CE"/>
  <rect id="svg_32" y="426.468" x="81.67" width="335.812" height="8.545" fill="#2666CE"/>
  <rect id="svg_34" y="388.987" x="229.016" width="49.671" height="46.027" fill="#FFFFFF"/>
  <rect id="svg_35" y="388.987" x="252.903" width="1.898" height="46.027" fill="#CAD8EF"/>
 </g>
</svg>