<!DOCTYPE svg PUBLIC "-//W3C//DTD SVG 20010904//EN" "http://www.w3.org/TR/2001/REC-SVG-20010904/DTD/svg10.dtd">
<svg version="1.0" xmlns="http://www.w3.org/2000/svg" width="256px" height="256px" viewBox="0 0 2560 2560" preserveAspectRatio="xMidYMid meet">
<g id="layer101" fill="#9b9b9b" stroke="none">
 <path d="M195 2205 l-35 -36 2 -642 3 -642 1115 0 1115 0 3 643 2 644 -34 34 -34 34 -1051 0 -1050 0 -36 -35z"/>
 <path d="M160 596 l0 -208 34 -34 34 -34 337 0 337 0 80 78 80 77 645 5 645 5 24 28 c23 27 24 35 24 160 l0 132 -1120 0 -1120 0 0 -209z"/>
 </g>

</svg>