<svg width="499.99999999999994" height="499.992" xmlns="http://www.w3.org/2000/svg">

 <g>
  <title>background</title>
  <rect fill="none" id="canvas_background" height="402" width="582" y="-1" x="-1"/>
 </g>
 <g>
  <title>Layer 1</title>
  <path id="svg_2" fill="#b2b2b2" d="m250.001,0c-138.071,0 -250.001,111.93 -250.001,249.996c0,138.071 111.93,249.996 250.001,249.996c138.069,0 249.999,-111.925 249.999,-249.996c0,-138.066 -111.93,-249.996 -249.999,-249.996z"/>
  <path id="svg_3" fill="#FFFFFF" d="m361.763,231.058l0,132.677c0,9.474 -8.06,17.16 -18.021,17.16l-187.487,0c-9.961,0 -18.021,-7.686 -18.021,-17.16l0,-132.677c0,-9.474 8.059,-17.148 18.021,-17.148l21.128,0l0,-79.266c0,-8.576 6.973,-15.547 15.545,-15.547l116.407,0c8.567,0 15.535,6.971 15.535,15.547l0,79.266l18.872,0c9.961,0 18.021,7.674 18.021,17.148z"/>
  <path id="svg_4" fill="#EFEFF0" d="m174.314,346.056l-11.741,0c-0.512,0 -0.922,0.41 -0.922,0.912l0,11.751c0,0.502 0.41,0.91 0.922,0.91l11.741,0c0.512,0 0.912,-0.407 0.912,-0.91l0,-11.751c0,-0.502 -0.4,-0.912 -0.912,-0.912z"/>
  <path id="svg_5" fill="#EFEFF0" d="m248.398,346.056l-11.742,0c-0.507,0 -0.921,0.41 -0.921,0.912l0,11.751c0,0.502 0.415,0.91 0.921,0.91l11.742,0c0.512,0 0.919,-0.407 0.919,-0.91l0,-11.751c0,-0.502 -0.408,-0.912 -0.919,-0.912z"/>
  <path id="svg_6" fill="#EFEFF0" d="m248.398,314.113l-11.742,0c-0.507,0 -0.921,0.407 -0.921,0.905l0,11.751c0,0.502 0.415,0.912 0.921,0.912l11.742,0c0.512,0 0.919,-0.41 0.919,-0.912l0,-11.751c0,-0.498 -0.408,-0.905 -0.919,-0.905z"/>
  <path id="svg_7" fill="#F5F6F6" d="m184.518,213.91l133.216,0l0,-79.266c0,-4.642 -3.772,-8.414 -8.399,-8.414l-116.408,0c-4.635,0 -8.409,3.771 -8.409,8.414l0,79.266z"/>
  <rect id="svg_8" fill="#E8E9EB" y="194.906" x="177.378" width="147.494" height="19.003"/>
  <path id="svg_9" fill="#EFEFF0" d="m179.6,345.588c0,-2.154 -1.756,-3.9 -3.905,-3.9l-14.502,0c-2.166,0 -3.905,1.746 -3.905,3.9l0,14.507c0,2.151 1.739,3.905 3.905,3.905l14.502,0c2.149,0 3.905,-1.754 3.905,-3.905l0,-14.507z"/>
  <path id="svg_10" fill="#EFEFF0" d="m179.6,313.637c0,-2.151 -1.756,-3.905 -3.905,-3.905l-14.502,0c-2.166,0 -3.905,1.753 -3.905,3.905l0,14.509c0,2.151 1.739,3.9 3.905,3.9l14.502,0c2.149,0 3.905,-1.749 3.905,-3.9l0,-14.509z"/>
  <path id="svg_11" fill="#EFEFF0" d="m179.6,281.699c0,-1.484 -0.858,-2.734 -2.074,-3.393c-0.553,-0.308 -1.166,-0.522 -1.831,-0.522l-14.502,0c-2.166,0 -3.905,1.758 -3.905,3.915l0,14.497c0,2.163 1.739,3.91 3.905,3.91l14.502,0c2.149,0 3.905,-1.747 3.905,-3.91l0,-11.366l0,-3.131z"/>
  <path id="svg_12" fill="#EFEFF0" d="m216.653,345.588c0,-2.154 -1.763,-3.9 -3.92,-3.9l-14.497,0c-2.164,0 -3.92,1.746 -3.92,3.9l0,14.507c0,2.151 1.756,3.905 3.92,3.905l14.497,0c2.156,0 3.92,-1.754 3.92,-3.905l0,-14.507z"/>
  <path id="svg_13" fill="#EFEFF0" d="m216.653,313.637c0,-2.151 -1.763,-3.905 -3.92,-3.905l-14.497,0c-2.164,0 -3.92,1.753 -3.92,3.905l0,14.509c0,2.151 1.756,3.9 3.92,3.9l14.497,0c2.156,0 3.92,-1.749 3.92,-3.9l0,-14.509z"/>
  <path id="svg_14" fill="#EFEFF0" d="m216.653,281.699c0,-2.156 -1.763,-3.915 -3.92,-3.915l-14.497,0c-2.164,0 -3.92,1.758 -3.92,3.915l0,3.662l0,3.57l0,3.57l0,3.694c0,2.163 1.756,3.91 3.92,3.91l14.497,0c2.156,0 3.92,-1.747 3.92,-3.91l0,-3.694l0,-3.57l0,-3.57l0,-3.662z"/>
  <path id="svg_15" fill="#EFEFF0" d="m253.683,345.588c0,-2.154 -1.749,-3.9 -3.905,-3.9l-14.504,0c-2.156,0 -3.902,1.746 -3.902,3.9l0,14.507c0,2.151 1.746,3.905 3.902,3.905l14.504,0c2.156,0 3.905,-1.754 3.905,-3.905l0,-14.507z"/>
  <path id="svg_16" fill="#EFEFF0" d="m253.683,313.637c0,-2.151 -1.749,-3.905 -3.905,-3.905l-14.504,0c-2.156,0 -3.902,1.753 -3.902,3.905l0,14.509c0,2.151 1.746,3.9 3.902,3.9l14.504,0c2.156,0 3.905,-1.749 3.905,-3.9l0,-14.509z"/>
  <path id="svg_17" fill="#EFEFF0" d="m253.683,281.699c0,-2.156 -1.749,-3.915 -3.905,-3.915l-14.504,0c-2.156,0 -3.902,1.758 -3.902,3.915l0,3.662l0,3.57l0,3.57l0,3.694c0,2.163 1.746,3.91 3.902,3.91l14.504,0c2.156,0 3.905,-1.747 3.905,-3.91l0,-3.694l0,-3.57l0,-3.57l0,-3.662z"/>
  <path id="svg_18" fill="#EFEFF0" d="m174.314,314.113l-11.741,0c-0.512,0 -0.922,0.407 -0.922,0.905l0,11.751c0,0.502 0.41,0.912 0.922,0.912l11.741,0c0.512,0 0.912,-0.41 0.912,-0.912l0,-11.751c0,-0.498 -0.4,-0.905 -0.912,-0.905z"/>
  <path id="svg_19" fill="#EFEFF0" d="m211.354,314.113l-11.737,0c-0.512,0 -0.922,0.407 -0.922,0.905l0,11.751c0,0.502 0.41,0.912 0.922,0.912l11.737,0c0.512,0 0.919,-0.41 0.919,-0.912l0,-11.751c0,-0.498 -0.408,-0.905 -0.919,-0.905z"/>
  <path id="svg_20" fill="#EFEFF0" d="m211.354,346.056l-11.737,0c-0.512,0 -0.922,0.41 -0.922,0.912l0,11.751c0,0.502 0.41,0.91 0.922,0.91l11.737,0c0.512,0 0.919,-0.407 0.919,-0.91l0,-11.751c0,-0.502 -0.408,-0.912 -0.919,-0.912z"/>
  <path id="svg_21" fill="#EFEFF0" d="m174.314,282.162l-11.741,0c-0.512,0 -0.922,0.41 -0.922,0.912l0,11.741c0,0.507 0.41,0.917 0.922,0.917l11.741,0c0.512,0 0.912,-0.41 0.912,-0.917l0,-11.741c0,-0.502 -0.4,-0.912 -0.912,-0.912z"/>
  <path id="svg_22" fill="#EFEFF0" d="m211.354,282.162l-11.737,0c-0.512,0 -0.922,0.41 -0.922,0.912l0,2.971l0,2.886l0,2.896l0,2.988c0,0.507 0.41,0.917 0.922,0.917l11.737,0c0.512,0 0.919,-0.41 0.919,-0.917l0,-2.988l0,-2.896l0,-2.886l0,-2.971c0,-0.502 -0.408,-0.912 -0.919,-0.912z"/>
  <path id="svg_23" fill="#EFEFF0" d="m248.398,282.162l-11.742,0c-0.507,0 -0.921,0.41 -0.921,0.912l0,2.971l0,2.886l0,2.896l0,2.988c0,0.507 0.415,0.917 0.921,0.917l11.742,0c0.512,0 0.919,-0.41 0.919,-0.917l0,-2.988l0,-2.896l0,-2.886l0,-2.971c0,-0.502 -0.408,-0.912 -0.919,-0.912z"/>
  <path id="svg_24" fill="#AAB2BC" d="m255.133,243.559c0,-2.433 -0.512,-4.113 -0.99,-5.147c-0.216,-0.471 -0.441,-0.847 -0.597,-1.024l-47.91,0l-21.119,0l-3.565,0l-3.571,0l-16.284,0c-0.509,0.548 -1.569,2.627 -1.569,6.17l0,12.757c0,3.544 1.06,5.618 1.569,6.161l16.284,0l3.571,0l3.565,0l69.028,0c0.485,-0.502 1.434,-2.431 1.548,-5.605c0,-0.197 0.039,-0.35 0.039,-0.556l0,-4.474l0,-8.282l0.001,0z"/>
  <path id="svg_25" fill="#EFEFF0" d="m351.656,232.479c0,-6.316 -5.571,-11.429 -12.443,-11.429l-14.343,0l-3.57,0l-3.566,0l-18.455,0c-6.874,0 -12.443,5.113 -12.443,11.429l0,0.893l0,5.04l0,13.43l0,5.03l0,28.489l0,3.57l0,3.57l0,65.264c0,6.32 5.569,11.443 12.443,11.443l39.935,0c6.871,0 12.443,-5.123 12.443,-11.443l0,-125.286l-0.001,0z"/>
  <rect id="svg_27" fill="#E0E2E4" y="149.037" x="205.637" width="91.277" height="5.037"/>
  <rect id="svg_28" fill="#E0E2E4" y="167.509" x="205.637" width="91.277" height="5.03"/>
  <rect id="svg_29" fill="#E0E2E4" y="185.974" x="205.637" width="91.277" height="5.038"/>
  <path id="svg_30" fill="#FFFFFF" d="m335.289,227.133l-10.42,0l-3.57,0l-3.566,0l-14.536,0c-4.082,0 -7.587,2.571 -9.134,6.239c-0.548,1.288 -0.866,2.712 -0.866,4.208l0,0.832l0,13.43l0,5.03l0,28.489l0,3.57l0,3.57l0,59.484c0,5.761 4.478,10.432 10,10.432l32.091,0c5.518,0 9.995,-4.671 9.995,-10.432l0,-114.405c0.002,-5.768 -4.476,-10.447 -9.994,-10.447z"/>
 </g>
</svg>