<svg width="108" height="108" viewBox="0 0 108 108" fill="none" xmlns="http://www.w3.org/2000/svg">
<circle cx="54" cy="54" r="52.5" stroke="#0098FF" stroke-width="3"/>
<path d="M62.3333 19V36.25H79L62.3333 19ZM58.1667 36.25V19H35.25C31.7982 19 29 21.8961 29 25.4688V81.5312C29 85.1025 31.7982 88 35.25 88H72.75C76.2018 88 79 85.1039 79 81.5312V40.5625H62.4505C60.0286 40.5625 58.1667 38.6354 58.1667 36.25ZM64.4167 75.0625H43.5833C42.4375 75.0625 41.5 74.0922 41.5 72.9062C41.5 71.7203 42.4375 70.75 43.5833 70.75H64.4167C65.5672 70.75 66.5 71.7152 66.5 72.9062C66.5 74.0922 65.5625 75.0625 64.4167 75.0625ZM64.4167 66.4375H43.5833C42.4375 66.4375 41.5 65.4672 41.5 64.2812C41.5 63.0953 42.4375 62.125 43.5833 62.125H64.4167C65.5672 62.125 66.5 63.0902 66.5 64.2812C66.5 65.4672 65.5625 66.4375 64.4167 66.4375ZM66.5 55.6562C66.5 56.8422 65.5625 57.8125 64.4167 57.8125H43.5833C42.4375 57.8125 41.5 56.8422 41.5 55.6562C41.5 54.4703 42.4375 53.5 43.5833 53.5H64.4167C65.5625 53.5 66.5 54.4703 66.5 55.6562Z" fill="black"/>
</svg>
