<svg width="18" height="16" viewBox="0 0 18 16" fill="none" xmlns="http://www.w3.org/2000/svg">
<path d="M1.20586 1.07556C0.538869 1.07556 0 1.58995 0 2.22664C0 2.86333 0.538869 3.37772 1.20586 3.37772H12.0586C12.7256 3.37772 13.2645 2.86333 13.2645 2.22664C13.2645 1.58995 12.7256 1.07556 12.0586 1.07556H1.20586ZM1.20586 6.83096C0.538869 6.83096 0 7.34535 0 7.98204C0 8.61873 0.538869 9.13311 1.20586 9.13311H12.0586C12.7256 9.13311 13.2645 8.61873 13.2645 7.98204C13.2645 7.34535 12.7256 6.83096 12.0586 6.83096H1.20586ZM1.20586 12.5864C0.538869 12.5864 0 13.1007 0 13.7374C0 14.3741 0.538869 14.8885 1.20586 14.8885H12.0586C12.7256 14.8885 13.2645 14.3741 13.2645 13.7374C13.2645 13.1007 12.7256 12.5864 12.0586 12.5864H1.20586Z" fill="black"/>
<path d="M16.1912 3.95324C17.1898 3.95324 18 3.17986 18 2.22662C18 1.27338 17.1898 0.5 16.1912 0.5C15.1926 0.5 14.3824 1.27338 14.3824 2.22662C14.3824 3.17986 15.1926 3.95324 16.1912 3.95324ZM16.1912 15.464C17.1898 15.464 18 14.6906 18 13.7374C18 12.7842 17.1898 12.0108 16.1912 12.0108C15.1926 12.0108 14.3824 12.7842 14.3824 13.7374C14.3824 14.6906 15.1926 15.464 16.1912 15.464ZM18 7.98201C18 7.02878 17.1898 6.2554 16.1912 6.2554C15.1926 6.2554 14.3824 7.02878 14.3824 7.98201C14.3824 8.93525 15.1926 9.70863 16.1912 9.70863C17.1898 9.70863 18 8.93525 18 7.98201Z" fill="black"/>
<path d="M18 13.7374C18 14.7109 17.1733 15.5 16.1535 15.5C15.1337 15.5 14.3071 14.7109 14.3071 13.7374C14.3071 12.764 15.1337 11.9748 16.1535 11.9748C17.1733 11.9748 18 12.764 18 13.7374Z" fill="#7E8189"/>
<path d="M18 7.98201C18 8.95547 17.1733 9.7446 16.1535 9.7446C15.1337 9.7446 14.3071 8.95547 14.3071 7.98201C14.3071 7.00856 15.1337 6.21942 16.1535 6.21942C17.1733 6.21942 18 7.00856 18 7.98201Z" fill="#7E8189"/>
<path d="M16.1912 15.464C17.1898 15.464 18 14.6906 18 13.7374C18 12.7842 17.1898 12.0108 16.1912 12.0108C15.1926 12.0108 14.3824 12.7842 14.3824 13.7374C14.3824 14.6906 15.1926 15.464 16.1912 15.464Z" fill="black"/>
<path d="M18 13.7374C18 14.7109 17.1733 15.5 16.1535 15.5C15.1337 15.5 14.3071 14.7109 14.3071 13.7374C14.3071 12.764 15.1337 11.9748 16.1535 11.9748C17.1733 11.9748 18 12.764 18 13.7374Z" fill="#CCCCCC"/>
</svg>
