<svg class="lds-flat-gear" width="200px"  height="200px"  xmlns="http://www.w3.org/2000/svg" xmlns:xlink="http://www.w3.org/1999/xlink" viewBox="0 0 100 100" preserveAspectRatio="xMidYMid" style="background-image: none; background-position: initial initial; background-repeat: initial initial;"><defs><mask id="lds-flat-gear-159f6dee04aa1"><circle cx="50" cy="50" r="45" fill="#fff"></circle></mask></defs>
<circle cx="50" cy="50" r="45" fill="#6c727f"></circle>
<path d="M28.786796564403573 71.21320343559643 L39.39339828220179 60.60660171779821 A15 15 0 0 1 60.60660171779821 39.39339828220179 L71.21320343559643 28.786796564403577 L171.21320343559643 128.78679656440357 L128.78679656440357 171.21320343559643 Z" fill="rgb(87, 92, 103)" mask="url(#lds-flat-gear-159f6dee04aa1)"></path>
<g transform="translate(50 50)">
<g>
<animateTransform attributeName="transform" type="rotate" values="0;360" keyTimes="0;1" dur="5s" repeatCount="indefinite"></animateTransform><path d="M39.46834174373177 -6.499999999999999 L49.46834174373177 -6.499999999999999 L49.46834174373177 6.499999999999999 L39.46834174373177 6.499999999999999 A40 40 0 0 1 37.43058659531752 14.105005747267034 L37.43058659531752 14.105005747267034 L46.0908406331619 19.105005747267036 L39.59084063316192 30.363335996464734 L30.93058659531753 25.363335996464734 A40 40 0 0 1 25.36333599646474 30.93058659531752 L25.36333599646474 30.93058659531752 L30.36333599646474 39.5908406331619 L19.105005747267043 46.0908406331619 L14.105005747267041 37.43058659531752 A40 40 0 0 1 6.5 39.46834174373177 L6.5 39.46834174373177 L6.500000000000001 49.46834174373177 L-6.499999999999996 49.46834174373177 L-6.4999999999999964 39.46834174373177 A40 40 0 0 1 -14.105005747267027 37.43058659531753 L-14.105005747267027 37.43058659531753 L-19.105005747267025 46.09084063316192 L-30.363335996464734 39.59084063316192 L-25.363335996464734 30.93058659531753 A40 40 0 0 1 -30.93058659531751 25.363335996464755 L-30.93058659531751 25.363335996464755 L-39.590840633161896 30.36333599646476 L-46.0908406331619 19.105005747267047 L-37.43058659531752 14.105005747267043 A40 40 0 0 1 -39.46834174373177 6.5000000000000115 L-39.46834174373177 6.5000000000000115 L-49.46834174373177 6.500000000000012 L-49.46834174373177 -6.500000000000002 L-39.46834174373177 -6.500000000000003 A40 40 0 0 1 -37.430586595317536 -14.105005747267018 L-37.430586595317536 -14.105005747267018 L-46.090840633161925 -19.105005747267015 L-39.59084063316192 -30.36333599646473 L-30.93058659531753 -25.363335996464734 A40 40 0 0 1 -25.36333599646476 -30.930586595317507 L-25.36333599646476 -30.930586595317507 L-30.363335996464762 -39.59084063316189 L-19.10500574726705 -46.0908406331619 L-14.105005747267045 -37.43058659531752 A40 40 0 0 1 -6.500000000000014 -39.46834174373177 L-6.500000000000014 -39.46834174373177 L-6.500000000000016 -49.46834174373177 L6.499999999999997 -49.46834174373177 L6.499999999999999 -39.46834174373177 A40 40 0 0 1 14.105005747266999 -37.430586595317536 L14.105005747266999 -37.430586595317536 L19.105005747266993 -46.090840633161925 L30.363335996464713 -39.590840633161925 L25.36333599646472 -30.930586595317536 A40 40 0 0 1 30.930586595317507 -25.36333599646476 L30.930586595317507 -25.36333599646476 L39.59084063316189 -30.363335996464762 L46.0908406331619 -19.10500574726705 L37.43058659531752 -14.105005747267047 A40 40 0 0 1 39.46834174373177 -6.500000000000017 M0 -25A25 25 0 1 0 0 25 A25 25 0 1 0 0 -25" fill="#ffffff" transform="scale(0.65)"></path></g></g></svg>