<?xml version="1.0" standalone="no"?>
<!DOCTYPE svg PUBLIC "-//W3C//DTD SVG 20010904//EN"
 "http://www.w3.org/TR/2001/REC-SVG-20010904/DTD/svg10.dtd">
<svg version="1.0" xmlns="http://www.w3.org/2000/svg"
 width="256.000000pt" height="256.000000pt" viewBox="0 0 256.000000 256.000000"
 preserveAspectRatio="xMidYMid meet">
<metadata>
Created by potrace 1.15, written by Peter Selinger 2001-2017
</metadata>
<g transform="translate(0.000000,256.000000) scale(0.100000,-0.100000)"
fill="#000000" stroke="none">
<path d="M277 2056 c-16 -23 -17 -87 -17 -718 1 -576 3 -696 15 -711 8 -11 32
-21 57 -24 24 -3 45 -9 48 -13 3 -3 50 -14 105 -23 274 -45 371 -63 385 -72
21 -13 183 -12 212 2 12 6 77 19 143 28 66 9 127 19 135 22 34 14 218 45 265
45 47 0 231 -31 265 -45 8 -3 69 -13 135 -22 66 -9 129 -20 141 -25 12 -4 45
-11 75 -15 45 -6 58 -4 77 13 l22 19 0 699 c-1 558 -3 702 -14 716 -7 10 -33
20 -57 24 -24 4 -48 10 -54 14 -5 4 -50 12 -100 19 -49 7 -99 16 -110 21 -23
9 -212 40 -249 40 -13 0 -26 5 -28 12 -5 15 -190 17 -209 2 -8 -6 -72 -19
-144 -29 -71 -10 -132 -21 -135 -25 -3 -4 -51 -13 -108 -20 -57 -7 -105 -17
-108 -22 -7 -11 -80 -10 -102 2 -9 5 -60 16 -112 25 -254 40 -365 60 -370 66
-3 4 -37 10 -76 14 -68 6 -71 6 -87 -19z m213 -136 c14 -5 77 -16 140 -25 63
-9 122 -20 130 -24 9 -5 40 -12 70 -15 30 -4 63 -10 73 -12 16 -5 17 -43 17
-615 l0 -609 -42 6 c-24 3 -52 9 -63 14 -11 5 -74 16 -140 25 -66 9 -127 19
-135 23 -8 3 -44 11 -80 16 l-65 11 -3 612 -2 612 37 -5 c21 -3 49 -10 63 -14z
m1068 -592 l-3 -613 -60 -8 c-33 -4 -69 -12 -80 -17 -11 -5 -76 -16 -145 -26
-69 -9 -129 -20 -135 -24 -5 -4 -31 -10 -58 -13 l-47 -7 2 613 3 612 70 9 c39
5 72 12 75 15 3 4 64 15 135 25 72 10 135 22 140 26 6 5 28 10 50 13 22 2 43
4 48 5 4 1 6 -274 5 -610z m227 592 c6 -4 66 -15 135 -24 69 -10 132 -20 140
-24 8 -3 44 -11 80 -16 l65 -11 3 -613 2 -613 -37 6 c-21 4 -49 10 -63 15 -14
5 -77 16 -140 25 -63 9 -122 19 -130 23 -8 3 -46 11 -85 17 l-70 10 -3 612 -2
613 47 -7 c27 -3 53 -9 58 -13z"/>
<path d="M551 1745 c-16 -14 -33 -36 -36 -48 -3 -12 -11 -32 -17 -44 -6 -12
-7 -30 -3 -40 5 -10 16 -45 25 -78 21 -70 61 -167 79 -189 18 -22 101 -18 101
5 0 5 13 37 29 72 16 36 33 81 36 101 4 20 11 39 16 42 5 3 9 32 9 64 0 55 -3
62 -38 100 -38 39 -41 40 -105 40 -56 0 -70 -4 -96 -25z"/>
<path d="M431 1242 c-19 -35 -14 -83 9 -89 11 -3 20 -9 20 -13 0 -4 60 -15
133 -25 72 -10 136 -22 142 -26 5 -5 33 -9 63 -9 61 0 81 15 82 61 0 44 -29
59 -147 75 -59 8 -116 19 -126 25 -9 5 -50 12 -91 16 -68 5 -75 4 -85 -15z"/>
<path d="M432 1078 c-7 -7 -12 -28 -12 -48 0 -44 15 -60 56 -60 18 0 34 -4 36
-9 2 -6 38 -13 81 -17 67 -6 80 -4 97 11 24 21 27 77 6 94 -14 12 -174 40
-226 41 -15 0 -31 -5 -38 -12z"/>
<path d="M432 918 c-14 -14 -16 -76 -3 -96 5 -8 52 -20 117 -30 60 -9 111 -20
112 -24 2 -4 26 -8 54 -8 56 0 88 24 88 64 0 39 -37 57 -146 75 -56 9 -106 20
-110 24 -12 12 -99 8 -112 -5z"/>
<path d="M1458 1792 c-2 -4 -61 -16 -133 -26 -71 -10 -134 -22 -140 -27 -5 -5
-21 -9 -36 -9 -15 0 -39 -4 -53 -10 -23 -8 -26 -15 -26 -55 0 -40 3 -45 27
-51 31 -8 222 13 238 26 5 4 42 11 80 15 93 9 117 25 113 72 -2 29 -10 40 -35
54 -17 10 -33 15 -35 11z"/>
<path d="M1363 1613 c-18 -2 -33 -8 -33 -12 0 -4 -49 -14 -110 -21 -60 -7
-110 -17 -110 -21 0 -3 -9 -9 -20 -12 -16 -4 -20 -14 -20 -45 0 -58 15 -66
110 -59 43 4 87 11 97 16 10 5 62 16 117 25 107 16 136 32 136 76 0 54 -45 68
-167 53z"/>
<path d="M1365 1444 c-55 -8 -109 -18 -120 -23 -11 -6 -47 -13 -80 -16 -84
-10 -95 -17 -95 -67 0 -27 6 -45 18 -54 19 -15 98 -19 106 -6 3 5 53 15 111
22 58 7 105 17 105 21 0 5 17 9 38 9 53 0 82 23 82 64 0 60 -29 69 -165 50z"/>
<path d="M1230 1213 c-29 -11 -58 -48 -70 -90 -11 -35 -10 -53 5 -117 10 -42
22 -76 26 -76 5 0 9 -7 9 -15 0 -25 50 -126 66 -132 8 -3 29 -2 47 1 29 5 36
14 60 67 15 34 30 73 34 88 3 14 11 29 16 32 5 4 12 41 15 83 4 68 2 80 -19
110 -13 19 -34 40 -47 45 -24 11 -116 14 -142 4z"/>
<path d="M1870 1758 c-13 -7 -35 -29 -48 -48 -20 -30 -23 -44 -20 -95 3 -33
14 -81 26 -107 12 -26 22 -53 23 -60 0 -7 13 -35 28 -63 26 -46 31 -50 66 -50
27 0 41 5 49 20 6 11 14 22 17 25 4 3 14 28 23 55 9 28 25 66 34 85 11 23 17
59 17 107 0 68 -2 74 -32 105 -28 28 -40 32 -95 35 -39 3 -72 -1 -88 -9z"/>
<path d="M1726 1239 c-22 -32 -20 -54 7 -82 18 -19 42 -26 137 -40 192 -28
230 -23 230 33 0 45 -20 59 -100 70 -41 6 -82 15 -92 20 -9 5 -50 12 -91 16
-70 6 -75 5 -91 -17z"/>
<path d="M1737 1078 c-23 -18 -30 -60 -15 -81 17 -22 56 -33 225 -61 72 -11
135 -25 139 -29 14 -13 61 -7 77 11 50 55 22 106 -64 116 -30 4 -63 11 -74 16
-19 9 -217 40 -253 40 -10 0 -26 -6 -35 -12z"/>
<path d="M1733 915 c-26 -29 -26 -64 -2 -89 19 -18 43 -26 111 -36 117 -16
148 -6 148 52 0 40 -23 56 -95 63 -36 4 -65 11 -65 16 0 14 -84 10 -97 -6z"/>
</g>
</svg>
