<?xml version="1.0" encoding="UTF-8"?>
<svg width="70px" height="70px" viewBox="0 0 70 70" version="1.1" xmlns="http://www.w3.org/2000/svg" xmlns:xlink="http://www.w3.org/1999/xlink">
    <!-- Generator: Sketch 49.1 (51147) - http://www.bohemiancoding.com/sketch -->
    <title>Extract Assignees</title>
    <desc>Created with Sketch.</desc>
    <defs></defs>
    <g id="Extract-Assignees" stroke="none" stroke-width="1" fill="none" fill-rule="evenodd">
        <g id="Group-2" transform="translate(2.000000, 2.000000)">
            <g id="Group" fill="#FFFFFF" stroke="#0098FF" stroke-width="3">
                <g id="Group-88">
                    <circle id="Oval-7" cx="33" cy="33" r="33"></circle>
                </g>
            </g>
            <rect id="Rectangle-50" fill="#0A142B" x="39" y="35.1666667" width="14.7529412" height="6.14705882" rx="2"></rect>
            <circle id="Oval-7" fill="#FFFFFF" cx="50.0313725" cy="39.5313725" r="1"></circle>
            <circle id="Oval-7" fill="#FFFFFF" cx="52.1147059" cy="39.5313725" r="1"></circle>
            <rect id="Rectangle-46" fill="#0A142B" x="44.4166667" y="26" width="3.68823529" height="6.5835" rx="1"></rect>
            <path d="M45.4307983,37.1336247 L40.6666667,31.4166667 L51.7313725,31.4166667 L46.9672409,37.1336247 C46.6136768,37.5579016 45.9831121,37.6152256 45.5588352,37.2616615 C45.5123721,37.2229423 45.4695175,37.1800877 45.4307983,37.1336247 Z" id="Triangle" fill="#FFFFFF"></path>
            <path d="M45.6637492,35.3612355 L41.5,30.5833333 L51.3352941,30.5833333 L47.1715449,35.3612355 C46.8086985,35.7776018 46.1770217,35.8209882 45.7606554,35.4581418 C45.7261753,35.4280937 45.6937972,35.3957156 45.6637492,35.3612355 Z" id="Triangle" fill="#0A142B"></path>
            <path d="M17.8410618,50.7566654 C27.3905717,50.7566654 35.1319791,42.9933359 35.1319791,33.4167837 C35.1319791,30.8940355 26.5930599,31.9068232 20.9092696,37.2366302 C15.9785414,41.8602753 13.4050586,50.7566654 17.8410618,50.7566654 Z" id="Oval-17" fill="#0A142B" transform="translate(25.345191, 41.428464) rotate(42.000000) translate(-25.345191, -41.428464) "></path>
            <rect id="Rectangle-54" fill="#0A142B" x="18" y="12" width="14" height="22" rx="7"></rect>
            <rect id="Rectangle-54" fill="#0A142B" x="21" y="26" width="8" height="15" rx="4"></rect>
            <rect id="Rectangle-54" fill="#0A142B" x="17" y="22" width="2" height="5" rx="1"></rect>
            <rect id="Rectangle-54" fill="#0A142B" x="31" y="22" width="2" height="5" rx="1"></rect>
        </g>
    </g>
</svg>