<?xml version="1.0" encoding="UTF-8"?>
<svg width="70px" height="70px" viewBox="0 0 70 70" version="1.1" xmlns="http://www.w3.org/2000/svg" xmlns:xlink="http://www.w3.org/1999/xlink">
    <!-- Generator: Sketch 49.1 (51147) - http://www.bohemiancoding.com/sketch -->
    <title>Guides</title>
    <desc>Created with Sketch.</desc>
    <defs></defs>
    <g id="Guides" stroke="none" stroke-width="1" fill="none" fill-rule="evenodd">
        <g id="Group" transform="translate(2.000000, 2.000000)" fill="#FFFFFF" stroke="#0098FF" stroke-width="3">
            <g id="Group-88">
                <circle id="Oval-7" cx="33" cy="33" r="33"></circle>
            </g>
        </g>
        <g transform="translate(14.000000, 14.000000)">
            <path d="M0.0113589638,34.1779876 C0.0113589638,34.1779876 2.6690794,28.5549476 7.98452027,17.3088677 L11.9073401,23.0882649 L20.3419132,16.083611 L29.2256201,23.0882649 L30.9999454,39.2460022 L20.3419132,32.5506823 L20.3419132,16.083611" id="Path-8" stroke="#0A142B" stroke-width="2"></path>
            <polyline id="Path-11" stroke="#0A142B" stroke-width="2" points="0.604694998 33.0378497 10.0880422 39.6163077 11.8766801 23.1521335"></polyline>
            <polyline id="Path-13" stroke="#0A142B" stroke-width="2" points="31.7257196 40.4797092 40.4498241 33.9551185 37.157846 25.1203527"></polyline>
            <path d="M10.3878803,40.6533203 C17.0196927,35.5172761 20.345191,32.7925934 20.3643753,32.4792722" id="Path-12" stroke="#0A142B" stroke-width="2"></path>
            <path d="M33.955698,22.8597726 C38.0978336,22.8597726 41,11.6421356 41,7.5 C41,3.35786438 37.6421356,0 33.5,0 C29.3578644,0 26,3.35786438 26,7.5 C26,11.6421356 29.8135624,22.8597726 33.955698,22.8597726 Z" id="Oval-16" fill="#0A142B"></path>
            <circle id="Oval-15" fill="#FFFFFF" cx="33.5" cy="7.5" r="4.5"></circle>
        </g>
    </g>
</svg>