<svg width="18" height="18" viewBox="0 0 18 18" fill="none" xmlns="http://www.w3.org/2000/svg">
<path d="M15.75 10H12.75C12.3375 10 12 10.315 12 10.7V16.3C12 16.685 12.3375 17 12.75 17H17.25C17.6625 17 18 16.685 18 16.3V12.1L15.75 10ZM16.5 15.6H13.5V14.9H16.5V15.6ZM16.5 14.2H13.5V13.5H16.5V14.2ZM15.375 12.45V10.525L17.4375 12.45H15.375Z" fill="black"/>
<path d="M11.9633 6.56988C11.7419 6.37301 11.7419 6.02699 11.9633 5.83012V5.83012C12.151 5.66321 12.434 5.66341 12.6215 5.83057L14.1717 7.21267V2.93333H9.38952C9.13178 2.93333 8.92285 2.7244 8.92285 2.46667V2.46667C8.92285 2.20893 9.13179 2 9.38952 2H14.7215C14.9976 2 15.2215 2.22386 15.2215 2.5V7.21267L16.7717 5.83057C16.9592 5.66341 17.2422 5.66321 17.4299 5.83012V5.83012C17.6513 6.02699 17.6513 6.37301 17.4299 6.56988L15.0288 8.70463C14.8394 8.87307 14.5538 8.87307 14.3644 8.70463L11.9633 6.56988Z" fill="black"/>
<path d="M5.88239 11.4301C6.10383 11.627 6.10383 11.973 5.88239 12.1699V12.1699C5.69466 12.3368 5.41167 12.3366 5.22417 12.1694L3.67398 10.7873L3.67398 15.0667H8.45618C8.71392 15.0667 8.92285 15.2756 8.92285 15.5333V15.5333C8.92285 15.7911 8.71392 16 8.45618 16H3.12421C2.84807 16 2.62421 15.7761 2.62421 15.5L2.62421 10.7873L1.07402 12.1694C0.886521 12.3366 0.60353 12.3368 0.4158 12.1699V12.1699C0.194364 11.973 0.194364 11.627 0.4158 11.4301L2.81687 9.29537C3.00633 9.12693 3.29186 9.12693 3.48132 9.29537L5.88239 11.4301Z" fill="black"/>
<path d="M6 2V2.625C6 3.17578 4.65625 3.625 3 3.625C1.34375 3.625 0 3.17578 0 2.625V2C0 1.44922 1.34375 1 3 1C4.65625 1 6 1.44922 6 2ZM6 3.40625V4.8125C6 5.36328 4.65625 5.8125 3 5.8125C1.34375 5.8125 0 5.36328 0 4.8125V3.40625C0.644531 3.85938 1.82421 4.07032 3 4.07032C4.17579 4.07032 5.35546 3.85938 6 3.40625ZM6 5.59375V7C6 7.55078 4.65625 8 3 8C1.34375 8 0 7.55078 0 7V5.59375C0.644531 6.04688 1.82421 6.25782 3 6.25782C4.17579 6.25782 5.35546 6.04688 6 5.59375Z" fill="black"/>
</svg>
