<svg width="235" height="235" viewBox="0 0 235 235" fill="none" xmlns="http://www.w3.org/2000/svg">
<rect width="235" height="235" fill="#F5F5F5"/>
<rect width="1741" height="2576" transform="translate(-446 -792)" fill="white"/>
<path d="M104.508 0.728639C169.268 -6.43544 227.599 40.0373 234.793 104.528C238.423 137.066 193.336 104.002 174.139 127.562C155.286 150.7 162.647 230.722 130.56 234.271C65.7992 241.435 7.46848 194.963 0.27447 130.472C-3.80105 93.9365 38.4833 133.219 62.4769 108.889C80.8363 90.2716 76.4352 3.83415 104.508 0.728639Z" fill="#E5F5FF"/>
<rect x="97" y="75" width="107.333" height="84.3333" fill="#F5F7FA"/>
<rect x="27.416" y="70.0416" width="72.8333" height="96.7917" fill="white"/>
<mask id="path-4-inside-1_203_446" fill="white">
<path d="M198 48C210.686 48 221 58.2961 221 71V163C221 175.686 210.686 186 198 186H37C24.2961 186 14 175.686 14 163V71C14 58.2961 24.2961 48 37 48H198ZM111.75 94C108.588 94 106 96.5875 106 99.75C106 102.912 108.588 105.5 111.75 105.5H192.25C195.412 105.5 198 102.912 198 99.75C198 96.5875 195.412 94 192.25 94H111.75ZM111.75 140H192.25C195.412 140 198 137.412 198 134.25C198 131.088 195.412 128.5 192.25 128.5H111.75C108.588 128.5 106 131.088 106 134.25C106 137.412 108.588 140 111.75 140ZM72.9734 82.5C72.9734 78.5109 69.7391 75.2766 65.4266 75.2766C61.7609 75.2766 58.5266 78.5109 58.5266 82.5V84.6562C56.5141 85.0875 54.2859 85.6984 52.8125 86.4891C47.4434 88.9328 42.7752 93.4609 41.6395 100.038C41.0034 103.703 41.3412 107.261 42.865 110.459C44.3564 113.622 46.7031 115.85 49.0858 117.467C53.2437 120.306 58.7422 121.959 62.9469 123.217L63.7375 123.433C68.7687 124.978 72.1469 126.092 74.2672 127.638C75.1656 128.284 75.4891 128.788 75.5969 129.111C75.7406 129.398 75.9562 130.045 75.7047 131.483C75.4891 132.741 74.8062 133.819 72.8297 134.645C70.6375 135.58 67.0797 136.047 62.4797 135.328C60.3234 134.969 56.4781 133.675 53.0641 132.525C52.2734 132.238 51.4828 131.986 50.7641 131.734C47.005 130.477 42.9333 132.525 41.6791 136.298C40.4248 140.072 42.4625 144.133 46.2288 145.067C46.6636 145.534 47.2027 145.714 47.8208 145.93C50.3328 146.9 55.1125 148.409 58.5266 149.2V151.5C58.5266 155.489 61.7609 158.723 65.4266 158.723C69.7391 158.723 72.9734 155.489 72.9734 151.5V149.523C74.8781 149.164 76.7469 148.302 78.4719 147.87C84.15 145.462 88.6781 140.791 89.8641 133.963C90.5109 130.225 90.2234 126.631 88.7859 123.361C87.3844 120.127 85.1203 117.755 82.7125 116.03C78.3641 112.831 72.5422 111.106 68.1938 109.777L67.5828 109.705C62.8031 108.159 59.3531 107.081 57.1609 105.572C56.2266 104.925 55.9391 104.494 55.8672 104.314C55.7953 104.17 55.5797 103.739 55.7953 102.517C55.9391 101.798 56.4781 100.612 58.7422 99.6063C60.7547 98.5641 64.6359 97.9891 69.0203 98.3484C70.6016 98.9234 75.4531 99.8578 76.8547 100.217C80.6641 101.259 84.6172 98.9594 85.6234 95.1141C86.6656 91.3047 84.3656 87.3516 80.5203 86.3453C78.9391 85.9141 75.3453 85.1953 72.9734 84.7641V82.5Z"/>
</mask>
<path d="M198 48C210.686 48 221 58.2961 221 71V163C221 175.686 210.686 186 198 186H37C24.2961 186 14 175.686 14 163V71C14 58.2961 24.2961 48 37 48H198ZM111.75 94C108.588 94 106 96.5875 106 99.75C106 102.912 108.588 105.5 111.75 105.5H192.25C195.412 105.5 198 102.912 198 99.75C198 96.5875 195.412 94 192.25 94H111.75ZM111.75 140H192.25C195.412 140 198 137.412 198 134.25C198 131.088 195.412 128.5 192.25 128.5H111.75C108.588 128.5 106 131.088 106 134.25C106 137.412 108.588 140 111.75 140ZM72.9734 82.5C72.9734 78.5109 69.7391 75.2766 65.4266 75.2766C61.7609 75.2766 58.5266 78.5109 58.5266 82.5V84.6562C56.5141 85.0875 54.2859 85.6984 52.8125 86.4891C47.4434 88.9328 42.7752 93.4609 41.6395 100.038C41.0034 103.703 41.3412 107.261 42.865 110.459C44.3564 113.622 46.7031 115.85 49.0858 117.467C53.2437 120.306 58.7422 121.959 62.9469 123.217L63.7375 123.433C68.7687 124.978 72.1469 126.092 74.2672 127.638C75.1656 128.284 75.4891 128.788 75.5969 129.111C75.7406 129.398 75.9562 130.045 75.7047 131.483C75.4891 132.741 74.8062 133.819 72.8297 134.645C70.6375 135.58 67.0797 136.047 62.4797 135.328C60.3234 134.969 56.4781 133.675 53.0641 132.525C52.2734 132.238 51.4828 131.986 50.7641 131.734C47.005 130.477 42.9333 132.525 41.6791 136.298C40.4248 140.072 42.4625 144.133 46.2288 145.067C46.6636 145.534 47.2027 145.714 47.8208 145.93C50.3328 146.9 55.1125 148.409 58.5266 149.2V151.5C58.5266 155.489 61.7609 158.723 65.4266 158.723C69.7391 158.723 72.9734 155.489 72.9734 151.5V149.523C74.8781 149.164 76.7469 148.302 78.4719 147.87C84.15 145.462 88.6781 140.791 89.8641 133.963C90.5109 130.225 90.2234 126.631 88.7859 123.361C87.3844 120.127 85.1203 117.755 82.7125 116.03C78.3641 112.831 72.5422 111.106 68.1938 109.777L67.5828 109.705C62.8031 108.159 59.3531 107.081 57.1609 105.572C56.2266 104.925 55.9391 104.494 55.8672 104.314C55.7953 104.17 55.5797 103.739 55.7953 102.517C55.9391 101.798 56.4781 100.612 58.7422 99.6063C60.7547 98.5641 64.6359 97.9891 69.0203 98.3484C70.6016 98.9234 75.4531 99.8578 76.8547 100.217C80.6641 101.259 84.6172 98.9594 85.6234 95.1141C86.6656 91.3047 84.3656 87.3516 80.5203 86.3453C78.9391 85.9141 75.3453 85.1953 72.9734 84.7641V82.5Z" fill="#7FCBFF" stroke="#0A142B" stroke-opacity="0.3" stroke-width="8" mask="url(#path-4-inside-1_203_446)"/>
</svg>
