<svg width="235" height="235" viewBox="0 0 235 235" fill="none" xmlns="http://www.w3.org/2000/svg">
<path d="M104.508 0.728639C169.268 -6.43544 227.599 40.0373 234.793 104.528C238.423 137.066 193.336 104.002 174.139 127.562C155.286 150.7 162.647 230.722 130.56 234.271C65.7992 241.435 7.46848 194.963 0.27447 130.472C-3.80105 93.9365 38.4833 133.219 62.4769 108.889C80.8363 90.2716 76.4352 3.83415 104.508 0.728639Z" fill="#E5F5FF"/>
<path d="M105.178 33C105.178 26.3737 110.878 21 117.178 21C124.153 21 129.515 26.3737 129.515 33H187.04C188.615 33 190.153 33.6337 191.278 34.7587L209.278 52.7588C211.603 55.0988 211.603 58.9125 209.278 61.2375L191.278 79.2375C190.153 80.3625 188.615 81 187.04 81H45.1777C38.8889 81 33.1777 75.6375 33.1777 69V45C33.1777 38.3737 38.8889 33 45.1777 33H105.178ZM201.515 141C201.515 147.637 196.153 153 189.515 153H48.0014C46.4077 153 44.8814 152.362 43.7564 151.237L25.7564 133.237C23.4145 130.912 23.4145 127.088 25.7564 124.763L43.7564 106.762C44.8814 105.637 46.4077 104.663 48.0014 104.663H105.178V92.6625H129.515V104.663H189.515C196.153 104.663 201.515 110.363 201.515 116.663V141ZM117.178 213C110.878 213 105.178 207.637 105.178 201V165H129.515V201C129.515 207.637 124.153 213 117.178 213Z" fill="#F5F7FA"/>
<path d="M105.178 35H107.178V33C107.178 27.5132 111.947 23 117.178 23C123.083 23 127.515 27.5132 127.515 33V35H129.515H187.04C188.085 35 189.113 35.4229 189.863 36.173L207.859 54.1684C207.86 54.1696 207.861 54.1707 207.862 54.1719C209.411 55.7347 209.404 58.283 207.863 59.8233L189.863 77.8233C189.111 78.5756 188.081 79 187.04 79H45.1777C39.9558 79 35.1777 74.4956 35.1777 69V45C35.1777 39.5144 39.957 35 45.1777 35H105.178ZM27.1706 131.823L27.1655 131.818C25.6115 130.275 25.6115 127.725 27.1655 126.182L27.1706 126.177L45.1706 108.177C46.141 107.206 47.1845 106.663 48.0014 106.663H105.178H107.178V104.663V94.6625H127.515V104.663V106.663H129.515H189.515C195.012 106.663 199.515 111.431 199.515 116.663V141C199.515 146.533 195.048 151 189.515 151H48.0014C46.9421 151 45.9234 150.576 45.1706 149.823L27.1706 131.823ZM117.178 211C111.946 211 107.178 206.497 107.178 201V167H127.515V201C127.515 206.497 123.085 211 117.178 211Z" stroke="#0A142B" stroke-opacity="0.3" stroke-width="4"/>
<rect x="59.5156" y="47" width="119" height="20" rx="10" fill="#FFEAAC"/>
<rect x="61.5156" y="49" width="115" height="16" rx="8" stroke="#0A142B" stroke-opacity="0.3" stroke-width="4"/>
<path d="M201.515 141C201.515 147.638 196.153 153 189.515 153H48.0014C46.4077 153 44.8814 152.363 43.7564 151.238L25.7564 133.238C23.4145 130.913 23.4145 127.088 25.7564 124.763L43.7564 106.763C44.8814 105.638 46.4077 104.663 48.0014 104.663H105.178V92.6626H129.515V104.663H189.515C196.153 104.663 201.515 110.363 201.515 116.663V141ZM117.178 213C110.878 213 105.178 207.638 105.178 201V165H129.515V201C129.515 207.638 124.153 213 117.178 213Z" fill="#7FCBFF"/>
<path d="M27.1706 131.823L27.1655 131.818C25.6115 130.275 25.6115 127.725 27.1655 126.182L27.1706 126.177L45.1706 108.177C46.141 107.206 47.1845 106.663 48.0014 106.663H105.178H107.178V104.663V94.6626H127.515V104.663V106.663H129.515H189.515C195.012 106.663 199.515 111.431 199.515 116.663V141C199.515 146.533 195.048 151 189.515 151H48.0014C46.9421 151 45.9234 150.576 45.1706 149.823L27.1706 131.823ZM117.178 211C111.946 211 107.178 206.497 107.178 201V167H127.515V201C127.515 206.497 123.085 211 117.178 211Z" stroke="#0A142B" stroke-opacity="0.3" stroke-width="4"/>
<rect x="60.5156" y="119" width="115" height="16" rx="8" fill="#F5F7FA" stroke="#5C94C0" stroke-width="4"/>
</svg>
