<svg width="235" height="235" viewBox="0 0 235 235" fill="none" xmlns="http://www.w3.org/2000/svg">
<path d="M104.508 0.728639C169.268 -6.43544 227.599 40.0373 234.793 104.528C238.423 137.066 193.336 104.002 174.139 127.562C155.286 150.7 162.647 230.722 130.56 234.271C65.7992 241.435 7.46848 194.963 0.27447 130.472C-3.80105 93.9365 38.4833 133.219 62.4769 108.889C80.8363 90.2716 76.4352 3.83415 104.508 0.728639Z" fill="#E5F5FF"/>
<path d="M155.173 159.764L155.367 204.167C155.367 204.943 155.311 205.664 155.228 206.413V210.906C155.228 217.036 150.256 222 144.117 222H139.672C139.366 222 139.061 221.75 138.755 221.972C138.366 221.75 137.977 222 137.589 222H121.893C115.754 222 110.782 217.036 110.782 210.906V186.5C110.782 181.591 106.809 177.625 101.893 177.625H84.1141C79.1972 177.625 75.2248 181.591 75.2248 186.5V210.906C75.2248 217.036 70.2524 222 64.1132 222H48.5848C48.1681 222 47.7514 221.972 47.3348 221.945C47.0014 221.972 46.6681 222 46.3347 222H41.8901C35.7537 222 30.7785 217.036 30.7785 210.906V179.844C30.7785 179.594 30.7868 179.317 30.8035 179.067V159.764H21.9031C16.8946 159.764 13 155.854 13 150.861C13 148.365 13.8345 146.146 15.7807 144.205L87.0031 82.2232C88.9476 80.2779 91.1699 80 93.1144 80C95.059 80 97.2813 80.5558 98.9758 81.9453L128.56 107.929V97.75C128.56 92.8493 132.533 88.875 137.45 88.875H146.339C151.256 88.875 155.228 92.8493 155.228 97.75V131.309L169.895 144.205C172.118 146.146 173.257 148.365 172.951 150.861C172.951 155.854 168.784 159.764 164.062 159.764H155.173Z" fill="#7FCBFF"/>
<path d="M155.173 157.764H153.164L153.173 159.773L153.367 204.167C153.367 204.168 153.367 204.17 153.367 204.172C153.367 204.848 153.319 205.489 153.24 206.192L153.228 206.302V206.413V210.906C153.228 215.928 149.154 220 144.117 220H139.843C139.797 219.987 139.731 219.969 139.656 219.953C139.481 219.913 139.164 219.854 138.781 219.893C138.763 219.895 138.745 219.897 138.727 219.9C138.346 219.855 138.024 219.898 137.821 219.934C137.73 219.95 137.649 219.968 137.595 219.98L137.547 219.99C137.529 219.994 137.515 219.997 137.503 220H121.893C116.856 220 112.782 215.928 112.782 210.906V186.5C112.782 180.483 107.911 175.625 101.893 175.625H84.1141C78.0957 175.625 73.2248 180.483 73.2248 186.5V210.906C73.2248 215.928 69.1508 220 64.1132 220H48.5848C48.2457 220 47.8955 219.977 47.4676 219.949L47.3182 219.939L47.1689 219.951C46.8215 219.98 46.5711 220 46.3347 220H41.8901C36.8549 220 32.7785 215.928 32.7785 210.906V179.844C32.7785 179.634 32.7857 179.401 32.7991 179.2L32.8035 179.134V179.067V159.764V157.764H30.8035H21.9031C18.0015 157.764 15 154.751 15 150.861C15 148.897 15.6238 147.208 17.1474 145.667L88.316 83.7319L88.3684 83.6863L88.4176 83.6371C89.806 82.2482 91.3731 82 93.1144 82C94.7163 82 96.4376 82.4626 97.6835 83.4721L127.241 109.431L130.56 112.347V107.929V97.75C130.56 93.9557 133.636 90.875 137.45 90.875H146.339C150.153 90.875 153.228 93.9557 153.228 97.75V131.309V132.213L153.908 132.811L168.575 145.707L168.58 145.711C170.488 147.378 171.165 148.991 170.966 150.618L170.951 150.739V150.861C170.951 154.714 167.715 157.764 164.062 157.764H155.173Z" stroke="#0A142B" stroke-opacity="0.3" stroke-width="4"/>
<circle cx="173" cy="62" r="50" fill="#F5F7FA"/>
<circle cx="173" cy="62" r="48.25" stroke="#0A142B" stroke-opacity="0.3" stroke-width="3.5"/>
<path d="M195.868 77.761L195.237 78.625L195.993 79.3815L213.797 97.1961L213.798 97.1964C215.067 98.4658 215.067 100.528 213.798 101.798C212.528 103.067 210.465 103.067 209.195 101.798C209.195 101.798 209.195 101.798 209.195 101.798L191.391 83.9836L190.633 83.2253L189.768 83.8588C185.139 87.2496 179.433 89.2414 173.251 89.2414C157.783 89.2414 145.25 76.7106 145.25 61.2457C145.25 45.7809 157.783 33.25 173.251 33.25C188.72 33.25 201.253 45.7809 201.253 61.2457C201.253 67.4244 199.248 73.1298 195.868 77.761ZM168.626 73.6189C168.626 76.1795 170.691 78.2434 173.251 78.2434C175.812 78.2434 177.877 76.1795 177.877 73.6189V65.8702H185.627C188.188 65.8702 190.252 63.8063 190.252 61.2457C190.252 58.6851 188.188 56.6212 185.627 56.6212H177.877V48.8725C177.877 46.3119 175.812 44.248 173.251 44.248C170.691 44.248 168.626 46.3119 168.626 48.8725V56.6212H160.876C158.315 56.6212 156.251 58.6851 156.251 61.2457C156.251 63.8063 158.315 65.8702 160.876 65.8702H168.626V73.6189Z" fill="white" stroke="#5C94C0" stroke-width="2.5"/>
<circle cx="173" cy="61" r="19" fill="white"/>
<rect x="158.75" y="58.75" width="28.5" height="15.5" fill="white" stroke="#5C94C0" stroke-width="1.5"/>
<path d="M164.429 48.125H165.179V47.375V45.1875C165.179 44.3771 165.815 43.75 166.571 43.75C167.328 43.75 167.964 44.3771 167.964 45.1875V47.375V48.125H168.714H177.286H178.036V47.375V45.1875C178.036 44.3771 178.672 43.75 179.429 43.75C180.185 43.75 180.821 44.3771 180.821 45.1875V47.375V48.125H181.571H184.786C186.132 48.125 187.25 49.2443 187.25 50.6562V53.1875H158.75V50.6562C158.75 49.2443 159.868 48.125 161.214 48.125H164.429ZM158.75 74.7188V56.875H187.25V74.7188C187.25 76.1307 186.132 77.25 184.786 77.25H161.214C159.868 77.25 158.75 76.1307 158.75 74.7188ZM175.357 61.5938C175.357 60.285 174.319 59.2031 173 59.2031C171.681 59.2031 170.643 60.285 170.643 61.5938V64.6719H167.643C166.324 64.6719 165.286 65.7538 165.286 67.0625C165.286 68.3712 166.324 69.4531 167.643 69.4531H170.643V72.5312C170.643 73.84 171.681 74.9219 173 74.9219C174.319 74.9219 175.357 73.84 175.357 72.5312V69.4531H178.357C179.676 69.4531 180.714 68.3712 180.714 67.0625C180.714 65.7538 179.676 64.6719 178.357 64.6719H175.357V61.5938Z" fill="#B0E6CC" stroke="#5C94C0" stroke-width="1.5"/>
<path d="M164.429 48.125H165.179V47.375V45.1875C165.179 44.3771 165.815 43.75 166.571 43.75C167.328 43.75 167.964 44.3771 167.964 45.1875V47.375V48.125H168.714H177.286H178.036V47.375V45.1875C178.036 44.3771 178.672 43.75 179.429 43.75C180.185 43.75 180.821 44.3771 180.821 45.1875V47.375V48.125H181.571H184.786C186.132 48.125 187.25 49.2443 187.25 50.6562V53.1875H158.75V50.6562C158.75 49.2443 159.868 48.125 161.214 48.125H164.429Z" fill="#5C94C0" stroke="#5C94C0" stroke-width="1.5"/>
</svg>
