<svg width="193" height="192" viewBox="0 0 193 192" fill="none" xmlns="http://www.w3.org/2000/svg">
<path d="M85.8852 0.595313C138.796 -5.25789 186.453 32.7113 192.331 85.4018C195.296 111.986 158.46 84.9721 142.775 104.221C127.372 123.125 133.386 188.505 107.17 191.405C54.2593 197.258 6.60191 159.289 0.724248 106.598C-2.60554 76.7481 31.9417 108.843 51.545 88.9644C66.545 73.7538 62.9492 3.13258 85.8852 0.595313Z" fill="#E5F5FF"/>
<path d="M127.279 130.531L127.438 166.809C127.438 167.443 127.393 168.032 127.325 168.644V172.315C127.325 177.323 123.262 181.379 118.246 181.379H114.615C114.365 181.379 114.115 181.175 113.866 181.356C113.548 181.175 113.23 181.379 112.913 181.379H100.089C95.0735 181.379 91.0109 177.323 91.0109 172.315V152.374C91.0109 148.364 87.7654 145.123 83.7482 145.123H69.2228C65.2056 145.123 61.9601 148.364 61.9601 152.374V172.315C61.9601 177.323 57.8975 181.379 52.8817 181.379H40.1946C39.8542 181.379 39.5138 181.356 39.1733 181.333C38.901 181.356 38.6286 181.379 38.3563 181.379H34.7249C29.7114 181.379 25.6465 177.323 25.6465 172.315V146.936C25.6465 146.732 25.6533 146.506 25.6669 146.302V130.531H18.3952C14.3031 130.531 11.1211 127.336 11.1211 123.257C11.1211 121.218 11.8029 119.405 13.393 117.819L71.5832 67.1781C73.1719 65.5887 74.9876 65.3617 76.5763 65.3617C78.165 65.3617 79.9807 65.8158 81.3651 66.951L105.536 88.1799V79.8638C105.536 75.8599 108.782 72.6128 112.799 72.6128H120.062C124.079 72.6128 127.325 75.8599 127.325 79.8638V107.282L139.308 117.819C141.124 119.405 142.054 121.218 141.805 123.257C141.805 127.336 138.4 130.531 134.542 130.531H127.279Z" fill="#7FCBFF"/>
<path d="M127.279 129.281H126.024L126.029 130.536L126.188 166.809C126.188 166.809 126.188 166.81 126.188 166.811C126.188 167.383 126.147 167.922 126.082 168.506L126.075 168.575V168.644V172.315C126.075 176.63 122.573 180.129 118.246 180.129H114.702C114.694 180.126 114.684 180.124 114.672 180.12C114.637 180.11 114.58 180.095 114.517 180.08C114.393 180.052 114.18 180.014 113.926 180.04C113.899 180.042 113.871 180.046 113.844 180.05C113.566 180.01 113.326 180.041 113.17 180.069C113.104 180.081 113.044 180.094 113.001 180.103C112.987 180.106 112.975 180.109 112.964 180.111C112.937 180.117 112.92 180.121 112.9 180.125C112.892 180.127 112.886 180.128 112.882 180.129H100.089C95.762 180.129 92.2609 176.63 92.2609 172.315V152.374C92.2609 147.671 88.4539 143.873 83.7482 143.873H69.2228C64.5171 143.873 60.7101 147.671 60.7101 152.374V172.315C60.7101 176.63 57.209 180.129 52.8817 180.129H40.1946C39.9027 180.129 39.6038 180.109 39.2563 180.086L39.163 180.08L39.0697 180.088C38.7885 180.111 38.568 180.129 38.3563 180.129H34.7249C30.3996 180.129 26.8965 176.63 26.8965 172.315V146.936C26.8965 146.757 26.9026 146.558 26.9142 146.385L26.9169 146.343V146.302V130.531V129.281H25.6669H18.3952C14.9949 129.281 12.3711 126.647 12.3711 123.257C12.3711 121.55 12.921 120.069 14.2468 118.733L72.4038 68.121L72.4365 68.0925L72.4672 68.0618C73.7084 66.8202 75.1146 66.6117 76.5763 66.6117C77.9509 66.6117 79.4533 67.0076 80.5571 67.905L104.711 89.1191L106.786 90.9414V88.1799V79.8638C106.786 76.5514 109.471 73.8628 112.799 73.8628H120.062C123.39 73.8628 126.075 76.5514 126.075 79.8638V107.282V107.847L126.499 108.221L138.483 118.757L138.486 118.76C140.105 120.175 140.747 121.609 140.564 123.105L140.555 123.181V123.257C140.555 126.623 137.732 129.281 134.542 129.281H127.279Z" stroke="#0A142B" stroke-opacity="0.3" stroke-width="2.5"/>
<circle cx="141.844" cy="50.6553" r="40.8511" fill="#F5F7FA"/>
<circle cx="141.844" cy="50.6553" r="39.8511" stroke="#0A142B" stroke-opacity="0.3" stroke-width="2"/>
<circle cx="141.844" cy="49.8383" r="15.5234" fill="#B0E6CC"/>
<path d="M160.545 63.545L160.04 64.2361L160.645 64.8414L175.191 79.3963L175.192 79.3965C176.237 80.4419 176.237 82.1407 175.192 83.1861C174.146 84.2315 172.447 84.2316 171.401 83.1864C171.401 83.1863 171.401 83.1862 171.401 83.1861L156.855 68.6315L156.249 68.0249L155.557 68.5316C151.771 71.3046 147.105 72.9335 142.049 72.9335C129.4 72.9335 119.15 62.686 119.15 50.0391C119.15 37.3922 129.4 27.1447 142.049 27.1447C154.699 27.1447 164.948 37.3922 164.948 50.0391C164.948 55.0919 163.309 59.7577 160.545 63.545ZM138.292 60.1482C138.292 62.2286 139.969 63.9053 142.049 63.9053C144.13 63.9053 145.807 62.2286 145.807 60.1482V53.7961H152.161C154.241 53.7961 155.918 52.1194 155.918 50.0391C155.918 47.9588 154.241 46.282 152.161 46.282H145.807V39.9299C145.807 37.8496 144.13 36.1729 142.049 36.1729C139.969 36.1729 138.292 37.8496 138.292 39.9299V46.282H131.938C129.858 46.282 128.181 47.9588 128.181 50.0391C128.181 52.1194 129.858 53.7961 131.938 53.7961H138.292V60.1482Z" fill="white" stroke="#5C94C0" stroke-width="2"/>
</svg>
