<svg width="235" height="235" viewBox="0 0 235 235" fill="none" xmlns="http://www.w3.org/2000/svg">
<path d="M104.508 0.728639C169.268 -6.43544 227.599 40.0373 234.793 104.528C238.423 137.066 193.336 104.002 174.139 127.562C155.286 150.7 162.647 230.722 130.56 234.271C65.7992 241.435 7.46848 194.963 0.27447 130.472C-3.80105 93.9365 38.4833 133.219 62.4769 108.889C80.8363 90.2716 76.4352 3.83415 104.508 0.728639Z" fill="#E5F5FF"/>
<rect x="64.625" y="41.6041" width="47.9792" height="49.9375" fill="#F5F7FA"/>
<rect x="64.625" y="101.333" width="109.667" height="62.6667" fill="#F5F7FA"/>
<rect x="112.604" y="171.833" width="61.6875" height="19.5833" fill="#F5F7FA"/>
<path d="M141 23V70H188L141 23ZM152.75 117H82.25V140.5H152.75V117ZM129.25 70V23H64.625C54.8909 23 47 30.8909 47 40.625V193.375C47 203.105 54.8909 211 64.625 211H170.375C180.109 211 188 203.109 188 193.375V81.75H141.33C134.501 81.75 129.25 76.4992 129.25 70ZM70.5 49.4375C70.5 47.8329 71.8329 46.5 73.4375 46.5H102.812C104.428 46.5 105.75 47.8329 105.75 49.4375V55.3125C105.75 56.9208 104.428 58.25 102.812 58.25H73.4375C71.8329 58.25 70.5 56.9208 70.5 55.3125V49.4375ZM70.5 72.9375C70.5 71.3219 71.8329 70 73.4375 70H102.812C104.428 70 105.75 71.3219 105.75 72.9375V78.8125C105.75 80.4281 104.428 81.75 102.812 81.75H73.4375C71.8329 81.75 70.5 80.4281 70.5 78.8125V72.9375ZM164.5 184.562C164.5 186.169 163.169 187.5 161.562 187.5H132.188C130.572 187.5 129.25 186.178 129.25 184.562V178.688C129.25 177.081 130.581 175.75 132.188 175.75H161.562C163.169 175.75 164.5 177.081 164.5 178.688V184.562ZM164.5 111.125V146.375C164.5 149.634 161.884 152.25 158.625 152.25H76.375C73.118 152.25 70.5 149.643 70.5 146.375V111.125C70.5 107.857 73.118 105.25 76.375 105.25H158.625C161.893 105.25 164.5 107.857 164.5 111.125Z" fill="#7FCBFF"/>
<path d="M183.172 68H143V27.8284L183.172 68ZM84.25 138.5V119H150.75V138.5H84.25ZM127.25 25V70C127.25 77.6399 133.433 83.75 141.33 83.75H186V193.375C186 202.005 179.005 209 170.375 209H64.625C55.9957 209 49 202.001 49 193.375V40.625C49 31.9954 55.9954 25 64.625 25H127.25ZM73.4375 44.5C70.7283 44.5 68.5 46.7283 68.5 49.4375V55.3125C68.5 58.027 70.7299 60.25 73.4375 60.25H102.812C105.536 60.25 107.75 58.0221 107.75 55.3125V49.4375C107.75 46.7332 105.538 44.5 102.812 44.5H73.4375ZM73.4375 68C70.7332 68 68.5 70.2124 68.5 72.9375V78.8125C68.5 81.5376 70.7332 83.75 73.4375 83.75H102.812C105.533 83.75 107.75 81.5327 107.75 78.8125V72.9375C107.75 70.2173 105.533 68 102.812 68H73.4375ZM161.562 189.5C164.274 189.5 166.5 187.274 166.5 184.562V178.688C166.5 175.976 164.274 173.75 161.562 173.75H132.188C129.476 173.75 127.25 175.976 127.25 178.688V184.562C127.25 187.283 129.467 189.5 132.188 189.5H161.562ZM166.5 146.375V111.125C166.5 106.752 162.998 103.25 158.625 103.25H76.375C72.0159 103.25 68.5 106.75 68.5 111.125V146.375C68.5 150.75 72.0159 154.25 76.375 154.25H158.625C162.988 154.25 166.5 150.738 166.5 146.375Z" stroke="#0A142B" stroke-opacity="0.3" stroke-width="4"/>
</svg>
