<svg width="220" height="192" viewBox="0 0 220 192" fill="none" xmlns="http://www.w3.org/2000/svg">
<rect x="17" y="75" width="57" height="46" fill="#E9EEC9"/>
<rect x="78" y="33" width="24" height="33" fill="#E9EEC9"/>
<path d="M104.871 0C113.142 0 119.852 8.05875 119.852 18V174C119.852 183.938 113.142 192 104.871 192H74.9076H68.4061C68.4061 192 68.4232 192 60.1522 192C51.8811 192 51.8982 192 51.8982 192H14.9815C6.70735 192 0 183.938 0 174V18C0 8.05875 6.70735 0 14.9815 0H104.871ZM19.9753 102C19.9753 105.3 22.2101 108 24.9692 108H34.9569C37.7035 108 39.9507 105.3 39.9507 102V90C39.9507 86.7 37.7035 84 34.9569 84H24.9692C22.2101 84 19.9753 86.7 19.9753 90V102ZM54.9322 84C52.1856 84 49.9384 86.7 49.9384 90V102C49.9384 105.3 52.1856 108 54.9322 108H64.9199C67.6665 108 69.9137 105.3 69.9137 102V90C69.9137 86.7 67.6665 84 64.9199 84H54.9322ZM79.9014 102C79.9014 105.3 82.1486 108 84.8952 108H94.8829C97.6295 108 99.8768 105.3 99.8768 102V90C99.8768 86.7 97.6295 84 94.8829 84H84.8952C82.1486 84 79.9014 86.7 79.9014 90V102ZM24.9692 36C22.2101 36 19.9753 38.7 19.9753 42V54C19.9753 57.3 22.2101 60 24.9692 60H34.9569C37.7035 60 39.9507 57.3 39.9507 54V42C39.9507 38.7 37.7035 36 34.9569 36H24.9692ZM49.9384 54C49.9384 57.3 52.1856 60 54.9322 60H64.9199C67.6665 60 69.9137 57.3 69.9137 54V42C69.9137 38.7 67.6665 36 64.9199 36H54.9322C52.1856 36 49.9384 38.7 49.9384 42V54ZM84.8952 36C82.1486 36 79.9014 38.7 79.9014 42V54C79.9014 57.3 82.1486 60 84.8952 60H94.8829C97.6295 60 99.8768 57.3 99.8768 54V42C99.8768 38.7 97.6295 36 94.8829 36H84.8952Z" fill="#CCCCCC"/>
<path d="M104.871 2C111.709 2 117.852 8.80421 117.852 18V174C117.852 183.192 111.709 190 104.871 190H74.9076H68.4062H68.406H68.4059H68.4057H68.4056H68.4054H68.4052H68.4051H68.4049H68.4048H68.4047H68.4045H68.4043H68.4041H68.4039H68.4037H68.4035H68.4033H68.403H68.4028H68.4025H68.4022H68.4019H68.4016H68.4013H68.4009H68.4005H68.4002H68.3998H68.3993H68.3989H68.3985H68.398H68.3975H68.397H68.3964H68.3959H68.3953H68.3947H68.3941H68.3935H68.3928H68.3922H68.3914H68.3907H68.39H68.3892H68.3884H68.3876H68.3867H68.3859H68.385H68.3841H68.3831H68.3821H68.3811H68.3801H68.3791H68.378H68.3769H68.3757H68.3745H68.3733H68.3721H68.3708H68.3696H68.3682H68.3669H68.3655H68.3641H68.3626H68.3611H68.3596H68.3581H68.3565H68.3549H68.3532H68.3515H68.3498H68.348H68.3462H68.3444H68.3425H68.3406H68.3387H68.3367H68.3346H68.3326H68.3305H68.3283H68.3262H68.3239H68.3217H68.3194H68.317H68.3146H68.3122H68.3097H68.3072H68.3046H68.302H68.2994H68.2967H68.294H68.2912H68.2883H68.2855H68.2826H68.2796H68.2766H68.2735H68.2704H68.2672H68.264H68.2608H68.2575H68.2541H68.2507H68.2473H68.2437H68.2402H68.2366H68.2329H68.2292H68.2254H68.2216H68.2177H68.2138H68.2098H68.2058H68.2017H68.1976H68.1934H68.1891H68.1848H68.1804H68.176H68.1715H68.167H68.1624H68.1577H68.153H68.1482H68.1434H68.1385H68.1335H68.1285H68.1234H68.1183H68.1131H68.1078H68.1025H68.0971H68.0916H68.0861H68.0805H68.0749H68.0691H68.0634H68.0575H68.0516H68.0456H68.0396H68.0335H68.0273H68.021H68.0147H68.0083H68.0019H67.9954H67.9888H67.9821H67.9754H67.9686H67.9617H67.9548H67.9477H67.9407H67.9335H67.9262H67.9189H67.9116H67.9041H67.8966H67.889H67.8813H67.8735H67.8657H67.8578H67.8498H67.8417H67.8336H67.8253H67.817H67.8087H67.8002H67.7917H67.7831H67.7744H67.7656H67.7567H67.7478H67.7388H67.7297H67.7205H67.7112H67.7019H67.6924H67.6829H67.6733H67.6636H67.6538H67.644H67.634H67.624H67.6139H67.6037H67.5934H67.583H67.5726H67.562H67.5514H67.5406H67.5298H67.5189H67.5079H67.4968H67.4856H67.4743H67.463H67.4515H67.44H67.4283H67.4166H67.4048H67.3928H67.3808H67.3687H67.3565H67.3442H67.3318H67.3193H67.3067H67.294H67.2812H67.2683H67.2554H67.2423H67.2291H67.2158H67.2024H67.189H67.1754H67.1617H67.1479H67.134H67.1201H67.106H67.0918H67.0775H67.0631H67.0486H67.034H67.0193H67.0045H66.9896H66.9746H66.9594H66.9442H66.9289H66.9134H66.8979H66.8822H66.8664H66.8506H66.8346H66.8185H66.8023H66.786H66.7696H66.753H66.7364H66.7196H66.7028H66.6858H66.6687H66.6515H66.6341H66.6167H66.5992H66.5815H66.5637H66.5458H66.5278H66.5097H66.4915H66.4731H66.4547H66.4361H66.4174H66.3985H66.3796H66.3605H66.3413H66.322H66.3026H66.2831H66.2634H66.2436H66.2237H66.2037H66.1836H66.1633H66.1429H66.1224H66.1017H66.081H66.0601H66.0391H66.0179H65.9967H65.9753H65.9538H65.9321H65.9104H65.8885H65.8664H65.8443H65.822H65.7996H65.777H65.7544H65.7316H65.7087H65.6856H65.6624H65.6391H65.6156H65.592H65.5683H65.5445H65.5205H65.4964H65.4721H65.4477H65.4232H65.3986H65.3738H65.3488H65.3238H65.2986H65.2732H65.2478H65.2221H65.1964H65.1705H65.1445H65.1183H65.092H65.0656H65.039H65.0122H64.9854H64.9584H64.9312H64.9039H64.8765H64.8489H64.8212H64.7933H64.7653H64.7372H64.7088H64.6804H64.6518H64.6231H64.5942H64.5652H64.536H64.5067H64.4772H64.4476H64.4178H64.3879H64.3578H64.3276H64.2972H64.2667H64.2361H64.2052H64.1743H64.1432H64.1119H64.0805H64.0489H64.0171H63.9853H63.9532H63.921H63.8887H63.8562H63.8235H63.7907H63.7577H63.7246H63.6913H63.6579H63.6243H63.5905H63.5566H63.5225H63.4883H63.4539H63.4193H63.3846H63.3497H63.3147H63.2795H63.2441H63.2086H63.1729H63.1371H63.1011H63.0649H63.0285H62.992H62.9554H62.9185H62.8815H62.8444H62.807H62.7695H62.7319H62.694H62.656H62.6179H62.5795H62.541H62.5024H62.4635H62.4245H62.3853H62.346H62.3064H62.2667H62.2269H62.1868H62.1466H62.1062H62.0656H62.0249H61.984H61.9429H61.9017H61.8602H61.8186H61.7768H61.7349H61.6927H61.6504H61.6079H61.5652H61.5224H61.4794H61.4361H61.3928H61.3492H61.3055H61.2615H61.2174H61.1731H61.1287H61.084H61.0392H60.9942H60.949H60.9036H60.858H60.8122H60.7663H60.7202H60.6739H60.6274H60.5807H60.5339H60.4868H60.4396H60.3921H60.3445H60.2967H60.2487H60.2006H60.1522H60.1038H60.0556H60.0076H59.9598H59.9122H59.8648H59.8176H59.7705H59.7237H59.677H59.6305H59.5842H59.5381H59.4921H59.4464H59.4008H59.3554H59.3102H59.2652H59.2204H59.1757H59.1312H59.087H59.0428H58.9989H58.9552H58.9116H58.8682H58.825H58.782H58.7391H58.6965H58.654H58.6117H58.5695H58.5275H58.4858H58.4442H58.4027H58.3615H58.3204H58.2795H58.2387H58.1982H58.1578H58.1176H58.0775H58.0376H57.9979H57.9584H57.9191H57.8799H57.8409H57.802H57.7633H57.7248H57.6865H57.6483H57.6103H57.5725H57.5348H57.4973H57.46H57.4228H57.3858H57.349H57.3123H57.2758H57.2395H57.2033H57.1673H57.1314H57.0958H57.0602H57.0249H56.9897H56.9546H56.9198H56.885H56.8505H56.8161H56.7819H56.7478H56.7139H56.6801H56.6465H56.6131H56.5798H56.5466H56.5137H56.4809H56.4482H56.4157H56.3834H56.3512H56.3191H56.2872H56.2555H56.2239H56.1925H56.1612H56.1301H56.0991H56.0683H56.0376H56.0071H55.9768H55.9465H55.9165H55.8866H55.8568H55.8272H55.7977H55.7684H55.7392H55.7102H55.6813H55.6526H55.624H55.5955H55.5672H55.5391H55.5111H55.4832H55.4555H55.4279H55.4005H55.3732H55.346H55.319H55.2921H55.2654H55.2388H55.2124H55.1861H55.1599H55.1339H55.108H55.0822H55.0566H55.0311H55.0058H54.9806H54.9555H54.9306H54.9058H54.8812H54.8566H54.8323H54.808H54.7839H54.7599H54.736H54.7123H54.6887H54.6653H54.642H54.6188H54.5957H54.5728H54.55H54.5273H54.5048H54.4824H54.4601H54.4379H54.4159H54.394H54.3722H54.3506H54.3291H54.3077H54.2864H54.2653H54.2443H54.2234H54.2026H54.182H54.1615H54.1411H54.1208H54.1007H54.0806H54.0607H54.041H54.0213H54.0018H53.9823H53.963H53.9438H53.9248H53.9058H53.887H53.8683H53.8497H53.8312H53.8129H53.7947H53.7765H53.7585H53.7406H53.7229H53.7052H53.6877H53.6702H53.6529H53.6357H53.6186H53.6016H53.5848H53.568H53.5513H53.5348H53.5184H53.5021H53.4859H53.4698H53.4538H53.4379H53.4221H53.4065H53.3909H53.3755H53.3602H53.3449H53.3298H53.3148H53.2999H53.2851H53.2704H53.2558H53.2413H53.2269H53.2126H53.1984H53.1843H53.1703H53.1564H53.1427H53.129H53.1154H53.1019H53.0886H53.0753H53.0621H53.049H53.036H53.0231H53.0104H52.9977H52.9851H52.9726H52.9602H52.9479H52.9357H52.9236H52.9115H52.8996H52.8878H52.876H52.8644H52.8529H52.8414H52.83H52.8188H52.8076H52.7965H52.7855H52.7746H52.7637H52.753H52.7424H52.7318H52.7214H52.711H52.7007H52.6905H52.6804H52.6703H52.6604H52.6505H52.6408H52.6311H52.6215H52.6119H52.6025H52.5932H52.5839H52.5747H52.5656H52.5566H52.5476H52.5388H52.53H52.5213H52.5127H52.5042H52.4957H52.4873H52.479H52.4708H52.4627H52.4546H52.4466H52.4387H52.4309H52.4231H52.4154H52.4078H52.4003H52.3928H52.3854H52.3781H52.3709H52.3637H52.3566H52.3496H52.3427H52.3358H52.329H52.3223H52.3156H52.309H52.3025H52.296H52.2896H52.2833H52.2771H52.2709H52.2648H52.2587H52.2528H52.2469H52.241H52.2352H52.2295H52.2239H52.2183H52.2128H52.2073H52.2019H52.1966H52.1913H52.1861H52.181H52.1759H52.1709H52.1659H52.161H52.1562H52.1514H52.1467H52.142H52.1374H52.1329H52.1284H52.124H52.1196H52.1153H52.111H52.1068H52.1027H52.0986H52.0945H52.0906H52.0866H52.0828H52.0789H52.0752H52.0715H52.0678H52.0642H52.0606H52.0571H52.0537H52.0503H52.0469H52.0436H52.0403H52.0371H52.034H52.0309H52.0278H52.0248H52.0218H52.0189H52.016H52.0132H52.0104H52.0077H52.005H52.0023H51.9997H51.9972H51.9946H51.9922H51.9897H51.9874H51.985H51.9827H51.9804H51.9782H51.976H51.9739H51.9718H51.9697H51.9677H51.9657H51.9638H51.9619H51.96H51.9581H51.9563H51.9546H51.9529H51.9512H51.9495H51.9479H51.9463H51.9447H51.9432H51.9417H51.9403H51.9389H51.9375H51.9361H51.9348H51.9335H51.9323H51.931H51.9298H51.9286H51.9275H51.9264H51.9253H51.9243H51.9232H51.9222H51.9212H51.9203H51.9194H51.9185H51.9176H51.9168H51.916H51.9152H51.9144H51.9136H51.9129H51.9122H51.9115H51.9109H51.9102H51.9096H51.909H51.9085H51.9079H51.9074H51.9069H51.9064H51.9059H51.9055H51.905H51.9046H51.9042H51.9038H51.9035H51.9031H51.9028H51.9025H51.9022H51.9019H51.9016H51.9013H51.9011H51.9009H51.9006H51.9004H51.9002H51.9H51.8999H51.8997H51.8996H51.8994H51.8993H51.8992H51.899H51.8988H51.8986H51.8985H51.8984H51.8983H14.9815C8.14017 190 2 183.193 2 174V18C2 8.80392 8.13993 2 14.9815 2H104.871ZM17.9753 102C17.9753 106.042 20.7746 110 24.9692 110H34.9569C39.1361 110 41.9507 106.045 41.9507 102V90C41.9507 85.9548 39.1361 82 34.9569 82H24.9692C20.7746 82 17.9753 85.9583 17.9753 90V102ZM54.9322 82C50.753 82 47.9384 85.9548 47.9384 90V102C47.9384 106.045 50.753 110 54.9322 110H64.9199C69.0991 110 71.9137 106.045 71.9137 102V90C71.9137 85.9548 69.0991 82 64.9199 82H54.9322ZM77.9014 102C77.9014 106.045 80.716 110 84.8952 110H94.8829C99.0621 110 101.877 106.045 101.877 102V90C101.877 85.9548 99.0621 82 94.8829 82H84.8952C80.716 82 77.9014 85.9548 77.9014 90V102ZM24.9692 34C20.7746 34 17.9753 37.9583 17.9753 42V54C17.9753 58.0417 20.7746 62 24.9692 62H34.9569C39.1361 62 41.9507 58.0452 41.9507 54V42C41.9507 37.9548 39.1361 34 34.9569 34H24.9692ZM47.9384 54C47.9384 58.0452 50.753 62 54.9322 62H64.9199C69.0991 62 71.9137 58.0452 71.9137 54V42C71.9137 37.9548 69.0991 34 64.9199 34H54.9322C50.753 34 47.9384 37.9548 47.9384 42V54ZM84.8952 34C80.716 34 77.9014 37.9548 77.9014 42V54C77.9014 58.0452 80.716 62 84.8952 62H94.8829C99.0621 62 101.877 58.0452 101.877 54V42C101.877 37.9548 99.0621 34 94.8829 34H84.8952Z" stroke="#283148" stroke-opacity="0.45" stroke-width="4"/>
<rect x="20" y="36" width="20" height="24" rx="5" fill="#F9CB40"/>
<rect x="49.75" y="36" width="20.25" height="24" rx="5" fill="#F9CB40"/>
<rect x="80" y="84" width="20" height="24" rx="5" fill="#F9CB40"/>
<path d="M202.173 129.764L202.367 174.167C202.367 174.943 202.311 175.664 202.228 176.413V180.906C202.228 187.036 197.256 192 191.117 192H186.672C186.366 192 186.061 191.75 185.755 191.972C185.366 191.75 184.977 192 184.589 192H168.893C162.754 192 157.782 187.036 157.782 180.906V156.5C157.782 151.591 153.809 147.625 148.893 147.625H131.114C126.197 147.625 122.225 151.591 122.225 156.5V180.906C122.225 187.036 117.252 192 111.113 192H95.5848C95.1681 192 94.7514 191.972 94.3348 191.945C94.0014 191.972 93.6681 192 93.3347 192H88.8901C82.7537 192 77.7785 187.036 77.7785 180.906V149.844C77.7785 149.594 77.7868 149.317 77.8035 149.067V129.764H68.9031C63.8946 129.764 60 125.854 60 120.861C60 118.365 60.8345 116.146 62.7807 114.205L134.003 52.2232C135.948 50.2779 138.17 50 140.114 50C142.059 50 144.281 50.5558 145.976 51.9453L175.56 77.9285V67.75C175.56 62.8493 179.533 58.875 184.45 58.875H193.339C198.256 58.875 202.228 62.8493 202.228 67.75V101.309L216.895 114.205C219.118 116.146 220.257 118.365 219.951 120.861C219.951 125.854 215.784 129.764 211.062 129.764H202.173Z" fill="#719192"/>
<path d="M202.173 127.764H200.164L200.173 129.773L200.367 174.167C200.367 174.168 200.367 174.17 200.367 174.172C200.367 174.848 200.319 175.489 200.24 176.192L200.228 176.302V176.413V180.906C200.228 185.928 196.154 190 191.117 190H186.843C186.797 189.987 186.731 189.969 186.656 189.953C186.481 189.913 186.164 189.854 185.781 189.893C185.763 189.895 185.745 189.897 185.727 189.9C185.346 189.855 185.024 189.898 184.821 189.934C184.73 189.95 184.649 189.968 184.595 189.98L184.547 189.99C184.529 189.994 184.515 189.997 184.503 190H168.893C163.856 190 159.782 185.928 159.782 180.906V156.5C159.782 150.483 154.911 145.625 148.893 145.625H131.114C125.096 145.625 120.225 150.483 120.225 156.5V180.906C120.225 185.928 116.151 190 111.113 190H95.5848C95.2457 190 94.8955 189.977 94.4676 189.949L94.3182 189.939L94.1689 189.951C93.8215 189.98 93.5711 190 93.3347 190H88.8901C83.8549 190 79.7785 185.928 79.7785 180.906V149.844C79.7785 149.634 79.7857 149.401 79.7991 149.2L79.8035 149.134V149.067V129.764V127.764H77.8035H68.9031C65.0015 127.764 62 124.751 62 120.861C62 118.897 62.6238 117.208 64.1474 115.667L135.316 53.7319L135.368 53.6863L135.418 53.6371C136.806 52.2482 138.373 52 140.114 52C141.716 52 143.438 52.4626 144.683 53.4721L174.241 79.4312L177.56 82.3469V77.9285V67.75C177.56 63.9557 180.636 60.875 184.45 60.875H193.339C197.153 60.875 200.228 63.9557 200.228 67.75V101.309V102.213L200.908 102.811L215.575 115.707L215.58 115.711C217.488 117.378 218.165 118.991 217.966 120.618L217.951 120.739V120.861C217.951 124.714 214.715 127.764 211.062 127.764H202.173Z" stroke="#283148" stroke-opacity="0.45" stroke-width="4"/>
</svg>
