<svg width="235" height="235" viewBox="0 0 235 235" fill="none" xmlns="http://www.w3.org/2000/svg">
<rect width="235" height="235" fill="#F5F5F5"/>
<rect width="1741" height="2576" transform="translate(-105 -1153)" fill="white"/>
<path d="M104.508 0.728639C169.268 -6.43544 227.599 40.0373 234.793 104.528C238.423 137.066 193.336 104.002 174.139 127.562C155.286 150.7 162.647 230.722 130.56 234.271C65.7992 241.435 7.46848 194.963 0.27447 130.472C-3.80105 93.9365 38.4833 133.219 62.4769 108.889C80.8363 90.2716 76.4352 3.83415 104.508 0.728639Z" fill="#E5F5FF"/>
<rect x="84.9531" y="54.3333" width="68.6598" height="105" fill="#FFEAAC"/>
<mask id="path-3-inside-1_203_446" fill="white">
<path d="M141.641 168.983C134.141 171.684 125.992 173.187 117.537 173.187C109.082 173.187 100.934 171.684 93.4331 168.983C93.024 168.949 93.2286 168.915 93.1604 168.881C82.8982 165.121 73.7612 159.037 66.3629 151.312C54.1369 138.529 46.6227 121.2 46.6227 102.094C46.6227 62.8281 78.3638 31 117.537 31C156.711 31 188.452 62.8281 188.452 102.094C188.452 121.2 180.644 138.529 168.712 151.312C168.371 151.654 168.03 152.03 167.689 152.372C160.393 159.652 151.528 165.395 141.641 168.983ZM110.684 68.9736V71.332C108.775 71.7422 106.661 72.3232 105.264 73.0752C100.184 75.3994 95.7515 79.7061 94.6605 85.9609C94.0468 89.4473 94.3877 92.8311 95.8197 95.873C97.2516 98.8809 99.4677 101 101.718 102.538C105.673 105.238 110.889 106.811 114.878 108.007L115.628 108.212C120.401 109.682 123.606 110.741 125.617 112.211C126.47 112.826 126.777 113.305 126.879 113.612C127.015 113.886 127.22 114.501 126.981 115.868C126.777 117.064 126.129 118.09 124.254 118.876C122.174 119.765 118.799 120.209 114.435 119.525C112.389 119.184 108.741 117.953 105.502 116.859C104.752 116.586 104.002 116.347 103.32 116.107C99.7404 114.911 95.8879 116.859 94.6946 120.448C93.5013 124.037 95.4446 127.899 99.0245 128.788C99.4336 129.232 99.945 129.403 100.525 129.608C102.911 130.531 107.446 131.967 110.684 132.719V134.906C110.684 138.7 113.753 141.776 117.23 141.776C121.322 141.776 124.39 138.7 124.39 134.906V133.026C126.197 132.685 127.97 131.864 129.606 131.454C134.993 129.164 139.289 124.721 140.414 118.227C141.028 114.672 140.755 111.254 139.391 108.144C138.062 105.067 135.914 102.812 133.629 101.171C129.504 98.1289 123.981 96.4883 119.856 95.2236L119.276 95.1553C114.742 93.6855 111.469 92.6601 109.389 91.2246C108.502 90.6094 108.23 90.1992 108.162 90.0283C108.093 89.8916 107.889 89.4814 108.093 88.3193C108.23 87.6357 108.741 86.5078 110.889 85.5508C112.798 84.5596 116.48 84.0127 120.64 84.3545C122.14 84.9014 126.742 85.79 128.072 86.1318C131.686 87.123 135.436 84.9355 136.391 81.2783C137.38 77.6553 135.198 73.8955 131.55 72.9385C130.05 72.5283 126.64 71.8447 124.39 71.4346V69.2812C124.39 65.4873 121.322 62.4111 117.537 62.4111C113.753 62.4111 110.684 65.4873 110.684 69.2812V68.9736ZM46.6227 151.312H52.0709C58.702 160.165 67.0788 167.616 76.6932 173.187H52.0777V184.125H182.997V173.187H158.381C167.689 167.616 176.383 160.165 182.997 151.312H188.452C197.487 151.312 204.817 158.661 204.817 167.719V189.594C204.817 198.651 197.487 206 188.452 206H46.6227C37.5845 206 30.2578 198.651 30.2578 189.594V167.719C30.2578 158.661 37.5845 151.312 46.6227 151.312Z"/>
</mask>
<path d="M141.641 168.983C134.141 171.684 125.992 173.187 117.537 173.187C109.082 173.187 100.934 171.684 93.4331 168.983C93.024 168.949 93.2286 168.915 93.1604 168.881C82.8982 165.121 73.7612 159.037 66.3629 151.312C54.1369 138.529 46.6227 121.2 46.6227 102.094C46.6227 62.8281 78.3638 31 117.537 31C156.711 31 188.452 62.8281 188.452 102.094C188.452 121.2 180.644 138.529 168.712 151.312C168.371 151.654 168.03 152.03 167.689 152.372C160.393 159.652 151.528 165.395 141.641 168.983ZM110.684 68.9736V71.332C108.775 71.7422 106.661 72.3232 105.264 73.0752C100.184 75.3994 95.7515 79.7061 94.6605 85.9609C94.0468 89.4473 94.3877 92.8311 95.8197 95.873C97.2516 98.8809 99.4677 101 101.718 102.538C105.673 105.238 110.889 106.811 114.878 108.007L115.628 108.212C120.401 109.682 123.606 110.741 125.617 112.211C126.47 112.826 126.777 113.305 126.879 113.612C127.015 113.886 127.22 114.501 126.981 115.868C126.777 117.064 126.129 118.09 124.254 118.876C122.174 119.765 118.799 120.209 114.435 119.525C112.389 119.184 108.741 117.953 105.502 116.859C104.752 116.586 104.002 116.347 103.32 116.107C99.7404 114.911 95.8879 116.859 94.6946 120.448C93.5013 124.037 95.4446 127.899 99.0245 128.788C99.4336 129.232 99.945 129.403 100.525 129.608C102.911 130.531 107.446 131.967 110.684 132.719V134.906C110.684 138.7 113.753 141.776 117.23 141.776C121.322 141.776 124.39 138.7 124.39 134.906V133.026C126.197 132.685 127.97 131.864 129.606 131.454C134.993 129.164 139.289 124.721 140.414 118.227C141.028 114.672 140.755 111.254 139.391 108.144C138.062 105.067 135.914 102.812 133.629 101.171C129.504 98.1289 123.981 96.4883 119.856 95.2236L119.276 95.1553C114.742 93.6855 111.469 92.6601 109.389 91.2246C108.502 90.6094 108.23 90.1992 108.162 90.0283C108.093 89.8916 107.889 89.4814 108.093 88.3193C108.23 87.6357 108.741 86.5078 110.889 85.5508C112.798 84.5596 116.48 84.0127 120.64 84.3545C122.14 84.9014 126.742 85.79 128.072 86.1318C131.686 87.123 135.436 84.9355 136.391 81.2783C137.38 77.6553 135.198 73.8955 131.55 72.9385C130.05 72.5283 126.64 71.8447 124.39 71.4346V69.2812C124.39 65.4873 121.322 62.4111 117.537 62.4111C113.753 62.4111 110.684 65.4873 110.684 69.2812V68.9736ZM46.6227 151.312H52.0709C58.702 160.165 67.0788 167.616 76.6932 173.187H52.0777V184.125H182.997V173.187H158.381C167.689 167.616 176.383 160.165 182.997 151.312H188.452C197.487 151.312 204.817 158.661 204.817 167.719V189.594C204.817 198.651 197.487 206 188.452 206H46.6227C37.5845 206 30.2578 198.651 30.2578 189.594V167.719C30.2578 158.661 37.5845 151.312 46.6227 151.312Z" fill="#7FCBFF" stroke="#0A142B" stroke-opacity="0.3" stroke-width="8" mask="url(#path-3-inside-1_203_446)"/>
<mask id="path-4-inside-2_203_446" fill="white">
<path d="M141.64 168.983C134.139 171.684 125.991 173.188 117.536 173.188C109.08 173.188 100.932 171.684 93.4315 168.983C93.0224 168.949 93.227 168.915 93.1588 168.881C82.8966 165.121 73.7595 159.037 66.3612 151.312C54.1353 138.529 46.6211 121.2 46.6211 102.094C46.6211 62.8281 78.3622 31 117.536 31C156.709 31 188.45 62.8281 188.45 102.094C188.45 121.2 180.643 138.529 168.71 151.312C168.369 151.654 168.028 152.03 167.687 152.372C160.391 159.652 151.527 165.395 141.64 168.983ZM110.683 68.9736V71.332C108.774 71.7422 106.66 72.3232 105.262 73.0752C100.182 75.3994 95.7499 79.7061 94.6589 85.9609C94.0452 89.4473 94.3861 92.8311 95.8181 95.873C97.25 98.8809 99.4661 101 101.716 102.538C105.671 105.238 110.887 106.811 114.876 108.007L115.626 108.212C120.399 109.682 123.604 110.741 125.616 112.211C126.468 112.826 126.775 113.305 126.877 113.612C127.014 113.886 127.218 114.501 126.98 115.868C126.775 117.064 126.127 118.09 124.252 118.876C122.172 119.765 118.797 120.209 114.433 119.525C112.388 119.184 108.74 117.953 105.501 116.859C104.751 116.586 104.001 116.347 103.319 116.107C99.7388 114.911 95.8862 116.859 94.693 120.448C93.4997 124.037 95.443 127.899 99.0228 128.788C99.432 129.232 99.9434 129.403 100.523 129.608C102.91 130.531 107.444 131.967 110.683 132.719V134.906C110.683 138.7 113.751 141.776 117.229 141.776C121.32 141.776 124.388 138.7 124.388 134.906V133.026C126.195 132.685 127.968 131.864 129.605 131.454C134.992 129.164 139.287 124.721 140.412 118.227C141.026 114.672 140.753 111.254 139.39 108.144C138.06 105.067 135.912 102.812 133.628 101.171C129.502 98.1289 123.979 96.4883 119.854 95.2236L119.274 95.1553C114.74 93.6855 111.467 92.6601 109.387 91.2246C108.501 90.6094 108.228 90.1992 108.16 90.0283C108.092 89.8916 107.887 89.4814 108.092 88.3193C108.228 87.6357 108.74 86.5078 110.887 85.5508C112.797 84.5596 116.479 84.0127 120.638 84.3545C122.138 84.9014 126.741 85.79 128.071 86.1318C131.684 87.1231 135.435 84.9355 136.389 81.2783C137.378 77.6553 135.196 73.8955 131.548 72.9385C130.048 72.5283 126.639 71.8447 124.388 71.4346V69.2812C124.388 65.4873 121.32 62.4111 117.536 62.4111C113.751 62.4111 110.683 65.4873 110.683 69.2812V68.9736Z"/>
</mask>
<path d="M141.64 168.983C134.139 171.684 125.991 173.188 117.536 173.188C109.08 173.188 100.932 171.684 93.4315 168.983C93.0224 168.949 93.227 168.915 93.1588 168.881C82.8966 165.121 73.7595 159.037 66.3612 151.312C54.1353 138.529 46.6211 121.2 46.6211 102.094C46.6211 62.8281 78.3622 31 117.536 31C156.709 31 188.45 62.8281 188.45 102.094C188.45 121.2 180.643 138.529 168.71 151.312C168.369 151.654 168.028 152.03 167.687 152.372C160.391 159.652 151.527 165.395 141.64 168.983ZM110.683 68.9736V71.332C108.774 71.7422 106.66 72.3232 105.262 73.0752C100.182 75.3994 95.7499 79.7061 94.6589 85.9609C94.0452 89.4473 94.3861 92.8311 95.8181 95.873C97.25 98.8809 99.4661 101 101.716 102.538C105.671 105.238 110.887 106.811 114.876 108.007L115.626 108.212C120.399 109.682 123.604 110.741 125.616 112.211C126.468 112.826 126.775 113.305 126.877 113.612C127.014 113.886 127.218 114.501 126.98 115.868C126.775 117.064 126.127 118.09 124.252 118.876C122.172 119.765 118.797 120.209 114.433 119.525C112.388 119.184 108.74 117.953 105.501 116.859C104.751 116.586 104.001 116.347 103.319 116.107C99.7388 114.911 95.8862 116.859 94.693 120.448C93.4997 124.037 95.443 127.899 99.0228 128.788C99.432 129.232 99.9434 129.403 100.523 129.608C102.91 130.531 107.444 131.967 110.683 132.719V134.906C110.683 138.7 113.751 141.776 117.229 141.776C121.32 141.776 124.388 138.7 124.388 134.906V133.026C126.195 132.685 127.968 131.864 129.605 131.454C134.992 129.164 139.287 124.721 140.412 118.227C141.026 114.672 140.753 111.254 139.39 108.144C138.06 105.067 135.912 102.812 133.628 101.171C129.502 98.1289 123.979 96.4883 119.854 95.2236L119.274 95.1553C114.74 93.6855 111.467 92.6601 109.387 91.2246C108.501 90.6094 108.228 90.1992 108.16 90.0283C108.092 89.8916 107.887 89.4814 108.092 88.3193C108.228 87.6357 108.74 86.5078 110.887 85.5508C112.797 84.5596 116.479 84.0127 120.638 84.3545C122.138 84.9014 126.741 85.79 128.071 86.1318C131.684 87.1231 135.435 84.9355 136.389 81.2783C137.378 77.6553 135.196 73.8955 131.548 72.9385C130.048 72.5283 126.639 71.8447 124.388 71.4346V69.2812C124.388 65.4873 121.32 62.4111 117.536 62.4111C113.751 62.4111 110.683 65.4873 110.683 69.2812V68.9736Z" fill="#F5F7FA" stroke="#0A142B" stroke-opacity="0.3" stroke-width="8" mask="url(#path-4-inside-2_203_446)"/>
<path d="M33.8894 99.5588C32.5246 100.898 30.3153 100.896 28.9527 99.5588L20.9477 91.6986L20.9477 131.406C20.9477 133.301 19.3865 134.833 17.4565 134.833C15.5266 134.833 13.9654 133.301 13.9654 131.406L13.9654 91.6986L5.9598 99.5567C4.59608 100.895 2.38685 100.895 1.02313 99.5567C-0.340595 98.2181 -0.340595 96.0496 1.02313 94.711L14.9876 81.0039C16.3514 79.6653 18.5606 79.6653 19.9243 81.0039L33.8888 94.711C35.2531 96.0571 35.2531 98.2202 33.8894 99.5588Z" fill="#39C17F" fill-opacity="0.4"/>
<path d="M201.111 121.108C202.475 119.768 204.685 119.77 206.047 121.108L214.052 128.968V89.26C214.052 87.3657 215.614 85.8333 217.543 85.8333C219.473 85.8333 221.035 87.3657 221.035 89.26V128.968L229.04 121.11C230.404 119.771 232.613 119.771 233.977 121.11C235.341 122.448 235.341 124.617 233.977 125.956L220.012 139.663C218.649 141.001 216.439 141.001 215.076 139.663L201.111 125.956C199.747 124.609 199.747 122.446 201.111 121.108Z" fill="#E34A6F" fill-opacity="0.4"/>
</svg>
