<svg width="235" height="235" viewBox="0 0 235 235" fill="none" xmlns="http://www.w3.org/2000/svg">
<g clip-path="url(#clip0_224_307)">
<path d="M104.508 0.728639C169.268 -6.43544 227.599 40.0373 234.793 104.528C238.423 137.066 193.336 104.002 174.139 127.562C155.286 150.7 162.647 230.722 130.56 234.271C65.7992 241.435 7.46848 194.963 0.27447 130.472C-3.80105 93.9365 38.4833 133.219 62.4769 108.889C80.8363 90.2716 76.4352 3.83415 104.508 0.728639Z" fill="#E5F5FF"/>
<rect x="41.125" y="41.6041" width="69.5206" height="99.875" fill="#FFEAAC"/>
<path d="M152.75 87.625C152.75 51.9344 118.565 23 76.3755 23C34.1857 23 0.000680754 51.9344 0.000680754 87.625C0.000680754 102.155 5.73613 115.517 15.3013 126.327C9.28315 138.356 0.896616 147.374 0.764429 147.506C-0.00666298 148.316 -0.215959 149.516 0.235313 150.573C0.698335 151.626 1.69047 152.25 2.81333 152.25C16.8949 152.25 28.7954 148.167 37.9678 143.423C49.2771 148.982 62.3489 152.25 76.3755 152.25C118.565 152.25 152.75 123.316 152.75 87.625ZM99.0676 103.157C97.7457 110.831 91.9442 115.568 83.7192 117.624V121.406C83.7192 125.456 80.4318 128.75 76.3755 128.75C72.3192 128.75 69.0317 125.457 69.0317 121.406V117.441C65.8438 116.735 62.6794 115.706 59.83 114.682L58.2636 114.132C54.4544 112.777 52.4349 108.591 53.7935 104.773C55.1477 100.95 59.3417 98.9674 63.1641 100.286L64.8051 100.882C67.6853 101.915 70.9444 103.085 73.4927 103.464C78.5051 104.259 84.0864 103.524 84.6004 100.66C84.9309 98.7875 85.1145 97.7594 74.3559 94.675L72.2263 94.0508C65.8629 92.1803 50.9588 87.8086 53.676 72.0783C55.0052 64.4188 60.8068 59.2634 69.0317 57.512V53.8438C69.0317 49.7937 72.3192 46.5 76.3755 46.5C80.4318 46.5 83.7192 49.7933 83.7192 53.8438V57.747C85.7215 58.1857 87.8831 58.771 90.5342 59.6831C94.3676 61.0039 96.3871 65.1898 95.0653 69.0453C93.7434 72.8641 89.5207 74.8836 85.702 73.5617C83.5507 72.816 81.2958 72.093 79.2432 71.7831C74.2458 71.0281 68.3341 71.7258 68.1505 74.5898C67.8567 75.9117 67.6731 77.4172 76.045 79.9875L78.395 80.575C86.5833 82.8883 101.821 87.2578 99.0676 103.157ZM220.166 185.921C229.419 174.979 235 161.283 235 146.375C235 110.684 203.422 81.75 164.5 81.75C164.385 81.75 164.273 81.7651 164.157 81.7658C164.317 83.6961 164.5 85.6422 164.5 87.625C164.5 123.837 135.243 154.159 96.1668 161.98C103.804 190.107 131.123 211 164.5 211C176.871 211 188.485 208.06 198.593 202.929C207.534 207.328 218.881 211 232.173 211C233.296 211 234.288 210.367 234.75 209.309C235.202 208.252 234.992 207.052 234.221 206.242C234.119 206.116 226.151 197.524 220.166 185.921Z" fill="#F5F7FA"/>
<path d="M17.09 127.221L17.6945 126.013L16.7992 125.001C7.51514 114.509 2.00068 101.606 2.00068 87.625C2.00068 53.3389 34.9643 25 76.3755 25C117.787 25 150.75 53.3389 150.75 87.625C150.75 121.911 117.787 150.25 76.3755 150.25C62.6612 150.25 49.8906 147.055 38.85 141.628L37.9449 141.183L37.049 141.646C28.0854 146.282 16.5001 150.25 2.81333 150.25C2.46916 150.25 2.20805 150.082 2.07044 149.778C1.92936 149.437 2.01101 149.097 2.21271 148.885L2.21245 148.885C2.84526 148.217 11.1046 139.185 17.09 127.221ZM57.5937 116.016L57.6002 116.018L59.1536 116.564C59.156 116.565 59.1584 116.566 59.1607 116.567C61.5862 117.439 64.2728 118.326 67.0317 119.022V121.406C67.0317 126.56 71.2135 130.75 76.3755 130.75C81.5375 130.75 85.7192 126.56 85.7192 121.406V119.149C93.6784 116.764 99.6273 111.69 101.039 103.497C101.785 99.1862 101.328 95.53 99.9841 92.447C98.6453 89.3767 96.4859 87.011 94.0351 85.1717C89.2136 81.5531 83.0104 79.8006 78.9689 78.6589L78.9387 78.6503L78.9095 78.6421L78.8801 78.6347L76.5817 78.0601C72.431 76.7825 70.7841 75.8693 70.1822 75.3304C70.1283 75.2822 70.0904 75.2436 70.0643 75.2145C70.0718 75.1716 70.0837 75.1097 70.1029 75.0237L70.1365 74.8724L70.1464 74.7178C70.1465 74.7167 70.1455 74.7172 70.146 74.716C70.1464 74.7147 70.1481 74.7116 70.1534 74.7034C70.1715 74.6754 70.2342 74.594 70.3981 74.4804C70.7477 74.2379 71.3683 73.9792 72.2954 73.7882C74.1315 73.4098 76.6121 73.4083 78.9445 73.7606L78.9446 73.7606C80.7964 74.0402 82.8962 74.7059 85.047 75.4514L85.0478 75.4517C89.8969 77.1302 95.2674 74.5754 96.9552 69.6995L96.9571 69.694C98.632 64.809 96.0765 59.4773 91.1857 57.7922L91.1848 57.7919C89.1334 57.0861 87.3585 56.568 85.7192 56.1606V53.8438C85.7192 48.6898 81.5374 44.5 76.3755 44.5C71.2135 44.5 67.0317 48.6902 67.0317 53.8438V55.94C58.9907 58.1379 53.1121 63.6304 51.7054 71.7363L51.7052 71.7379C50.9684 76.003 51.4107 79.6177 52.6896 82.6598C53.9636 85.6902 56.0147 88.0269 58.3086 89.8333C62.7902 93.3624 68.4047 95.0123 71.5655 95.9412L71.6622 95.9696L71.6637 95.97L73.7934 96.5943L73.8048 96.5975C79.2492 98.1584 81.556 99.1096 82.4929 99.7627C82.5857 99.8274 82.6499 99.879 82.6932 99.9172C82.6836 99.9917 82.6657 100.115 82.6316 100.308C82.6219 100.361 82.582 100.523 82.2266 100.766C81.8435 101.027 81.2152 101.287 80.3187 101.478C78.5323 101.856 76.1398 101.859 73.8058 101.489L73.7962 101.487L73.7866 101.486C71.4785 101.143 68.4314 100.058 65.4852 99.0015C65.4835 99.0009 65.4817 99.0003 65.48 98.9996L63.8476 98.406L63.8319 98.4003L63.8161 98.3949C58.971 96.724 53.6361 99.2322 51.9092 104.102C50.1764 108.973 52.7546 114.296 57.5937 116.016ZM70.0125 75.1477C70.0126 75.1476 70.0145 75.1505 70.0175 75.1563C70.0137 75.1506 70.0123 75.1478 70.0125 75.1477ZM82.7726 99.9984C82.7723 99.9985 82.7694 99.995 82.7648 99.988C82.7706 99.9949 82.7729 99.9984 82.7726 99.9984ZM218.639 184.63L217.776 185.65L218.388 186.838C221.45 192.774 225.01 197.923 227.808 201.597C230.572 205.225 232.736 207.584 232.673 207.508L232.721 207.566L232.772 207.62C232.975 207.834 233.056 208.175 232.914 208.516C232.772 208.834 232.505 209 232.173 209C219.256 209 208.213 205.433 199.476 201.135L198.58 200.693L197.688 201.146C187.856 206.136 176.552 209 164.5 209C132.769 209 106.812 189.652 98.689 163.491C137.417 154.866 166.5 124.332 166.5 87.625C166.5 86.3155 166.424 85.0219 166.329 83.7718C203.459 84.6594 233 112.504 233 146.375C233 160.768 227.615 174.015 218.639 184.63Z" stroke="#0A142B" stroke-opacity="0.3" stroke-width="4"/>
<path d="M220.165 185.921C229.418 174.979 234.999 161.283 234.999 146.375C234.999 110.684 203.421 81.75 164.499 81.75C164.384 81.75 164.272 81.7651 164.157 81.7658C164.316 83.6961 164.499 85.6422 164.499 87.625C164.499 123.837 135.242 154.159 96.166 161.98C103.803 190.107 131.122 211 164.499 211C176.87 211 188.484 208.06 198.593 202.929C207.534 207.328 218.88 211 232.172 211C233.295 211 234.287 210.367 234.75 209.309C235.201 208.252 234.991 207.052 234.22 206.242C234.118 206.116 226.15 197.524 220.165 185.921Z" fill="#7FCBFF"/>
<path d="M218.638 184.63L217.775 185.65L218.387 186.838C221.449 192.774 225.009 197.923 227.808 201.597C230.571 205.226 232.734 207.584 232.673 207.508L232.72 207.566L232.772 207.62C232.974 207.834 233.056 208.175 232.913 208.516C232.771 208.834 232.504 209 232.172 209C219.256 209 208.212 205.433 199.476 201.135L198.579 200.693L197.688 201.146C187.855 206.136 176.551 209 164.499 209C132.769 209 106.812 189.652 98.6882 163.491C137.417 154.866 166.499 124.332 166.499 87.625C166.499 86.3155 166.423 85.0219 166.328 83.7718C203.459 84.6594 232.999 112.504 232.999 146.375C232.999 160.768 227.614 174.015 218.638 184.63Z" stroke="#0A142B" stroke-opacity="0.3" stroke-width="4"/>
<rect x="147.895" y="157.188" width="56.7082" height="16.5625" rx="8" fill="#F5F7FA" stroke="#5C94C0" stroke-width="4"/>
<rect x="166.5" y="131.729" width="38.104" height="16.5625" rx="8" fill="#F5F7FA" stroke="#5C94C0" stroke-width="4"/>
</g>
<defs>
<clipPath id="clip0_224_307">
<rect width="235" height="235" fill="white"/>
</clipPath>
</defs>
</svg>
