<svg width="235" height="235" viewBox="0 0 235 235" fill="none" xmlns="http://www.w3.org/2000/svg">
<path d="M104.508 0.728639C169.268 -6.43544 227.599 40.0373 234.793 104.528C238.423 137.066 193.336 104.002 174.139 127.562C155.286 150.7 162.647 230.722 130.56 234.271C65.7992 241.435 7.46848 194.963 0.27447 130.472C-3.80105 93.9365 38.4833 133.219 62.4769 108.889C80.8363 90.2716 76.4352 3.83415 104.508 0.728639Z" fill="#E5F5FF"/>
<path d="M129.995 33V40.2C157.368 45.7612 177.992 69.975 177.992 99V106.05C177.992 123.713 184.479 140.7 196.178 153.9L198.953 157.013C202.103 160.575 202.891 165.6 200.941 169.913C198.991 174.225 194.716 177 189.991 177H45.9992C41.2745 177 36.9889 174.225 35.0532 169.913C33.1176 165.6 33.8918 160.575 37.0312 157.013L39.8121 153.9C51.5264 140.7 57.9986 123.713 57.9986 106.05V99C57.9986 69.975 78.285 45.7612 105.996 40.2V33C105.996 26.3737 111.358 21 117.995 21C124.632 21 129.995 26.3737 129.995 33ZM117.995 213C111.621 213 105.508 210.487 101.009 205.987C96.5089 201.487 93.9966 195.038 93.9966 189H141.994C141.994 195.038 139.482 201.487 134.982 205.987C130.482 210.487 124.032 213 117.995 213Z" fill="#7FCBFF"/>
<path d="M127.995 40.2V41.8345L129.596 42.16C156.057 47.5357 175.992 70.9452 175.992 99V106.05C175.992 124.204 182.66 141.663 194.682 155.227L194.686 155.231L197.455 158.337C197.456 158.338 197.456 158.339 197.457 158.34C200.092 161.322 200.738 165.506 199.118 169.089C197.49 172.69 193.925 175 189.991 175H45.9992C42.0627 175 38.4912 172.688 36.8779 169.094C35.2671 165.505 35.9057 161.319 38.5273 158.34C38.5288 158.338 38.5303 158.337 38.5317 158.335L41.3035 155.233L41.308 155.228C53.3461 141.663 59.9986 124.203 59.9986 106.05V99C59.9986 70.9347 79.606 47.536 106.389 42.1609L107.996 41.8385V40.2V33C107.996 27.477 112.464 23 117.995 23C123.526 23 127.995 27.477 127.995 33V40.2ZM117.995 211C112.146 211 106.544 208.695 102.423 204.573C98.8043 200.954 96.5771 195.923 96.0954 191H139.895C139.413 195.923 137.186 200.954 133.568 204.573C129.456 208.685 123.521 211 117.995 211Z" stroke="#0A142B" stroke-opacity="0.3" stroke-width="4"/>
<path d="M154.994 109C154.994 129.435 138.429 146 117.996 146C97.5627 146 80.998 129.435 80.998 109C80.998 88.5654 97.5627 72 117.996 72C138.429 72 154.994 88.5654 154.994 109Z" fill="#F5F7FA" stroke="#5C94C0" stroke-width="4"/>
<path d="M111.781 94.75V96.75H113.781H123.209H125.209V94.75V92.375C125.209 92.1525 125.383 92 125.566 92C125.75 92 125.923 92.1525 125.923 92.375V94.75V96.75H127.923H131.459C132.292 96.75 132.994 97.4354 132.994 98.3125V99.875H103.996V98.3125C103.996 97.4352 104.698 96.75 105.532 96.75H109.067H111.067V94.75V92.375C111.067 92.1525 111.241 92 111.424 92C111.608 92 111.781 92.1525 111.781 92.375V94.75ZM132.994 124.438C132.994 125.314 132.292 126 131.459 126H105.532C104.698 126 103.996 125.314 103.996 124.438V106.25H132.994V124.438Z" fill="#FFEAAC" stroke="#5C94C0" stroke-width="4"/>
</svg>
