<svg width="244" height="219" viewBox="0 0 244 219" fill="none" xmlns="http://www.w3.org/2000/svg">
<rect x="15.3633" y="113.12" width="51.5111" height="41.6281" fill="#E9EEC9"/>
<rect x="70.4893" y="75.1116" width="21.6889" height="29.8636" fill="#E9EEC9"/>
<path d="M94.7719 45.2479C102.247 45.2479 108.311 52.5408 108.311 61.5372V202.711C108.311 211.704 102.247 219 94.7719 219H67.6942H61.8189C61.8189 219 61.8343 219 54.3598 219C46.8852 219 46.9006 219 46.9006 219H13.5388C6.06146 219 0 211.704 0 202.711V61.5372C0 52.5408 6.06146 45.2479 13.5388 45.2479H94.7719ZM18.0518 137.554C18.0518 140.54 20.0713 142.983 22.5647 142.983H31.5906C34.0728 142.983 36.1036 140.54 36.1036 137.554V126.694C36.1036 123.708 34.0728 121.264 31.5906 121.264H22.5647C20.0713 121.264 18.0518 123.708 18.0518 126.694V137.554ZM49.6424 121.264C47.1603 121.264 45.1295 123.708 45.1295 126.694V137.554C45.1295 140.54 47.1603 142.983 49.6424 142.983H58.6683C61.1505 142.983 63.1813 140.54 63.1813 137.554V126.694C63.1813 123.708 61.1505 121.264 58.6683 121.264H49.6424ZM72.2072 137.554C72.2072 140.54 74.238 142.983 76.7201 142.983H85.746C88.2282 142.983 90.259 140.54 90.259 137.554V126.694C90.259 123.708 88.2282 121.264 85.746 121.264H76.7201C74.238 121.264 72.2072 123.708 72.2072 126.694V137.554ZM22.5647 77.8264C20.0713 77.8264 18.0518 80.2698 18.0518 83.2562V94.1157C18.0518 97.1021 20.0713 99.5454 22.5647 99.5454H31.5906C34.0728 99.5454 36.1036 97.1021 36.1036 94.1157V83.2562C36.1036 80.2698 34.0728 77.8264 31.5906 77.8264H22.5647ZM45.1295 94.1157C45.1295 97.1021 47.1603 99.5454 49.6424 99.5454H58.6683C61.1505 99.5454 63.1813 97.1021 63.1813 94.1157V83.2562C63.1813 80.2698 61.1505 77.8264 58.6683 77.8264H49.6424C47.1603 77.8264 45.1295 80.2698 45.1295 83.2562V94.1157ZM76.7201 77.8264C74.238 77.8264 72.2072 80.2698 72.2072 83.2562V94.1157C72.2072 97.1021 74.238 99.5454 76.7201 99.5454H85.746C88.2282 99.5454 90.259 97.1021 90.259 94.1157V83.2562C90.259 80.2698 88.2282 77.8264 85.746 77.8264H76.7201Z" fill="#CCCCCC"/>
<path d="M94.7719 47.2479C100.812 47.2479 106.311 53.2834 106.311 61.5372V202.711C106.311 210.961 100.812 217 94.7719 217H67.6942H61.8189H61.8188H61.8186H61.8185H61.8183H61.8181H61.8179H61.8178H61.8177H61.8175H61.8174H61.8172H61.8171H61.8169H61.8167H61.8165H61.8163H61.8161H61.8158H61.8156H61.8153H61.8151H61.8148H61.8145H61.8142H61.8138H61.8135H61.8131H61.8127H61.8123H61.8119H61.8115H61.8111H61.8106H61.8101H61.8096H61.8091H61.8086H61.808H61.8074H61.8069H61.8062H61.8056H61.805H61.8043H61.8036H61.8029H61.8021H61.8014H61.8006H61.7998H61.7989H61.7981H61.7972H61.7963H61.7954H61.7944H61.7934H61.7924H61.7914H61.7903H61.7892H61.7881H61.787H61.7858H61.7846H61.7834H61.7822H61.7809H61.7796H61.7782H61.7768H61.7754H61.774H61.7725H61.771H61.7695H61.768H61.7664H61.7647H61.7631H61.7614H61.7597H61.7579H61.7561H61.7543H61.7524H61.7505H61.7486H61.7466H61.7446H61.7425H61.7405H61.7383H61.7362H61.734H61.7317H61.7295H61.7272H61.7248H61.7224H61.72H61.7175H61.715H61.7124H61.7098H61.7072H61.7045H61.7018H61.699H61.6962H61.6934H61.6905H61.6875H61.6845H61.6815H61.6784H61.6753H61.6721H61.6689H61.6656H61.6623H61.659H61.6556H61.6521H61.6486H61.6451H61.6415H61.6378H61.6341H61.6304H61.6266H61.6227H61.6188H61.6149H61.6109H61.6068H61.6027H61.5986H61.5944H61.5901H61.5858H61.5814H61.577H61.5725H61.568H61.5634H61.5587H61.554H61.5493H61.5444H61.5396H61.5346H61.5297H61.5246H61.5195H61.5143H61.5091H61.5038H61.4985H61.4931H61.4876H61.4821H61.4765H61.4709H61.4652H61.4594H61.4536H61.4477H61.4417H61.4357H61.4296H61.4235H61.4172H61.411H61.4046H61.3982H61.3917H61.3852H61.3786H61.3719H61.3652H61.3584H61.3515H61.3446H61.3375H61.3305H61.3233H61.3161H61.3088H61.3014H61.294H61.2865H61.2789H61.2713H61.2636H61.2558H61.2479H61.24H61.232H61.2239H61.2158H61.2076H61.1992H61.1909H61.1824H61.1739H61.1653H61.1566H61.1479H61.139H61.1301H61.1211H61.1121H61.1029H61.0937H61.0844H61.075H61.0656H61.056H61.0464H61.0367H61.0269H61.0171H61.0071H60.9971H60.987H60.9768H60.9665H60.9562H60.9457H60.9352H60.9246H60.9139H60.9031H60.8923H60.8813H60.8703H60.8592H60.848H60.8367H60.8253H60.8138H60.8023H60.7906H60.7789H60.7671H60.7552H60.7432H60.7311H60.7189H60.7066H60.6943H60.6818H60.6693H60.6567H60.6439H60.6311H60.6182H60.6052H60.5921H60.5789H60.5656H60.5522H60.5387H60.5252H60.5115H60.4977H60.4839H60.4699H60.4559H60.4417H60.4275H60.4131H60.3987H60.3841H60.3695H60.3547H60.3399H60.325H60.3099H60.2948H60.2795H60.2642H60.2487H60.2332H60.2175H60.2018H60.1859H60.17H60.1539H60.1377H60.1215H60.1051H60.0886H60.072H60.0553H60.0385H60.0216H60.0046H59.9875H59.9703H59.9529H59.9355H59.9179H59.9003H59.8825H59.8646H59.8466H59.8285H59.8103H59.792H59.7736H59.755H59.7364H59.7176H59.6987H59.6798H59.6607H59.6414H59.6221H59.6027H59.5831H59.5634H59.5436H59.5237H59.5037H59.4836H59.4633H59.443H59.4225H59.4019H59.3812H59.3603H59.3394H59.3183H59.2971H59.2758H59.2543H59.2328H59.2111H59.1893H59.1674H59.1454H59.1232H59.1009H59.0785H59.056H59.0333H59.0106H58.9877H58.9646H58.9415H58.9182H58.8948H58.8713H58.8477H58.8239H58.8H58.776H58.7518H58.7275H58.7031H58.6786H58.6539H58.6291H58.6042H58.5791H58.554H58.5286H58.5032H58.4776H58.4519H58.4261H58.4001H58.374H58.3478H58.3214H58.2949H58.2683H58.2415H58.2146H58.1876H58.1604H58.1331H58.1057H58.0781H58.0504H58.0225H57.9945H57.9664H57.9381H57.9097H57.8812H57.8525H57.8237H57.7948H57.7657H57.7364H57.7071H57.6775H57.6479H57.6181H57.5882H57.5581H57.5278H57.4975H57.467H57.4363H57.4055H57.3746H57.3435H57.3123H57.2809H57.2494H57.2177H57.1859H57.154H57.1219H57.0896H57.0572H57.0247H56.992H56.9591H56.9261H56.893H56.8597H56.8263H56.7927H56.759H56.7251H56.691H56.6568H56.6225H56.588H56.5534H56.5186H56.4836H56.4485H56.4132H56.3778H56.3423H56.3065H56.2707H56.2346H56.1985H56.1621H56.1256H56.089H56.0521H56.0152H55.978H55.9408H55.9033H55.8657H55.8279H55.79H55.7519H55.7137H55.6753H55.6367H55.598H55.5591H55.5201H55.4809H55.4415H55.402H55.3623H55.3224H55.2824H55.2422H55.2018H55.1613H55.1206H55.0798H55.0388H54.9976H54.9563H54.9147H54.8731H54.8312H54.7892H54.747H54.7047H54.6621H54.6195H54.5766H54.5336H54.4904H54.447H54.4035H54.3598H54.316H54.2725H54.2291H54.1859H54.1429H54.1001H54.0574H54.0148H53.9725H53.9303H53.8883H53.8464H53.8048H53.7633H53.7219H53.6807H53.6397H53.5989H53.5582H53.5177H53.4773H53.4371H53.3971H53.3572H53.3175H53.278H53.2386H53.1994H53.1604H53.1215H53.0828H53.0442H53.0058H52.9676H52.9295H52.8916H52.8538H52.8162H52.7788H52.7415H52.7043H52.6674H52.6306H52.5939H52.5574H52.5211H52.4849H52.4488H52.413H52.3772H52.3417H52.3063H52.271H52.2359H52.2009H52.1661H52.1315H52.097H52.0627H52.0285H51.9944H51.9605H51.9268H51.8932H51.8598H51.8265H51.7934H51.7604H51.7275H51.6948H51.6623H51.6299H51.5977H51.5655H51.5336H51.5018H51.4701H51.4386H51.4072H51.376H51.3449H51.314H51.2832H51.2525H51.222H51.1917H51.1614H51.1314H51.1014H51.0716H51.042H51.0125H50.9831H50.9538H50.9247H50.8958H50.867H50.8383H50.8098H50.7814H50.7531H50.725H50.697H50.6691H50.6414H50.6138H50.5864H50.5591H50.5319H50.5049H50.478H50.4512H50.4246H50.3981H50.3717H50.3455H50.3194H50.2934H50.2676H50.2419H50.2163H50.1909H50.1656H50.1404H50.1153H50.0904H50.0656H50.0409H50.0164H49.992H49.9677H49.9435H49.9195H49.8956H49.8718H49.8482H49.8247H49.8013H49.778H49.7549H49.7318H49.7089H49.6862H49.6635H49.641H49.6186H49.5963H49.5741H49.5521H49.5302H49.5084H49.4867H49.4652H49.4437H49.4224H49.4012H49.3801H49.3592H49.3384H49.3176H49.297H49.2765H49.2562H49.2359H49.2158H49.1958H49.1759H49.1561H49.1364H49.1168H49.0974H49.0781H49.0589H49.0398H49.0208H49.0019H48.9831H48.9645H48.9459H48.9275H48.9092H48.891H48.8729H48.8549H48.837H48.8192H48.8016H48.784H48.7666H48.7493H48.732H48.7149H48.6979H48.681H48.6642H48.6475H48.6309H48.6144H48.5981H48.5818H48.5656H48.5495H48.5336H48.5177H48.502H48.4863H48.4708H48.4553H48.44H48.4247H48.4096H48.3946H48.3796H48.3648H48.35H48.3354H48.3208H48.3064H48.292H48.2778H48.2636H48.2496H48.2356H48.2218H48.208H48.1943H48.1808H48.1673H48.1539H48.1406H48.1274H48.1143H48.1013H48.0884H48.0756H48.0629H48.0502H48.0377H48.0252H48.0129H48.0006H47.9884H47.9763H47.9643H47.9524H47.9406H47.9289H47.9172H47.9057H47.8942H47.8828H47.8715H47.8603H47.8492H47.8382H47.8272H47.8164H47.8056H47.7949H47.7843H47.7738H47.7633H47.753H47.7427H47.7325H47.7224H47.7124H47.7024H47.6926H47.6828H47.6731H47.6635H47.6539H47.6445H47.6351H47.6258H47.6166H47.6074H47.5984H47.5894H47.5805H47.5716H47.5629H47.5542H47.5456H47.5371H47.5286H47.5203H47.512H47.5037H47.4956H47.4875H47.4795H47.4716H47.4637H47.4559H47.4482H47.4406H47.433H47.4255H47.4181H47.4107H47.4034H47.3962H47.389H47.382H47.3749H47.368H47.3611H47.3543H47.3476H47.3409H47.3343H47.3278H47.3213H47.3149H47.3085H47.3023H47.296H47.2899H47.2838H47.2778H47.2718H47.2659H47.2601H47.2543H47.2486H47.243H47.2374H47.2319H47.2264H47.221H47.2157H47.2104H47.2052H47.2H47.1949H47.1899H47.1849H47.1799H47.1751H47.1702H47.1655H47.1608H47.1561H47.1515H47.147H47.1425H47.1381H47.1337H47.1294H47.1251H47.1209H47.1168H47.1127H47.1086H47.1046H47.1007H47.0968H47.0929H47.0891H47.0854H47.0817H47.078H47.0744H47.0709H47.0674H47.0639H47.0605H47.0572H47.0539H47.0506H47.0474H47.0442H47.0411H47.038H47.035H47.032H47.029H47.0261H47.0233H47.0205H47.0177H47.015H47.0123H47.0097H47.0071H47.0045H47.002H46.9995H46.9971H46.9947H46.9923H46.99H46.9878H46.9855H46.9833H46.9812H46.979H46.977H46.9749H46.9729H46.9709H46.969H46.9671H46.9652H46.9634H46.9616H46.9598H46.9581H46.9564H46.9548H46.9531H46.9515H46.95H46.9485H46.947H46.9455H46.9441H46.9427H46.9413H46.9399H46.9386H46.9374H46.9361H46.9349H46.9337H46.9325H46.9314H46.9303H46.9292H46.9281H46.9271H46.9261H46.9251H46.9241H46.9232H46.9223H46.9214H46.9206H46.9197H46.9189H46.9181H46.9174H46.9166H46.9159H46.9152H46.9146H46.9139H46.9133H46.9126H46.9121H46.9115H46.9109H46.9104H46.9099H46.9094H46.9089H46.9084H46.908H46.9076H46.9072H46.9068H46.9064H46.906H46.9057H46.9053H46.905H46.9047H46.9044H46.9042H46.9039H46.9037H46.9034H46.9032H46.903H46.9028H46.9026H46.9024H46.9023H46.9021H46.902H46.9018H46.9017H46.9016H46.9014H46.9012H46.9011H46.9009H46.9008H46.9007H13.5388C7.49661 217 2 210.962 2 202.711V61.5372C2 53.2831 7.49637 47.2479 13.5388 47.2479H94.7719ZM16.0518 137.554C16.0518 141.279 18.6335 144.983 22.5647 144.983H31.5906C35.5077 144.983 38.1036 141.282 38.1036 137.554V126.694C38.1036 122.965 35.5077 119.264 31.5906 119.264H22.5647C18.6335 119.264 16.0518 122.969 16.0518 126.694V137.554ZM49.6424 119.264C45.7254 119.264 43.1295 122.965 43.1295 126.694V137.554C43.1295 141.282 45.7254 144.983 49.6424 144.983H58.6683C62.5854 144.983 65.1813 141.282 65.1813 137.554V126.694C65.1813 122.965 62.5854 119.264 58.6683 119.264H49.6424ZM70.2072 137.554C70.2072 141.282 72.8031 144.983 76.7201 144.983H85.746C89.6631 144.983 92.259 141.282 92.259 137.554V126.694C92.259 122.965 89.6631 119.264 85.746 119.264H76.7201C72.8031 119.264 70.2072 122.965 70.2072 126.694V137.554ZM22.5647 75.8264C18.6335 75.8264 16.0518 79.5309 16.0518 83.2562V94.1157C16.0518 97.8409 18.6335 101.545 22.5647 101.545H31.5906C35.5077 101.545 38.1036 97.8444 38.1036 94.1157V83.2562C38.1036 79.5275 35.5077 75.8264 31.5906 75.8264H22.5647ZM43.1295 94.1157C43.1295 97.8444 45.7254 101.545 49.6424 101.545H58.6683C62.5854 101.545 65.1813 97.8444 65.1813 94.1157V83.2562C65.1813 79.5275 62.5854 75.8264 58.6683 75.8264H49.6424C45.7254 75.8264 43.1295 79.5275 43.1295 83.2562V94.1157ZM76.7201 75.8264C72.8031 75.8264 70.2072 79.5275 70.2072 83.2562V94.1157C70.2072 97.8444 72.8031 101.545 76.7201 101.545H85.746C89.6631 101.545 92.259 97.8444 92.259 94.1157V83.2562C92.259 79.5275 89.6631 75.8264 85.746 75.8264H76.7201Z" stroke="#283148" stroke-opacity="0.45" stroke-width="4"/>
<rect x="18.0742" y="77.8264" width="18.0741" height="21.719" rx="5" fill="#E9EEC9"/>
<rect x="44.959" y="77.8264" width="18.3" height="21.719" rx="5" fill="#E9EEC9"/>
<rect x="72.2959" y="121.264" width="18.0741" height="21.719" rx="5" fill="#E9EEC9"/>
<path d="M182.705 162.679L182.88 202.862C182.88 203.564 182.83 204.217 182.755 204.895V208.961C182.755 214.507 178.261 219 172.713 219H168.697C168.42 219 168.144 218.774 167.868 218.975C167.517 218.774 167.165 219 166.814 219H152.63C147.082 219 142.588 214.507 142.588 208.961V186.874C142.588 182.432 138.999 178.842 134.555 178.842H118.489C114.045 178.842 110.455 182.432 110.455 186.874V208.961C110.455 214.507 105.962 219 100.414 219H86.3808C86.0042 219 85.6277 218.975 85.2511 218.95C84.9499 218.975 84.6486 219 84.3474 219H80.3307C74.7853 219 70.2892 214.507 70.2892 208.961V180.85C70.2892 180.624 70.2967 180.373 70.3118 180.148V162.679H62.2685C57.7422 162.679 54.2227 159.14 54.2227 154.622C54.2227 152.364 54.9768 150.356 56.7356 148.599L121.1 92.5077C122.857 90.7473 124.865 90.4958 126.622 90.4958C128.38 90.4958 130.388 90.9988 131.919 92.2563L158.655 115.77V106.559C158.655 102.124 162.245 98.5274 166.688 98.5274H174.721C179.165 98.5274 182.755 102.124 182.755 106.559V136.928L196.01 148.599C198.018 150.356 199.047 152.364 198.771 154.622C198.771 159.14 195.005 162.679 190.738 162.679H182.705Z" fill="#719192"/>
<path d="M182.705 160.679H180.696L180.705 162.688L180.88 202.862C180.88 202.863 180.88 202.864 180.88 202.865C180.88 203.468 180.837 204.042 180.767 204.674L180.755 204.784V204.895V208.961C180.755 213.402 177.157 217 172.713 217H168.878C168.872 216.998 168.866 216.997 168.86 216.995C168.822 216.985 168.776 216.973 168.725 216.962C168.557 216.924 168.248 216.866 167.872 216.904C167.862 216.906 167.852 216.907 167.842 216.908C167.481 216.869 167.179 216.909 166.989 216.943C166.903 216.959 166.827 216.975 166.778 216.986C166.749 216.993 166.73 216.997 166.716 217H152.63C148.186 217 144.588 213.402 144.588 208.961V186.874C144.588 181.327 140.103 176.842 134.555 176.842H118.489C112.941 176.842 108.455 181.327 108.455 186.874V208.961C108.455 213.402 104.858 217 100.414 217H86.3808C86.0819 217 85.7719 216.98 85.3841 216.954L85.2345 216.944L85.0851 216.957C84.7697 216.983 84.5515 217 84.3474 217H80.3307C75.8891 217 72.2892 213.402 72.2892 208.961V180.85C72.2892 180.664 72.2955 180.458 72.3073 180.281L72.3118 180.214V180.148V162.679V160.679H70.3118H62.2685C58.8517 160.679 56.2227 158.04 56.2227 154.622C56.2227 152.895 56.7669 151.415 58.1036 150.059L122.413 94.0155L122.466 93.9699L122.515 93.9207C123.716 92.7173 125.069 92.4958 126.622 92.4958C128.036 92.4958 129.543 92.9053 130.626 93.7825L157.334 117.272L160.655 120.192V115.77V106.559C160.655 103.228 163.35 100.527 166.688 100.527H174.721C178.06 100.527 180.755 103.228 180.755 106.559V136.928V137.832L181.433 138.429L194.688 150.1L194.693 150.104C196.387 151.586 196.956 152.989 196.786 154.38L196.771 154.501V154.622C196.771 158.003 193.934 160.679 190.738 160.679H182.705ZM168.995 217.033C168.993 217.032 168.991 217.032 168.989 217.031C168.996 217.033 168.999 217.034 168.995 217.033Z" stroke="#283148" stroke-opacity="0.45" stroke-width="4"/>
<ellipse cx="189.778" cy="54.2975" rx="54.2222" ry="54.2975" fill="#F9CB40" fill-opacity="0.2"/>
<path d="M242 54.2975C242 83.1833 218.617 106.595 189.778 106.595C160.939 106.595 137.556 83.1833 137.556 54.2975C137.556 25.4118 160.939 2 189.778 2C218.617 2 242 25.4118 242 54.2975Z" stroke="#283148" stroke-opacity="0.45" stroke-width="4"/>
<rect x="173.511" y="32.5785" width="36.1481" height="42.5331" fill="#E9EEC9"/>
<path d="M160.938 57.3768C158.472 37.8693 174.839 21.4917 194.295 23.968L194.296 23.9682C207.371 25.6255 218.107 36.2916 219.848 49.37L219.848 49.3707C220.878 57.0867 218.956 64.3098 215.068 70.0874L214.149 71.4527L215.312 72.6172L233.567 90.8971L233.571 90.9012C235.168 92.4914 235.172 95.1023 233.572 96.7051C231.971 98.3082 229.376 98.3082 227.775 96.7051L209.52 78.4252L208.354 77.2578L206.987 78.1804C201.216 82.0729 194.006 83.9968 186.303 82.9659L186.303 82.9659C173.244 81.2189 162.593 70.471 160.938 57.3768ZM160.938 57.3768L158.954 57.6276L160.938 57.3768ZM193.043 71.3235C194.788 69.3331 197.85 65.605 200.49 61.6068C201.809 59.6084 203.049 57.5026 203.966 55.4848C204.865 53.5068 205.541 51.429 205.541 49.5399C205.541 41.1414 198.764 34.3759 190.273 34.3759C182.029 34.3759 175.28 41.1686 175.28 49.5399C175.28 51.4302 175.954 53.5086 176.851 55.4862C177.765 57.5036 179.001 59.6085 180.311 61.6049C182.933 65.6001 185.961 69.3223 187.627 71.2946L187.641 71.3104L187.655 71.326C188.232 71.9815 189.183 72.5839 190.273 72.5839C191.36 72.5839 192.366 72.096 193.043 71.3235ZM193.043 71.3235L191.539 70.005L193.044 71.3219C193.044 71.3224 193.043 71.323 193.043 71.3235ZM192.68 48.593C192.68 49.852 191.661 50.869 190.41 50.869C189.158 50.869 188.14 49.8563 188.14 48.593C188.14 47.3279 189.153 46.317 190.41 46.317C191.667 46.317 192.68 47.3279 192.68 48.593Z" fill="#F9CB40" stroke="#506670" stroke-width="4"/>
</svg>
