<svg width="235" height="235" viewBox="0 0 235 235" fill="none" xmlns="http://www.w3.org/2000/svg">
<path d="M104.508 0.728639C169.268 -6.43544 227.599 40.0373 234.793 104.528C238.423 137.066 193.336 104.002 174.139 127.562C155.286 150.7 162.647 230.722 130.56 234.271C65.7992 241.435 7.46848 194.963 0.27447 130.472C-3.80105 93.9365 38.4833 133.219 62.4769 108.889C80.8363 90.2716 76.4352 3.83415 104.508 0.728639Z" fill="#E5F5FF"/>
<path d="M47 46.5C47 33.5199 57.5199 23 70.5 23H129.25V70C129.25 76.4992 134.501 81.75 141 81.75H188V187.5C188 200.462 177.462 211 164.5 211H70.5C57.5199 211 47 200.462 47 187.5V46.5ZM141 70V23L188 70H141Z" fill="#7FCBFF"/>
<path d="M49 46.5C49 34.6245 58.6245 25 70.5 25H127.25V70C127.25 77.6038 133.396 83.75 141 83.75H186V187.5C186 199.357 176.357 209 164.5 209H70.5C58.6255 209 49 199.358 49 187.5V46.5ZM143 68V27.8284L183.172 68H143Z" stroke="#0A142B" stroke-opacity="0.3" stroke-width="4"/>
<circle cx="76.3756" cy="173.792" r="10.7292" fill="#F4B7C5" stroke="#5C94C0" stroke-width="4"/>
<circle cx="76.3756" cy="143.437" r="10.7292" fill="#FFEAAC" stroke="#5C94C0" stroke-width="4"/>
<circle cx="76.3756" cy="114.062" r="10.7292" fill="#B0E6CC" stroke="#5C94C0" stroke-width="4"/>
<rect x="101.875" y="166" width="67.4792" height="16.5625" rx="8" fill="#F5F7FA" stroke="#5C94C0" stroke-width="4"/>
<rect x="101.875" y="135.646" width="67.4792" height="16.5625" rx="8" fill="#F5F7FA" stroke="#5C94C0" stroke-width="4"/>
<rect x="101.875" y="106.271" width="67.4792" height="16.5625" rx="8" fill="#F5F7FA" stroke="#5C94C0" stroke-width="4"/>
</svg>
