<svg width="235" height="235" viewBox="0 0 235 235" fill="none" xmlns="http://www.w3.org/2000/svg">
<path d="M104.508 0.728639C169.268 -6.43544 227.599 40.0373 234.793 104.528C238.423 137.066 193.336 104.002 174.139 127.562C155.286 150.7 162.647 230.722 130.56 234.271C65.7992 241.435 7.46848 194.963 0.27447 130.472C-3.80105 93.9365 38.4833 133.219 62.4769 108.889C80.8363 90.2716 76.4352 3.83415 104.508 0.728639Z" fill="#E5F5FF"/>
<path d="M120.292 65.8994L118.016 70.6692C134.337 82.7897 140.304 105.187 131.13 124.415L128.902 129.086C123.319 140.787 122.235 154.04 125.789 166.39L126.638 169.307C127.592 172.638 126.524 176.21 123.873 178.466C121.222 180.722 117.522 181.243 114.402 179.787L19.3032 135.41C16.1828 133.954 14.2295 130.795 14.3142 127.341C14.3989 123.888 16.4984 120.797 19.6979 119.405L22.5182 118.2C34.427 113.065 44.0708 103.806 49.6534 92.1051L51.8817 87.4346C61.0556 68.2061 82.1069 58.4171 102.166 63.2731L104.442 58.5032C106.536 54.1135 111.776 52.2061 116.16 54.2516C120.543 56.2971 122.386 61.5096 120.292 65.8994ZM55.4739 181.448C51.2638 179.483 48.0212 175.935 46.4717 171.567C44.9222 167.199 45.3016 162.152 47.2099 158.152L78.9093 172.944C77.001 176.944 73.3031 180.443 68.909 182.037C64.5148 183.631 59.4611 183.308 55.4739 181.448Z" fill="#F5F7FA"/>
<path d="M116.203 69.8235L115.501 71.2966L116.809 72.2681C132.376 83.8288 138.079 105.207 129.318 123.57L127.09 128.24C121.297 140.381 120.171 154.133 123.86 166.948L123.861 166.953L124.708 169.863C124.708 169.864 124.709 169.865 124.709 169.867C125.449 172.457 124.616 175.216 122.573 176.955C120.515 178.707 117.659 179.1 115.263 177.982L20.1645 133.605C17.7656 132.485 16.2546 130.052 16.3202 127.379C16.3856 124.709 18.0065 122.316 20.4889 121.232C20.4908 121.232 20.4928 121.231 20.4947 121.23L23.3025 120.03L23.3087 120.028C35.6667 114.7 45.6736 105.091 51.4657 92.9508L53.694 88.2803C62.4594 69.9084 82.5512 60.5789 101.681 65.2099L103.274 65.5956L103.979 64.1188L106.254 59.349C107.879 55.9428 111.929 54.4845 115.298 56.0566C118.668 57.6288 120.104 61.6475 118.479 65.0536L116.203 69.8235ZM56.3351 179.642C52.6057 177.902 49.7359 174.761 48.3646 170.895C47.228 167.691 47.2677 164.038 48.2855 160.861L76.1112 173.845C74.2789 176.642 71.4529 178.995 68.2296 180.165C64.3547 181.571 59.8551 181.285 56.3351 179.642Z" stroke="#0A142B" stroke-opacity="0.3" stroke-width="4"/>
<path d="M55.473 181.448C51.2629 179.483 48.0203 175.935 46.4708 171.567C44.9213 167.199 45.3007 162.152 47.209 158.152L78.9085 172.944C77.0002 176.944 73.3022 180.443 68.9081 182.037C64.514 183.631 59.4602 183.308 55.473 181.448Z" fill="#FFEAAC"/>
<path d="M56.3342 179.642C52.6048 177.902 49.735 174.761 48.3637 170.895C47.2271 167.691 47.2669 164.038 48.2847 160.861L76.1104 173.845C74.278 176.642 71.452 178.995 68.2287 180.165C64.3539 181.571 59.8542 181.285 56.3342 179.642Z" stroke="#0A142B" stroke-opacity="0.3" stroke-width="4"/>
<path d="M126.918 58.6472L129.232 63.4972C149.401 58.6654 171.032 68.513 180.36 88.0644L182.626 92.8133C188.302 104.711 198.118 114.121 210.217 119.346L213.081 120.573C216.341 121.986 218.484 125.124 218.561 128.64C218.637 132.156 216.659 135.365 213.486 136.845L116.791 181.967C113.618 183.448 109.848 182.921 107.162 180.623C104.476 178.325 103.381 174.697 104.345 171.314L105.212 168.346C108.836 155.783 107.723 142.312 102.047 130.415L99.781 125.666C90.453 106.115 96.2942 83.4472 113.116 71.0175L110.802 66.1675C108.672 61.7041 110.546 56.404 115.003 54.3241C119.46 52.2443 124.788 54.1838 126.918 58.6472Z" fill="#E5F5FF"/>
<path d="M130.553 60.1692L132.829 64.939C152.665 60.187 173.939 69.8721 183.113 89.1005L185.342 93.771C190.924 105.472 200.578 114.727 212.477 119.866L215.293 121.073C218.499 122.462 220.608 125.548 220.683 129.006C220.758 132.464 218.812 135.62 215.692 137.076L120.593 181.453C117.473 182.909 113.765 182.391 111.124 180.131C108.482 177.87 107.406 174.303 108.353 170.975L109.206 168.056C112.77 155.701 111.675 142.453 106.093 130.752L103.865 126.081C94.6906 106.853 100.435 84.5596 116.979 72.3352L114.703 67.5653C112.609 63.1756 114.452 57.963 118.835 55.9175C123.219 53.872 128.459 55.7794 130.553 60.1692ZM179.521 183.114C175.311 185.078 170.48 185.297 166.086 183.703C161.692 182.109 157.994 178.61 156.086 174.61L187.785 159.818C189.693 163.818 190.073 168.865 188.523 173.233C186.974 177.601 183.508 181.253 179.521 183.114Z" fill="#7FCBFF"/>
<path d="M131.016 65.7848L131.719 67.2579L133.309 66.877C152.229 62.3445 172.54 71.5839 181.301 89.9463L183.529 94.6168C189.322 106.758 199.339 116.361 211.685 121.693L211.69 121.695L214.499 122.899C214.501 122.9 214.502 122.9 214.503 122.901C216.995 123.982 218.619 126.372 218.677 129.038C218.735 131.723 217.227 134.153 214.83 135.271L119.732 179.648C117.333 180.767 114.473 180.373 112.429 178.624C110.387 176.876 109.549 174.117 110.282 171.533C110.283 171.531 110.283 171.529 110.284 171.527L111.133 168.621L111.135 168.615C114.834 155.794 113.697 142.046 107.905 129.906L105.677 125.235C96.9116 106.864 102.405 85.595 118.182 73.9369L119.496 72.9662L118.791 71.4894L116.516 66.7196C114.891 63.3134 116.327 59.2948 119.697 57.7226C123.066 56.1504 127.116 57.6088 128.741 61.0149L131.016 65.7848ZM178.66 181.308C174.93 183.049 170.654 183.242 166.765 181.831C163.542 180.661 160.716 178.308 158.884 175.511L186.709 162.527C187.727 165.704 187.767 169.357 186.63 172.561C185.264 176.413 182.18 179.666 178.66 181.308Z" stroke="#0A142B" stroke-opacity="0.3" stroke-width="4"/>
<path d="M166.135 107.412C170.677 117.213 166.426 128.858 156.645 133.423C146.864 137.988 135.252 133.746 130.711 123.945C126.17 114.144 130.421 102.499 140.201 97.9339C149.982 93.3689 161.594 97.6104 166.135 107.412Z" fill="#F5F7FA" stroke="#5C94C0" stroke-width="6"/>
<path d="M159.371 85.6763L137.476 145.68" stroke="#5C94C0" stroke-width="6" stroke-linecap="round"/>
</svg>
