<svg width="235" height="235" viewBox="0 0 235 235" fill="none" xmlns="http://www.w3.org/2000/svg">
<rect width="235" height="235" fill="#F5F5F5"/>
<rect width="1741" height="2576" transform="translate(-446 -1508)" fill="white"/>
<path d="M104.508 0.728639C169.268 -6.43544 227.599 40.0373 234.793 104.528C238.423 137.066 193.336 104.002 174.139 127.562C155.286 150.7 162.647 230.722 130.56 234.271C65.7992 241.435 7.46848 194.963 0.27447 130.472C-3.80105 93.9365 38.4833 133.219 62.4769 108.889C80.8363 90.2716 76.4352 3.83415 104.508 0.728639Z" fill="#E5F5FF"/>
<mask id="path-2-inside-1_203_446" fill="white">
<path fill-rule="evenodd" clip-rule="evenodd" d="M120.407 87.154C119.979 87.1812 119.55 87.1948 119.121 87.1947C108.137 87.1947 99.2193 78.2984 99.2193 67.3412C99.2193 56.384 108.137 47.4877 119.121 47.4877C130.105 47.4877 139.023 56.384 139.023 67.3412C139.029 71.8966 137.458 76.3142 134.575 79.8469L156.574 120.188C161.995 118.222 167.719 117.217 173.488 117.217C200.815 117.217 223 139.348 223 166.608C223 193.869 200.815 216 173.488 216C163.817 215.996 154.358 213.178 146.27 207.891C145.402 207.328 144.668 206.583 144.12 205.707C143.572 204.831 143.222 203.846 143.097 202.821C142.971 201.796 143.072 200.755 143.392 199.773C143.712 198.791 144.244 197.891 144.95 197.136C144.965 197.121 144.98 197.104 145.009 197.101C146.197 195.832 147.793 195.017 149.52 194.8C151.247 194.583 152.995 194.976 154.461 195.912C160.128 199.573 166.736 201.521 173.488 201.522C192.804 201.522 208.486 185.878 208.486 166.608C208.486 147.339 192.804 131.695 173.488 131.695C166.799 131.695 157.305 134.614 151.597 138.228C151.304 138.448 150.966 138.602 150.607 138.681C150.248 138.759 149.876 138.76 149.517 138.682C149.158 138.604 148.82 138.451 148.526 138.231C148.232 138.011 147.988 137.731 147.812 137.409L120.407 87.154ZM111.269 172.973C110.265 178.639 108.276 184.086 105.392 189.069C91.7284 212.678 61.423 220.779 37.7571 207.149C14.0912 193.519 5.97121 163.287 19.6337 139.678C24.4725 131.325 31.6488 124.562 40.2832 120.217C41.2057 119.749 42.2197 119.489 43.2541 119.453C44.2884 119.418 45.3179 119.609 46.2703 120.013C47.2232 120.416 48.076 121.023 48.7687 121.791C49.4613 122.558 49.9772 123.468 50.2798 124.455C50.2857 124.477 50.2915 124.497 50.2798 124.523C50.7888 126.184 50.6981 127.97 50.0233 129.571C49.3486 131.172 48.1325 132.486 46.5868 133.285C40.5744 136.349 35.579 141.084 32.203 146.917C22.5452 163.603 28.2847 184.974 45.0131 194.61C61.7414 204.244 83.1647 198.517 92.8225 181.83C96.167 176.051 98.3795 166.39 98.097 159.652C98.0521 159.288 98.0864 158.919 98.1975 158.569C98.3087 158.22 98.4942 157.898 98.7412 157.627C98.9883 157.355 99.2912 157.14 99.6292 156.996C99.9672 156.852 100.332 156.783 100.7 156.792L158.031 158.244C158.22 157.862 158.422 157.486 158.639 157.113C164.131 147.624 176.313 144.367 185.825 149.845C195.339 155.325 198.602 167.477 193.11 176.966C187.618 186.455 175.436 189.711 165.923 184.233C161.965 181.96 158.916 178.394 157.29 174.137L111.269 172.973ZM87.2393 105.215C82.8218 101.514 79.0865 97.071 76.2019 92.0873C62.5385 68.4791 70.6585 38.2467 94.3244 24.6175C117.99 10.9884 148.297 19.0886 161.959 42.6958C166.791 51.0519 169.074 60.6327 168.53 70.264C168.475 71.2951 168.194 72.3017 167.707 73.2131C167.221 74.1245 166.54 74.9186 165.713 75.5397C164.886 76.1608 163.933 76.5938 162.921 76.8084C161.908 77.023 160.861 77.0139 159.852 76.7818C159.831 76.7769 159.81 76.7711 159.792 76.7479C158.096 76.3573 156.591 75.3858 155.539 74.0026C154.487 72.6194 153.954 70.912 154.033 69.1774C154.379 62.4504 152.767 55.7672 149.39 49.9341C139.732 33.2475 118.31 27.521 101.581 37.1552C84.854 46.7905 79.1125 68.1605 88.7713 84.8481C92.1158 90.6269 99.397 97.3693 105.387 100.494C105.725 100.637 106.029 100.851 106.276 101.122C106.524 101.393 106.71 101.714 106.823 102.063C106.935 102.412 106.97 102.781 106.927 103.145C106.883 103.51 106.761 103.86 106.569 104.173L76.6427 152.976C76.8796 153.33 77.1058 153.693 77.3223 154.066C82.8133 163.556 79.5494 175.708 70.0362 181.187C60.524 186.665 48.3421 183.409 42.8501 173.919C37.3581 164.43 40.622 152.278 50.1342 146.8C54.0859 144.517 58.7068 143.666 63.2152 144.39L87.2393 105.215Z"/>
</mask>
<path fill-rule="evenodd" clip-rule="evenodd" d="M120.407 87.154C119.979 87.1812 119.55 87.1948 119.121 87.1947C108.137 87.1947 99.2193 78.2984 99.2193 67.3412C99.2193 56.384 108.137 47.4877 119.121 47.4877C130.105 47.4877 139.023 56.384 139.023 67.3412C139.029 71.8966 137.458 76.3142 134.575 79.8469L156.574 120.188C161.995 118.222 167.719 117.217 173.488 117.217C200.815 117.217 223 139.348 223 166.608C223 193.869 200.815 216 173.488 216C163.817 215.996 154.358 213.178 146.27 207.891C145.402 207.328 144.668 206.583 144.12 205.707C143.572 204.831 143.222 203.846 143.097 202.821C142.971 201.796 143.072 200.755 143.392 199.773C143.712 198.791 144.244 197.891 144.95 197.136C144.965 197.121 144.98 197.104 145.009 197.101C146.197 195.832 147.793 195.017 149.52 194.8C151.247 194.583 152.995 194.976 154.461 195.912C160.128 199.573 166.736 201.521 173.488 201.522C192.804 201.522 208.486 185.878 208.486 166.608C208.486 147.339 192.804 131.695 173.488 131.695C166.799 131.695 157.305 134.614 151.597 138.228C151.304 138.448 150.966 138.602 150.607 138.681C150.248 138.759 149.876 138.76 149.517 138.682C149.158 138.604 148.82 138.451 148.526 138.231C148.232 138.011 147.988 137.731 147.812 137.409L120.407 87.154ZM111.269 172.973C110.265 178.639 108.276 184.086 105.392 189.069C91.7284 212.678 61.423 220.779 37.7571 207.149C14.0912 193.519 5.97121 163.287 19.6337 139.678C24.4725 131.325 31.6488 124.562 40.2832 120.217C41.2057 119.749 42.2197 119.489 43.2541 119.453C44.2884 119.418 45.3179 119.609 46.2703 120.013C47.2232 120.416 48.076 121.023 48.7687 121.791C49.4613 122.558 49.9772 123.468 50.2798 124.455C50.2857 124.477 50.2915 124.497 50.2798 124.523C50.7888 126.184 50.6981 127.97 50.0233 129.571C49.3486 131.172 48.1325 132.486 46.5868 133.285C40.5744 136.349 35.579 141.084 32.203 146.917C22.5452 163.603 28.2847 184.974 45.0131 194.61C61.7414 204.244 83.1647 198.517 92.8225 181.83C96.167 176.051 98.3795 166.39 98.097 159.652C98.0521 159.288 98.0864 158.919 98.1975 158.569C98.3087 158.22 98.4942 157.898 98.7412 157.627C98.9883 157.355 99.2912 157.14 99.6292 156.996C99.9672 156.852 100.332 156.783 100.7 156.792L158.031 158.244C158.22 157.862 158.422 157.486 158.639 157.113C164.131 147.624 176.313 144.367 185.825 149.845C195.339 155.325 198.602 167.477 193.11 176.966C187.618 186.455 175.436 189.711 165.923 184.233C161.965 181.96 158.916 178.394 157.29 174.137L111.269 172.973ZM87.2393 105.215C82.8218 101.514 79.0865 97.071 76.2019 92.0873C62.5385 68.4791 70.6585 38.2467 94.3244 24.6175C117.99 10.9884 148.297 19.0886 161.959 42.6958C166.791 51.0519 169.074 60.6327 168.53 70.264C168.475 71.2951 168.194 72.3017 167.707 73.2131C167.221 74.1245 166.54 74.9186 165.713 75.5397C164.886 76.1608 163.933 76.5938 162.921 76.8084C161.908 77.023 160.861 77.0139 159.852 76.7818C159.831 76.7769 159.81 76.7711 159.792 76.7479C158.096 76.3573 156.591 75.3858 155.539 74.0026C154.487 72.6194 153.954 70.912 154.033 69.1774C154.379 62.4504 152.767 55.7672 149.39 49.9341C139.732 33.2475 118.31 27.521 101.581 37.1552C84.854 46.7905 79.1125 68.1605 88.7713 84.8481C92.1158 90.6269 99.397 97.3693 105.387 100.494C105.725 100.637 106.029 100.851 106.276 101.122C106.524 101.393 106.71 101.714 106.823 102.063C106.935 102.412 106.97 102.781 106.927 103.145C106.883 103.51 106.761 103.86 106.569 104.173L76.6427 152.976C76.8796 153.33 77.1058 153.693 77.3223 154.066C82.8133 163.556 79.5494 175.708 70.0362 181.187C60.524 186.665 48.3421 183.409 42.8501 173.919C37.3581 164.43 40.622 152.278 50.1342 146.8C54.0859 144.517 58.7068 143.666 63.2152 144.39L87.2393 105.215Z" fill="#7FCBFF" stroke="#0A142B" stroke-opacity="0.3" stroke-width="8" mask="url(#path-2-inside-1_203_446)"/>
<mask id="path-3-inside-2_203_446" fill="white">
<path fill-rule="evenodd" clip-rule="evenodd" d="M87.0558 105.215C82.6384 101.514 78.9031 97.071 76.0185 92.0873C62.355 68.4791 70.4751 38.2467 94.141 24.6175C117.807 10.9884 148.113 19.0886 161.776 42.6958C166.608 51.0519 168.891 60.6327 168.346 70.264C168.291 71.2951 168.01 72.3017 167.524 73.2131C167.037 74.1245 166.357 74.9186 165.53 75.5397C164.703 76.1608 163.75 76.5938 162.737 76.8084C161.725 77.023 160.678 77.0139 159.669 76.7818C159.648 76.7769 159.626 76.7711 159.609 76.7479C157.913 76.3573 156.408 75.3858 155.355 74.0026C154.303 72.6194 153.77 70.912 153.85 69.1774C154.196 62.4504 152.583 55.7672 149.206 49.9341C139.549 33.2475 118.126 27.521 101.398 37.1552C84.6705 46.7905 78.929 68.1605 88.5878 84.8481C91.9323 90.6269 99.2135 97.3693 105.204 100.494C105.542 100.637 105.845 100.851 106.093 101.122C106.341 101.393 106.527 101.714 106.639 102.063C106.751 102.412 106.787 102.781 106.743 103.145C106.699 103.51 106.578 103.86 106.386 104.173L76.4592 152.976C76.6961 153.33 76.9223 153.693 77.1388 154.066C82.6298 163.556 79.3659 175.708 69.8528 181.187C60.3406 186.665 48.1586 183.409 42.6666 173.919C37.1747 164.43 40.4386 152.278 49.9508 146.8C53.9025 144.517 58.5233 143.666 63.0317 144.39L87.0558 105.215Z"/>
</mask>
<path fill-rule="evenodd" clip-rule="evenodd" d="M87.0558 105.215C82.6384 101.514 78.9031 97.071 76.0185 92.0873C62.355 68.4791 70.4751 38.2467 94.141 24.6175C117.807 10.9884 148.113 19.0886 161.776 42.6958C166.608 51.0519 168.891 60.6327 168.346 70.264C168.291 71.2951 168.01 72.3017 167.524 73.2131C167.037 74.1245 166.357 74.9186 165.53 75.5397C164.703 76.1608 163.75 76.5938 162.737 76.8084C161.725 77.023 160.678 77.0139 159.669 76.7818C159.648 76.7769 159.626 76.7711 159.609 76.7479C157.913 76.3573 156.408 75.3858 155.355 74.0026C154.303 72.6194 153.77 70.912 153.85 69.1774C154.196 62.4504 152.583 55.7672 149.206 49.9341C139.549 33.2475 118.126 27.521 101.398 37.1552C84.6705 46.7905 78.929 68.1605 88.5878 84.8481C91.9323 90.6269 99.2135 97.3693 105.204 100.494C105.542 100.637 105.845 100.851 106.093 101.122C106.341 101.393 106.527 101.714 106.639 102.063C106.751 102.412 106.787 102.781 106.743 103.145C106.699 103.51 106.578 103.86 106.386 104.173L76.4592 152.976C76.6961 153.33 76.9223 153.693 77.1388 154.066C82.6298 163.556 79.3659 175.708 69.8528 181.187C60.3406 186.665 48.1586 183.409 42.6666 173.919C37.1747 164.43 40.4386 152.278 49.9508 146.8C53.9025 144.517 58.5233 143.666 63.0317 144.39L87.0558 105.215Z" fill="#F5F7FA" stroke="#0A142B" stroke-opacity="0.3" stroke-width="8" mask="url(#path-3-inside-2_203_446)"/>
<circle cx="60" cy="164" r="20" fill="#FFEAAC"/>
<circle cx="60" cy="164" r="18" stroke="#0A142B" stroke-opacity="0.3" stroke-width="4"/>
<circle cx="176" cy="167" r="18" fill="#F5F7FA" stroke="#5C94C0" stroke-width="4"/>
<circle cx="119" cy="67" r="18" fill="#F5F7FA" stroke="#5C94C0" stroke-width="4"/>
</svg>
