<?xml version="1.0" standalone="no"?>
<!DOCTYPE svg PUBLIC "-//W3C//DTD SVG 20010904//EN"
 "http://www.w3.org/TR/2001/REC-SVG-20010904/DTD/svg10.dtd">
<svg version="1.0" xmlns="http://www.w3.org/2000/svg"
 width="256.000000pt" height="256.000000pt" viewBox="0 0 256.000000 256.000000"
 preserveAspectRatio="xMidYMid meet">
<metadata>
Created by potrace 1.15, written by Peter Selinger 2001-2017
</metadata>
<g transform="translate(0.000000,256.000000) scale(0.100000,-0.100000)"
fill="#000000" stroke="none">
<path d="M0 2430 l0 -129 126 -3 127 -3 228 -482 228 -482 -86 -148 c-103
-176 -112 -198 -112 -283 -1 -109 46 -186 144 -238 l50 -27 803 -3 802 -3 0
136 0 135 -750 0 c-645 0 -751 2 -756 14 -3 8 20 62 51 120 l56 105 502 3
c488 3 503 4 547 24 25 12 59 37 76 55 18 19 127 207 244 419 117 212 228 410
246 441 56 94 43 173 -36 214 -25 13 -161 15 -988 15 l-959 0 -55 123 -55 122
-216 3 -217 2 0 -130z"/>
<path d="M700 511 c-121 -40 -190 -130 -190 -251 0 -152 108 -260 259 -260
144 1 248 99 259 243 8 101 -50 202 -142 249 -44 22 -145 33 -186 19z"/>
<path d="M1931 489 c-197 -99 -195 -373 4 -465 94 -44 204 -29 281 39 117 103
124 268 16 376 -86 86 -193 104 -301 50z"/>
</g>
</svg>
