<?xml version="1.0" standalone="no"?>
<!DOCTYPE svg PUBLIC "-//W3C//DTD SVG 20010904//EN"
 "http://www.w3.org/TR/2001/REC-SVG-20010904/DTD/svg10.dtd">
<svg version="1.0" xmlns="http://www.w3.org/2000/svg"
 width="256.000000pt" height="256.000000pt" viewBox="0 0 256.000000 256.000000"
 preserveAspectRatio="xMidYMid meet">
<metadata>
Created by potrace 1.15, written by Peter Selinger 2001-2017
</metadata>
<g transform="translate(0.000000,256.000000) scale(0.100000,-0.100000)"
fill="#000000" stroke="none">
<path d="M270 2275 l-23 -74 -85 -3 -85 -3 58 -40 c32 -22 62 -43 68 -46 6 -4
0 -36 -16 -83 -14 -42 -22 -76 -18 -76 4 0 33 18 64 40 30 22 61 40 67 40 6 0
37 -18 67 -40 31 -22 60 -40 64 -40 4 0 -4 34 -18 76 -16 47 -22 79 -16 83 6
3 36 24 68 46 l58 40 -85 3 -85 3 -23 74 c-13 41 -26 75 -30 75 -4 0 -17 -34
-30 -75z"/>
<path d="M760 2276 l-23 -75 -85 -3 -85 -3 58 -40 c32 -22 62 -43 68 -46 6 -4
0 -36 -16 -83 -14 -42 -21 -76 -16 -76 5 0 34 18 64 40 30 22 59 40 65 40 6 0
38 -19 70 -42 33 -23 63 -39 66 -35 4 4 -5 38 -19 77 l-26 71 46 32 c99 69 98
66 6 67 l-81 0 -24 72 c-13 39 -29 73 -34 75 -6 2 -21 -30 -34 -71z"/>
<path d="M1250 2276 l-23 -75 -85 -3 -85 -3 58 -40 c32 -22 62 -43 68 -46 6
-4 0 -36 -16 -83 -14 -42 -21 -76 -15 -76 5 0 35 18 67 40 31 22 60 40 65 40
4 0 34 -19 67 -42 33 -22 62 -38 65 -35 4 3 -3 34 -15 68 -12 35 -21 68 -21
74 0 6 28 31 63 56 l62 44 -82 3 -82 3 -23 71 c-13 39 -28 73 -34 75 -6 2 -21
-30 -34 -71z"/>
<path d="M1766 2341 c-4 -5 -15 -39 -26 -75 l-21 -65 -82 -3 -82 -3 63 -44
c34 -25 62 -50 62 -56 0 -6 -9 -39 -21 -74 -12 -34 -19 -65 -15 -68 3 -3 32
13 65 35 33 23 63 42 67 42 5 0 34 -18 65 -40 32 -22 62 -40 67 -40 6 0 -1 34
-15 76 -16 47 -22 79 -16 83 6 3 36 24 68 46 l58 40 -85 3 -85 3 -23 74 c-23
72 -32 86 -44 66z"/>
<path d="M2257 2343 c-2 -5 -14 -38 -26 -75 l-23 -68 -81 0 c-92 -1 -93 2 6
-67 l46 -32 -26 -71 c-14 -39 -23 -73 -19 -77 3 -4 33 12 66 35 32 23 64 42
70 42 6 0 35 -18 65 -40 30 -22 59 -40 64 -40 5 0 -2 34 -16 76 -16 47 -22 79
-16 83 6 3 36 24 68 46 l58 40 -85 3 -85 3 -23 74 c-22 70 -32 86 -43 68z"/>
<path d="M1154 1866 l-34 -34 0 -298 0 -298 -58 63 c-32 34 -71 71 -88 81 -59
39 -139 16 -170 -48 -24 -51 -12 -89 49 -153 30 -31 84 -108 121 -175 85 -147
134 -212 197 -261 46 -35 49 -40 49 -81 0 -35 -5 -48 -25 -64 -25 -19 -25 -22
-25 -163 0 -137 1 -145 22 -159 33 -24 593 -24 626 0 21 14 22 22 22 158 0
126 -2 145 -18 159 -10 10 -24 17 -31 17 -17 0 -9 57 25 192 22 88 24 117 24
323 0 248 -3 265 -60 299 -31 18 -77 21 -100 6 -11 -7 -23 0 -46 26 -25 27
-39 34 -69 34 -20 0 -45 -5 -56 -10 -10 -6 -19 -7 -19 -2 0 5 -12 22 -27 36
-23 23 -34 27 -70 24 l-43 -3 0 138 c0 147 -8 181 -52 211 -12 9 -42 16 -66
16 -37 0 -50 -6 -78 -34z m114 -48 c8 -8 12 -66 12 -194 0 -157 2 -183 16
-188 28 -11 49 -6 62 14 14 22 54 27 70 8 6 -7 12 -26 14 -43 2 -26 8 -30 35
-33 24 -2 34 2 43 17 13 25 52 28 74 5 9 -8 16 -31 16 -50 0 -32 2 -34 33 -34
24 0 35 6 42 23 12 27 47 34 69 12 14 -14 16 -46 16 -228 0 -194 -2 -221 -25
-311 -14 -54 -25 -123 -25 -152 l0 -54 -215 0 -215 0 0 68 c0 67 0 68 -35 86
-51 28 -125 110 -172 191 -22 39 -58 102 -81 141 -22 38 -63 94 -91 123 -28
29 -51 58 -51 63 0 25 23 48 47 48 21 0 54 -27 147 -120 66 -66 124 -120 128
-120 4 0 8 161 8 358 0 376 1 382 45 382 12 0 26 -5 33 -12z m502 -1383 l0
-105 -265 0 -265 0 0 105 0 105 265 0 265 0 0 -105z"/>
</g>
</svg>
