<?xml version="1.0" standalone="no"?>
<!DOCTYPE svg PUBLIC "-//W3C//DTD SVG 20010904//EN"
 "http://www.w3.org/TR/2001/REC-SVG-20010904/DTD/svg10.dtd">
<svg version="1.0" xmlns="http://www.w3.org/2000/svg"
 width="256.000000pt" height="256.000000pt" viewBox="0 0 256.000000 256.000000"
 preserveAspectRatio="xMidYMid meet">
<metadata>
Created by potrace 1.15, written by Peter Selinger 2001-2017
</metadata>
<g transform="translate(0.000000,256.000000) scale(0.100000,-0.100000)"
fill="#000000" stroke="none">
<path d="M1567 2164 c-4 -4 -7 -22 -7 -39 0 -28 -5 -33 -40 -45 -37 -12 -42
-12 -63 8 -13 12 -30 22 -38 22 -16 0 -89 -70 -89 -85 0 -5 12 -21 26 -36 25
-26 25 -29 10 -50 -9 -13 -16 -31 -16 -41 0 -12 -10 -18 -37 -20 l-38 -3 0
-65 0 -65 38 -3 c20 -2 37 -9 37 -15 0 -7 7 -24 14 -39 14 -26 13 -29 -10 -47
-13 -10 -24 -25 -24 -33 0 -16 71 -88 86 -88 6 0 21 11 34 25 17 18 27 22 36
14 7 -6 25 -14 41 -18 22 -6 29 -14 33 -42 l5 -34 65 0 65 0 5 34 c4 27 12 36
43 48 34 14 39 14 56 -1 27 -24 43 -20 84 22 43 44 44 48 17 77 -19 20 -19 24
-5 58 12 29 21 36 47 39 l33 3 0 65 0 65 -35 3 c-30 3 -37 8 -53 44 l-17 42
27 28 27 28 -44 45 c-24 25 -49 45 -55 45 -6 0 -21 -11 -33 -24 -20 -24 -22
-24 -61 -9 -35 14 -40 20 -43 52 l-3 36 -55 3 c-31 2 -59 0 -63 -4z m157 -228
c42 -32 71 -102 62 -148 -27 -135 -191 -185 -283 -86 -35 37 -50 108 -33 158
15 46 67 97 108 106 15 3 32 7 37 8 22 6 77 -13 109 -38z"/>
<path d="M990 1530 c-14 -4 -126 -36 -250 -71 -124 -34 -227 -64 -229 -65 -3
-3 32 -128 70 -248 11 -33 19 -68 19 -78 0 -25 6 -24 168 22 77 22 146 40 151
40 6 0 78 -41 159 -92 203 -126 174 -126 596 -4 219 63 336 101 349 115 12 12
22 38 25 70 4 46 2 53 -27 82 -30 30 -35 31 -86 26 -29 -3 -84 -15 -122 -26
-37 -12 -97 -29 -133 -40 l-65 -19 -6 -47 c-8 -73 -59 -113 -134 -105 -25 2
-205 100 -205 112 0 12 -1 12 99 -42 112 -61 153 -65 195 -21 41 43 40 95 -2
131 -18 15 -45 33 -60 41 -15 8 -94 52 -177 98 -248 139 -264 145 -335 121z"/>
<path d="M228 595 l-22 -75 -88 0 c-64 0 -88 -3 -88 -13 0 -6 29 -32 65 -56
36 -24 65 -50 65 -57 0 -7 -11 -43 -24 -79 -13 -36 -20 -68 -15 -71 4 -2 36
16 71 41 34 25 65 45 68 45 3 0 34 -20 68 -45 35 -25 67 -43 71 -41 5 3 -2 35
-15 71 -13 36 -24 72 -24 79 0 7 29 33 65 57 36 24 65 50 65 56 0 10 -24 13
-88 13 l-89 0 -22 75 c-12 41 -26 75 -31 75 -6 0 -20 -34 -32 -75z"/>
<path d="M738 595 l-22 -75 -88 0 c-64 0 -88 -3 -88 -13 0 -6 29 -32 65 -56
36 -24 65 -50 65 -57 0 -7 -11 -43 -24 -79 -13 -36 -20 -68 -15 -71 5 -3 39
16 75 41 l65 47 55 -39 c30 -21 61 -42 69 -48 27 -18 29 6 4 83 l-25 77 68 48
c38 26 66 52 63 57 -4 6 -43 10 -89 10 l-82 0 -24 75 c-14 43 -29 75 -37 75
-7 0 -22 -31 -35 -75z"/>
<path d="M1248 595 l-22 -75 -88 0 c-64 0 -88 -3 -88 -13 0 -6 29 -32 65 -56
36 -24 65 -50 65 -57 0 -7 -11 -43 -24 -79 -14 -38 -20 -68 -14 -71 5 -3 35
12 66 33 31 22 62 43 68 46 6 3 39 -14 72 -38 91 -67 95 -63 60 48 l-23 69 21
17 c12 9 42 31 68 48 25 18 46 37 46 43 0 6 -35 10 -88 10 l-88 0 -24 75 c-14
43 -29 75 -37 75 -7 0 -22 -31 -35 -75z"/>
<path d="M1760 595 l-24 -75 -88 0 c-52 0 -88 -4 -88 -10 0 -6 29 -31 65 -57
36 -26 65 -51 65 -57 0 -5 -10 -40 -22 -78 -22 -68 -20 -91 7 -73 8 6 39 27
69 48 l55 39 53 -39 c97 -72 105 -69 72 22 -13 36 -24 72 -24 79 0 7 29 33 65
57 36 24 65 50 65 56 0 10 -24 13 -88 13 l-89 0 -22 75 c-12 44 -27 75 -34 75
-8 0 -24 -32 -37 -75z"/>
<path d="M2270 595 l-24 -75 -82 0 c-46 0 -85 -4 -89 -10 -3 -5 25 -31 63 -57
l68 -48 -25 -77 c-25 -77 -23 -101 4 -83 8 6 39 27 69 48 l55 39 65 -47 c36
-25 70 -44 75 -41 5 3 -2 35 -15 71 -13 36 -24 72 -24 79 0 7 29 33 65 57 36
24 65 50 65 56 0 10 -24 13 -88 13 l-89 0 -22 75 c-12 44 -27 75 -34 75 -8 0
-24 -32 -37 -75z"/>
</g>
</svg>
