<?xml version="1.0" standalone="no"?>
<!DOCTYPE svg PUBLIC "-//W3C//DTD SVG 20010904//EN"
 "http://www.w3.org/TR/2001/REC-SVG-20010904/DTD/svg10.dtd">
<svg version="1.0" xmlns="http://www.w3.org/2000/svg"
 width="256.000000pt" height="256.000000pt" viewBox="0 0 256.000000 256.000000"
 preserveAspectRatio="xMidYMid meet">
<metadata>
Created by potrace 1.15, written by Peter Selinger 2001-2017
</metadata>
<g transform="translate(0.000000,256.000000) scale(0.100000,-0.100000)"
fill="#000000" stroke="none">
<path d="M1166 2350 c-52 -26 -73 -46 -104 -99 -36 -61 -37 -159 -3 -215 47
-75 96 -110 172 -122 l44 -8 -32 -8 c-38 -10 -42 -29 -13 -60 20 -22 28 -82
12 -92 -6 -4 -70 72 -116 139 -13 18 -18 19 -62 7 -114 -31 -148 -87 -142
-237 4 -106 20 -155 58 -175 41 -22 282 -34 433 -23 78 7 154 16 169 22 41 15
63 86 63 201 0 80 -4 101 -22 130 -26 42 -83 77 -139 85 -37 5 -40 4 -66 -37
-15 -24 -44 -62 -63 -86 l-35 -44 -2 29 c-2 49 2 67 22 88 30 31 25 43 -22 53
-36 8 -38 10 -14 11 84 3 174 62 207 135 22 49 25 140 5 187 -18 43 -69 95
-118 120 -52 27 -177 26 -232 -1z"/>
<path d="M855 2100 c-129 -96 -223 -248 -253 -410 -16 -84 -21 -95 -41 -98
-12 -2 -21 -8 -19 -12 8 -23 104 -139 116 -139 11 -1 58 89 76 147 6 19 4 22
-18 22 -30 0 -33 17 -15 102 26 119 120 252 249 350 30 22 33 29 24 45 -18 31
-73 28 -119 -7z"/>
<path d="M1600 2118 c0 -4 10 -30 21 -56 12 -26 28 -62 36 -79 16 -38 20 -39
45 -16 21 19 22 18 85 -77 65 -98 77 -147 78 -303 0 -122 2 -140 18 -148 25
-15 57 -1 68 29 15 38 14 242 -1 288 -7 22 -21 58 -32 81 -10 24 -18 46 -18
49 0 11 -86 128 -109 148 -20 18 -20 20 -4 38 9 10 14 21 10 24 -10 10 -197
31 -197 22z"/>
<path d="M745 1366 c-56 -26 -88 -70 -93 -129 -5 -65 12 -104 65 -144 31 -24
46 -28 103 -28 57 0 72 4 103 28 92 70 90 190 -4 259 -34 26 -133 34 -174 14z"/>
<path d="M1214 1369 c-41 -12 -91 -69 -100 -114 -14 -78 19 -144 90 -176 119
-54 250 20 250 142 0 113 -115 184 -240 148z"/>
<path d="M1664 1362 c-81 -38 -113 -134 -72 -211 62 -116 236 -121 302 -9 43
73 28 153 -39 203 -47 37 -133 44 -191 17z"/>
<path d="M633 1054 c-45 -20 -63 -60 -63 -143 0 -85 13 -117 53 -131 37 -13
357 -13 391 -1 23 9 24 14 21 68 -4 56 -4 56 3 10 13 -82 14 -82 247 -82 213
0 244 6 215 40 -9 11 -11 43 -8 119 l5 104 -34 16 c-42 20 -82 20 -119 1 -36
-19 -91 -19 -124 0 -67 38 -170 -4 -183 -75 -2 -14 -3 -7 -1 16 3 38 1 42 -32
57 -42 21 -90 21 -124 2 -33 -19 -88 -19 -124 0 -35 18 -80 18 -123 -1z"/>
<path d="M1563 1054 c-51 -22 -63 -48 -63 -137 0 -104 15 -134 73 -142 24 -4
119 -5 210 -3 207 4 201 0 205 134 4 107 -3 123 -67 150 -42 18 -79 17 -111
-1 -32 -18 -98 -18 -130 0 -31 18 -75 18 -117 -1z"/>
<path d="M228 585 l-22 -75 -88 0 c-109 0 -113 -11 -23 -70 36 -23 65 -48 65
-56 0 -7 -11 -43 -24 -79 -13 -36 -20 -68 -15 -71 4 -2 36 16 71 41 34 25 65
45 68 45 3 0 34 -20 68 -45 35 -25 67 -43 71 -41 5 3 -2 35 -15 71 -13 36 -24
72 -24 79 0 8 29 33 65 56 90 59 87 70 -23 70 l-89 0 -22 75 c-12 41 -26 75
-31 75 -6 0 -20 -34 -32 -75z"/>
<path d="M738 585 l-22 -75 -88 0 c-109 0 -113 -11 -23 -70 36 -23 65 -48 65
-56 0 -7 -11 -43 -24 -79 -14 -38 -20 -68 -14 -71 5 -3 35 12 66 33 31 22 62
43 68 46 6 3 39 -14 72 -38 91 -67 95 -63 60 48 l-23 69 21 17 c12 9 42 31 68
49 26 18 44 37 41 42 -3 6 -43 10 -89 10 l-82 0 -24 75 c-14 43 -29 75 -37 75
-7 0 -22 -31 -35 -75z"/>
<path d="M1248 585 l-22 -75 -88 0 c-109 0 -113 -11 -23 -70 36 -23 65 -48 65
-56 0 -7 -11 -43 -24 -79 -31 -86 -18 -92 64 -31 34 25 67 43 74 39 6 -4 34
-24 63 -45 80 -58 87 -52 53 47 -11 32 -20 63 -20 69 0 6 29 32 65 58 36 26
65 52 65 58 0 6 -35 10 -88 10 l-88 0 -24 75 c-14 43 -29 75 -37 75 -7 0 -22
-31 -35 -75z"/>
<path d="M1760 585 l-24 -75 -88 0 c-53 0 -88 -4 -88 -10 0 -6 29 -32 65 -58
36 -26 65 -52 65 -58 0 -6 -9 -37 -20 -69 -34 -99 -27 -105 53 -47 29 21 57
41 63 45 7 4 40 -14 74 -39 82 -61 95 -55 64 31 -13 36 -24 72 -24 79 0 8 29
33 65 56 90 59 87 70 -23 70 l-89 0 -22 75 c-12 44 -27 75 -34 75 -8 0 -24
-32 -37 -75z"/>
<path d="M2270 585 l-24 -75 -82 0 c-46 0 -86 -4 -89 -10 -3 -5 24 -31 60 -57
36 -25 65 -51 65 -57 0 -5 -10 -40 -22 -78 -22 -68 -20 -91 7 -73 8 6 39 27
69 48 l55 39 53 -39 c97 -72 105 -69 72 22 -13 36 -24 72 -24 79 0 8 29 33 65
56 90 59 87 70 -23 70 l-89 0 -22 75 c-12 44 -27 75 -34 75 -8 0 -24 -32 -37
-75z"/>
</g>
</svg>
