<?xml version="1.0" standalone="no"?>
<!DOCTYPE svg PUBLIC "-//W3C//DTD SVG 20010904//EN"
 "http://www.w3.org/TR/2001/REC-SVG-20010904/DTD/svg10.dtd">
<svg version="1.0" xmlns="http://www.w3.org/2000/svg"
 width="256.000000pt" height="256.000000pt" viewBox="0 0 256.000000 256.000000"
 preserveAspectRatio="xMidYMid meet">
<metadata>
Created by potrace 1.15, written by Peter Selinger 2001-2017
</metadata>
<g transform="translate(0.000000,256.000000) scale(0.100000,-0.100000)"
fill="#000000" stroke="none">
<path d="M1143 2110 c-44 -10 -82 -36 -92 -63 -12 -30 -122 -69 -207 -73 -101
-4 -184 -41 -184 -81 0 -8 -8 -16 -17 -19 -10 -4 -60 -22 -110 -41 l-93 -35 0
-337 0 -337 168 -63 c164 -63 298 -114 497 -191 131 -51 144 -54 191 -37 48
17 289 107 404 151 47 18 145 55 218 82 l132 49 -2 338 -3 339 -55 22 c-30 13
-75 30 -100 40 -29 11 -52 28 -65 49 -28 44 -63 58 -158 64 -102 6 -225 47
-229 77 -4 26 -46 55 -94 66 -46 11 -156 11 -201 0z m214 -55 c44 -19 34 -37
-32 -55 -77 -22 -215 2 -215 36 0 32 182 46 247 19z m-286 -161 c37 -40 156
-58 261 -41 61 10 108 48 108 88 0 16 3 29 8 29 13 -1 57 -29 45 -30 -31 -1
-53 -43 -53 -103 0 -73 11 -94 63 -118 62 -28 222 -27 278 1 40 21 65 60 54
87 -5 16 -1 15 78 -15 l48 -18 -168 -64 c-92 -35 -188 -71 -213 -80 -25 -9
-107 -40 -182 -68 -75 -29 -142 -52 -148 -52 -10 0 -70 22 -180 65 -19 8 -64
25 -100 39 -143 53 -207 78 -240 91 -19 8 -68 26 -107 41 -40 15 -73 31 -73
35 0 4 24 16 53 27 l52 20 3 -33 c6 -63 71 -94 200 -95 84 0 138 14 174 47 14
13 18 32 18 89 0 67 -2 74 -29 97 l-29 24 27 9 c24 9 26 7 29 -21 2 -16 12
-40 23 -51z m-136 25 c25 -6 50 -17 56 -25 9 -11 4 -17 -27 -31 -72 -31 -244
-15 -244 23 0 8 1 14 3 14 1 0 20 7 42 15 49 17 111 19 170 4z m813 -15 c17
-7 32 -17 32 -22 0 -19 -67 -37 -140 -37 -71 0 -140 18 -140 36 0 12 36 29 83
39 49 9 119 3 165 -16z m240 -756 c-14 -8 -19 -10 -373 -143 -126 -48 -251
-95 -277 -106 -26 -10 -49 -19 -52 -19 -3 0 -6 131 -6 290 l0 290 33 15 c17 8
61 25 97 39 36 13 139 52 230 86 91 34 194 73 230 86 36 14 79 31 95 38 l30
13 3 -290 c2 -226 -1 -292 -10 -299z"/>
<path d="M1170 1817 c-103 -24 -120 -43 -120 -137 0 -52 4 -64 25 -84 57 -53
210 -66 303 -26 35 15 57 32 63 47 14 38 11 126 -6 150 -32 45 -171 71 -265
50z m185 -57 c38 -19 38 -31 0 -49 -69 -34 -267 -5 -235 34 7 8 27 19 44 25
43 13 155 7 191 -10z"/>
<path d="M228 675 l-22 -75 -88 0 c-64 0 -88 -3 -88 -13 0 -6 29 -32 65 -56
36 -24 65 -50 65 -57 0 -7 -11 -43 -24 -79 -13 -36 -20 -68 -15 -71 4 -2 36
16 71 41 34 25 65 45 68 45 3 0 34 -20 68 -45 35 -25 67 -43 71 -41 5 3 -2 35
-15 71 -13 36 -24 72 -24 79 0 7 29 33 65 57 36 24 65 50 65 56 0 10 -24 13
-88 13 l-89 0 -22 75 c-12 41 -26 75 -31 75 -6 0 -20 -34 -32 -75z"/>
<path d="M738 675 l-22 -75 -88 0 c-64 0 -88 -3 -88 -13 0 -6 29 -32 65 -56
36 -24 65 -50 65 -57 0 -7 -11 -43 -24 -79 -13 -36 -20 -68 -15 -71 5 -3 39
16 75 41 l65 47 55 -39 c30 -21 61 -42 69 -48 27 -18 29 6 4 83 l-25 77 68 48
c38 26 66 52 63 57 -4 6 -43 10 -89 10 l-82 0 -24 75 c-14 43 -29 75 -37 75
-7 0 -22 -31 -35 -75z"/>
<path d="M1248 675 l-22 -75 -88 0 c-64 0 -88 -3 -88 -13 0 -6 29 -32 65 -56
36 -24 65 -50 65 -57 0 -7 -11 -43 -24 -79 -14 -38 -20 -68 -14 -71 5 -3 35
12 66 33 31 22 62 43 68 46 6 3 39 -14 72 -38 91 -67 95 -63 60 48 l-23 69 21
17 c12 9 42 31 68 48 25 18 46 37 46 43 0 6 -35 10 -88 10 l-88 0 -24 75 c-14
43 -29 75 -37 75 -7 0 -22 -31 -35 -75z"/>
<path d="M1760 675 l-24 -75 -88 0 c-52 0 -88 -4 -88 -10 0 -6 29 -31 65 -57
36 -26 65 -51 65 -57 0 -5 -10 -40 -22 -78 -22 -68 -20 -91 7 -73 8 6 39 27
69 48 l55 39 53 -39 c97 -72 105 -69 72 22 -13 36 -24 72 -24 79 0 7 29 33 65
57 36 24 65 50 65 56 0 10 -24 13 -88 13 l-89 0 -22 75 c-12 44 -27 75 -34 75
-8 0 -24 -32 -37 -75z"/>
<path d="M2270 675 l-24 -75 -82 0 c-46 0 -85 -4 -89 -10 -3 -5 25 -31 63 -57
l68 -48 -25 -77 c-25 -77 -23 -101 4 -83 8 6 39 27 69 48 l55 39 65 -47 c36
-25 70 -44 75 -41 5 3 -2 35 -15 71 -13 36 -24 72 -24 79 0 7 29 33 65 57 36
24 65 50 65 56 0 10 -24 13 -88 13 l-89 0 -22 75 c-12 44 -27 75 -34 75 -8 0
-24 -32 -37 -75z"/>
</g>
</svg>
