<?xml version="1.0" standalone="no"?>
<!DOCTYPE svg PUBLIC "-//W3C//DTD SVG 20010904//EN"
 "http://www.w3.org/TR/2001/REC-SVG-20010904/DTD/svg10.dtd">
<svg version="1.0" xmlns="http://www.w3.org/2000/svg"
 width="256.000000pt" height="256.000000pt" viewBox="0 0 256.000000 256.000000"
 preserveAspectRatio="xMidYMid meet">
<metadata>
Created by potrace 1.15, written by Peter Selinger 2001-2017
</metadata>
<g transform="translate(0.000000,256.000000) scale(0.100000,-0.100000)"
fill="#000000" stroke="none">
<path d="M1134 1878 l-131 -393 -426 -3 c-235 -1 -427 -6 -427 -10 0 -4 156
-115 345 -247 190 -131 345 -244 344 -250 0 -5 -60 -183 -133 -395 -73 -212
-130 -386 -126 -388 4 -2 158 104 341 235 184 130 341 237 349 237 8 0 165
-107 349 -237 183 -131 337 -237 341 -235 4 2 -53 176 -126 388 -73 212 -133
390 -133 395 -1 6 154 119 344 250 189 132 345 243 345 247 0 4 -192 9 -427
10 l-426 3 -131 393 c-72 215 -133 392 -136 392 -3 0 -64 -177 -136 -392z"/>
</g>
</svg>
