<?xml version="1.0" encoding="UTF-8"?>
<svg width="123px" height="123px" viewBox="0 0 123 123" version="1.1" xmlns="http://www.w3.org/2000/svg" xmlns:xlink="http://www.w3.org/1999/xlink">
    <title>Artboard</title>
    <g id="Artboard" stroke="none" stroke-width="1" fill="none" fill-rule="evenodd">
        <g id="s_and_w_icon" transform="translate(2.000000, 2.000000)">
            <ellipse id="Oval" stroke="#0098FF" stroke-width="3" cx="58.8462" cy="58.8068" rx="58.8462" ry="58.8068"></ellipse>
            <path d="M58.2982,22.3762 C55.6176,23.3305 53.3077,25.6439 52.3096,28.3043 C51.8248,29.6056 51.7392,30.3574 51.8248,32.2371 C51.9959,35.0421 52.7088,36.6325 55.0187,39.264 C55.9027,40.2472 56.7012,41.4039 56.7868,41.8087 C57.2145,43.5438 53.9921,45.0186 49.2012,45.3077 C46.1499,45.4813 43.897,45.1921 38.6213,43.9486 C32.9749,42.5895 32.4046,42.7341 30.9787,45.5969 C29.8381,47.9392 29.4673,50.3972 29.6099,54.7927 C29.8666,62.5136 31.492,66.591 33.973,65.6367 C34.3723,65.4632 35.513,64.6246 36.454,63.7571 C39.0491,61.3569 40.8457,60.5761 43.6404,60.5761 C45.551,60.5761 46.1784,60.7207 47.5187,61.3858 C49.3153,62.2823 51.1119,64.0752 52.0814,65.9837 C53.0225,67.8344 53.1651,71.3334 52.3666,73.4733 C51.5111,75.7578 49.8571,77.5507 47.5472,78.7074 C43.897,80.5292 39.9331,79.8352 36.7392,76.8277 C35.0852,75.2951 34.4008,74.8903 33.2886,74.8903 C32.1765,74.8903 31.1213,75.7867 30.551,77.2037 C28.954,81.2521 28.4407,91.9805 29.724,94.4385 C30.0662,95.1036 30.551,95.7108 30.8076,95.8265 C31.0643,95.9132 42.9274,96 57.1575,96 L83.0226,96 L84.4769,95.2481 C86.1309,94.4385 87.6423,92.8769 88.6119,91.0262 L89.2680295,89.7828 L89.2680295,67.9501 C89.2680295,44.0932 89.3248,44.9318 87.6423,43.9486 C86.9294,43.5438 86.7298,43.5727 85.5035,44.0643 C82.3096,45.3078 80.1708,45.7415 77.0054,45.7704 C70.532,45.8283 66.5967,44.4402 66.5967,42.0401 C66.5967,41.3171 66.9389,40.681 68.1651,39.264 C70.0472,37.0952 70.7887,35.6493 71.2164,33.307 C72.0434,28.8537 69.1632,23.9378 64.8571,22.4051 C63.4027,21.8846 59.6955,21.8557 58.2982,22.3762 Z" id="Path" fill="#0A142B" fill-rule="nonzero"></path>
            <path d="M62.7579,56.1488 C61.3093,56.5457 60.0889,57.5973 59.3845,59.0556 C59.1067,59.6509 59.067,59.8394 59.0273,60.8216 C58.9777,62.0121 59.1067,62.6569 59.5531,63.5399 C60.079,64.5717 61.3986,65.6729 62.5,66.0003 C62.8175,66.0896 63.0754,66.2086 63.0754,66.2682 C63.0754,66.3178 62.7182,66.7245 62.2817,67.161 C61.4383,68.0043 61.3292,68.2424 61.6864,68.5996 C62.0039,68.917 62.2519,68.8377 62.8869,68.2325 L63.4723,67.6769 L63.4723,69.3635 L63.4723,71.05 L62.5099,71.1096 C61.9741,71.1492 61.0216,71.179 60.3866,71.179 C59.6325,71.179 59.2059,71.2187 59.1265,71.2981 C58.9578,71.4667 58.9578,81.1098 59.1265,81.2785 C59.3051,81.4571 68.9591,81.4472 69.108,81.2686 C69.2369,81.1098 69.3262,71.8536 69.1973,71.5064 C69.1576,71.3973 69.0484,71.2683 68.9492,71.2286 C68.8599,71.1889 67.8776,71.1393 66.7763,71.1096 L64.7622,71.05 L64.7622,69.3635 L64.7622,67.6769 L65.3476,68.2325 C65.675,68.55 66.0322,68.798 66.1413,68.798 C66.3894,68.798 66.7465,68.4309 66.7465,68.173 C66.7465,68.0738 66.3596,67.5777 65.8833,67.0817 L65.0102,66.1789 L65.4567,66.0697 C67.1732,65.6233 68.6416,64.1451 69.098,62.4089 L69.2766,61.7541 L71.0031,61.7541 L72.7394,61.7541 L72.3028,62.2204 C71.6182,62.9347 71.6083,62.9446 71.6083,63.1431 C71.6083,63.3812 71.9853,63.7383 72.2334,63.7383 C72.3524,63.7383 72.8585,63.3117 73.4637,62.7264 L74.4956,61.7145 L76.5693,63.7879 L78.6529,65.8713 L78.6529,67.796 L78.6529,69.7206 L78.0675,69.1651 C77.74,68.8476 77.3928,68.5996 77.2836,68.5996 C76.9959,68.5996 76.6288,69.046 76.7082,69.3139 C76.7379,69.4428 77.1249,69.8992 77.5614,70.3357 C77.9881,70.7723 78.3552,71.1592 78.3552,71.1889 C78.3552,71.2286 78.2064,71.2881 78.0179,71.3179 C76.8868,71.5262 75.3489,72.7267 74.8131,73.8081 C74.2674,74.8994 74.1582,75.3557 74.2078,76.4669 C74.2674,77.6871 74.4856,78.3618 75.1306,79.2646 C76.093,80.6237 77.621,81.3976 79.2879,81.3976 C80.8059,81.3876 81.8775,80.9511 82.9391,79.8995 C83.9909,78.8479 84.4076,77.826 84.4076,76.2784 C84.4076,75.1672 84.1794,74.3438 83.6337,73.5005 C82.9491,72.4489 81.8378,71.6354 80.6472,71.3377 L80.2106,71.2187 L81.0639,70.3357 C81.6195,69.7603 81.9271,69.3635 81.9271,69.2147 C81.9271,68.9766 81.6096,68.5996 81.4012,68.5996 C81.2226,68.5996 80.8555,68.8575 80.3694,69.3337 L79.9427,69.7306 L79.9427,67.8059 L79.9427,65.8812 L82.1751,63.6391 C84.0802,61.7244 84.4076,61.3573 84.4076,61.1093 C84.4076,60.8513 84.0504,60.4644 81.9965,58.4009 C80.032,56.4464 79.526,56 79.3077,56 C79.0894,56 78.6032,56.4266 76.7578,58.2521 L74.4757,60.5041 L73.5133,59.5418 C72.6997,58.7283 72.5013,58.5794 72.2334,58.5794 C71.8861,58.5794 71.6083,58.7977 71.6083,59.0755 C71.6083,59.1846 71.8861,59.5616 72.2135,59.9188 L72.8188,60.5636 L71.0427,60.5636 L69.2766,60.5636 L69.1377,59.9882 C68.7309,58.2322 67.3419,56.7441 65.5658,56.1984 C64.8316,55.9702 63.4922,55.9405 62.7579,56.1488 Z M65.2781,57.3889 C66.3794,57.7262 67.193,58.4604 67.7288,59.5715 C67.957,60.0477 67.9868,60.2462 67.9868,61.1093 C67.9868,62.0319 67.9669,62.151 67.6594,62.7661 C67.2426,63.6193 66.5779,64.284 65.7544,64.6709 C65.169,64.9487 65.0201,64.9784 64.1172,64.9784 C63.2441,64.9784 63.0556,64.9487 62.5496,64.7106 C60.585,63.7879 59.7417,61.8633 60.4164,59.8196 C60.7835,58.6786 61.984,57.5675 63.1449,57.2996 C63.7898,57.1508 64.6133,57.1806 65.2781,57.3889 Z M81.2028,59.2937 L83.0185,61.1093 L81.1631,62.9645 L79.2978,64.8296 L77.4325,62.9744 L75.5771,61.1093 L77.3829,59.3037 C78.385,58.3017 79.2383,57.4881 79.2978,57.4881 C79.3474,57.4881 80.2106,58.3017 81.2028,59.2937 Z M68.0364,76.3081 L68.0364,80.2566 L64.147,80.2269 C62.0039,80.207 60.2278,80.1674 60.1981,80.1376 C60.1683,80.1178 60.1385,78.3518 60.1187,76.2288 L60.0889,72.3695 L64.0676,72.3695 L68.0364,72.3695 L68.0364,76.3081 Z M80.9349,72.7267 C82.3438,73.3914 83.2169,74.7109 83.2269,76.199 C83.2467,78.5701 81.3715,80.336 78.9803,80.1872 C77.6111,80.0979 76.4006,79.2546 75.7557,77.9451 C75.4481,77.33 75.4282,77.2208 75.4382,76.2883 C75.4382,75.4351 75.4778,75.2168 75.6961,74.7307 C76.0037,74.066 76.728,73.2525 77.3432,72.8953 C78.0377,72.4886 78.5338,72.3695 79.4466,72.3993 C80.1411,72.4191 80.409,72.4786 80.9349,72.7267 Z" id="Shape" fill="#FFFFFF" fill-rule="nonzero"></path>
        </g>
    </g>
</svg>
