<svg width="35" height="28" viewBox="0 0 35 28" fill="none" xmlns="http://www.w3.org/2000/svg">
<path d="M14.1095 19.25C13.134 19.25 12.3458 20.032 12.3458 21V25.8125C12.3458 27.0211 11.3593 28 10.1412 28H7.06027C6.97759 28 6.89492 27.9945 6.81225 27.9891C6.74611 27.9945 6.67997 28 6.61383 28H5.73199C4.51449 28 3.52738 27.0211 3.52738 25.8125V19.6875C3.52738 19.6383 3.52903 19.5836 3.53234 19.5344V15.7281H1.76644C0.772716 15.7281 0 14.957 0 13.9727C0 13.4805 0.165566 13.043 0.551704 12.6602L14.6827 0.438375C15.0685 0.0547969 15.5094 0 15.8952 0C16.2811 0 16.722 0.109594 17.0582 0.383578L28.7757 10.6039C28.3072 10.5383 27.8277 10.5 27.3372 10.5C22.2776 10.5 18.1219 14.3445 17.6755 19.25H14.1095Z" fill="#0A142B"/>
<path d="M33.4942 19.9539C33.4942 23.4222 30.6612 26.2338 27.1665 26.2338C23.6718 26.2338 20.8388 23.4222 20.8388 19.9539C20.8388 16.4856 23.6718 13.6739 27.1665 13.6739C30.6612 13.6739 33.4942 16.4856 33.4942 19.9539Z" fill="white"/>
<path d="M27.0904 12.1674C22.7216 12.1674 19.1808 15.6815 19.1808 20.0173C19.1808 24.3532 22.7216 27.8673 27.0904 27.8673C31.4592 27.8673 35 24.3532 35 20.0173C35 15.6815 31.4592 12.1674 27.0904 12.1674ZM27.0904 24.4329C26.5343 24.4329 26.1017 24.0036 26.1017 23.4517C26.1017 22.8997 26.5065 22.4704 27.0904 22.4704C27.6187 22.4704 28.0791 22.8997 28.0791 23.4517C28.0791 24.0036 27.6187 24.4329 27.0904 24.4329ZM29.2254 20.0787L27.8319 20.9372V20.9986C27.8319 21.3972 27.4921 21.7345 27.0904 21.7345C26.6887 21.7345 26.3489 21.3972 26.3489 20.9986V20.508C26.3489 20.2626 26.4725 20.0173 26.7196 19.864L28.4808 18.8214C28.697 18.6988 28.8206 18.4841 28.8206 18.2388C28.8206 17.8709 28.4839 17.5642 28.1131 17.5642H26.5343C26.1357 17.5642 25.8545 17.8709 25.8545 18.2388C25.8545 18.6375 25.5147 18.9748 25.113 18.9748C24.7113 18.9748 24.3715 18.6375 24.3715 18.2388C24.3715 17.0429 25.3293 16.0924 26.5065 16.0924H28.0853C29.3459 16.0924 30.3037 17.0429 30.3037 18.2388C30.3037 18.9748 29.902 19.68 29.2254 20.0787Z" fill="#0A142B"/>
</svg>
