<?xml version="1.0" encoding="UTF-8"?>
<svg width="22px" height="22px" viewBox="0 0 22 22" version="1.1" xmlns="http://www.w3.org/2000/svg" xmlns:xlink="http://www.w3.org/1999/xlink">
    <!-- Generator: Sketch 59 (86127) - https://sketch.com -->
    <title>Artboard Copy 3</title>
    <desc>Created with Sketch.</desc>
    <g id="Artboard-Copy-3" stroke="none" stroke-width="1" fill="none" fill-rule="evenodd">
        <circle id="Oval" stroke="#000000" stroke-width="2" cx="10" cy="10" r="8"></circle>
        <line x1="16" y1="16" x2="20" y2="20" id="Line-7" stroke="#000000" stroke-width="2" stroke-linecap="round"></line>
        <g id="Group" transform="translate(5.000000, 4.500000)">
            <path d="M1.36181054,4.51586758 L4.36181054,2.02902547 C4.73195169,1.72219794 5.26804831,1.72219794 5.63818946,2.02902547 L8.63818946,4.51586758 C8.86737291,4.7058486 9,4.98805944 9,5.28574693 L9,9.5 C9,10.0522847 8.55228475,10.5 8,10.5 L2,10.5 C1.44771525,10.5 1,10.0522847 1,9.5 L1,5.28574693 C1,4.98805944 1.13262709,4.7058486 1.36181054,4.51586758 Z" id="Rectangle-Copy" fill="#000000"></path>
            <polyline id="Path-4" stroke="#000000" stroke-width="2" stroke-linecap="round" stroke-linejoin="round" points="0 4.5 5 0.5 10 4.5"></polyline>
            <line x1="0" y1="4.5" x2="10" y2="4.5" id="Path-5" stroke="#000000" stroke-width="2" stroke-linecap="round" stroke-linejoin="round"></line>
        </g>
    </g>
</svg>