<?xml version="1.0" standalone="no"?>
<!DOCTYPE svg PUBLIC "-//W3C//DTD SVG 20010904//EN"
 "http://www.w3.org/TR/2001/REC-SVG-20010904/DTD/svg10.dtd">
<svg version="1.0" xmlns="http://www.w3.org/2000/svg"
 width="256.000000pt" height="256.000000pt" viewBox="0 0 256.000000 256.000000"
 preserveAspectRatio="xMidYMid meet">
<metadata>
Created by potrace 1.15, written by Peter Selinger 2001-2017
</metadata>
<g transform="translate(0.000000,256.000000) scale(0.100000,-0.100000)"
fill="#000000" stroke="none">
<path d="M1469 2546 c-94 -33 -175 -113 -210 -205 -17 -45 -20 -71 -17 -136 6
-97 31 -152 112 -243 31 -34 59 -74 62 -88 15 -60 -98 -111 -266 -121 -107 -6
-186 4 -371 47 -198 47 -218 42 -268 -57 -40 -81 -53 -166 -48 -318 9 -267 66
-408 153 -375 14 6 54 35 87 65 91 83 154 110 252 110 67 0 89 -5 136 -28 63
-31 126 -93 160 -159 33 -64 38 -185 10 -259 -30 -79 -88 -141 -169 -181 -128
-63 -267 -39 -379 65 -58 53 -82 67 -121 67 -39 0 -76 -31 -96 -80 -56 -140
-74 -511 -29 -596 12 -23 29 -44 38 -48 9 -3 425 -6 924 -6 l907 0 51 26 c58
28 111 82 145 146 l23 43 0 755 c0 825 2 796 -57 830 -25 14 -32 13 -75 -4
-112 -43 -187 -58 -298 -59 -227 -2 -365 46 -365 129 0 25 12 47 55 96 66 75
92 125 107 206 29 154 -72 324 -223 377 -51 18 -181 19 -230 1z"/>
</g>
</svg>
