<svg width="33" height="25" viewBox="0 0 33 25" fill="none" xmlns="http://www.w3.org/2000/svg">
<rect y="5.76904" width="33" height="19.2308" rx="2" fill="#0A142B"/>
<rect x="3.2998" y="2.88477" width="26.4" height="2.40385" rx="1.20192" fill="#0A142B"/>
<rect x="8.95703" width="15.5571" height="2.40385" rx="1.20192" fill="#0A142B"/>
<path d="M16.6112 10.1523C16.2128 10.2949 15.8695 10.6406 15.7211 11.0382C15.6491 11.2326 15.6364 11.345 15.6491 11.6258C15.6745 12.045 15.7805 12.2826 16.1238 12.6758C16.2552 12.8228 16.3738 12.9956 16.3866 13.0561C16.4501 13.3154 15.9712 13.5357 15.2592 13.579C14.8057 13.6049 14.4709 13.5617 13.6868 13.3759C12.8476 13.1728 12.7628 13.1944 12.5509 13.6222C12.3814 13.9722 12.3263 14.3395 12.3475 14.9963C12.3856 16.15 12.6272 16.7593 12.9959 16.6167C13.0553 16.5907 13.2248 16.4654 13.3647 16.3358C13.7504 15.9772 14.0174 15.8605 14.4327 15.8605C14.7167 15.8605 14.8099 15.8821 15.0091 15.9815C15.2761 16.1154 15.5431 16.3833 15.6872 16.6685C15.8271 16.9451 15.8483 17.4679 15.7296 17.7877C15.6025 18.1291 15.3567 18.397 15.0134 18.5698C14.4709 18.842 13.8817 18.7383 13.4071 18.2889C13.1612 18.0599 13.0595 17.9994 12.8942 17.9994C12.7289 17.9994 12.5721 18.1334 12.4873 18.3451C12.25 18.9501 12.1737 20.5532 12.3644 20.9205C12.4153 21.0199 12.4873 21.1106 12.5255 21.1279C12.5636 21.1408 14.3268 21.1538 16.4417 21.1538H20.2858L20.5019 21.0415C20.7477 20.9205 20.9724 20.6871 21.1165 20.4106L21.2139 20.2248V16.9624C21.2139 13.3975 21.2224 13.5228 20.9724 13.3759C20.8664 13.3154 20.8367 13.3197 20.6545 13.3931C20.1798 13.579 19.8619 13.6438 19.3915 13.6481C18.4294 13.6567 17.8445 13.4493 17.8445 13.0907C17.8445 12.9826 17.8954 12.8876 18.0776 12.6758C18.3574 12.3518 18.4675 12.1357 18.5311 11.7857C18.654 11.1203 18.226 10.3857 17.586 10.1567C17.3698 10.0789 16.8189 10.0746 16.6112 10.1523Z" fill="white"/>
</svg>
