<svg width="14" height="18" viewBox="0 0 14 18" fill="none" xmlns="http://www.w3.org/2000/svg">
<mask id="path-1-inside-1_2303_22463" fill="white">
<path d="M6.80584 0.0915154C6.18314 0.323636 5.64657 0.886354 5.41471 1.53348C5.3021 1.85001 5.28222 2.03289 5.3021 2.4901C5.34184 3.17239 5.50745 3.55926 6.04403 4.19935C6.24939 4.43851 6.43487 4.71987 6.45474 4.81834C6.55411 5.24038 5.80555 5.59911 4.69265 5.66945C3.98384 5.71166 3.46051 5.64132 2.23499 5.33886C0.923361 5.00826 0.790873 5.04343 0.459652 5.73979C0.194676 6.30954 0.108559 6.90743 0.141681 7.97659C0.2013 9.85466 0.578892 10.8465 1.15522 10.6143C1.24796 10.5721 1.51293 10.3681 1.73154 10.1571C2.33436 9.57331 2.7517 9.38339 3.40089 9.38339C3.84473 9.38339 3.99046 9.41856 4.30181 9.58034C4.71915 9.79839 5.13649 10.2345 5.36172 10.6987C5.58032 11.1489 5.61344 12 5.42796 12.5205C5.22923 13.0762 4.84501 13.5123 4.30843 13.7937C3.46051 14.2368 2.53972 14.068 1.79778 13.3365C1.41357 12.9637 1.25458 12.8652 0.99623 12.8652C0.737878 12.8652 0.492774 13.0833 0.360286 13.4279C-0.0106807 14.4127 -0.12992 17.0223 0.168178 17.6202C0.247671 17.7819 0.360286 17.9297 0.419906 17.9578C0.479526 17.9789 3.23528 18 6.54086 18H12.5492L12.887 17.8171C13.2713 17.6202 13.6224 17.2403 13.8476 16.7902L13.9999 16.4877V11.1771C13.9999 5.37403 14.0132 5.57801 13.6224 5.33886C13.4567 5.24038 13.4104 5.24741 13.1255 5.36699C12.3836 5.66945 11.8868 5.77496 11.1515 5.782C9.64771 5.79606 8.73354 5.45843 8.73354 4.87461C8.73354 4.69876 8.81303 4.54402 9.09788 4.19935C9.53509 3.67181 9.70733 3.32011 9.80669 2.75036C9.9988 1.66712 9.32974 0.47135 8.32945 0.0985494C7.99161 -0.0280621 7.13043 -0.035096 6.80584 0.0915154Z"/>
</mask>
<path d="M6.80584 0.0915154C6.18314 0.323636 5.64657 0.886354 5.41471 1.53348C5.3021 1.85001 5.28222 2.03289 5.3021 2.4901C5.34184 3.17239 5.50745 3.55926 6.04403 4.19935C6.24939 4.43851 6.43487 4.71987 6.45474 4.81834C6.55411 5.24038 5.80555 5.59911 4.69265 5.66945C3.98384 5.71166 3.46051 5.64132 2.23499 5.33886C0.923361 5.00826 0.790873 5.04343 0.459652 5.73979C0.194676 6.30954 0.108559 6.90743 0.141681 7.97659C0.2013 9.85466 0.578892 10.8465 1.15522 10.6143C1.24796 10.5721 1.51293 10.3681 1.73154 10.1571C2.33436 9.57331 2.7517 9.38339 3.40089 9.38339C3.84473 9.38339 3.99046 9.41856 4.30181 9.58034C4.71915 9.79839 5.13649 10.2345 5.36172 10.6987C5.58032 11.1489 5.61344 12 5.42796 12.5205C5.22923 13.0762 4.84501 13.5123 4.30843 13.7937C3.46051 14.2368 2.53972 14.068 1.79778 13.3365C1.41357 12.9637 1.25458 12.8652 0.99623 12.8652C0.737878 12.8652 0.492774 13.0833 0.360286 13.4279C-0.0106807 14.4127 -0.12992 17.0223 0.168178 17.6202C0.247671 17.7819 0.360286 17.9297 0.419906 17.9578C0.479526 17.9789 3.23528 18 6.54086 18H12.5492L12.887 17.8171C13.2713 17.6202 13.6224 17.2403 13.8476 16.7902L13.9999 16.4877V11.1771C13.9999 5.37403 14.0132 5.57801 13.6224 5.33886C13.4567 5.24038 13.4104 5.24741 13.1255 5.36699C12.3836 5.66945 11.8868 5.77496 11.1515 5.782C9.64771 5.79606 8.73354 5.45843 8.73354 4.87461C8.73354 4.69876 8.81303 4.54402 9.09788 4.19935C9.53509 3.67181 9.70733 3.32011 9.80669 2.75036C9.9988 1.66712 9.32974 0.47135 8.32945 0.0985494C7.99161 -0.0280621 7.13043 -0.035096 6.80584 0.0915154Z" fill="#0A142B" stroke="#0A142B" stroke-width="2" mask="url(#path-1-inside-1_2303_22463)"/>
</svg>
