<?xml version="1.0" encoding="UTF-8"?>
<svg width="110px" height="110px" viewBox="0 0 110 110" version="1.1" xmlns="http://www.w3.org/2000/svg" xmlns:xlink="http://www.w3.org/1999/xlink">
    <!-- Generator: Sketch 49.1 (51147) - http://www.bohemiancoding.com/sketch -->
    <title>Booker</title>
    <desc>Created with Sketch.</desc>
    <defs></defs>
    <g id="Booker" stroke="none" stroke-width="1" fill="none" fill-rule="evenodd">
        <g id="Group" transform="translate(2.000000, 2.000000)">
            <g id="Group-88" fill="#FFFFFF" stroke="#0098FF" stroke-width="3">
                <circle id="Oval-7" cx="53" cy="53" r="53"></circle>
            </g>
            <g id="Group-113" transform="translate(14.454545, 11.242424)" fill="#0A142B">
                <g id="Group-111" transform="translate(38.545455, 24.893939) scale(1, -1) rotate(-16.000000) translate(-38.545455, -24.893939) translate(3.212121, 9.636364)">
                    <polygon id="Path-2" points="0 11.927701 6.66509456 25.849904 18.5072833 21.3779371 20.2603835 21.3779371 23.1560896 21.7657094 37.4389813 26.6200318 55.9988385 29.1808581 69.9815811 17.4536946 70.3607504 16.268711 70.3607504 14.7756126 69.6170688 13.5973202 68.5668656 12.7943736 66.9160455 12.7943736 66.0394953 11.4401977 64.6824518 11.4401977 63.8941621 11.4401977 55.5683699 18.1878173 43.4024534 16.268711 40.2700055 14.1619319 52.5334227 15.8866741 53.8815446 15.5084607 55.0713077 14.7756126 55.5683699 13.1741801 55.9988385 11.4401977 55.5683699 9.76771073 54.4273572 8.86375848 52.8616112 7.97764948 41.7819031 6.04356764 27.6226397 1.14718615 26.5711619 1.14718615 25.0700978 1.14718615 23.840506 1.14718615 23.1560896 1.54101237"></polygon>
                </g>
                <g id="Group-112" transform="translate(11.242424, 38.545455)">
                    <path d="M3.21212121,28.9090909 C3.21212121,15.6040492 13.9979886,4.81818182 27.3030303,4.81818182 C40.608072,4.81818182 51.3939394,15.6040492 51.3939394,28.9090909 L3.21212121,28.9090909 Z" id="Combined-Shape"></path>
                    <rect id="Rectangle-59" x="0" y="30.5151515" width="54.6060606" height="8.03030303" rx="3"></rect>
                    <rect id="Rectangle-59-Copy" x="24.0909091" y="0" width="8.03030303" height="8.03030303" rx="3"></rect>
                </g>
            </g>
        </g>
    </g>
</svg>