<?xml version="1.0" encoding="UTF-8"?>
<svg width="110px" height="110px" viewBox="0 0 110 110" version="1.1" xmlns="http://www.w3.org/2000/svg" xmlns:xlink="http://www.w3.org/1999/xlink">
    <!-- Generator: Sketch 49.1 (51147) - http://www.bohemiancoding.com/sketch -->
    <title>My Company</title>
    <desc>Created with Sketch.</desc>
    <defs>
        <rect id="path-1" x="46" y="31" width="13.6739886" height="25.6387286" rx="6.8369943"></rect>
        <rect id="path-2" x="41" y="10" width="23.9294801" height="37.6034687" rx="11.96474"></rect>
    </defs>
    <g id="My-Company" stroke="none" stroke-width="1" fill="none" fill-rule="evenodd">
        <g id="Group" transform="translate(2.000000, 2.000000)">
            <circle id="Oval-7" stroke="#0098FF" stroke-width="3" fill="#FFFFFF" cx="53" cy="53" r="53"></circle>
            <path d="M73.853935,64.5637997 C84.7355925,64.5637997 93.5569189,55.7174931 93.5569189,44.805021 C93.5569189,41.9303519 83.8268286,43.0844225 77.3501549,49.1577324 C71.7315948,54.4263717 68.7991136,64.5637997 73.853935,64.5637997 Z" id="Oval-17" fill="#0A142B" transform="translate(82.404883, 53.934323) rotate(42.000000) translate(-82.404883, -53.934323) "></path>
            <rect id="Rectangle-54" fill="#0A142B" x="74.035045" y="20.4006163" width="15.9529867" height="25.0689791" rx="7.97649335"></rect>
            <rect id="Rectangle-54" fill="#0A142B" x="77.4535421" y="36.353603" width="9.1159924" height="17.0924858" rx="4.5579962"></rect>
            <rect id="Rectangle-54" fill="#0A142B" x="72.8955459" y="31.7956068" width="2.2789981" height="5.69749525" rx="1.13949905"></rect>
            <rect id="Rectangle-54" fill="#0A142B" x="88.8485326" y="31.7956068" width="2.2789981" height="5.69749525" rx="1.13949905"></rect>
            <path d="M15.8878333,64.5637997 C26.7694908,64.5637997 35.5908172,55.7174931 35.5908172,44.805021 C35.5908172,41.9303519 25.8607269,43.0844225 19.3840532,49.1577324 C13.7654931,54.4263717 10.8330119,64.5637997 15.8878333,64.5637997 Z" id="Oval-17" fill="#0A142B" transform="translate(24.438781, 53.934323) rotate(42.000000) translate(-24.438781, -53.934323) "></path>
            <rect id="Rectangle-54" fill="#0A142B" x="16.0689433" y="20.4006163" width="15.9529867" height="25.0689791" rx="7.97649335"></rect>
            <rect id="Rectangle-54" fill="#0A142B" x="19.4874404" y="36.353603" width="9.1159924" height="17.0924858" rx="4.5579962"></rect>
            <rect id="Rectangle-54" fill="#0A142B" x="14.9294442" y="31.7956068" width="2.2789981" height="5.69749525" rx="1.13949905"></rect>
            <rect id="Rectangle-54" fill="#0A142B" x="30.8824309" y="31.7956068" width="2.2789981" height="5.69749525" rx="1.13949905"></rect>
            <path d="M39.9016316,76.8884301 C56.2241179,76.8884301 69.4561074,63.6189703 69.4561074,47.250262 C69.4561074,42.9382583 54.860972,44.6693643 45.1459615,53.7793292 C36.7181213,61.6822881 32.3193995,76.8884301 39.9016316,76.8884301 Z" id="Oval-17" stroke="#FFFFFF" fill="#0A142B" transform="translate(52.728054, 60.944215) rotate(42.000000) translate(-52.728054, -60.944215) "></path>
            <g id="Rectangle-54">
                <use fill="#0A142B" fill-rule="evenodd" xlink:href="#path-1"></use>
                <rect stroke="#FFFFFF" stroke-width="1" x="46.5" y="31.5" width="12.6739886" height="24.6387286" rx="6.3369943"></rect>
            </g>
            <g id="Rectangle-54">
                <use fill="#0A142B" fill-rule="evenodd" xlink:href="#path-2"></use>
                <rect stroke="#FFFFFF" stroke-width="1" x="41.5" y="10.5" width="22.9294801" height="36.6034687" rx="11.46474"></rect>
            </g>
            <rect id="Rectangle-54" fill="#0A142B" x="39.9180492" y="27.4622854" width="3.41849715" height="8.54624288" rx="1.70924858"></rect>
            <rect id="Rectangle-54" fill="#0A142B" x="62.8475293" y="27.4622854" width="3.41849715" height="8.54624288" rx="1.70924858"></rect>
            <g id="Group-32" transform="translate(41.000000, 73.000000)">
                <circle id="Oval-7" stroke="#0A142B" stroke-width="5" cx="12.5" cy="12.5" r="7.5"></circle>
                <path d="M11.362623,0 L13.637377,0 C14.0561476,0 14.4831546,0.559644063 14.5911238,1.25 L14.9821149,3.75 C15.0900841,4.44035594 14.6980876,5 14.1065662,5 L10.8934338,5 C10.3019124,5 9.90991594,4.44035594 10.0178851,3.75 L10.4088762,1.25 C10.5168454,0.559644063 10.9438524,0 11.362623,0 Z" id="Rectangle-9" fill="#0A142B"></path>
                <path d="M11.362623,0 L13.637377,0 C14.0561476,0 14.4831546,0.559644063 14.5911238,1.25 L14.9821149,3.75 C15.0900841,4.44035594 14.6980876,5 14.1065662,5 L10.8934338,5 C10.3019124,5 9.90991594,4.44035594 10.0178851,3.75 L10.4088762,1.25 C10.5168454,0.559644063 10.9438524,0 11.362623,0 Z" id="Rectangle-9" fill="#0A142B"></path>
                <path d="M11.362623,20 L13.637377,20 C14.0561476,20 14.4831546,20.5596441 14.5911238,21.25 L14.9821149,23.75 C15.0900841,24.4403559 14.6980876,25 14.1065662,25 L10.8934338,25 C10.3019124,25 9.90991594,24.4403559 10.0178851,23.75 L10.4088762,21.25 C10.5168454,20.5596441 10.9438524,20 11.362623,20 Z" id="Rectangle-9" fill="#0A142B" transform="translate(12.500000, 22.500000) scale(-1, -1) translate(-12.500000, -22.500000) "></path>
                <g id="Group-31" transform="translate(12.500000, 12.500000) rotate(45.000000) translate(-12.500000, -12.500000) translate(10.000000, 0.000000)" fill="#0A142B">
                    <path d="M1.36262305,0 L3.63737696,0 C4.05614759,0 4.48315459,0.559644063 4.59112379,1.25 L4.98211485,3.75 C5.09008406,4.44035594 4.69808759,5 4.10656623,5 L0.893433769,5 C0.301912415,5 -0.0900840561,4.44035594 0.0178851452,3.75 L0.408876209,1.25 C0.51684541,0.559644063 0.943852414,0 1.36262305,0 Z" id="Rectangle-9"></path>
                    <path d="M1.36262305,20 L3.63737696,20 C4.05614759,20 4.48315459,20.5596441 4.59112379,21.25 L4.98211485,23.75 C5.09008406,24.4403559 4.69808759,25 4.10656623,25 L0.893433769,25 C0.301912415,25 -0.0900840561,24.4403559 0.0178851452,23.75 L0.408876209,21.25 C0.51684541,20.5596441 0.943852414,20 1.36262305,20 Z" id="Rectangle-9" transform="translate(2.500000, 22.500000) scale(-1, -1) translate(-2.500000, -22.500000) "></path>
                </g>
                <g id="Group-17" transform="translate(12.606602, 12.606602) rotate(-45.000000) translate(-12.606602, -12.606602) translate(10.106602, 0.106602)" fill="#0A142B">
                    <path d="M1.36262305,0 L3.63737696,0 C4.05614759,0 4.48315459,0.559644063 4.59112379,1.25 L4.98211485,3.75 C5.09008406,4.44035594 4.69808759,5 4.10656623,5 L0.893433769,5 C0.301912415,5 -0.0900840561,4.44035594 0.0178851452,3.75 L0.408876209,1.25 C0.51684541,0.559644063 0.943852414,0 1.36262305,0 Z" id="Rectangle-9"></path>
                    <path d="M1.36262305,20 L3.63737696,20 C4.05614759,20 4.48315459,20.5596441 4.59112379,21.25 L4.98211485,23.75 C5.09008406,24.4403559 4.69808759,25 4.10656623,25 L0.893433769,25 C0.301912415,25 -0.0900840561,24.4403559 0.0178851452,23.75 L0.408876209,21.25 C0.51684541,20.5596441 0.943852414,20 1.36262305,20 Z" id="Rectangle-9" transform="translate(2.500000, 22.500000) scale(-1, -1) translate(-2.500000, -22.500000) "></path>
                </g>
                <path d="M20.862623,10.5 L23.137377,10.5 C23.5561476,10.5 23.9831546,11.0596441 24.0911238,11.75 L24.4821149,14.25 C24.5900841,14.9403559 24.1980876,15.5 23.6065662,15.5 L20.3934338,15.5 C19.8019124,15.5 19.4099159,14.9403559 19.5178851,14.25 L19.9088762,11.75 C20.0168454,11.0596441 20.4438524,10.5 20.862623,10.5 Z" id="Rectangle-9" fill="#0A142B" transform="translate(22.000000, 13.000000) rotate(90.000000) translate(-22.000000, -13.000000) "></path>
                <path d="M1.86262305,10.5 L4.13737695,10.5 C4.55614759,10.5 4.98315459,11.0596441 5.09112379,11.75 L5.48211485,14.25 C5.59008406,14.9403559 5.19808759,15.5 4.60656623,15.5 L1.39343377,15.5 C0.801912415,15.5 0.409915943,14.9403559 0.517885145,14.25 L0.908876209,11.75 C1.01684541,11.0596441 1.44385241,10.5 1.86262305,10.5 Z" id="Rectangle-9" fill="#0A142B" transform="translate(3.000000, 13.000000) rotate(-90.000000) translate(-3.000000, -13.000000) "></path>
                <path d="M18.7872442,3.0753788 L21.0619982,3.0753788 C21.4807688,3.0753788 21.9077758,3.63502286 22.015745,4.3253788 L22.4067361,6.8253788 C22.5147053,7.51573473 22.1227088,8.0753788 21.5311874,8.0753788 L18.318055,8.0753788 C17.7265336,8.0753788 17.3345371,7.51573473 17.4425063,6.8253788 L17.8334974,4.3253788 C17.9414666,3.63502286 18.3684736,3.0753788 18.7872442,3.0753788 Z" id="Rectangle-9" fill="#0A142B" transform="translate(19.924621, 5.575379) rotate(45.000000) translate(-19.924621, -5.575379) "></path>
            </g>
        </g>
    </g>
</svg>