<?xml version="1.0" encoding="UTF-8"?>
<svg width="110px" height="110px" viewBox="0 0 110 110" version="1.1" xmlns="http://www.w3.org/2000/svg" xmlns:xlink="http://www.w3.org/1999/xlink">
    <!-- Generator: Sketch 49.1 (51147) - http://www.bohemiancoding.com/sketch -->
    <title>Communications NEw</title>
    <desc>Created with Sketch.</desc>
    <defs></defs>
    <g id="Communications-NEw" stroke="none" stroke-width="1" fill="none" fill-rule="evenodd">
        <circle id="Oval-7" stroke="#0098FF" stroke-width="3" fill="#FFFFFF" cx="55" cy="55" r="53"></circle>
        <g id="c32705ef0320c86aefaeb169edacc4e6" transform="translate(25.000000, 31.000000)" fill="#0A142B" fill-rule="nonzero">
            <path d="M5.81059063,14.5600815 C6.56822811,15.0916497 8.85336049,16.6802444 12.6598778,19.3197556 C16.4663951,21.9592668 19.3869654,23.99389 21.4154786,25.4175153 C21.6354379,25.5763747 22.1120163,25.9124236 22.8329939,26.4378819 C23.5539715,26.9633401 24.1588595,27.3849287 24.6354379,27.7087576 C25.1120163,28.0325866 25.6924644,28.3930754 26.3706721,28.796334 C27.0488798,29.1995927 27.6904277,29.4989817 28.2892057,29.700611 C28.8879837,29.9022403 29.4501018,30 29.9572301,30 L29.99389,30 L30.0305499,30 C30.5437882,30 31.0997963,29.9022403 31.6985743,29.700611 C32.2973523,29.4989817 32.9389002,29.1995927 33.6171079,28.796334 C34.2953157,28.3930754 34.8757637,28.0325866 35.3523422,27.7087576 C35.8289206,27.3849287 36.4338086,26.9633401 37.1547862,26.4378819 C37.8757637,25.9124236 38.3523422,25.5763747 38.5723014,25.4175153 C40.6191446,23.99389 45.8370672,20.3706721 54.2077393,14.5600815 C55.8329939,13.4236253 57.1894094,12.0549898 58.2830957,10.4480652 C59.3767821,8.84725051 59.9205703,7.16089613 59.9205703,5.401222 C59.9205703,3.9287169 59.389002,2.6700611 58.3319756,1.62525458 C57.2749491,0.580448065 56.0224033,0.0549898167 54.5743381,0.0549898167 L5.38900204,0.0549898167 C3.67209776,0.0549898167 2.35234216,0.635437882 1.42973523,1.79022403 C0.50712831,2.95112016 0.0427698574,4.39918534 0.0427698574,6.13441955 C0.0427698574,7.53971487 0.653767821,9.0610998 1.88187373,10.6985743 C3.12219959,12.3421589 4.42973523,13.6252546 5.81059063,14.5600815 Z" id="Shape"></path>
            <path d="M56.5967413,18.1405295 C49.2892057,23.0835031 43.7413442,26.9266802 39.9592668,29.6639511 C38.688391,30.598778 37.6619145,31.3319756 36.8676171,31.8513238 C36.0794297,32.3767821 35.0224033,32.9083503 33.7087576,33.4582485 C32.395112,34.0020367 31.1670061,34.2769857 30.0366599,34.2769857 L30,34.2769857 L29.9633401,34.2769857 C28.8268839,34.2769857 27.604888,34.0020367 26.2851324,33.4582485 C24.9714868,32.9144603 23.9205703,32.3767821 23.1262729,31.8513238 C22.3380855,31.3258656 21.305499,30.598778 20.0346232,29.6639511 C17.0285132,27.4582485 11.4928717,23.6150713 3.42769857,18.1344196 C2.16904277,17.2912424 1.03869654,16.3197556 0.0610997963,15.2321792 L0.0610997963,41.7617108 C0.0610997963,43.2342159 0.586558045,44.4928717 1.63136456,45.5376782 C2.67617108,46.5824847 3.93482688,47.107943 5.40733198,47.107943 L54.592668,47.107943 C56.0651731,47.107943 57.3238289,46.5824847 58.3686354,45.5376782 C59.413442,44.4928717 59.9389002,43.2342159 59.9389002,41.7617108 L59.9389002,15.2321792 C58.9796334,16.3014257 57.8676171,17.2668024 56.5967413,18.1405295 Z" id="Shape"></path>
        </g>
    </g>
</svg>