<?xml version="1.0" encoding="UTF-8"?>
<svg width="110px" height="110px" viewBox="0 0 110 110" version="1.1" xmlns="http://www.w3.org/2000/svg" xmlns:xlink="http://www.w3.org/1999/xlink">
    <!-- Generator: Sketch 49.1 (51147) - http://www.bohemiancoding.com/sketch -->
    <title>Attributes Copy 2</title>
    <desc>Created with Sketch.</desc>
    <defs></defs>
    <g id="Attributes-Copy-2" stroke="none" stroke-width="1" fill="none" fill-rule="evenodd">
        <g id="Group-2" transform="translate(2.000000, 3.000000)">
            <g id="Group" fill="#FFFFFF" stroke="#0098FF" stroke-width="3">
                <g id="Group-88">
                    <ellipse id="Oval-7" cx="53" cy="52.5" rx="53" ry="52.5"></ellipse>
                </g>
            </g>
            <g id="Group-119" transform="translate(18.171429, 19.000000)" stroke="#0A142B">
                <polygon id="Path-15" stroke-width="2" fill-opacity="0.75" fill="#0A142B" points="0 19 0 44.7467132 34.574081 67.0853811 70.2150623 44.7467132 70.2150623 19 35.1075311 42.0785765"></polygon>
                <path d="M34.9203463,41 L34.9203463,66.1227836" id="Path-16" stroke-width="2"></path>
                <g id="Group-118" transform="translate(9.085714, 0.000000)">
                    <g id="Group-117" transform="translate(17.161905, 0.000000)">
                        <ellipse id="Oval-28" stroke-width="2" cx="9.08571429" cy="4" rx="7.06666667" ry="4"></ellipse>
                        <path d="M16.152381,14 C16.152381,11.790861 12.9885265,10 9.08571429,10 C5.18290205,10 2.01904762,11.790861 2.01904762,14" id="Oval-28" stroke-width="2" transform="translate(9.085714, 12.000000) rotate(-180.000000) translate(-9.085714, -12.000000) "></path>
                        <path d="M15.647619,4.5 L15.647619,9.5" id="Line-14" stroke-linecap="square"></path>
                        <path d="M16.6571429,4.5 L16.6571429,9.5" id="Line-14" stroke-linecap="square"></path>
                        <path d="M15.647619,4.5 L15.647619,9.5" id="Line-14" stroke-linecap="square"></path>
                        <path d="M16.6571429,4.5 L16.6571429,9.5" id="Line-14" stroke-linecap="square"></path>
                        <path d="M15.647619,4.5 L15.647619,9.5" id="Line-14" stroke-linecap="square"></path>
                        <path d="M16.6571429,4.5 L16.6571429,9.5" id="Line-14" stroke-linecap="square"></path>
                        <path d="M15.647619,4.5 L15.647619,9.5" id="Line-14" stroke-linecap="square"></path>
                        <path d="M16.6571429,4.5 L16.6571429,9.5" id="Line-14" stroke-linecap="square"></path>
                        <path d="M15.647619,4.5 L15.647619,9.5" id="Line-14" stroke-linecap="square"></path>
                        <path d="M16.6571429,4.5 L16.6571429,9.5" id="Line-14" stroke-linecap="square"></path>
                        <path d="M15.647619,4.5 L15.647619,9.5" id="Line-14" stroke-linecap="square"></path>
                        <path d="M16.6571429,4.5 L16.6571429,9.5" id="Line-14" stroke-linecap="square"></path>
                        <path d="M15.647619,4.5 L15.647619,9.5" id="Line-14" stroke-linecap="square"></path>
                        <path d="M16.6571429,4.5 L16.6571429,9.5" id="Line-14" stroke-linecap="square"></path>
                        <path d="M1.51428571,4.5 L1.51428571,9.5" id="Line-14" stroke-linecap="square"></path>
                        <path d="M2.52380952,5.5 L2.52380952,10.5" id="Line-14" stroke-linecap="square"></path>
                    </g>
                    <g id="Group-117" transform="translate(17.161905, 19.000000)">
                        <ellipse id="Oval-28" stroke-width="2" cx="9.08571429" cy="4" rx="7.06666667" ry="4"></ellipse>
                        <path d="M16.152381,14 C16.152381,11.790861 12.9885265,10 9.08571429,10 C5.18290205,10 2.01904762,11.790861 2.01904762,14" id="Oval-28" stroke-width="2" transform="translate(9.085714, 12.000000) rotate(-180.000000) translate(-9.085714, -12.000000) "></path>
                        <path d="M15.647619,4.5 L15.647619,9.5" id="Line-14" stroke-linecap="square"></path>
                        <path d="M16.6571429,4.5 L16.6571429,9.5" id="Line-14" stroke-linecap="square"></path>
                        <path d="M15.647619,4.5 L15.647619,9.5" id="Line-14" stroke-linecap="square"></path>
                        <path d="M16.6571429,4.5 L16.6571429,9.5" id="Line-14" stroke-linecap="square"></path>
                        <path d="M15.647619,4.5 L15.647619,9.5" id="Line-14" stroke-linecap="square"></path>
                        <path d="M16.6571429,4.5 L16.6571429,9.5" id="Line-14" stroke-linecap="square"></path>
                        <path d="M15.647619,4.5 L15.647619,9.5" id="Line-14" stroke-linecap="square"></path>
                        <path d="M16.6571429,4.5 L16.6571429,9.5" id="Line-14" stroke-linecap="square"></path>
                        <path d="M15.647619,4.5 L15.647619,9.5" id="Line-14" stroke-linecap="square"></path>
                        <path d="M16.6571429,4.5 L16.6571429,9.5" id="Line-14" stroke-linecap="square"></path>
                        <path d="M15.647619,4.5 L15.647619,9.5" id="Line-14" stroke-linecap="square"></path>
                        <path d="M16.6571429,4.5 L16.6571429,9.5" id="Line-14" stroke-linecap="square"></path>
                        <path d="M15.647619,4.5 L15.647619,9.5" id="Line-14" stroke-linecap="square"></path>
                        <path d="M16.6571429,4.5 L16.6571429,9.5" id="Line-14" stroke-linecap="square"></path>
                        <path d="M1.51428571,4.5 L1.51428571,9.5" id="Line-14" stroke-linecap="square"></path>
                        <path d="M2.52380952,5.5 L2.52380952,10.5" id="Line-14" stroke-linecap="square"></path>
                    </g>
                    <g id="Group-117" transform="translate(0.000000, 9.000000)">
                        <ellipse id="Oval-28" stroke-width="2" cx="9.08571429" cy="4" rx="7.06666667" ry="4"></ellipse>
                        <path d="M16.152381,14 C16.152381,11.790861 12.9885265,10 9.08571429,10 C5.18290205,10 2.01904762,11.790861 2.01904762,14" id="Oval-28" stroke-width="2" transform="translate(9.085714, 12.000000) rotate(-180.000000) translate(-9.085714, -12.000000) "></path>
                        <path d="M15.647619,4.5 L15.647619,9.5" id="Line-14" stroke-linecap="square"></path>
                        <path d="M16.6571429,4.5 L16.6571429,9.5" id="Line-14" stroke-linecap="square"></path>
                        <path d="M15.647619,4.5 L15.647619,9.5" id="Line-14" stroke-linecap="square"></path>
                        <path d="M16.6571429,4.5 L16.6571429,9.5" id="Line-14" stroke-linecap="square"></path>
                        <path d="M15.647619,4.5 L15.647619,9.5" id="Line-14" stroke-linecap="square"></path>
                        <path d="M16.6571429,4.5 L16.6571429,9.5" id="Line-14" stroke-linecap="square"></path>
                        <path d="M15.647619,4.5 L15.647619,9.5" id="Line-14" stroke-linecap="square"></path>
                        <path d="M16.6571429,4.5 L16.6571429,9.5" id="Line-14" stroke-linecap="square"></path>
                        <path d="M15.647619,4.5 L15.647619,9.5" id="Line-14" stroke-linecap="square"></path>
                        <path d="M16.6571429,4.5 L16.6571429,9.5" id="Line-14" stroke-linecap="square"></path>
                        <path d="M15.647619,4.5 L15.647619,9.5" id="Line-14" stroke-linecap="square"></path>
                        <path d="M16.6571429,4.5 L16.6571429,9.5" id="Line-14" stroke-linecap="square"></path>
                        <path d="M15.647619,4.5 L15.647619,9.5" id="Line-14" stroke-linecap="square"></path>
                        <path d="M16.6571429,4.5 L16.6571429,9.5" id="Line-14" stroke-linecap="square"></path>
                        <path d="M1.51428571,4.5 L1.51428571,9.5" id="Line-14" stroke-linecap="square"></path>
                        <path d="M2.52380952,5.5 L2.52380952,10.5" id="Line-14" stroke-linecap="square"></path>
                    </g>
                    <g id="Group-117" transform="translate(34.323810, 9.000000)">
                        <ellipse id="Oval-28" stroke-width="2" cx="9.08571429" cy="4" rx="7.06666667" ry="4"></ellipse>
                        <path d="M16.152381,14 C16.152381,11.790861 12.9885265,10 9.08571429,10 C5.18290205,10 2.01904762,11.790861 2.01904762,14" id="Oval-28" stroke-width="2" transform="translate(9.085714, 12.000000) rotate(-180.000000) translate(-9.085714, -12.000000) "></path>
                        <path d="M15.647619,4.5 L15.647619,9.5" id="Line-14" stroke-linecap="square"></path>
                        <path d="M16.6571429,4.5 L16.6571429,9.5" id="Line-14" stroke-linecap="square"></path>
                        <path d="M15.647619,4.5 L15.647619,9.5" id="Line-14" stroke-linecap="square"></path>
                        <path d="M16.6571429,4.5 L16.6571429,9.5" id="Line-14" stroke-linecap="square"></path>
                        <path d="M15.647619,4.5 L15.647619,9.5" id="Line-14" stroke-linecap="square"></path>
                        <path d="M16.6571429,4.5 L16.6571429,9.5" id="Line-14" stroke-linecap="square"></path>
                        <path d="M15.647619,4.5 L15.647619,9.5" id="Line-14" stroke-linecap="square"></path>
                        <path d="M16.6571429,4.5 L16.6571429,9.5" id="Line-14" stroke-linecap="square"></path>
                        <path d="M15.647619,4.5 L15.647619,9.5" id="Line-14" stroke-linecap="square"></path>
                        <path d="M16.6571429,4.5 L16.6571429,9.5" id="Line-14" stroke-linecap="square"></path>
                        <path d="M15.647619,4.5 L15.647619,9.5" id="Line-14" stroke-linecap="square"></path>
                        <path d="M16.6571429,4.5 L16.6571429,9.5" id="Line-14" stroke-linecap="square"></path>
                        <path d="M15.647619,4.5 L15.647619,9.5" id="Line-14" stroke-linecap="square"></path>
                        <path d="M16.6571429,4.5 L16.6571429,9.5" id="Line-14" stroke-linecap="square"></path>
                        <path d="M1.51428571,4.5 L1.51428571,9.5" id="Line-14" stroke-linecap="square"></path>
                        <path d="M2.52380952,5.5 L2.52380952,10.5" id="Line-14" stroke-linecap="square"></path>
                    </g>
                </g>
            </g>
        </g>
    </g>
</svg>