<?xml version="1.0" standalone="no"?>
<!DOCTYPE svg PUBLIC "-//W3C//DTD SVG 20010904//EN"
 "http://www.w3.org/TR/2001/REC-SVG-20010904/DTD/svg10.dtd">
<svg version="1.0" xmlns="http://www.w3.org/2000/svg"
 width="256.000000pt" height="256.000000pt" viewBox="0 0 256.000000 256.000000"
 preserveAspectRatio="xMidYMid meet">
<metadata>
Created by potrace 1.15, written by Peter Selinger 2001-2017
</metadata>
<g transform="translate(0.000000,256.000000) scale(0.100000,-0.100000)"
fill="#000000" stroke="none">
<path d="M998 2531 c-30 -27 -33 -34 -36 -102 -4 -89 16 -136 66 -159 31 -14
32 -17 30 -64 l-3 -48 -85 -24 c-380 -109 -667 -414 -757 -808 -12 -50 -16
-118 -16 -226 0 -135 3 -168 26 -255 101 -379 391 -671 772 -775 113 -31 336
-39 459 -16 415 79 738 384 847 803 20 75 23 112 23 253 0 145 -4 177 -26 261
-46 169 -132 327 -244 448 l-53 57 60 75 c61 77 73 115 49 159 -11 21 -129
118 -169 139 -34 19 -83 6 -117 -32 -23 -25 -97 -115 -110 -135 -1 -2 -53 14
-115 34 -63 20 -120 38 -126 40 -20 5 -17 104 2 104 8 0 29 13 47 29 33 29 33
30 33 121 0 91 0 92 -33 121 l-32 29 -230 0 -230 0 -32 -29z m467 -685 c87
-25 191 -77 267 -136 207 -160 324 -441 289 -695 -44 -314 -246 -552 -551
-646 -62 -20 -97 -24 -205 -24 -155 0 -219 15 -354 81 -168 83 -314 252 -375
435 -65 195 -46 433 49 609 22 41 24 43 25 18 0 -37 17 -53 250 -243 159 -130
206 -173 211 -196 9 -43 55 -96 101 -120 62 -32 154 -24 205 17 69 54 101 155
74 227 -14 35 -69 95 -104 114 -17 8 -58 16 -91 17 -57 3 -76 11 -310 135
-190 101 -256 132 -277 129 l-28 -4 36 40 c114 128 242 206 403 247 93 23 291
21 385 -5z"/>
</g>
</svg>
