<svg height="512pt" viewBox="0 0 512 512" width="512pt" xmlns="http://www.w3.org/2000/svg"><path d="m286 303.402344 63-96.601563c7.800781-12 12-26.101562 12-40.800781 0-41.398438-33.601562-75-75-75s-75 33.601562-75 75c0 14.699219 4.199219 28.800781 12 40.800781zm0-182.402344c24.902344 0 45 20.097656 45 45s-20.097656 45-45 45-45-20.097656-45-45 20.097656-45 45-45zm0 0"/><path d="m286 181c8.277344 0 15-6.722656 15-15s-6.722656-15-15-15-15 6.722656-15 15 6.722656 15 15 15zm0 0"/><path d="m75 376c42.898438 0 75 19.5 75 45 0 8.402344-6.597656 15-15 15s-15-6.597656-15-15c0-3.601562-15.902344-15-45-15-5.398438 0-10.5.300781-15 1.199219v27.601562c-19.5-2.699219-30-10.800781-30-13.800781s10.5-11.101562 30-13.800781v-30.296875c-35.097656 3.898437-60 21.597656-60 44.097656s24.902344 40.199219 60 44.097656v31.902344c0 8.402344 6.597656 15 15 15h347v-512h-347c-8.402344 0-15 6.597656-15 15v46.902344c4.800781-.601563 9.902344-.902344 15-.902344 42.898438 0 75 19.5 75 45 0 8.402344-6.597656 15-15 15s-15-6.597656-15-15c0-3.601562-15.902344-15-45-15-5.398438 0-10.5.300781-15 1.199219v27.601562c-19.5-2.699219-30-10.800781-30-13.800781s10.5-11.101562 30-13.800781v-30.296875c-35.097656 3.898437-60 21.597656-60 44.097656s24.902344 40.199219 60 44.097656v16.804688c4.800781-.601563 9.902344-.902344 15-.902344 42.898438 0 75 19.5 75 45 0 8.402344-6.597656 15-15 15s-15-6.597656-15-15c0-3.601562-15.902344-15-45-15-5.398438 0-10.5.300781-15 1.199219v27.601562c-19.5-2.699219-30-10.800781-30-13.800781s10.5-11.101562 30-13.800781v-30.296875c-35.097656 3.898437-60 21.597656-60 44.097656s24.902344 40.199219 60 44.097656v16.804688c4.800781-.601563 9.902344-.902344 15-.902344 42.898438 0 75 19.5 75 45 0 8.402344-6.597656 15-15 15s-15-6.597656-15-15c0-3.601562-15.902344-15-45-15-5.398438 0-10.5.300781-15 1.199219v27.601562c-19.5-2.699219-30-10.800781-30-13.800781s10.5-11.101562 30-13.800781v-30.296875c-35.097656 3.898437-60 21.597656-60 44.097656s24.902344 40.199219 60 44.097656v16.804688c4.800781-.601563 9.902344-.902344 15-.902344zm271 75h-120c-8.402344 0-15-6.597656-15-15s6.597656-15 15-15h120c8.402344 0 15 6.597656 15 15s-6.597656 15-15 15zm-60-390c57.898438 0 105 47.101562 105 105 0 20.398438-6 40.199219-16.800781 57.300781l-75.601563 115.800781c-2.699218 4.199219-7.5 6.898438-12.597656 6.898438s-9.902344-2.703125-12.597656-6.898438l-75.601563-115.800781c-10.800781-17.101562-16.800781-36.902343-16.800781-57.300781 0-57.898438 47.101562-105 105-105zm-90 300h180c8.402344 0 15 6.597656 15 15s-6.597656 15-15 15h-180c-8.402344 0-15-6.597656-15-15s6.597656-15 15-15zm0 0"/><path d="m467 0h-15v512h15c24.8125 0 45-21.1875 45-46v-421c0-24.8125-20.1875-45-45-45zm0 0"/></svg>