<?xml version="1.0" encoding="UTF-8"?>
<svg width="512px" height="448px" viewBox="0 0 512 448" version="1.1" xmlns="http://www.w3.org/2000/svg" xmlns:xlink="http://www.w3.org/1999/xlink">
    <title>Unarchive</title>
    <g id="Unarchive" stroke="none" stroke-width="1" fill="none" fill-rule="evenodd">
        <g id="archive-solid" fill="#000000" fill-rule="nonzero">
            <path d="M480,0 L32,0 C14.3,0 0,14.3 0,32 L0,80 C0,88.8 7.2,96 16,96 L496,96 C504.8,96 512,88.8 512,80 L512,32 C512,14.3 497.7,0 480,0 Z" id="Shape"></path>
        </g>
        <g id="trash-restore-alt-solid" transform="translate(35.571429, 128.000000)" fill="#000000" fill-rule="nonzero">
            <path d="M0,280 C0,302.09139 24.5603794,320 54.8571429,320 L384,320 C414.296763,320 438.857143,302.09139 438.857143,280 L438.857143,0 L0,0 L0,280 Z M104.354286,132.936357 L206.502857,42.7277514 C209.836115,39.7116225 214.52106,37.9969284 219.428571,37.9969284 C224.336083,37.9969284 229.021028,39.7116225 232.354286,42.7277514 L334.502857,132.936357 C346.022857,143.099899 337.862857,160.498503 321.565714,160.498503 L256,160.498503 L256,267.684625 C256,276.141377 247.813207,282.996928 237.714286,282.996928 L201.142857,282.996928 C191.043936,282.996928 182.857143,276.141377 182.857143,267.684625 L182.857143,160.498503 L117.291429,160.498503 C100.994286,160.498503 92.8342857,143.099899 104.354286,132.936357 Z" id="Shape"></path>
        </g>
    </g>
</svg>