<svg width="101" height="95" viewBox="0 0 101 95" fill="none" xmlns="http://www.w3.org/2000/svg">
<path d="M76.8523 80.9377C81.9427 80.9583 86.2362 77.1246 86.8251 72.0328C87.414 66.941 84.1105 62.2162 79.1516 61.0581C74.1927 59.8999 69.1612 62.6779 67.4643 67.511H40.1859V70.8677C40.1859 80.1369 32.7241 87.6511 23.5194 87.6511C14.3147 87.6511 6.85288 80.1369 6.85288 70.8677C6.85288 61.5984 14.3147 54.0842 23.5194 54.0842V47.3708C11.0664 47.3717 0.808733 57.2204 0.214511 69.7465C-0.379712 82.2726 8.89893 93.061 21.2952 94.2573C33.6914 95.4536 44.8359 86.6361 46.6149 74.2244H67.4643C68.8648 78.2393 72.6265 80.9293 76.8523 80.9377Z" fill="#0A142B"/>
<path d="M76.8523 47.3709C73.9202 47.3711 71.0143 47.926 68.2857 49.0066L57.7338 30.4122C60.9785 26.6385 61.044 21.0573 57.8888 17.2074C54.7335 13.3574 49.2794 12.3637 44.9846 14.8562C40.6897 17.3486 38.8091 22.5991 40.535 27.2785C42.261 31.9579 47.0893 34.699 51.9585 33.7638L65.688 57.9605L68.5833 56.2902C76.5687 51.6974 86.7391 54.4847 91.3119 62.5192C95.8847 70.5537 93.132 80.7996 85.1603 85.4165C77.1887 90.0333 67.01 87.2767 62.4134 79.256L56.6424 82.6194C62.3048 92.4948 74.1905 96.8509 84.8315 92.9507C95.4725 89.0505 101.797 78.0199 99.8309 66.7897C97.865 55.5596 88.1761 47.3717 76.8523 47.3709Z" fill="#0A142B"/>
<path d="M25.2927 60.9779C20.4524 60.058 15.6591 62.7885 13.9485 67.4401C12.2378 72.0918 14.1089 77.3076 18.3767 79.7844C22.6445 82.2611 28.0641 81.2764 31.2031 77.4538C34.3422 73.6312 34.2851 68.0858 31.068 64.3295C35.986 55.6619 43.0526 43.2109 43.1526 43.034L44.8112 40.1197L41.9189 38.4515C36.0607 35.0809 32.7984 28.4861 33.6555 21.7468C34.5126 15.0076 39.32 9.45355 45.8326 7.67842C52.3452 5.90328 59.2781 8.2573 63.3937 13.6412C67.5093 19.025 67.9955 26.3765 64.6254 32.2624L70.397 35.6258C76.6392 24.7425 73.2728 10.8397 62.7564 4.0715C52.24 -2.69672 38.2969 0.0658156 31.1105 10.3415C23.9242 20.6171 26.0388 34.7679 35.91 42.4587C34.3866 44.9517 32.2363 48.7411 28.9977 54.4514L25.2927 60.9779Z" fill="#0A142B"/>
</svg>
