<?xml version="1.0" standalone="no"?>
<!DOCTYPE svg PUBLIC "-//W3C//DTD SVG 20010904//EN"
 "http://www.w3.org/TR/2001/REC-SVG-20010904/DTD/svg10.dtd">
<svg version="1.0" xmlns="http://www.w3.org/2000/svg"
 width="256.000000pt" height="256.000000pt" viewBox="0 0 256.000000 256.000000"
 preserveAspectRatio="xMidYMid meet">
<metadata>
Created by potrace 1.15, written by Peter Selinger 2001-2017
</metadata>
<g transform="translate(0.000000,256.000000) scale(0.100000,-0.100000)"
fill="#000000" stroke="none">
<path d="M1118 2308 c-27 -6 -48 -14 -48 -19 0 -5 -6 -9 -14 -9 -26 0 -76 -50
-76 -76 0 -15 -7 -27 -17 -30 -10 -3 -31 -11 -48 -19 -16 -7 -48 -19 -70 -26
-22 -6 -43 -16 -46 -22 -4 -5 -65 -13 -135 -18 -136 -8 -172 -14 -213 -35 -14
-8 -31 -14 -37 -14 -18 0 -64 -58 -64 -80 0 -15 -8 -22 -30 -26 -16 -4 -30
-10 -30 -13 0 -4 -23 -13 -50 -20 -28 -7 -50 -16 -50 -20 0 -4 -20 -12 -45
-19 -24 -6 -67 -22 -95 -34 l-50 -22 0 -542 0 -542 53 -18 c28 -9 57 -20 62
-24 6 -4 28 -13 50 -20 22 -7 45 -16 50 -20 6 -4 37 -16 70 -26 33 -10 62 -21
65 -25 3 -4 25 -12 50 -19 25 -7 50 -15 55 -20 6 -4 35 -15 65 -25 30 -10 60
-21 65 -25 6 -5 33 -15 60 -23 28 -8 64 -22 80 -31 17 -9 45 -19 63 -22 17 -3
32 -10 32 -14 0 -4 28 -15 63 -25 34 -10 71 -24 82 -31 11 -8 26 -14 35 -14 8
0 27 -6 42 -14 14 -8 43 -19 65 -26 21 -7 58 -22 83 -33 60 -28 132 -28 192 1
26 12 53 22 60 22 7 0 37 11 66 25 28 13 68 27 87 31 19 3 35 10 35 14 0 4 21
13 48 19 26 7 56 18 67 25 11 7 41 18 68 26 26 7 47 17 47 21 0 5 6 9 14 9 17
0 119 32 126 40 3 3 32 14 65 24 33 10 65 22 70 26 6 4 28 13 50 20 22 7 45
16 50 20 6 4 38 16 73 25 34 10 62 21 62 25 0 4 13 10 30 13 16 4 49 15 72 26
24 10 53 22 66 25 l22 7 0 544 0 543 -37 13 c-21 6 -42 15 -48 19 -5 5 -36 16
-67 25 -32 9 -60 20 -63 25 -3 4 -17 11 -32 15 -56 14 -91 36 -98 63 -8 34
-56 80 -92 88 -15 4 -34 12 -41 17 -8 6 -78 14 -155 18 -141 7 -187 14 -187
29 0 5 -22 14 -50 21 -27 7 -50 16 -50 20 0 3 -13 9 -30 13 -25 5 -30 10 -30
35 0 31 -47 81 -76 81 -8 0 -14 4 -14 9 0 27 -268 41 -372 19z m272 -67 c0 -5
17 -11 38 -14 20 -4 48 -14 61 -23 l23 -17 -24 -21 c-33 -31 -101 -46 -208
-46 -107 0 -175 15 -208 46 l-24 21 23 17 c13 9 41 19 62 23 20 3 40 10 43 14
7 12 214 12 214 0z m-410 -206 c0 -46 4 -60 25 -80 13 -14 31 -25 40 -25 8 0
15 -4 15 -9 0 -17 113 -35 220 -35 107 0 220 18 220 35 0 5 7 9 15 9 9 0 27
11 40 25 21 20 25 34 25 79 l0 55 43 -15 c23 -8 48 -17 56 -20 11 -3 6 -10
-16 -24 -18 -10 -37 -28 -42 -39 -6 -11 -11 -72 -11 -136 0 -114 1 -116 28
-142 39 -37 81 -52 180 -63 102 -12 85 -12 191 0 140 16 211 68 211 154 0 25
5 36 14 36 8 0 17 -4 20 -9 3 -4 35 -17 71 -27 36 -10 65 -22 65 -26 0 -5 10
-8 23 -8 23 -1 1 -11 -118 -52 -33 -11 -64 -24 -70 -28 -5 -3 -30 -13 -55 -20
-25 -8 -47 -17 -50 -20 -3 -3 -25 -12 -50 -19 -25 -7 -64 -22 -88 -32 -23 -11
-56 -22 -72 -26 -17 -3 -30 -9 -30 -13 0 -4 -29 -15 -65 -25 -36 -9 -65 -20
-65 -24 0 -4 -22 -13 -50 -20 -27 -7 -50 -16 -50 -20 0 -4 -24 -13 -53 -20
-28 -6 -64 -17 -78 -25 -15 -8 -51 -22 -80 -31 -30 -10 -58 -21 -64 -25 -5 -5
-29 -13 -52 -19 -34 -9 -50 -8 -85 5 -24 9 -68 25 -98 35 -30 11 -68 26 -85
33 -16 8 -48 19 -70 26 -22 7 -44 16 -50 20 -5 4 -28 13 -50 20 -22 7 -44 16
-50 20 -5 4 -35 15 -65 24 -30 10 -67 24 -82 32 -14 8 -32 14 -40 14 -7 0 -29
8 -48 18 -19 11 -48 22 -65 26 -16 4 -49 16 -72 27 -24 11 -57 22 -73 26 -17
3 -30 9 -30 13 0 4 -28 15 -62 26 -35 10 -78 27 -98 36 -19 10 -43 18 -54 18
-32 0 -6 16 59 36 33 10 62 20 65 24 3 3 22 11 43 17 l37 11 0 -54 c0 -30 5
-54 10 -54 6 0 10 -7 10 -15 0 -8 10 -20 23 -26 12 -7 25 -16 28 -21 10 -16
143 -38 230 -38 170 0 270 36 302 108 22 51 23 172 1 222 -17 38 -57 70 -91
71 -17 0 79 36 105 38 8 1 12 -16 12 -54z m540 27 c0 -34 -31 -69 -68 -78 -15
-4 -29 -10 -32 -14 -3 -4 -33 -10 -67 -14 l-63 -7 0 46 0 45 37 0 c20 0 50 4
67 10 17 5 51 16 76 23 25 8 46 15 48 16 1 0 2 -12 2 -27z m-785 -52 c3 -5 14
-10 24 -10 9 0 41 -7 69 -15 60 -18 68 -41 24 -67 -50 -30 -222 -56 -256 -40
-11 6 -48 16 -82 22 -105 21 -106 67 0 95 32 8 61 17 64 20 10 9 151 5 157 -5z
m1332 -25 c50 -15 67 -32 57 -59 -5 -13 -67 -36 -98 -36 -9 0 -16 -4 -16 -10
0 -6 -40 -10 -100 -10 -60 0 -100 4 -100 10 0 6 -10 10 -22 10 -29 0 -108 36
-108 48 0 16 27 33 72 47 60 19 251 19 315 0z m-1177 -170 c0 -32 -4 -37 -50
-60 -27 -14 -77 -28 -110 -32 l-60 -6 0 41 c0 45 9 52 73 52 23 1 65 9 92 20
28 10 51 19 53 19 1 1 2 -15 2 -34z m1250 -7 c0 -26 -7 -37 -34 -55 -19 -12
-51 -24 -72 -28 -115 -18 -104 -21 -104 27 l0 44 87 11 c47 7 91 17 97 23 18
18 26 11 26 -22z m358 -569 l-3 -472 -50 -15 c-27 -9 -52 -19 -55 -22 -3 -4
-26 -12 -52 -20 -27 -7 -48 -16 -48 -20 0 -4 -17 -11 -37 -15 -21 -3 -61 -17
-90 -31 -28 -13 -58 -24 -65 -24 -7 0 -26 -7 -43 -16 -16 -9 -51 -22 -77 -30
-25 -8 -59 -21 -75 -29 -15 -8 -34 -15 -41 -15 -8 0 -26 -6 -40 -14 -15 -8
-52 -22 -82 -32 -30 -9 -59 -20 -65 -24 -5 -5 -34 -15 -64 -24 -29 -9 -59 -20
-65 -24 -6 -5 -24 -12 -41 -16 -16 -4 -43 -14 -60 -22 -29 -13 -113 -44 -121
-44 -2 0 -4 210 -4 468 l0 467 41 18 c23 10 54 21 70 24 16 3 29 9 29 13 0 4
29 15 65 25 36 9 65 21 65 25 0 4 15 11 33 14 17 3 44 12 59 20 15 8 53 22 85
31 32 9 63 20 68 25 6 4 34 15 64 25 29 9 65 24 80 31 14 8 33 14 41 14 9 0
24 6 35 14 11 7 47 21 80 31 33 9 65 20 70 25 6 4 28 13 50 20 22 7 45 16 50
20 6 3 30 13 55 20 25 8 63 22 85 32 22 10 43 18 48 18 4 0 6 -212 5 -471z"/>
<path d="M1180 1844 c-64 -13 -144 -49 -171 -76 -29 -30 -29 -33 -29 -144 0
-110 1 -114 28 -139 41 -39 78 -56 138 -62 30 -3 54 -10 54 -14 0 -13 167 -11
175 1 3 6 19 10 35 10 48 0 120 29 151 61 29 29 29 31 29 144 0 114 0 114 -30
145 -45 46 -126 70 -250 75 -58 2 -116 1 -130 -1z m244 -88 c32 -8 67 -23 79
-34 l20 -21 -34 -20 c-19 -12 -41 -21 -49 -21 -9 0 -21 -5 -27 -11 -7 -7 -53
-11 -120 -11 -90 0 -118 4 -167 24 -65 26 -72 34 -52 60 32 43 231 62 350 34z
m96 -181 c0 -19 -4 -35 -8 -35 -5 0 -17 -8 -28 -19 -21 -19 -103 -41 -154 -41
-29 0 -30 2 -30 45 l0 45 49 0 c58 0 151 20 151 32 0 4 5 8 10 8 6 0 10 -16
10 -35z"/>
</g>
</svg>
