<?xml version="1.0" standalone="no"?>
<!DOCTYPE svg PUBLIC "-//W3C//DTD SVG 20010904//EN"
 "http://www.w3.org/TR/2001/REC-SVG-20010904/DTD/svg10.dtd">
<svg version="1.0" xmlns="http://www.w3.org/2000/svg"
 width="256.000000pt" height="256.000000pt" viewBox="0 0 256.000000 256.000000"
 preserveAspectRatio="xMidYMid meet">
<metadata>
Created by potrace 1.15, written by Peter Selinger 2001-2017
</metadata>
<g transform="translate(0.000000,256.000000) scale(0.100000,-0.100000)"
fill="#000000" stroke="none">
<path d="M992 2544 c-149 -32 -280 -103 -394 -212 -123 -117 -211 -267 -257
-432 -19 -66 -27 -130 -18 -130 2 0 104 -14 227 -30 123 -17 231 -30 240 -30
13 0 19 12 23 45 16 112 99 225 205 277 64 32 71 33 187 33 112 0 124 -2 179
-29 150 -74 234 -238 180 -352 -20 -43 -77 -89 -169 -139 -283 -154 -416 -351
-432 -642 l-6 -103 245 0 245 0 5 63 c10 116 58 175 223 274 187 113 256 177
328 303 40 71 68 176 74 280 23 389 -265 739 -679 824 -95 20 -317 20 -406 0z"/>
<path d="M1112 624 c-142 -38 -231 -156 -232 -305 0 -98 21 -156 77 -219 71
-80 121 -100 243 -100 122 0 172 20 243 100 56 63 77 121 77 219 -1 152 -91
268 -236 306 -70 18 -103 18 -172 -1z"/>
</g>
</svg>
