<?xml version="1.0" standalone="no"?>
<!DOCTYPE svg PUBLIC "-//W3C//DTD SVG 20010904//EN"
 "http://www.w3.org/TR/2001/REC-SVG-20010904/DTD/svg10.dtd">
<svg version="1.0" xmlns="http://www.w3.org/2000/svg"
 width="256.000000pt" height="256.000000pt" viewBox="0 0 256.000000 256.000000"
 preserveAspectRatio="xMidYMid meet">
<metadata>
Created by potrace 1.15, written by Peter Selinger 2001-2017
</metadata>
<g transform="translate(0.000000,256.000000) scale(0.100000,-0.100000)"
fill="#000000" stroke="none">
<path d="M378 2545 c-146 -40 -269 -146 -340 -293 -28 -60 -32 -79 -36 -178
-5 -120 8 -185 53 -274 53 -104 186 -215 297 -248 32 -9 58 -21 58 -27 0 -5
-36 -46 -80 -90 -85 -85 -96 -109 -60 -145 32 -32 57 -24 121 37 l59 56 0
-170 0 -170 -97 -6 c-54 -4 -150 -7 -214 -7 -76 0 -119 -4 -127 -12 -17 -17
-17 -989 0 -1006 18 -18 991 -17 1006 1 13 16 22 949 9 984 -4 11 -15 24 -25
28 -9 4 -108 9 -219 12 l-203 6 0 170 0 170 59 -56 c33 -32 69 -57 80 -57 25
0 61 37 61 63 0 10 -39 60 -87 110 l-88 91 45 11 c173 45 321 194 367 369 l18
66 174 0 175 0 -44 -47 c-69 -72 -70 -73 -70 -93 0 -24 38 -60 63 -60 12 0 63
43 124 102 l104 102 209 -209 210 -210 0 -194 0 -194 -59 56 c-33 32 -68 57
-79 57 -29 0 -66 -45 -58 -72 3 -13 42 -59 86 -103 43 -44 80 -83 80 -86 0 -4
-15 -10 -34 -13 -114 -21 -269 -142 -323 -251 -55 -110 -66 -156 -61 -268 6
-123 28 -191 93 -282 97 -137 251 -215 419 -215 153 1 261 45 368 151 106 106
148 209 148 365 0 112 -23 195 -78 280 -69 106 -181 188 -301 218 l-44 12 86
89 c56 58 87 98 87 113 0 24 -32 62 -53 62 -18 0 -55 -26 -104 -74 l-43 -40 0
194 0 194 225 226 c192 193 225 230 225 255 0 26 -36 65 -243 273 -198 197
-249 242 -271 242 -22 0 -71 -43 -257 -227 l-230 -227 -97 97 c-82 82 -102 97
-129 97 -35 0 -63 -22 -63 -50 0 -11 28 -49 61 -85 l61 -65 -179 0 -178 0 -14
58 c-41 177 -181 327 -360 382 -74 23 -209 26 -283 5z m254 -125 c111 -34 193
-108 247 -220 23 -48 26 -68 26 -155 0 -93 -2 -105 -33 -167 -42 -86 -109
-153 -192 -192 -59 -28 -74 -31 -165 -31 -88 0 -107 3 -158 27 -198 93 -283
287 -215 493 37 115 158 227 275 254 65 15 148 12 215 -9z m1605 -192 l183
-183 -187 -187 -188 -188 -188 187 -187 188 182 182 c101 101 187 183 193 183
5 0 92 -82 192 -182z m-1327 -1715 l0 -398 -392 3 c-216 2 -395 6 -398 9 -3 2
-6 180 -8 394 l-3 389 401 0 400 0 0 -397z m1300 361 c142 -67 230 -200 231
-350 2 -239 -187 -417 -428 -402 -138 9 -260 94 -325 226 -31 62 -33 73 -32
167 0 86 4 108 26 157 31 67 104 149 166 185 70 41 120 53 212 50 70 -2 97 -8
150 -33z"/>
</g>
</svg>
