<svg width="60" height="60" xmlns="http://www.w3.org/2000/svg">

 <g>
  <title>background</title>
  <rect fill="none" id="canvas_background" height="402" width="582" y="-1" x="-1"/>
 </g>
 <g>
  <title fill-opacity="0">Layer 1</title>
  <path fill="#0098ff" stroke="#0098ff" stroke-opacity="0" id="svg_2" d="m55.783,8l-51.566,0c-2.325,0 -4.217,1.892 -4.217,4.217l0,35.566c0,2.325 1.892,4.217 4.217,4.217l51.566,0c2.325,0 4.217,-1.892 4.217,-4.217l0,-35.566c0,-2.325 -1.892,-4.217 -4.217,-4.217zm2.217,39.783c0,1.222 -0.994,2.217 -2.217,2.217l-51.566,0c-1.223,0 -2.217,-0.995 -2.217,-2.217l0,-35.566c0,-1.222 0.994,-2.217 2.217,-2.217l51.566,0c1.223,0 2.217,0.995 2.217,2.217l0,35.566z"/>
  <path fill="#0098ff" stroke="#0098ff" stroke-opacity="0" id="svg_3" d="m6,18l9,0c0.553,0 1,-0.448 1,-1s-0.447,-1 -1,-1l-9,0c-0.553,0 -1,0.448 -1,1s0.447,1 1,1z"/>
  <path fill="#0098ff" stroke="#0098ff" stroke-opacity="0" id="svg_4" d="m28,16l-9,0c-0.553,0 -1,0.448 -1,1s0.447,1 1,1l9,0c0.553,0 1,-0.448 1,-1s-0.447,-1 -1,-1z"/>
  <path fill="#0098ff" stroke="#0098ff" stroke-opacity="0" id="svg_5" d="m6,23l1,0c0.553,0 1,-0.448 1,-1s-0.447,-1 -1,-1l-1,0c-0.553,0 -1,0.448 -1,1s0.447,1 1,1z"/>
  <path fill="#0098ff" stroke="#0098ff" stroke-opacity="0" id="svg_6" d="m11,21c-0.553,0 -1,0.448 -1,1s0.447,1 1,1l2,0c0.553,0 1,-0.448 1,-1s-0.447,-1 -1,-1l-2,0z"/>
  <path fill="#0098ff" stroke="#0098ff" stroke-opacity="0" id="svg_7" d="m19,22c0,-0.552 -0.447,-1 -1,-1l-1,0c-0.553,0 -1,0.448 -1,1s0.447,1 1,1l1,0c0.553,0 1,-0.448 1,-1z"/>
  <path fill="#0098ff" stroke="#0098ff" stroke-opacity="0" id="svg_8" d="m24,23c0.553,0 1,-0.448 1,-1s-0.447,-1 -1,-1l-2,0c-0.553,0 -1,0.448 -1,1s0.447,1 1,1l2,0z"/>
  <path fill="#0098ff" stroke-opacity="0" stroke="#0098ff" id="svg_9" d="m27.29,21.29c-0.181,0.19 -0.29,0.45 -0.29,0.71c0,0.26 0.109,0.52 0.29,0.71c0.189,0.18 0.45,0.29 0.71,0.29c0.27,0 0.52,-0.11 0.71,-0.29c0.18,-0.19 0.29,-0.45 0.29,-0.71c0,-0.26 -0.11,-0.52 -0.29,-0.71c-0.38,-0.37 -1.05,-0.37 -1.42,0z"/>
  <path fill="#0098ff" stroke="#0098ff" stroke-opacity="0" id="svg_10" d="m37,27l18,0l0,-12l-18,0l0,12zm2,-10l14,0l0,8l-14,0l0,-8z"/>
  <rect stroke="#0098ff" id="svg_32" height="9.302656" width="1.895943" y="35.346367" x="5.251065" stroke-opacity="0" stroke-width="null" fill="#0098ff"/>
  <rect stroke="#0098ff" id="svg_33" height="9.271407" width="1.859491" y="35.377617" x="7.808528" stroke-opacity="0" stroke-width="null" fill="#0098ff"/>
  <rect stroke="#0098ff" id="svg_34" height="9.302656" width="1.880335" y="35.346367" x="10.345146" stroke-opacity="0" stroke-width="null" fill="#0098ff"/>
  <rect stroke="#0098ff" id="svg_35" height="9.333906" width="1.755335" y="35.315118" x="12.907811" stroke-opacity="0" stroke-width="null" fill="#0098ff"/>
  <rect stroke="#0098ff" id="svg_55" height="9.333906" width="1.755335" y="35.346368" x="15.31406" stroke-opacity="0" stroke-width="null" fill="#0098ff"/>
  <rect stroke="#0098ff" id="svg_56" height="9.333906" width="1.755335" y="35.346368" x="17.845309" stroke-opacity="0" stroke-width="null" fill="#0098ff"/>
  <rect stroke="#0098ff" id="svg_57" height="9.333906" width="1.755335" y="35.346368" x="20.407808" stroke-opacity="0" stroke-width="null" fill="#0098ff"/>
  <rect stroke="#0098ff" id="svg_58" height="9.333906" width="1.755335" y="35.377618" x="22.876556" stroke-opacity="0" stroke-width="null" fill="#0098ff"/>
  <rect stroke="#0098ff" id="svg_59" height="9.333906" width="1.755335" y="35.377618" x="25.407805" stroke-opacity="0" stroke-width="null" fill="#0098ff"/>
  <rect stroke="#0098ff" id="svg_60" height="9.333906" width="1.755335" y="35.377618" x="25.407805" stroke-opacity="0" stroke-width="null" fill="#0098ff"/>
  <rect stroke="#0098ff" id="svg_61" height="9.333906" width="1.755335" y="35.346368" x="27.907804" stroke-opacity="0" stroke-width="null" fill="#0098ff"/>
  <rect stroke="#0098ff" id="svg_62" height="9.333906" width="1.755335" y="35.346368" x="30.345303" stroke-opacity="0" stroke-width="null" fill="#0098ff"/>
  <rect stroke="#0098ff" id="svg_63" height="9.333906" width="1.755335" y="35.377618" x="32.845302" stroke-opacity="0" stroke-width="null" fill="#0098ff"/>
 </g>
</svg>