<svg width="512" height="512" xmlns="http://www.w3.org/2000/svg">

 <g>
  <title>background</title>
  <rect fill="none" id="canvas_background" height="402" width="582" y="-1" x="-1"/>
 </g>
 <g>
  <title>Layer 1</title>
  <path fill="#0098ff" id="svg_1" d="m280.479,112.267l0,31.414c6.739,-0.527 13.85,-1.608 21.313,-3.429c-6.929,-12.036 -15.124,-21.62 -21.313,-27.985z"/>
  <path fill="#0098ff" id="svg_2" d="m322.77,222.608c6.733,2.49 13.676,5.564 20.788,9.237c6.993,-11.006 11.464,-23.767 12.576,-37.467l-27.287,0c-0.618,9.52 -2.649,18.937 -6.077,28.23z"/>
  <path fill="#0098ff" id="svg_3" d="m266.983,260.986l0,-34.472c-8.465,0.254 -16.173,1.36 -23.02,2.922c5.509,10.665 13.228,21.192 23.02,31.55z"/>
  <path fill="#0098ff" id="svg_4" d="m211.749,242.261c11.253,12.753 26.363,22.02 43.499,25.948c-10.451,-11.398 -18.632,-23.057 -24.452,-34.938c-8.717,3.111 -15.184,6.618 -19.047,8.99z"/>
  <path fill="#0098ff" id="svg_5" d="m320.998,148.579c3.998,9.776 6.891,20.609 7.764,32.304l27.372,0c-1.233,-15.183 -6.587,-29.213 -14.933,-40.979c-6.913,3.456 -13.656,6.335 -20.203,8.675z"/>
  <rect fill="#0098ff" id="svg_6" y="43.021" x="101.362" width="34.11" height="425.959"/>
  <path fill="#0098ff" id="svg_7" d="m332.221,129.252c-10.201,-10.221 -23.059,-17.786 -37.436,-21.574c6.52,7.241 14.05,16.925 20.391,28.621c5.523,-1.915 11.217,-4.269 17.045,-7.047z"/>
  <path fill="#0098ff" id="svg_8" d="m220.13,194.378l-28.801,0c1.099,13.526 5.476,26.132 12.316,37.042c4.305,-2.715 11.766,-6.892 21.938,-10.595c-3.042,-8.715 -4.865,-17.535 -5.453,-26.447z"/>
  <path fill="#0098ff" id="svg_9" d="m254.614,107.205c-15.475,3.678 -29.272,11.708 -40.027,22.73c4.293,2.413 10.468,5.426 18.314,8.055c6.655,-12.712 14.791,-23.154 21.713,-30.785z"/>
  <path fill="#0098ff" id="svg_10" d="m227.278,150.315c-9.417,-3.279 -16.666,-7.032 -21.414,-9.844c-8.118,11.648 -13.323,25.471 -14.536,40.411l28.867,0c0.823,-11.008 3.444,-21.247 7.083,-30.567z"/>
  <path fill="#0098ff" id="svg_11" d="m238.526,216.87c8.353,-2.086 17.896,-3.579 28.457,-3.875l0,-18.617l-33.309,0c0.589,7.544 2.204,15.046 4.852,22.492z"/>
  <path fill="#0098ff" id="svg_12" d="m233.727,180.883l33.257,0l0,-23.331c-9.796,-0.276 -18.704,-1.591 -26.611,-3.445c-3.348,8.213 -5.806,17.192 -6.646,26.776z"/>
  <path fill="#0098ff" id="svg_13" d="m266.983,144.014l0,-30.188c-6.223,6.587 -14.057,16.078 -20.602,27.795c6.226,1.284 13.122,2.167 20.602,2.393z"/>
  <path fill="#0098ff" id="svg_14" d="m294.148,267.736c16.119,-4.109 30.354,-12.96 41.131,-24.981c-6.145,-3.073 -12.135,-5.644 -17.951,-7.755c-5.67,11.12 -13.433,22.041 -23.18,32.736z"/>
  <path fill="#0098ff" id="svg_15" d="m315.299,194.378l-34.82,0l0,18.906c9.206,0.648 19.036,2.245 29.425,5.146c2.986,-7.958 4.778,-15.981 5.395,-24.052z"/>
  <path fill="#0098ff" id="svg_16" d="m410.638,427.959l0,-343.918c0,-22.655 -18.366,-41.02 -41.021,-41.02l-222.577,0l0,425.959l222.578,0c22.653,-0.001 41.02,-18.366 41.02,-41.021zm-111.87,-7.984l-106.589,0l0,-13.551l106.588,0l0,13.551l0.001,0zm56.515,0l-32.947,0l0,-13.551l32.947,0l0,13.551zm0,-38.431l-163.104,0l0,-13.551l163.104,0l0,13.551zm-138.99,-38.432l0,-13.55l114.877,0l0,13.55l-114.877,0zm57.437,-59.286c-53.042,0 -96.196,-43.154 -96.196,-96.196c0,-53.043 43.154,-96.197 96.196,-96.197c53.043,0 96.197,43.154 96.197,96.197c0.001,53.042 -43.154,96.196 -96.197,96.196z"/>
  <path fill="#0098ff" id="svg_17" d="m307.986,152.616c-9.68,2.572 -18.869,4.023 -27.508,4.636l0,23.631l34.762,0c-0.887,-10.166 -3.592,-19.656 -7.254,-28.267z"/>
  <path fill="#0098ff" id="svg_18" d="m280.479,226.855l0,35.706c10.051,-10.395 17.984,-20.964 23.718,-31.67c-8.343,-2.189 -16.259,-3.452 -23.718,-4.036z"/>
 </g>
</svg>