<svg width="24" height="24" xmlns="http://www.w3.org/2000/svg">

 <g>
  <title>background</title>
  <rect fill="none" id="canvas_background" height="402" width="582" y="-1" x="-1"/>
 </g>
 <g>
  <title>Layer 1</title>
  <path id="svg_1" d="m0,0l24,0l0,24l-24,0l0,-24z" fill="none"/>
  <path transform="rotate(-90 12.000000000000002,12) " id="svg_2" d="m11,18c0,1.1 -0.9,2 -2,2s-2,-0.9 -2,-2s0.9,-2 2,-2s2,0.9 2,2zm-2,-8c-1.1,0 -2,0.9 -2,2s0.9,2 2,2s2,-0.9 2,-2s-0.9,-2 -2,-2zm0,-6c-1.1,0 -2,0.9 -2,2s0.9,2 2,2s2,-0.9 2,-2s-0.9,-2 -2,-2zm6,4c1.1,0 2,-0.9 2,-2s-0.9,-2 -2,-2s-2,0.9 -2,2s0.9,2 2,2zm0,2c-1.1,0 -2,0.9 -2,2s0.9,2 2,2s2,-0.9 2,-2s-0.9,-2 -2,-2zm0,6c-1.1,0 -2,0.9 -2,2s0.9,2 2,2s2,-0.9 2,-2s-0.9,-2 -2,-2z"/>
 </g>
</svg>