<svg version="1.1" width="15" height="15" viewBox="0 0 48 48" xmlns="http://www.w3.org/2000/svg">
    <title>Relotalent Paid</title>
    <desc>Created with Relotalent. Paid Expense</desc>
    <g fill="none" fill-rule="evenodd">
        <g fill="#0098FF">
            <g fill-rule="nonzero">
                <path d="m36 24c-6.627 0-12 5.373-12 12s5.373 12 12 12 12-5.373 12-12-5.373-12-12-12zm0 20.944c-4.971 0-9-4.029-9-9s4.029-9 9-9 9 4.029 9 9-4.029 9-9 9z"/>
                <path d="m3.579 39.368v-35.789h26.842v18.505c1.131-0.454 2.331-0.769 3.579-0.936v-21.148h-34v42.947h22.713c-0.585-1.117-1.03-2.318-1.319-3.579h-17.815z"/>
            </g>
            <g transform="translate(30 32)">
                <polygon points="0 4.6619 1.0605 3.5774 4.2659 6.8554 6.0015 5.0835 5.9836 5.0652 10.94 0 12 1.0845 9.2338 3.9134 9.2517 3.9318 4.2957 8.9969 4.2718 8.9695 4.242 9"/>
            </g>
            <text font-family="Roboto-Black, Roboto" font-size="30" font-weight="700">
                <tspan x="7.81347656" y="31">$</tspan>
            </text>
        </g>
    </g>
</svg>