<?xml version="1.0" encoding="UTF-8"?>
<svg width="26px" height="26px" viewBox="0 0 32 32" version="1.1" xmlns="http://www.w3.org/2000/svg" xmlns:xlink="http://www.w3.org/1999/xlink">
    <!-- Generator: Sketch 49.1 (51147) - http://www.bohemiancoding.com/sketch -->
    <title>Edit filter</title>
    <desc>relotalent</desc>
    <defs></defs>
    <g id="E-mailing-assets" stroke="none" stroke-width="1" fill="none" fill-rule="evenodd">
        <g id="Group-42" fill="#7E8189" fill-rule="nonzero">
            <g id="filter-filled-tool-symbol-copy-2">
                <path d="M12.1565477,15.1209877 C12.4951369,15.4864198 12.681029,15.963786 12.681029,16.4576132 L12.681029,31.0090535 C12.681029,31.8848066 13.7465892,32.329251 14.3772946,31.7135802 L18.4702407,27.0617284 C19.0179585,26.4098765 19.3200332,26.0872099 19.3200332,25.4419753 L19.3200332,16.4609053 C19.3200332,15.9670782 19.5092448,15.4897119 19.8445145,15.1242469 L31.5888797,2.48559671 C32.4685477,1.53744856 31.7914025,0 30.4901245,0 L1.51087137,0 C0.209626556,0 -0.470871369,1.53415638 0.412116183,2.48559671 L12.1565477,15.1209877 Z" id="Shape"></path>
            </g>
            <g id="pencil-edit-button-(1)" transform="translate(21.809129, 21.410788)">
                <path d="M5.44832022,1.46543104 L7.23067069,3.25452903 L2.71904946,7.78327217 L0.937709512,5.99417418 L5.44832022,1.46543104 Z M8.58312996,1.03394163 L7.78827024,0.236065351 C7.48108439,-0.0722862834 6.98227806,-0.0722862834 6.67404855,0.236065351 L5.91265242,1.00035104 L7.69500289,2.78946565 L8.58312996,1.89796808 C8.82138412,1.65879311 8.82138412,1.27309997 8.58312996,1.03394163 Z M0.00496984054,8.50889542 C-0.027466652,8.6554302 0.104333519,8.78673283 0.250330868,8.75109687 L2.23646137,8.26770833 L0.45512143,6.47861034 L0.00496984054,8.50889542 Z" id="Shape"></path>
            </g>
        </g>
    </g>
</svg>
