<?xml version="1.0" standalone="no"?>
<!DOCTYPE svg PUBLIC "-//W3C//DTD SVG 20010904//EN"
 "http://www.w3.org/TR/2001/REC-SVG-20010904/DTD/svg10.dtd">
<svg version="1.0" xmlns="http://www.w3.org/2000/svg"
 width="256.000000pt" height="256.000000pt" viewBox="0 0 256.000000 256.000000"
 preserveAspectRatio="xMidYMid meet">
<metadata>
Created by potrace 1.15, written by Peter Selinger 2001-2017
</metadata>
<g transform="translate(0.000000,256.000000) scale(0.100000,-0.100000)"
fill="#000000" stroke="none">
<path d="M1105 2330 c-3 -5 -21 -10 -39 -10 -47 0 -146 -21 -146 -31 0 -5 -8
-9 -19 -9 -26 0 -226 -98 -277 -137 -17 -13 -36 -23 -42 -23 -7 0 -12 -4 -12
-8 0 -19 -108 -37 -206 -35 -115 3 -98 13 -195 -117 -111 -149 -119 -162 -119
-196 0 -26 8 -38 38 -61 20 -16 51 -35 67 -43 17 -8 32 -18 35 -21 12 -13 157
-79 176 -79 11 0 24 -4 29 -9 16 -15 136 -31 227 -31 86 0 198 17 198 30 0 4
26 13 58 20 31 7 68 18 82 25 14 6 48 18 75 25 28 8 52 16 55 20 3 3 37 14 75
25 39 10 75 21 80 25 28 21 189 31 313 19 70 -6 131 -15 137 -20 5 -5 53 -9
107 -9 117 0 148 13 148 64 0 18 -6 39 -12 48 -20 23 -160 65 -328 98 -25 5
-121 12 -213 16 -92 4 -170 11 -172 15 -3 4 12 18 33 31 34 21 48 23 163 23
76 0 136 -5 150 -12 13 -6 52 -16 86 -23 34 -6 75 -17 90 -25 15 -8 52 -20 80
-26 29 -7 53 -16 53 -20 0 -4 15 -12 33 -18 39 -13 82 -56 90 -90 3 -13 -1
-41 -10 -63 -15 -37 -14 -40 3 -53 11 -8 43 -20 72 -26 28 -7 52 -16 52 -21 0
-16 75 -7 100 12 14 11 33 20 42 20 9 0 19 4 22 9 3 4 29 11 58 13 39 4 56 11
66 27 8 12 25 21 39 21 37 0 63 18 63 43 -1 35 -21 53 -78 66 -28 7 -55 17
-58 22 -3 5 -30 16 -60 25 -29 8 -54 19 -54 23 0 4 -18 14 -40 21 -22 7 -40
16 -40 20 0 4 -18 13 -41 20 -23 8 -43 20 -46 27 -3 7 -10 13 -15 13 -5 0 -23
10 -40 21 -43 31 -314 167 -360 181 -21 6 -38 15 -38 19 0 5 -19 13 -42 20
-24 6 -45 14 -48 18 -3 4 -32 15 -65 25 -33 11 -64 22 -70 26 -16 12 -101 30
-139 30 -19 0 -38 5 -41 10 -3 6 -33 10 -65 10 -32 0 -62 -4 -65 -10z"/>
<path d="M1303 1493 c-7 -2 -13 -11 -13 -19 0 -8 -4 -14 -10 -14 -18 0 -11
-50 12 -80 19 -27 28 -30 75 -30 52 0 53 -1 53 -29 0 -25 -5 -30 -32 -34 -65
-10 -145 -34 -169 -50 -13 -9 -29 -17 -36 -17 -12 0 -77 -38 -133 -77 -43 -31
-130 -115 -130 -127 0 -6 -9 -17 -20 -24 -11 -7 -20 -19 -20 -27 0 -8 -4 -15
-8 -15 -10 0 -42 -65 -42 -85 0 -8 -4 -15 -9 -15 -10 0 -41 -124 -41 -164 0
-15 -6 -26 -12 -26 -7 0 -23 -11 -35 -24 -34 -35 -32 -104 3 -137 l26 -24 723
-3 723 -2 31 26 c27 22 31 32 31 74 0 41 -4 52 -30 73 -19 16 -30 35 -30 51 0
14 -4 26 -8 26 -4 0 -14 27 -20 60 -12 56 -58 161 -74 168 -5 2 -8 8 -8 14 0
26 -98 132 -152 165 -16 10 -28 20 -28 24 0 4 -13 12 -30 19 -16 7 -30 16 -30
21 0 5 -5 9 -10 9 -6 0 -39 13 -74 30 -35 16 -82 32 -105 36 -23 4 -41 10 -41
15 0 5 -13 9 -30 9 -27 0 -30 3 -30 30 0 29 2 30 45 30 34 0 50 6 70 25 31 31
33 77 5 105 -19 19 -33 20 -197 19 -98 0 -184 -3 -190 -6z"/>
<path d="M730 410 c-8 -5 -27 -11 -41 -14 -55 -12 -89 -64 -89 -137 l0 -39
893 2 892 3 3 45 c3 39 -2 51 -30 83 -20 24 -48 43 -73 50 -49 14 -1532 21
-1555 7z"/>
</g>
</svg>
