<?xml version="1.0" standalone="no"?>
<!DOCTYPE svg PUBLIC "-//W3C//DTD SVG 20010904//EN"
 "http://www.w3.org/TR/2001/REC-SVG-20010904/DTD/svg10.dtd">
<svg version="1.0" xmlns="http://www.w3.org/2000/svg"
 width="256.000000pt" height="256.000000pt" viewBox="0 0 256.000000 256.000000"
 preserveAspectRatio="xMidYMid meet">
<metadata>
Created by potrace 1.15, written by Peter Selinger 2001-2017
</metadata>
<g transform="translate(0.000000,256.000000) scale(0.100000,-0.100000)"
fill="#000000" stroke="none">
<path d="M1732 2258 c-7 -7 -12 -36 -12 -65 0 -43 -3 -53 -17 -53 -24 0 -83
-23 -83 -32 0 -18 -23 -6 -57 32 -52 56 -73 53 -145 -20 -32 -33 -58 -67 -58
-76 0 -9 18 -34 40 -55 43 -41 43 -45 6 -114 -9 -16 -16 -38 -16 -47 0 -15 -9
-18 -49 -18 -71 0 -81 -14 -81 -114 0 -50 5 -87 12 -94 7 -7 35 -12 64 -12 51
0 52 0 58 -35 4 -19 11 -35 16 -35 6 0 10 -9 10 -19 0 -11 5 -23 11 -27 6 -4
-5 -21 -30 -44 -23 -21 -41 -48 -41 -59 0 -12 24 -45 55 -76 65 -66 93 -71
143 -23 l33 33 38 -22 c20 -12 54 -24 74 -28 37 -7 37 -8 37 -56 0 -60 14 -69
107 -69 86 1 103 12 103 73 0 46 0 46 43 58 23 6 44 14 47 19 3 4 15 10 27 14
17 5 28 1 44 -18 37 -42 70 -35 134 29 32 32 55 65 55 77 0 12 -16 36 -35 54
-18 19 -30 34 -25 34 6 0 17 27 26 60 l17 59 56 3 56 3 3 95 c3 110 -3 120
-79 120 -46 0 -46 0 -53 39 -3 22 -13 46 -21 55 -23 22 -18 39 20 76 19 19 35
43 35 54 0 11 -25 46 -57 78 -70 71 -98 75 -144 23 -29 -33 -59 -46 -59 -26 0
5 -22 15 -50 22 l-50 13 0 63 0 63 -98 0 c-63 0 -102 -4 -110 -12z m190 -319
c52 -13 132 -93 152 -153 20 -59 20 -105 0 -175 -13 -46 -25 -64 -69 -101 -29
-25 -68 -50 -86 -57 -42 -15 -122 -16 -171 -3 -40 11 -138 93 -138 116 0 8 -4
14 -9 14 -16 0 -34 100 -28 152 12 99 99 194 197 214 55 12 82 10 152 -7z"/>
<path d="M815 1253 c-11 -3 -22 -8 -25 -12 -3 -4 -44 -16 -93 -25 -48 -10 -90
-22 -92 -26 -3 -4 -34 -13 -70 -20 -36 -7 -65 -15 -65 -19 0 -4 -40 -15 -90
-25 -49 -11 -90 -22 -90 -25 0 -4 -41 -16 -90 -26 -50 -10 -90 -23 -90 -27 0
-4 -11 -8 -24 -8 -14 0 -28 -5 -31 -11 -7 -11 22 -147 35 -164 4 -5 13 -36 20
-67 7 -32 16 -58 20 -58 3 0 14 -40 24 -90 11 -49 22 -90 26 -90 4 0 10 -19
14 -41 l7 -41 52 6 c28 4 54 11 57 15 3 4 43 16 90 26 47 10 87 22 90 25 3 3
32 12 65 19 33 7 65 17 70 22 6 4 29 11 50 14 32 5 45 3 64 -14 13 -12 29 -21
35 -21 6 0 29 -14 50 -30 22 -17 46 -30 53 -30 7 0 13 -4 13 -8 0 -5 18 -17
40 -27 22 -10 40 -21 40 -25 0 -3 15 -14 33 -23 17 -9 48 -27 69 -39 141 -88
148 -91 233 -90 50 0 95 6 118 15 20 9 64 21 97 28 33 6 60 15 60 18 0 4 30
13 68 20 37 8 81 19 97 26 17 7 55 19 85 25 30 7 60 15 65 19 6 3 46 16 90 27
44 12 121 33 170 47 50 14 117 33 150 42 33 9 74 23 92 31 17 7 35 14 40 14 5
0 22 14 39 31 26 27 29 38 32 108 5 90 -10 128 -55 151 -15 8 -31 19 -34 24
-10 12 -104 12 -131 -1 -13 -6 -57 -19 -98 -29 -41 -9 -79 -20 -85 -24 -5 -4
-37 -13 -70 -20 -33 -7 -64 -16 -70 -20 -5 -4 -26 -10 -44 -14 -19 -3 -52 -11
-73 -17 l-38 -10 0 -54 c0 -84 -33 -138 -106 -176 -55 -27 -118 -24 -184 9
-30 15 -57 30 -60 33 -5 5 -21 14 -115 63 -22 11 -46 26 -52 32 -7 7 -18 14
-25 17 -10 3 -10 7 -1 17 9 10 15 10 27 -2 8 -8 29 -21 48 -28 18 -8 35 -17
38 -20 3 -4 43 -28 90 -55 69 -39 96 -49 145 -52 54 -4 64 -2 97 24 51 39 63
66 63 140 0 60 -2 67 -33 94 -18 16 -39 29 -47 29 -8 0 -15 4 -15 8 0 5 -19
17 -42 28 -24 10 -45 21 -48 25 -9 11 -208 119 -219 119 -6 0 -11 4 -11 9 0 5
-20 17 -45 28 -25 10 -45 21 -45 24 0 3 -19 14 -42 25 -24 10 -45 21 -48 25
-5 5 -26 17 -115 62 -22 12 -43 26 -47 31 -8 12 -169 18 -203 9z"/>
</g>
</svg>
