<?xml version="1.0" standalone="no"?>
<!DOCTYPE svg PUBLIC "-//W3C//DTD SVG 20010904//EN"
 "http://www.w3.org/TR/2001/REC-SVG-20010904/DTD/svg10.dtd">
<svg version="1.0" xmlns="http://www.w3.org/2000/svg"
 width="256.000000pt" height="256.000000pt" viewBox="0 0 256.000000 256.000000"
 preserveAspectRatio="xMidYMid meet">
<metadata>
Created by potrace 1.15, written by Peter Selinger 2001-2017
</metadata>
<g transform="translate(0.000000,256.000000) scale(0.100000,-0.100000)"
fill="#000000" stroke="none">
<path d="M63 2538 c-54 -58 -75 -294 -39 -427 42 -156 130 -294 272 -431 l94
-89 -31 -50 c-28 -45 -31 -56 -27 -108 7 -90 131 -463 171 -513 21 -27 240
-187 660 -480 613 -429 630 -440 676 -440 26 0 54 6 63 13 29 21 580 818 589
851 12 41 2 87 -24 118 -30 35 -1243 882 -1287 898 -24 9 -110 15 -275 17
-235 4 -241 4 -285 -19 -30 -15 -58 -42 -83 -78 -21 -30 -42 -56 -47 -58 -31
-11 -209 186 -261 289 -59 117 -75 254 -44 372 8 32 15 70 15 86 0 63 -93 96
-137 49z m735 -874 c108 -45 158 -173 107 -274 -31 -60 -112 -110 -180 -110
-100 0 -195 90 -195 185 l0 35 40 -20 c65 -33 111 -26 136 22 24 47 10 84 -44
118 l-47 29 35 15 c45 20 101 20 148 0z"/>
</g>
</svg>
