<?xml version="1.0" standalone="no"?>
<!DOCTYPE svg PUBLIC "-//W3C//DTD SVG 20010904//EN"
 "http://www.w3.org/TR/2001/REC-SVG-20010904/DTD/svg10.dtd">
<svg version="1.0" xmlns="http://www.w3.org/2000/svg"
 width="256.000000pt" height="256.000000pt" viewBox="0 0 256.000000 256.000000"
 preserveAspectRatio="xMidYMid meet">
<metadata>
Created by potrace 1.15, written by Peter Selinger 2001-2017
</metadata>
<g transform="translate(0.000000,256.000000) scale(0.100000,-0.100000)"
fill="#000000" stroke="none">
<path d="M1192 2544 c-95 -25 -168 -89 -211 -184 -26 -56 -28 -176 -5 -243 20
-58 92 -140 153 -173 l46 -25 -97 5 c-59 3 -110 11 -130 20 -19 9 -128 114
-243 234 -115 119 -218 222 -229 229 -29 17 -81 16 -116 -2 -38 -19 -60 -63
-60 -115 0 -40 5 -47 292 -340 242 -247 299 -311 328 -366 l35 -67 3 -758 3
-759 119 0 120 0 0 400 0 400 80 0 80 0 0 -400 0 -400 120 0 119 0 3 759 3
758 35 67 c29 55 85 116 327 361 175 176 295 305 299 320 22 88 -63 173 -150
151 -13 -3 -123 -106 -246 -230 -122 -124 -238 -232 -257 -241 -22 -11 -71
-18 -131 -21 l-97 -5 46 25 c61 33 133 115 153 173 23 67 21 187 -5 243 -44
97 -116 159 -215 185 -70 18 -103 18 -172 -1z"/>
</g>
</svg>
