<?xml version="1.0" encoding="utf-8"?>
<svg xml:space="preserve" viewBox="0 0 100 100" y="0" x="0" xmlns="http://www.w3.org/2000/svg" id="Layer_1" version="1.1" style="height: 100%; width: 100%; background: none; shape-rendering: auto;" width="128px" height="128px"><g class="ldl-scale" style="transform-origin: 50% 50%; transform: scale(0.8);"><g class="ldl-ani" style="transform-origin: 50px 50px;"><g class="ldl-layer"><g class="ldl-ani" style="transform-origin: 50px 50px; transform: rotate(0deg); animation: 1.11111s linear -0.37037s infinite normal forwards running spin-922c9a14-19bd-4763-9725-e74cf426e729;"><path fill="#e15c64" d="M50 92.5C26.6 92.5 7.5 73.4 7.5 50c0-7.5 2-14.8 5.7-21.2.8-1.4 2.6-1.9 4-1.1 1.4.8 1.9 2.6 1.1 4-3.3 5.5-5 11.9-5 18.3 0 20.2 16.5 36.7 36.7 36.7S86.7 70.2 86.7 50 70.2 13.3 50 13.3c-1.6 0-2.9-1.3-2.9-2.9s1.3-2.9 2.9-2.9c23.4 0 42.5 19.1 42.5 42.5S73.4 92.5 50 92.5z" style="fill: rgba(0, 152, 255, 0.27);"></path></g></g><g class="ldl-layer"><g class="ldl-ani" style="transform-origin: 50px 50px; transform: rotate(0deg); animation: 1.11111s linear -0.740741s infinite normal forwards running spin-922c9a14-19bd-4763-9725-e74cf426e729;"><path fill="#f47e5f" d="M79.3 50c0-16.2-13.1-29.3-29.3-29.3-5.1 0-10.2 1.4-14.6 3.9-1.4.8-1.9 2.6-1.1 4 .8 1.4 2.6 1.9 4 1.1 3.6-2.1 7.6-3.1 11.7-3.1C63 26.5 73.5 37 73.5 50S63 73.5 50 73.5 26.5 63 26.5 50c0-1.6-1.3-2.9-2.9-2.9-1.6 0-2.9 1.3-2.9 2.9 0 16.2 13.1 29.3 29.3 29.3 16.2 0 29.3-13.1 29.3-29.3z" style="fill: rgb(0, 152, 255);"></path></g></g><g class="ldl-layer"><g class="ldl-ani" style="transform-origin: 50px 50px; transform: rotate(0deg); animation: 1.11111s linear -1.11111s infinite normal forwards running spin-922c9a14-19bd-4763-9725-e74cf426e729;"><path fill="#f7b26a" d="M66.1 50c0-8.9-7.2-16.1-16.1-16.1-5.7 0-11.1 3.1-13.9 8.1-.8 1.4-.3 3.2 1.1 4 1.4.8 3.2.3 4-1.1 1.8-3.2 5.3-5.2 8.9-5.2 5.7 0 10.3 4.6 10.3 10.3S55.7 60.3 50 60.3c-3.7 0-7.1-2-8.9-5.2-.8-1.4-2.6-1.9-4-1.1-1.4.8-1.9 2.6-1.1 4 2.9 5 8.2 8.1 13.9 8.1 9 0 16.2-7.2 16.2-16.1z" style="fill: rgb(10, 20, 43);"></path></g></g><metadata xmlns:d="https://loading.io/stock/"><d:name>ring</d:name><d:tags>onion,tree ring,curve bar,circle,concentric,c,round,ring,spinner</d:tags><d:license>by</d:license><d:slug>cllf9k</d:slug></metadata></g></g><style id="spin-922c9a14-19bd-4763-9725-e74cf426e729" data-anikit="">@keyframes spin-922c9a14-19bd-4763-9725-e74cf426e729
{
  0% {
    animation-timing-function: cubic-bezier(0.5856,0.0703,0.4143,0.9297);
    transform: rotate(0deg);
  }
  100% {
    transform: rotate(360deg);
  }
}</style><!-- [ldio] generated by https://loading.io/ --></svg>