<?xml version="1.0" encoding="utf-8"?>
<svg xmlns="http://www.w3.org/2000/svg" xmlns:xlink="http://www.w3.org/1999/xlink" style="margin: auto; background: none; display: block; shape-rendering: auto;" width="160px" height="160px" viewBox="0 0 100 100" preserveAspectRatio="xMidYMid">
<defs>
  <clipPath id="ldio-p00cqjow4up-cp" x="0" y="0" width="100" height="100">
    <rect x="0" y="0" width="36.57" height="100">
      <animate attributeName="width" repeatCount="indefinite" dur="1.9607843137254901s" values="0;100;100" keyTimes="0;0.5;1"></animate>
      <animate attributeName="x" repeatCount="indefinite" dur="1.9607843137254901s" values="0;0;100" keyTimes="0;0.5;1"></animate>
    </rect>
  </clipPath>
</defs>
<path fill="none" stroke="#0a142b" stroke-width="2.7928" d="M82 63H18c-7.2 0-13-5.8-13-13v0c0-7.2 5.8-13 13-13h64c7.2 0 13 5.8 13 13v0C95 57.2 89.2 63 82 63z"></path>
<path fill="#0098ff" clip-path="url(#ldio-p00cqjow4up-cp)" d="M81.3 58.7H18.7c-4.8 0-8.7-3.9-8.7-8.7v0c0-4.8 3.9-8.7 8.7-8.7h62.7c4.8 0 8.7 3.9 8.7 8.7v0C90 54.8 86.1 58.7 81.3 58.7z"></path>
<!-- [ldio] generated by https://loading.io/ --></svg>