<?xml version="1.0" encoding="UTF-8"?>
<svg width="26px" height="26px" viewBox="0 0 32 32" version="1.1" xmlns="http://www.w3.org/2000/svg" xmlns:xlink="http://www.w3.org/1999/xlink">
    <!-- Generator: Sketch 49.1 (51147) - http://www.bohemiancoding.com/sketch -->
    <title>Delete filter</title>
    <desc>relotalent</desc>
    <defs></defs>
    <g id="E-mailing-assets" stroke="none" stroke-width="1" fill="none" fill-rule="evenodd">
        <g id="Group-40" fill="#E34A6F" fill-rule="nonzero">
            <g id="filter-filled-tool-symbol-copy">
                <path d="M12.1439503,15.1053182 C12.4821886,15.4703716 12.6678881,15.9472432 12.6678881,16.4405586 L12.6678881,30.9769198 C12.6678881,31.8517653 13.732344,32.2957492 14.3623959,31.6807164 L18.4511005,27.0336852 C18.9982508,26.3825088 19.3000124,26.0601765 19.3000124,25.4156106 L19.3000124,16.4438474 C19.3000124,15.950532 19.489028,15.4736604 19.8239503,15.1085741 L31.5561451,2.48302096 C32.4349016,1.53585535 31.758458,0 30.4585285,0 L1.5093057,0 C0.209409326,0 -0.47038342,1.53256658 0.411689119,2.48302096 L12.1439503,15.1053182 Z" id="Shape"></path>
            </g>
            <g id="plus-black-symbol-(1)-copy" transform="translate(25.798964, 25.798964) rotate(-45.000000) translate(-25.798964, -25.798964) translate(21.421762, 21.421762)">
                <path d="M8.58018715,3.35748821 C8.4640933,3.24141613 8.32308641,3.18340187 8.15734072,3.18340187 L5.57082806,3.18340187 L5.57082806,0.596823881 C5.57082806,0.431078184 5.51277024,0.290114856 5.39674172,0.174042781 C5.28069142,0.0580578146 5.13983698,0 4.97385174,0 L3.78020397,0 C3.6144365,0 3.47349495,0.0579924832 3.35742288,0.174064558 C3.2413508,0.290136633 3.18333654,0.431099961 3.18333654,0.596845658 L3.18333654,3.18342365 L0.596845658,3.18342365 C0.431099961,3.18342365 0.290136633,3.24143791 0.174064558,3.35750998 C0.0579924832,3.47358206 0,3.61441472 0,3.78026931 L0,4.97406951 C0,5.13996764 0.0579707061,5.28082209 0.174042781,5.39678528 C0.290114856,5.5129009 0.431078184,5.57087161 0.596823881,5.57087161 L3.18331476,5.57087161 L3.18331476,8.15749316 C3.18331476,8.32323885 3.24132902,8.46431107 3.3574011,8.58033959 C3.47347317,8.69630278 3.61441472,8.75427348 3.7801822,8.75427348 L4.97391707,8.75427348 C5.13979343,8.75427348 5.28066965,8.69630278 5.3967635,8.58033959 C5.51287913,8.46424574 5.57084983,8.32323885 5.57084983,8.15749316 L5.57084983,5.57087161 L8.15731894,5.57087161 C8.32321708,5.57087161 8.46413685,5.5129009 8.58016537,5.39678528 C8.69621567,5.28082209 8.75425171,5.13996764 8.75425171,4.97406951 L8.75425171,3.78026931 C8.75420815,3.61441472 8.69630278,3.47349495 8.58018715,3.35748821 Z" id="Shape"></path>
            </g>
        </g>
    </g>
</svg>
