<?xml version="1.0" encoding="UTF-8"?>
<svg width="256px" height="256px" viewBox="0 0 256 256" version="1.1" xmlns="http://www.w3.org/2000/svg" xmlns:xlink="http://www.w3.org/1999/xlink">
    <!-- Generator: Sketch 49.1 (51147) - http://www.bohemiancoding.com/sketch -->
    <title>Artboard 8</title>
    <desc>Created with Sketch.</desc>
    <defs></defs>
    <g id="Artboard-8" stroke="none" stroke-width="1" fill="none" fill-rule="evenodd">
        <circle id="Oval-24" stroke="#FFFFFF" stroke-width="15" cx="128" cy="128" r="92.5"></circle>
        <path d="M86.4310345,79.2931034 L170.051724,79.2931034" id="Line" stroke="#FFFFFF" stroke-width="15" stroke-linecap="square"></path>
        <path d="M89.5,169.5 L167.069113,86" id="Line" stroke="#FFFFFF" stroke-width="15" stroke-linecap="square"></path>
        <path d="M86.4310345,176.706897 L170.051724,176.706897" id="Line" stroke="#FFFFFF" stroke-width="15" stroke-linecap="square"></path>
        <path d="M49.5,227.5 L65.5,210.5" id="Line-2" stroke="#FFFFFF" stroke-width="15" stroke-linecap="square"></path>
        <path d="M190.5,227.5 L206.5,210.5" id="Line-2" stroke="#FFFFFF" stroke-width="15" stroke-linecap="square" transform="translate(198.500000, 219.000000) scale(-1, 1) translate(-198.500000, -219.000000) "></path>
        <path d="M71.8198052,56.8198052 C71.8198052,40.2512627 58.3883476,26.8198052 41.8198052,26.8198052 C25.2512627,26.8198052 11.8198052,40.2512627 11.8198052,56.8198052" id="Oval-24" fill="#FFFFFF" transform="translate(41.819805, 41.819805) rotate(-45.000000) translate(-41.819805, -41.819805) "></path>
        <path d="M244.819805,56.8198052 C244.819805,40.2512627 231.388348,26.8198052 214.819805,26.8198052 C198.251263,26.8198052 184.819805,40.2512627 184.819805,56.8198052" id="Oval-24" fill="#FFFFFF" transform="translate(214.819805, 41.819805) rotate(45.000000) translate(-214.819805, -41.819805) "></path>
    </g>
</svg>