<?xml version="1.0" encoding="utf-8"?>
<!-- Generator: Adobe Illustrator 19.2.1, SVG Export Plug-In . SVG Version: 6.00 Build 0)  -->
<svg version="1.1" id="Layer_1" xmlns="http://www.w3.org/2000/svg" xmlns:xlink="http://www.w3.org/1999/xlink" x="0px" y="0px"
	 viewBox="0 0 380 768" style="enable-background:new 0 0 380 768;" xml:space="preserve">
<style type="text/css">
	.st0{opacity:0.6;}
	.st1{clip-path:url(#SVGID_2_);}
	.st2{clip-path:url(#SVGID_4_);}
	.st3{clip-path:url(#SVGID_6_);fill:#72C595;}
	.st4{clip-path:url(#SVGID_8_);}
	.st5{clip-path:url(#SVGID_10_);fill:#498ECC;}
	.st6{clip-path:url(#SVGID_12_);}
	.st7{clip-path:url(#SVGID_14_);fill:#8CD5E7;}
</style>
<g class="st0">
	<g>
		<defs>
			<rect id="SVGID_1_" x="-202.3" y="-755.1" width="2595" height="2474.3"/>
		</defs>
		<clipPath id="SVGID_2_">
			<use xlink:href="#SVGID_1_"  style="overflow:visible;"/>
		</clipPath>
		<g class="st1">
			<g>
				<defs>
					<rect id="SVGID_3_" x="-202.3" y="-755.1" width="2595" height="2474.3"/>
				</defs>
				<clipPath id="SVGID_4_">
					<use xlink:href="#SVGID_3_"  style="overflow:visible;"/>
				</clipPath>
				<g class="st2">
					<g>
						<g>
							<defs>
								<rect id="SVGID_5_" x="1194.2" y="-713.6" width="1198.5" height="2407.9"/>
							</defs>
							<clipPath id="SVGID_6_">
								<use xlink:href="#SVGID_5_"  style="overflow:visible;"/>
							</clipPath>
							<path class="st3" d="M2392.7-252.5L1293.2-713.6l-99,41.5l1000.5,419.6c0,0,22.7,1523.2-1000.5,1913.6
								c32,12.2,64.9,23.3,99,33.2C2416.9,1367.4,2392.7-252.5,2392.7-252.5"/>
						</g>
					</g>
					<g>
						<defs>
							<rect id="SVGID_7_" x="-202.3" y="-755.1" width="2595" height="2474.3"/>
						</defs>
						<clipPath id="SVGID_8_">
							<use xlink:href="#SVGID_7_"  style="overflow:visible;"/>
						</clipPath>
						<g class="st4">
							<g>
								<g>
									<defs>
										<rect id="SVGID_9_" x="-202.3" y="-755.1" width="1297.5" height="2474.3"/>
									</defs>
									<clipPath id="SVGID_10_">
										<use xlink:href="#SVGID_9_"  style="overflow:visible;"/>
									</clipPath>
									<path class="st5" d="M-4.3-252.5l1099.5-461.1l-98.9-41.5l0,0l0,0l0,0L-202.3-252.5c0,0-25.8,1713.9,1198.5,1971.7l0,0
										c34-7.2,66.9-15.6,98.9-24.9C-28.5,1367.4-4.3-252.5-4.3-252.5"/>
								</g>
							</g>
							<g>
								<defs>
									<rect id="SVGID_11_" x="-202.3" y="-755.1" width="2595" height="2474.3"/>
								</defs>
								<clipPath id="SVGID_12_">
									<use xlink:href="#SVGID_11_"  style="overflow:visible;"/>
								</clipPath>
								<g class="st6">
									<g>
										<g>
											<defs>
												<rect id="SVGID_13_" x="-4.3" y="-713.6" width="1198.5" height="2407.9"/>
											</defs>
											<clipPath id="SVGID_14_">
												<use xlink:href="#SVGID_13_"  style="overflow:visible;"/>
											</clipPath>
											<path class="st7" d="M193.6-252.5l1000.5-419.6l-99-41.5L-4.3-252.5c0,0-24.2,1619.9,1099.5,1946.8
												c34.1-9.9,67-21,99-33.2C170.9,1270.6,193.6-252.5,193.6-252.5"/>
										</g>
									</g>
								</g>
							</g>
						</g>
					</g>
				</g>
			</g>
		</g>
	</g>
</g>
</svg>
