<?xml version="1.0" encoding="UTF-8"?>
<svg width="32px" height="32px" viewBox="0 0 472 472" version="1.1" xmlns="http://www.w3.org/2000/svg" xmlns:xlink="http://www.w3.org/1999/xlink">
    <title>alarm-clock</title>
    <desc>relotalent</desc>
    <defs></defs>
    <g id="E-mailing-assets" stroke="none" stroke-width="1" fill="none" fill-rule="evenodd">
        <g id="alarm-clock" transform="translate(0.000000, -1.000000)" fill="#FFFFFF" fill-rule="nonzero">
            <path d="M409.753906,88.164062 C428.5625,106.972656 443.957031,128.292969 455.625,151.363281 C467.183594,134.027344 472.5,113.445312 470.65625,92.386719 C468.511719,67.875 456.953125,45.667969 438.105469,29.855469 L429.34375,22.503906 C393.101562,-7.910156 340.113281,-5.554688 306.636719,26.355469 C345.179688,37.917969 380.496094,58.90625 409.753906,88.164062 Z" id="Shape"></path>
            <path d="M61.203125,88.164062 C90.460938,58.90625 125.777344,37.917969 164.324219,26.355469 C130.84375,-5.558594 77.855469,-7.910156 41.613281,22.503906 L32.851562,29.855469 C-3.386719,60.265625 -10.273438,112.847656 15.335938,151.359375 C27.003906,128.289062 42.394531,106.972656 61.203125,88.164062 Z" id="Shape"></path>
            <path d="M235.476562,247.496094 C227.238281,247.496094 220.539062,254.199219 220.539062,262.4375 C220.539062,270.675781 227.242188,277.375 235.476562,277.375 C243.714844,277.375 250.417969,270.675781 250.417969,262.4375 C250.417969,254.199219 243.714844,247.496094 235.476562,247.496094 Z" id="Shape"></path>
            <path d="M235.476562,123.015625 C158.601562,123.015625 96.058594,185.558594 96.058594,262.4375 C96.058594,339.316406 158.601562,401.859375 235.476562,401.859375 C312.355469,401.859375 374.898438,339.316406 374.898438,262.4375 C374.898438,185.558594 312.355469,123.015625 235.476562,123.015625 Z M277.835938,277.4375 C271.648438,294.867188 255,307.378906 235.476562,307.378906 C210.695312,307.378906 190.535156,287.21875 190.535156,262.4375 C190.535156,242.917969 203.050781,226.269531 220.476562,220.078125 L220.476562,153.054688 L250.480469,153.054688 L250.480469,220.078125 C263.210938,224.601562 273.316406,234.703125 277.835938,247.4375 L344.859375,247.4375 L344.859375,277.4375 L277.835938,277.4375 Z" id="Shape"></path>
            <path d="M356.464844,441.992188 C367.855469,434.28125 378.597656,425.4375 388.535156,415.496094 C429.421875,374.613281 451.9375,320.257812 451.9375,262.4375 C451.9375,204.617188 429.421875,150.261719 388.535156,109.378906 C347.652344,68.496094 293.296875,45.980469 235.476562,45.980469 C177.660156,45.980469 123.304688,68.496094 82.417969,109.378906 C41.535156,150.261719 19.019531,204.617188 19.019531,262.4375 C19.019531,320.257812 41.535156,374.613281 82.417969,415.496094 C92.359375,425.4375 103.101562,434.28125 114.492188,441.992188 L99.449219,468.042969 L82.15625,498 L108.136719,513 L125.40625,483.085938 L140.453125,457.027344 C169.671875,471.328125 201.992188,478.894531 235.476562,478.894531 C268.964844,478.894531 301.285156,471.328125 330.503906,457.027344 L345.546875,483.085938 L362.816406,513 L388.800781,498 L371.503906,468.042969 L356.464844,441.992188 Z M66.054688,262.4375 C66.054688,169.015625 142.058594,93.015625 235.476562,93.015625 C328.898438,93.015625 404.902344,169.015625 404.902344,262.4375 C404.902344,355.859375 328.898438,431.863281 235.476562,431.863281 C142.058594,431.863281 66.054688,355.859375 66.054688,262.4375 Z" id="Shape"></path>
        </g>
    </g>
</svg>
