<?xml version="1.0" encoding="UTF-8"?>
<svg width="26px" height="26px" viewBox="0 0 32 32" version="1.1" xmlns="http://www.w3.org/2000/svg" xmlns:xlink="http://www.w3.org/1999/xlink">
    <!-- Generator: Sketch 49.1 (51147) - http://www.bohemiancoding.com/sketch -->
    <title>Add new filter</title>
    <desc>relotalent</desc>
    <defs></defs>
    <g id="E-mailing-assets" stroke="none" stroke-width="1" fill="none" fill-rule="evenodd">
        <g id="Group-41" fill="#FFFFFF" fill-rule="nonzero">
            <g id="filter-filled-tool-symbol">
                <path d="M12.1565477,15.1209877 C12.4951369,15.4864198 12.681029,15.963786 12.681029,16.4576132 L12.681029,31.0090535 C12.681029,31.8848066 13.7465892,32.329251 14.3772946,31.7135802 L18.4702407,27.0617284 C19.0179585,26.4098765 19.3200332,26.0872099 19.3200332,25.4419753 L19.3200332,16.4609053 C19.3200332,15.9670782 19.5092448,15.4897119 19.8445145,15.1242469 L31.5888797,2.48559671 C32.4685477,1.53744856 31.7914025,0 30.4901245,0 L1.51087137,0 C0.209626556,0 -0.470871369,1.53415638 0.412116183,2.48559671 L12.1565477,15.1209877 Z" id="Shape"></path>
            </g>
            <g id="plus-black-symbol-(1)" transform="translate(21.676349, 21.676349)">
                <path d="M8.58923732,3.36102124 C8.47302102,3.24482703 8.3318654,3.18675172 8.16594488,3.18675172 L5.57670403,3.18675172 L5.57670403,0.59745191 C5.57670403,0.431531802 5.51858498,0.290420139 5.40243407,0.174225924 C5.28626137,0.0581189079 5.14525836,0 4.97909803,0 L3.78419124,0 C3.61824892,0 3.47715871,0.0580535078 3.3609642,0.174247724 C3.2447697,0.290441939 3.18669425,0.431553602 3.18669425,0.59747371 L3.18669425,3.18677352 L0.597475196,3.18677352 C0.431554675,3.18677352 0.290442662,3.24484883 0.174248157,3.36104304 C0.0580536522,3.47723726 0,3.61821812 0,3.78424723 L0,4.97930365 C0,5.14537636 0.0580318521,5.28637902 0.174226357,5.40246423 C0.290420862,5.51870205 0.431532875,5.57673376 0.597453396,5.57673376 L3.18667245,5.57673376 L3.18667245,8.16607717 C3.18667245,8.33199728 3.2447479,8.47321794 3.3609424,8.58936855 C3.47713691,8.70545377 3.61822712,8.76348548 3.78416944,8.76348548 L4.97916343,8.76348548 C5.14521476,8.76348548 5.28623957,8.70545377 5.40245587,8.58936855 C5.51869398,8.47315254 5.57672583,8.33199728 5.57672583,8.16607717 L5.57672583,5.57673376 L8.16592308,5.57673376 C8.3319962,5.57673376 8.47306462,5.51870205 8.58921552,5.40246423 C8.70538822,5.28637902 8.76348548,5.14537636 8.76348548,4.97930365 L8.76348548,3.78424723 C8.76344188,3.61821812 8.70547543,3.47715006 8.58923732,3.36102124 Z" id="Shape"></path>
            </g>
        </g>
    </g>
</svg>
